<svg width="288" height="291" viewBox="0 0 288 291" fill="none" xmlns="http://www.w3.org/2000/svg">
<path d="M160.41 13.8086L213.247 33.4765L266.973 80.7338L282.976 146.872L266.973 221.616L239.824 257.71L199.279 276.883L150.221 290.71L93.6167 279.873L59.5002 263.393L21.113 218.774L7.20337 155.114L19.2059 86.6217L54.7483 48.5614L97.7677 23.8981L160.41 13.8086Z" fill="white"/>
<path d="M142.459 19.9805L204.385 41.4442L256.731 85.8436L272.474 143.406L256.731 217.57L225.379 256.13L142.459 283.433L72.1771 259.528L28.1871 217.57L17.7053 157.001L28.1871 85.8436L76.149 46.5423L142.459 19.9805Z" fill="black"/>
<path d="M142.44 33.8467L197.116 52.8299L243.334 92.0981L257.234 143.008L243.334 208.601L217.659 243.883L143.406 269.598L78.7971 246.455L41.5452 208.601L32.2905 155.031L41.5452 92.0981L83.8923 57.3388L142.44 33.8467Z" fill="#3F3F3F"/>
<path d="M257.336 152.377C263.311 134.776 253.712 112.879 246.602 90.7383C230.464 77.0333 218.039 61.6747 200.839 51.3398L142.969 152.377H257.336Z" fill="#7A2889"/>
<path d="M200.918 51.0865C183.649 40.8743 161.323 35.0385 142.969 30.2239C130.127 34.8885 103.07 40.9975 85.7319 51.0866L142.969 152.377L200.918 51.0865Z" fill="#3080A3"/>
<path d="M85.785 50.9303C68.5156 61.1426 55.2856 74.1835 39.3875 88.5817C35.788 106.58 28.7274 131.953 28.5888 152.377L142.969 152.377L85.785 50.9303Z" fill="#3C9146"/>
<path d="M28.6012 152.377C28.6012 172.802 30.7018 191.239 40.6122 208.962C50.5227 226.686 67.6323 240.378 84.832 250.712L142.969 152.377L28.6012 152.377Z" fill="#FFCC00"/>
<path d="M199.568 252.062C221.316 249.213 232.114 228.965 244.999 212.569C251.012 193.269 254.589 173.108 258.061 152.377L142.969 152.377L199.568 252.062Z" fill="#670000"/>
<mask id="path-9-outside-1_302_2115" maskUnits="userSpaceOnUse" x="54.7191" y="162.449" width="50.9417" height="55.0972" fill="black">
<rect fill="white" x="54.7191" y="162.449" width="50.9417" height="55.0972"/>
<path d="M76.8748 181.264C77.1256 182.158 77.725 182.754 78.673 183.053C79.6211 183.352 81.1188 183.596 83.1663 183.786C85.517 183.991 87.5023 184.314 89.1221 184.757C90.7729 185.191 92.3006 186.075 93.7053 187.409C95.1408 188.735 96.1207 190.686 96.6449 193.265C97.2679 196.314 96.6662 199.025 94.8397 201.399C93.044 203.764 90.2667 205.474 86.508 206.529C84.3205 207.143 81.8573 207.485 79.1186 207.556L79.1379 209.046L70.958 211.342L65.4003 192.96L79.0626 191.369L79.0714 193.71C79.9724 193.723 80.7311 193.643 81.3472 193.47C82.3023 193.202 82.6805 192.713 82.4816 192.005C82.3692 191.604 81.929 191.279 81.1609 191.029C80.4236 190.771 79.1059 190.576 77.2076 190.444C74.7337 190.274 72.6184 190.02 70.8618 189.682C69.1273 189.305 67.6379 188.676 66.3937 187.795C65.1495 186.915 64.3026 185.673 63.8529 184.071C63.6714 183.424 63.56 182.791 63.519 182.171C63.3488 180.025 63.8894 178.162 65.1408 176.581C66.3835 174.969 68.114 173.852 70.3323 173.229C72.1809 172.71 74.2473 172.612 76.5315 172.935L76.2591 171.965L88.8222 168.589L89.1879 183.392L79.2163 182.502L79.1514 182.271C78.8872 181.447 78.5756 180.87 78.2167 180.539C77.88 180.168 77.5576 180.026 77.2495 180.112C77.0646 180.164 76.9365 180.3 76.8651 180.519C76.7938 180.739 76.797 180.987 76.8748 181.264Z"/>
</mask>
<path d="M76.8748 181.264C77.1256 182.158 77.725 182.754 78.673 183.053C79.6211 183.352 81.1188 183.596 83.1663 183.786C85.517 183.991 87.5023 184.314 89.1221 184.757C90.7729 185.191 92.3006 186.075 93.7053 187.409C95.1408 188.735 96.1207 190.686 96.6449 193.265C97.2679 196.314 96.6662 199.025 94.8397 201.399C93.044 203.764 90.2667 205.474 86.508 206.529C84.3205 207.143 81.8573 207.485 79.1186 207.556L79.1379 209.046L70.958 211.342L65.4003 192.96L79.0626 191.369L79.0714 193.71C79.9724 193.723 80.7311 193.643 81.3472 193.47C82.3023 193.202 82.6805 192.713 82.4816 192.005C82.3692 191.604 81.929 191.279 81.1609 191.029C80.4236 190.771 79.1059 190.576 77.2076 190.444C74.7337 190.274 72.6184 190.02 70.8618 189.682C69.1273 189.305 67.6379 188.676 66.3937 187.795C65.1495 186.915 64.3026 185.673 63.8529 184.071C63.6714 183.424 63.56 182.791 63.519 182.171C63.3488 180.025 63.8894 178.162 65.1408 176.581C66.3835 174.969 68.114 173.852 70.3323 173.229C72.1809 172.71 74.2473 172.612 76.5315 172.935L76.2591 171.965L88.8222 168.589L89.1879 183.392L79.2163 182.502L79.1514 182.271C78.8872 181.447 78.5756 180.87 78.2167 180.539C77.88 180.168 77.5576 180.026 77.2495 180.112C77.0646 180.164 76.9365 180.3 76.8651 180.519C76.7938 180.739 76.797 180.987 76.8748 181.264Z" fill="black"/>
<path d="M78.673 183.053L77.4701 186.868L77.4701 186.868L78.673 183.053ZM83.1663 183.786L82.797 187.769L82.8084 187.77L82.8197 187.771L83.1663 183.786ZM89.1221 184.757L88.0675 188.615L88.0861 188.62L88.1048 188.625L89.1221 184.757ZM93.7053 187.409L90.9508 190.31L90.9712 190.329L90.9918 190.348L93.7053 187.409ZM96.6449 193.265L92.725 194.062L92.7258 194.066L96.6449 193.265ZM94.8397 201.399L91.6695 198.96L91.6616 198.97L91.6538 198.98L94.8397 201.399ZM79.1186 207.556L79.0154 203.557L75.0675 203.659L75.1189 207.608L79.1186 207.556ZM79.1379 209.046L80.2188 212.897L83.1776 212.067L83.1376 208.994L79.1379 209.046ZM70.958 211.342L67.1292 212.5L68.2639 216.253L72.0388 215.193L70.958 211.342ZM65.4003 192.96L64.9376 188.987L60.1874 189.54L61.5714 194.118L65.4003 192.96ZM79.0626 191.369L83.0626 191.354L83.0457 186.878L78.6 187.396L79.0626 191.369ZM79.0714 193.71L75.0714 193.725L75.0862 197.653L79.0136 197.709L79.0714 193.71ZM81.1609 191.029L79.8378 194.804L79.8807 194.819L79.9239 194.833L81.1609 191.029ZM77.2076 190.444L77.485 186.453L77.4816 186.453L77.2076 190.444ZM70.8618 189.682L70.0114 193.591L70.0587 193.601L70.1062 193.61L70.8618 189.682ZM66.3937 187.795L68.7044 184.53V184.53L66.3937 187.795ZM63.519 182.171L67.5103 181.907L67.5085 181.881L67.5065 181.855L63.519 182.171ZM65.1408 176.581L68.2772 179.063L68.293 179.043L68.3085 179.023L65.1408 176.581ZM76.5315 172.935L75.9718 176.896L82.0382 177.753L80.3827 171.854L76.5315 172.935ZM76.2591 171.965L75.221 168.102L71.315 169.152L72.4079 173.046L76.2591 171.965ZM88.8222 168.589L92.8209 168.49L92.6953 163.406L87.784 164.726L88.8222 168.589ZM89.1879 183.392L88.832 187.377L93.2974 187.775L93.1867 183.294L89.1879 183.392ZM79.2163 182.502L75.3651 183.583L76.111 186.24L78.8604 186.486L79.2163 182.502ZM79.1514 182.271L83.0026 181.19L82.9826 181.118L82.96 181.048L79.1514 182.271ZM78.2167 180.539L75.2554 183.228L75.3738 183.358L75.5033 183.478L78.2167 180.539ZM76.8651 180.519L80.6691 181.756L80.6691 181.756L76.8651 180.519ZM76.8748 181.264L73.0236 182.345C73.6691 184.645 75.3438 186.197 77.4701 186.868L78.673 183.053L79.876 179.238C79.9047 179.247 80.1063 179.32 80.3333 179.546C80.5694 179.78 80.6837 180.033 80.726 180.183L76.8748 181.264ZM78.673 183.053L77.4701 186.868C78.8465 187.302 80.6998 187.575 82.797 187.769L83.1663 183.786L83.5355 179.803C81.5379 179.618 80.3957 179.402 79.876 179.238L78.673 183.053ZM83.1663 183.786L82.8197 187.771C85.019 187.962 86.7513 188.256 88.0675 188.615L89.1221 184.757L90.1768 180.898C88.2532 180.373 86.0149 180.019 83.5128 179.801L83.1663 183.786ZM89.1221 184.757L88.1048 188.625C89.0205 188.866 89.9675 189.376 90.9508 190.31L93.7053 187.409L96.4598 184.509C94.6336 182.774 92.5252 181.516 90.1395 180.888L89.1221 184.757ZM93.7053 187.409L90.9918 190.348C91.6287 190.936 92.3111 192.025 92.725 194.062L96.6449 193.265L100.565 192.468C99.9303 189.348 98.653 186.533 96.4187 184.47L93.7053 187.409ZM96.6449 193.265L92.7258 194.066C93.1268 196.028 92.757 197.546 91.6695 198.96L94.8397 201.399L98.0099 203.838C100.575 200.504 101.409 196.6 100.564 192.464L96.6449 193.265ZM94.8397 201.399L91.6538 198.98C90.5296 200.461 88.6107 201.785 85.4271 202.678L86.508 206.529L87.5888 210.38C91.9228 209.164 95.5584 207.067 98.0255 203.818L94.8397 201.399ZM86.508 206.529L85.4271 202.678C83.6155 203.186 81.4888 203.494 79.0154 203.557L79.1186 207.556L79.2217 211.555C82.2259 211.477 85.0254 211.1 87.5888 210.38L86.508 206.529ZM79.1186 207.556L75.1189 207.608L75.1383 209.098L79.1379 209.046L83.1376 208.994L83.1182 207.504L79.1186 207.556ZM79.1379 209.046L78.0571 205.195L69.8771 207.491L70.958 211.342L72.0388 215.193L80.2188 212.897L79.1379 209.046ZM70.958 211.342L74.7868 210.184L69.2291 191.802L65.4003 192.96L61.5714 194.118L67.1292 212.5L70.958 211.342ZM65.4003 192.96L65.8629 196.933L79.5252 195.342L79.0626 191.369L78.6 187.396L64.9376 188.987L65.4003 192.96ZM79.0626 191.369L75.0626 191.384L75.0714 193.725L79.0714 193.71L83.0714 193.695L83.0626 191.354L79.0626 191.369ZM79.0714 193.71L79.0136 197.709C80.1558 197.726 81.3248 197.631 82.4281 197.321L81.3472 193.47L80.2664 189.619C80.1373 189.655 79.7891 189.72 79.1292 189.71L79.0714 193.71ZM81.3472 193.47L82.4281 197.321C83.2695 197.085 84.5624 196.575 85.5099 195.351C86.6279 193.908 86.7004 192.234 86.3328 190.924L82.4816 192.005L78.6304 193.086C78.5597 192.834 78.4893 192.419 78.5667 191.903C78.6477 191.361 78.8692 190.861 79.1844 190.454C79.7538 189.718 80.3801 189.587 80.2664 189.619L81.3472 193.47ZM82.4816 192.005L86.3328 190.924C85.6269 188.409 83.3122 187.523 82.3978 187.225L81.1609 191.029L79.9239 194.833C80.0746 194.882 79.9389 194.861 79.6907 194.678C79.4216 194.479 78.8809 193.978 78.6304 193.086L82.4816 192.005ZM81.1609 191.029L82.484 187.255C81.1836 186.799 79.3753 186.585 77.485 186.453L77.2076 190.444L76.9302 194.434C77.8157 194.496 78.5101 194.569 79.0335 194.646C79.2934 194.685 79.4917 194.721 79.637 194.753C79.7874 194.787 79.8458 194.807 79.8378 194.804L81.1609 191.029ZM77.2076 190.444L77.4816 186.453C75.1126 186.291 73.1674 186.052 71.6173 185.754L70.8618 189.682L70.1062 193.61C72.0694 193.988 74.3548 194.257 76.9336 194.434L77.2076 190.444ZM70.8618 189.682L71.7121 185.774C70.4173 185.492 69.4439 185.054 68.7044 184.53L66.3937 187.795L64.083 191.06C65.8319 192.298 67.8372 193.118 70.0114 193.591L70.8618 189.682ZM66.3937 187.795L68.7044 184.53C68.2791 184.229 67.9302 183.796 67.7041 182.991L63.8529 184.071L60.0017 185.152C60.6749 187.551 62.0198 189.6 64.083 191.06L66.3937 187.795ZM63.8529 184.071L67.7041 182.991C67.5914 182.589 67.5316 182.229 67.5103 181.907L63.519 182.171L59.5277 182.435C59.5885 183.353 59.7514 184.26 60.0017 185.152L63.8529 184.071ZM63.519 182.171L67.5065 181.855C67.4103 180.641 67.6977 179.795 68.2772 179.063L65.1408 176.581L62.0044 174.098C60.0812 176.528 59.2874 179.409 59.5315 182.487L63.519 182.171ZM65.1408 176.581L68.3085 179.023C68.9571 178.182 69.9095 177.502 71.4132 177.08L70.3323 173.229L69.2515 169.378C66.3186 170.201 63.8099 171.756 61.9731 174.138L65.1408 176.581ZM70.3323 173.229L71.4132 177.08C72.6321 176.738 74.1277 176.635 75.9718 176.896L76.5315 172.935L77.0912 168.975C74.3669 168.59 71.7297 168.683 69.2515 169.378L70.3323 173.229ZM76.5315 172.935L80.3827 171.854L80.1103 170.884L76.2591 171.965L72.4079 173.046L72.6803 174.016L76.5315 172.935ZM76.2591 171.965L77.2973 175.828L89.8603 172.451L88.8222 168.589L87.784 164.726L75.221 168.102L76.2591 171.965ZM88.8222 168.589L84.8234 168.687L85.1891 183.491L89.1879 183.392L93.1867 183.294L92.8209 168.49L88.8222 168.589ZM89.1879 183.392L89.5438 179.408L79.5722 178.518L79.2163 182.502L78.8604 186.486L88.832 187.377L89.1879 183.392ZM79.2163 182.502L83.0675 181.421L83.0026 181.19L79.1514 182.271L75.3002 183.351L75.3651 183.583L79.2163 182.502ZM79.1514 182.271L82.96 181.048C82.6249 180.004 82.0506 178.634 80.9301 177.6L78.2167 180.539L75.5033 183.478C75.381 183.365 75.3021 183.268 75.2584 183.208C75.2145 183.149 75.1969 183.115 75.1995 183.12C75.2018 183.124 75.2182 183.155 75.2449 183.22C75.2714 183.285 75.3047 183.374 75.3429 183.493L79.1514 182.271ZM78.2167 180.539L81.178 177.85C80.4538 177.052 78.6607 175.562 76.1686 176.261L77.2495 180.112L78.3303 183.963C77.4992 184.197 76.7045 184.077 76.1084 183.814C75.5894 183.585 75.3163 183.295 75.2554 183.228L78.2167 180.539ZM77.2495 180.112L76.1686 176.261C74.4238 176.751 73.4503 178.086 73.0612 179.282L76.8651 180.519L80.6691 181.756C80.564 182.079 80.3501 182.547 79.923 182.999C79.4744 183.474 78.9146 183.799 78.3303 183.963L77.2495 180.112ZM76.8651 180.519L73.0612 179.282C72.6913 180.42 72.7855 181.497 73.0236 182.345L76.8748 181.264L80.726 180.183C80.8086 180.477 80.8963 181.057 80.6691 181.756L76.8651 180.519Z" fill="white" mask="url(#path-9-outside-1_302_2115)"/>
<mask id="path-11-outside-2_302_2115" maskUnits="userSpaceOnUse" x="51.9928" y="90.9599" width="53.0922" height="47.2384" fill="black">
<rect fill="white" x="51.9928" y="90.9599" width="53.0922" height="47.2384"/>
<path d="M99.3607 108.607L97.4459 108.368L97.3986 118.306L99.5135 118.213L99.1576 132.993L82.5764 131.681L84.8066 118.819L85.7195 118.793L86.5016 112.234L81.5911 124.743L76.9283 124.967L73.4431 114.176L73.1506 118.346L74.0121 118.463L74.4326 130.909L59.639 131.129L59.9949 116.349L61.6698 116.582L60.5659 104.6L58.4123 104.308L57.923 96.7096L73.5185 97.0852L79.9691 110.348L83.7511 96.8514L100.087 96.3805L99.3607 108.607Z"/>
</mask>
<path d="M99.3607 108.607L97.4459 108.368L97.3986 118.306L99.5135 118.213L99.1576 132.993L82.5764 131.681L84.8066 118.819L85.7195 118.793L86.5016 112.234L81.5911 124.743L76.9283 124.967L73.4431 114.176L73.1506 118.346L74.0121 118.463L74.4326 130.909L59.639 131.129L59.9949 116.349L61.6698 116.582L60.5659 104.6L58.4123 104.308L57.923 96.7096L73.5185 97.0852L79.9691 110.348L83.7511 96.8514L100.087 96.3805L99.3607 108.607Z" fill="black"/>
<path d="M99.3607 108.607L98.867 112.576L103.101 113.103L103.354 108.844L99.3607 108.607ZM97.4459 108.368L97.9396 104.399L93.4673 103.843L93.4459 108.349L97.4459 108.368ZM97.3986 118.306L93.3987 118.287L93.3787 122.487L97.5746 122.302L97.3986 118.306ZM99.5135 118.213L103.512 118.309L103.615 114.029L99.3375 114.217L99.5135 118.213ZM99.1576 132.993L98.8422 136.98L103.055 137.313L103.156 133.089L99.1576 132.993ZM82.5764 131.681L78.6352 130.998L77.8853 135.323L82.261 135.669L82.5764 131.681ZM84.8066 118.819L84.6926 114.821L81.4241 114.914L80.8654 118.136L84.8066 118.819ZM85.7195 118.793L85.8335 122.792L89.2828 122.693L89.6914 119.267L85.7195 118.793ZM86.5016 112.234L90.4735 112.708L82.7782 110.772L86.5016 112.234ZM81.5911 124.743L81.7829 128.739L84.3686 128.615L85.3145 126.205L81.5911 124.743ZM76.9283 124.967L73.122 126.197L74.0627 129.109L77.1201 128.963L76.9283 124.967ZM73.4431 114.176L77.2495 112.947L69.4529 113.896L73.4431 114.176ZM73.1506 118.346L69.1604 118.067L68.8981 121.807L72.6133 122.31L73.1506 118.346ZM74.0121 118.463L78.0098 118.328L77.8957 114.953L74.5494 114.499L74.0121 118.463ZM74.4326 130.909L74.4921 134.909L78.568 134.848L78.4303 130.774L74.4326 130.909ZM59.639 131.129L55.6402 131.033L55.5401 135.19L59.6985 135.128L59.639 131.129ZM59.9949 116.349L60.5446 112.387L56.104 111.771L55.996 116.253L59.9949 116.349ZM61.6698 116.582L61.1201 120.544L66.1156 121.237L65.6529 116.215L61.6698 116.582ZM60.5659 104.6L64.549 104.233L64.257 101.063L61.1032 100.636L60.5659 104.6ZM58.4123 104.308L54.4206 104.565L54.6309 107.832L57.875 108.271L58.4123 104.308ZM57.923 96.7096L58.0193 92.7108L53.6505 92.6056L53.9313 96.9667L57.923 96.7096ZM73.5185 97.0852L77.1156 95.3357L76.0502 93.145L73.6148 93.0863L73.5185 97.0852ZM79.9691 110.348L76.372 112.098L80.9788 121.57L83.8208 111.428L79.9691 110.348ZM83.7511 96.8514L83.6359 92.8531L80.6937 92.9379L79.8995 95.7721L83.7511 96.8514ZM100.087 96.3805L104.08 96.6178L104.339 92.2563L99.9719 92.3822L100.087 96.3805ZM99.3607 108.607L99.8544 104.637L97.9396 104.399L97.4459 108.368L96.9521 112.338L98.867 112.576L99.3607 108.607ZM97.4459 108.368L93.4459 108.349L93.3987 118.287L97.3986 118.306L101.399 118.325L101.446 108.387L97.4459 108.368ZM97.3986 118.306L97.5746 122.302L99.6894 122.209L99.5135 118.213L99.3375 114.217L97.2227 114.31L97.3986 118.306ZM99.5135 118.213L95.5146 118.117L95.1588 132.896L99.1576 132.993L103.156 133.089L103.512 118.309L99.5135 118.213ZM99.1576 132.993L99.473 129.005L82.8918 127.694L82.5764 131.681L82.261 135.669L98.8422 136.98L99.1576 132.993ZM82.5764 131.681L86.5176 132.365L88.7478 119.503L84.8066 118.819L80.8654 118.136L78.6352 130.998L82.5764 131.681ZM84.8066 118.819L84.9206 122.818L85.8335 122.792L85.7195 118.793L85.6055 114.795L84.6926 114.821L84.8066 118.819ZM85.7195 118.793L89.6914 119.267L90.4735 112.708L86.5016 112.234L82.5298 111.76L81.7477 118.32L85.7195 118.793ZM86.5016 112.234L82.7782 110.772L77.8677 123.282L81.5911 124.743L85.3145 126.205L90.225 113.696L86.5016 112.234ZM81.5911 124.743L81.3993 120.748L76.7366 120.972L76.9283 124.967L77.1201 128.963L81.7829 128.739L81.5911 124.743ZM76.9283 124.967L80.7347 123.738L77.2495 112.947L73.4431 114.176L69.6367 115.406L73.122 126.197L76.9283 124.967ZM73.4431 114.176L69.4529 113.896L69.1604 118.067L73.1506 118.346L77.1408 118.626L77.4333 114.456L73.4431 114.176ZM73.1506 118.346L72.6133 122.31L73.4748 122.427L74.0121 118.463L74.5494 114.499L73.6879 114.383L73.1506 118.346ZM74.0121 118.463L70.0143 118.598L70.4349 131.044L74.4326 130.909L78.4303 130.774L78.0098 118.328L74.0121 118.463ZM74.4326 130.909L74.3731 126.909L59.5796 127.129L59.639 131.129L59.6985 135.128L74.4921 134.909L74.4326 130.909ZM59.639 131.129L63.6379 131.225L63.9937 116.445L59.9949 116.349L55.996 116.253L55.6402 131.033L59.639 131.129ZM59.9949 116.349L59.4452 120.311L61.1201 120.544L61.6698 116.582L62.2195 112.62L60.5446 112.387L59.9949 116.349ZM61.6698 116.582L65.6529 116.215L64.549 104.233L60.5659 104.6L56.5828 104.967L57.6866 116.949L61.6698 116.582ZM60.5659 104.6L61.1032 100.636L58.9496 100.344L58.4123 104.308L57.875 108.271L60.0286 108.563L60.5659 104.6ZM58.4123 104.308L62.404 104.051L61.9148 96.4526L57.923 96.7096L53.9313 96.9667L54.4206 104.565L58.4123 104.308ZM57.923 96.7096L57.8268 100.708L73.4222 101.084L73.5185 97.0852L73.6148 93.0863L58.0193 92.7108L57.923 96.7096ZM73.5185 97.0852L69.9214 98.8346L76.372 112.098L79.9691 110.348L83.5663 108.599L77.1156 95.3357L73.5185 97.0852ZM79.9691 110.348L83.8208 111.428L87.6028 97.9307L83.7511 96.8514L79.8995 95.7721L76.1175 109.269L79.9691 110.348ZM83.7511 96.8514L83.8664 100.85L100.202 100.379L100.087 96.3805L99.9719 92.3822L83.6359 92.8531L83.7511 96.8514ZM100.087 96.3805L96.0942 96.1432L95.3677 108.369L99.3607 108.607L103.354 108.844L104.08 96.6178L100.087 96.3805Z" fill="white" mask="url(#path-11-outside-2_302_2115)"/>
<mask id="path-13-outside-3_302_2115" maskUnits="userSpaceOnUse" x="123.625" y="45.885" width="38.1206" height="47.877" fill="black">
<rect fill="white" x="123.625" y="45.885" width="38.1206" height="47.877"/>
<path d="M129.064 87.0006L129.516 74.1918L131.443 73.9501L132.486 62.5479L129.325 62.1837L130.191 52.1696L148.065 51.6397L147.762 64.2121L142.686 63.6577L143.148 72.3594L155.335 70.7322L155.862 88.7501L129.064 87.0006Z"/>
</mask>
<path d="M129.064 87.0006L129.516 74.1918L131.443 73.9501L132.486 62.5479L129.325 62.1837L130.191 52.1696L148.065 51.6397L147.762 64.2121L142.686 63.6577L143.148 72.3594L155.335 70.7322L155.862 88.7501L129.064 87.0006Z" fill="black"/>
<path d="M129.064 87.0006L125.066 86.8594L124.929 90.7392L128.803 90.9921L129.064 87.0006ZM129.516 74.1918L129.018 70.2229L125.639 70.6469L125.519 74.0506L129.516 74.1918ZM131.443 73.9501L131.941 77.9189L135.133 77.5184L135.426 74.3144L131.443 73.9501ZM132.486 62.5479L136.469 62.9121L136.825 59.0214L132.944 58.5742L132.486 62.5479ZM129.325 62.1837L125.34 61.8393L125.006 65.7123L128.868 66.1574L129.325 62.1837ZM130.191 52.1696L130.072 48.1714L126.512 48.2769L126.206 51.8253L130.191 52.1696ZM148.065 51.6397L152.064 51.736L152.165 47.5164L147.946 47.6415L148.065 51.6397ZM147.762 64.2121L147.328 68.1884L151.656 68.6611L151.761 64.3083L147.762 64.2121ZM142.686 63.6577L143.12 59.6813L138.442 59.1704L138.691 63.8701L142.686 63.6577ZM143.148 72.3594L139.154 72.5718L139.384 76.8975L143.678 76.3242L143.148 72.3594ZM155.335 70.7322L159.333 70.6154L159.204 66.1802L154.806 66.7674L155.335 70.7322ZM155.862 88.7501L155.601 92.7416L159.988 93.0281L159.86 88.6333L155.862 88.7501ZM129.064 87.0006L133.061 87.1418L133.514 74.333L129.516 74.1918L125.519 74.0506L125.066 86.8594L129.064 87.0006ZM129.516 74.1918L130.014 78.1606L131.941 77.9189L131.443 73.9501L130.945 69.9812L129.018 70.2229L129.516 74.1918ZM131.443 73.9501L135.426 74.3144L136.469 62.9121L132.486 62.5479L128.502 62.1836L127.459 73.5858L131.443 73.9501ZM132.486 62.5479L132.944 58.5742L129.783 58.21L129.325 62.1837L128.868 66.1574L132.028 66.5216L132.486 62.5479ZM129.325 62.1837L133.311 62.528L134.176 52.514L130.191 52.1696L126.206 51.8253L125.34 61.8393L129.325 62.1837ZM130.191 52.1696L130.309 56.1679L148.183 55.6379L148.065 51.6397L147.946 47.6415L130.072 48.1714L130.191 52.1696ZM148.065 51.6397L144.066 51.5434L143.763 64.1158L147.762 64.2121L151.761 64.3083L152.064 51.736L148.065 51.6397ZM147.762 64.2121L148.196 60.2357L143.12 59.6813L142.686 63.6577L142.252 67.6341L147.328 68.1884L147.762 64.2121ZM142.686 63.6577L138.691 63.8701L139.154 72.5718L143.148 72.3594L147.143 72.147L146.68 63.4453L142.686 63.6577ZM143.148 72.3594L143.678 76.3242L155.865 74.6971L155.335 70.7322L154.806 66.7674L142.619 68.3946L143.148 72.3594ZM155.335 70.7322L151.337 70.8491L151.863 88.867L155.862 88.7501L159.86 88.6333L159.333 70.6154L155.335 70.7322ZM155.862 88.7501L156.122 84.7586L129.325 83.0091L129.064 87.0006L128.803 90.9921L155.601 92.7416L155.862 88.7501Z" fill="white" mask="url(#path-13-outside-3_302_2115)"/>
<mask id="path-15-outside-4_302_2115" maskUnits="userSpaceOnUse" x="178.341" y="93.794" width="61.9692" height="42.4565" fill="black">
<rect fill="white" x="178.341" y="93.794" width="61.9692" height="42.4565"/>
<path d="M203.439 116.061L204.928 119.057L209.812 120.615L209.952 129.742L199.92 129.3L198.058 125.174L195.806 129.001L183.3 128.26L185.128 113.819L190.047 113.938L191.828 111.42L191.182 110.004L186.125 108.962L185.578 98.4657L195.078 99.4147L197.293 103.789L199.902 100.131L211.64 99.5334L209.596 114.609L204.691 113.93L203.439 116.061ZM212.814 129.61L213.191 118.936L214.796 118.735L215.665 109.233L213.032 108.93L213.753 100.585L228.648 100.143L228.395 110.62L224.165 110.158L224.551 117.409L234.706 116.053L235.145 131.068L212.814 129.61Z"/>
</mask>
<path d="M203.439 116.061L204.928 119.057L209.812 120.615L209.952 129.742L199.92 129.3L198.058 125.174L195.806 129.001L183.3 128.26L185.128 113.819L190.047 113.938L191.828 111.42L191.182 110.004L186.125 108.962L185.578 98.4657L195.078 99.4147L197.293 103.789L199.902 100.131L211.64 99.5334L209.596 114.609L204.691 113.93L203.439 116.061ZM212.814 129.61L213.191 118.936L214.796 118.735L215.665 109.233L213.032 108.93L213.753 100.585L228.648 100.143L228.395 110.62L224.165 110.158L224.551 117.409L234.706 116.053L235.145 131.068L212.814 129.61Z" fill="black"/>
<path d="M203.439 116.061L199.991 114.035L198.894 115.901L199.857 117.84L203.439 116.061ZM204.928 119.057L201.345 120.837L202.098 122.354L203.712 122.868L204.928 119.057ZM209.812 120.615L213.811 120.554L213.767 117.679L211.027 116.805L209.812 120.615ZM209.952 129.742L209.776 133.738L214.017 133.924L213.951 129.68L209.952 129.742ZM199.92 129.3L196.273 130.945L197.285 133.188L199.744 133.296L199.92 129.3ZM198.058 125.174L201.705 123.529L198.529 116.49L194.611 123.145L198.058 125.174ZM195.806 129.001L195.569 132.994L198.011 133.139L199.253 131.03L195.806 129.001ZM183.3 128.26L179.332 127.757L178.794 132L183.063 132.253L183.3 128.26ZM185.128 113.819L185.224 109.821L181.613 109.734L181.16 113.317L185.128 113.819ZM190.047 113.938L189.95 117.937L192.081 117.988L193.312 116.248L190.047 113.938ZM191.828 111.42L195.093 113.73L196.422 111.852L195.467 109.759L191.828 111.42ZM191.182 110.004L194.821 108.343L193.978 106.496L191.989 106.086L191.182 110.004ZM186.125 108.962L182.131 109.17L182.292 112.256L185.318 112.88L186.125 108.962ZM185.578 98.4657L185.975 94.4856L181.341 94.0226L181.583 98.6741L185.578 98.4657ZM195.078 99.4147L198.646 97.6076L197.656 95.6523L195.475 95.4345L195.078 99.4147ZM197.293 103.789L193.724 105.596L196.711 111.494L200.55 106.112L197.293 103.789ZM199.902 100.131L199.698 96.1362L197.768 96.2345L196.645 97.8086L199.902 100.131ZM211.64 99.5334L215.603 100.071L216.251 95.2934L211.436 95.5386L211.64 99.5334ZM209.596 114.609L209.048 118.571L213.021 119.12L213.56 115.146L209.596 114.609ZM204.691 113.93L205.239 109.968L202.594 109.602L201.242 111.904L204.691 113.93ZM203.439 116.061L199.857 117.84L201.345 120.837L204.928 119.057L208.51 117.278L207.022 114.282L203.439 116.061ZM204.928 119.057L203.712 122.868L208.596 124.426L209.812 120.615L211.027 116.805L206.143 115.247L204.928 119.057ZM209.812 120.615L205.812 120.677L205.952 129.803L209.952 129.742L213.951 129.68L213.811 120.554L209.812 120.615ZM209.952 129.742L210.128 125.745L200.096 125.304L199.92 129.3L199.744 133.296L209.776 133.738L209.952 129.742ZM199.92 129.3L203.566 127.655L201.705 123.529L198.058 125.174L194.412 126.819L196.273 130.945L199.92 129.3ZM198.058 125.174L194.611 123.145L192.359 126.972L195.806 129.001L199.253 131.03L201.506 127.203L198.058 125.174ZM195.806 129.001L196.042 125.008L183.537 124.267L183.3 128.26L183.063 132.253L195.569 132.994L195.806 129.001ZM183.3 128.26L187.268 128.762L189.096 114.322L185.128 113.819L181.16 113.317L179.332 127.757L183.3 128.26ZM185.128 113.819L185.032 117.818L189.95 117.937L190.047 113.938L190.143 109.939L185.224 109.821L185.128 113.819ZM190.047 113.938L193.312 116.248L195.093 113.73L191.828 111.42L188.562 109.11L186.781 111.628L190.047 113.938ZM191.828 111.42L195.467 109.759L194.821 108.343L191.182 110.004L187.543 111.664L188.189 113.08L191.828 111.42ZM191.182 110.004L191.989 106.086L186.933 105.044L186.125 108.962L185.318 112.88L190.374 113.922L191.182 110.004ZM186.125 108.962L190.12 108.754L189.572 98.2574L185.578 98.4657L181.583 98.6741L182.131 109.17L186.125 108.962ZM185.578 98.4657L185.18 102.446L194.68 103.395L195.078 99.4147L195.475 95.4345L185.975 94.4856L185.578 98.4657ZM195.078 99.4147L191.509 101.222L193.724 105.596L197.293 103.789L200.861 101.982L198.646 97.6076L195.078 99.4147ZM197.293 103.789L200.55 106.112L203.158 102.453L199.902 100.131L196.645 97.8086L194.036 101.467L197.293 103.789ZM199.902 100.131L200.105 104.126L211.843 103.528L211.64 99.5334L211.436 95.5386L199.698 96.1362L199.902 100.131ZM211.64 99.5334L207.676 98.9961L205.632 114.071L209.596 114.609L213.56 115.146L215.603 100.071L211.64 99.5334ZM209.596 114.609L210.144 110.646L205.239 109.968L204.691 113.93L204.143 117.893L209.048 118.571L209.596 114.609ZM204.691 113.93L201.242 111.904L199.991 114.035L203.439 116.061L206.888 118.087L208.14 115.956L204.691 113.93ZM212.814 129.61L208.816 129.469L208.679 133.349L212.553 133.602L212.814 129.61ZM213.191 118.936L212.693 114.967L209.314 115.391L209.193 118.795L213.191 118.936ZM214.796 118.735L215.294 122.704L218.486 122.303L218.779 119.099L214.796 118.735ZM215.665 109.233L219.648 109.597L220.004 105.707L216.123 105.259L215.665 109.233ZM213.032 108.93L209.046 108.585L208.712 112.458L212.574 112.903L213.032 108.93ZM213.753 100.585L213.634 96.5863L210.074 96.6919L209.768 100.24L213.753 100.585ZM228.648 100.143L232.646 100.239L232.748 96.0196L228.529 96.1447L228.648 100.143ZM228.395 110.62L227.961 114.596L232.289 115.069L232.394 110.716L228.395 110.62ZM224.165 110.158L224.6 106.182L219.921 105.671L220.171 110.37L224.165 110.158ZM224.551 117.409L220.556 117.622L220.786 121.947L225.08 121.374L224.551 117.409ZM234.706 116.053L238.705 115.937L238.575 111.501L234.177 112.089L234.706 116.053ZM235.145 131.068L234.885 135.06L239.272 135.346L239.143 130.952L235.145 131.068ZM212.814 129.61L216.811 129.752L217.188 119.078L213.191 118.936L209.193 118.795L208.816 129.469L212.814 129.61ZM213.191 118.936L213.689 122.905L215.294 122.704L214.796 118.735L214.298 114.766L212.693 114.967L213.191 118.936ZM214.796 118.735L218.779 119.099L219.648 109.597L215.665 109.233L211.682 108.869L210.813 118.371L214.796 118.735ZM215.665 109.233L216.123 105.259L213.49 104.956L213.032 108.93L212.574 112.903L215.207 113.207L215.665 109.233ZM213.032 108.93L217.017 109.274L217.738 100.929L213.753 100.585L209.768 100.24L209.046 108.585L213.032 108.93ZM213.753 100.585L213.871 104.583L228.766 104.141L228.648 100.143L228.529 96.1447L213.634 96.5863L213.753 100.585ZM228.648 100.143L224.649 100.047L224.397 110.524L228.395 110.62L232.394 110.716L232.646 100.239L228.648 100.143ZM228.395 110.62L228.83 106.644L224.6 106.182L224.165 110.158L223.731 114.134L227.961 114.596L228.395 110.62ZM224.165 110.158L220.171 110.37L220.556 117.622L224.551 117.409L228.545 117.197L228.16 109.946L224.165 110.158ZM224.551 117.409L225.08 121.374L235.236 120.018L234.706 116.053L234.177 112.089L224.021 113.445L224.551 117.409ZM234.706 116.053L230.708 116.17L231.147 131.185L235.145 131.068L239.143 130.952L238.705 115.937L234.706 116.053ZM235.145 131.068L235.406 127.077L213.074 125.619L212.814 129.61L212.553 133.602L234.885 135.06L235.145 131.068Z" fill="white" mask="url(#path-15-outside-4_302_2115)"/>
<mask id="path-17-outside-5_302_2115" maskUnits="userSpaceOnUse" x="160.742" y="153.814" width="90.0967" height="64.144" fill="black">
<rect fill="white" x="160.742" y="153.814" width="90.0967" height="64.144"/>
<path d="M188.868 193.242L191.111 195.252L195.713 194.927L198.871 202.51L190.336 205.484L187.406 202.654L186.797 206.604L176.095 210.151L172.812 197.47L176.963 195.93L177.613 193.231L176.602 192.263L172.027 193.076L168.072 184.483L176.33 182.111L179.64 185.031L180.602 181.103L190.217 176.692L193.531 189.977L189.204 191.044L188.868 193.242ZM212.897 184.33L215.14 186.339L219.742 186.014L222.9 193.597L214.366 196.571L211.435 193.742L210.826 197.692L200.124 201.239L196.841 188.557L200.993 187.017L201.643 184.319L200.631 183.35L196.056 184.164L192.101 175.571L200.36 173.199L203.669 176.118L204.632 172.19L214.246 167.78L217.56 181.064L213.234 182.131L212.897 184.33ZM225.249 192.534L222.008 183.485L223.283 182.781L220.843 174.548L218.541 175.172L216.363 167.954L228.669 162.622L231.949 171.466L228.258 172.489L230.997 178.423L239.035 173.905L244.405 186.312L225.249 192.534Z"/>
</mask>
<path d="M188.868 193.242L191.111 195.252L195.713 194.927L198.871 202.51L190.336 205.484L187.406 202.654L186.797 206.604L176.095 210.151L172.812 197.47L176.963 195.93L177.613 193.231L176.602 192.263L172.027 193.076L168.072 184.483L176.33 182.111L179.64 185.031L180.602 181.103L190.217 176.692L193.531 189.977L189.204 191.044L188.868 193.242ZM212.897 184.33L215.14 186.339L219.742 186.014L222.9 193.597L214.366 196.571L211.435 193.742L210.826 197.692L200.124 201.239L196.841 188.557L200.993 187.017L201.643 184.319L200.631 183.35L196.056 184.164L192.101 175.571L200.36 173.199L203.669 176.118L204.632 172.19L214.246 167.78L217.56 181.064L213.234 182.131L212.897 184.33ZM225.249 192.534L222.008 183.485L223.283 182.781L220.843 174.548L218.541 175.172L216.363 167.954L228.669 162.622L231.949 171.466L228.258 172.489L230.997 178.423L239.035 173.905L244.405 186.312L225.249 192.534Z" fill="black"/>
<path d="M188.868 193.242L184.914 192.637L184.586 194.777L186.199 196.221L188.868 193.242ZM191.111 195.252L188.441 198.231L189.703 199.361L191.392 199.242L191.111 195.252ZM195.713 194.927L199.405 193.389L198.3 190.735L195.431 190.937L195.713 194.927ZM198.871 202.51L200.187 206.287L204.196 204.891L202.564 200.972L198.871 202.51ZM190.336 205.484L187.558 208.361L189.329 210.07L191.652 209.261L190.336 205.484ZM187.406 202.654L190.184 199.776L184.628 194.413L183.452 202.045L187.406 202.654ZM186.797 206.604L188.056 210.401L190.378 209.631L190.751 207.213L186.797 206.604ZM176.095 210.151L172.222 211.154L173.294 215.294L177.353 213.948L176.095 210.151ZM172.812 197.47L171.421 193.719L168.034 194.975L168.939 198.472L172.812 197.47ZM176.963 195.93L178.354 199.68L180.353 198.939L180.852 196.867L176.963 195.93ZM177.613 193.231L181.502 194.168L182.041 191.932L180.379 190.341L177.613 193.231ZM176.602 192.263L179.367 189.373L177.9 187.969L175.901 188.325L176.602 192.263ZM172.027 193.076L168.393 194.749L169.685 197.556L172.727 197.015L172.027 193.076ZM168.072 184.483L166.968 180.639L162.491 181.925L164.438 186.156L168.072 184.483ZM176.33 182.111L178.976 179.112L177.333 177.662L175.226 178.267L176.33 182.111ZM179.64 185.031L176.994 188.03L181.952 192.404L183.525 185.982L179.64 185.031ZM180.602 181.103L178.934 177.467L177.177 178.273L176.717 180.151L180.602 181.103ZM190.217 176.692L194.098 175.724L192.931 171.046L188.549 173.057L190.217 176.692ZM193.531 189.977L194.489 193.86L198.383 192.9L197.412 189.008L193.531 189.977ZM189.204 191.044L188.246 187.16L185.654 187.8L185.25 190.439L189.204 191.044ZM188.868 193.242L186.199 196.221L188.441 198.231L191.111 195.252L193.78 192.273L191.537 190.263L188.868 193.242ZM191.111 195.252L191.392 199.242L195.994 198.917L195.713 194.927L195.431 190.937L190.829 191.262L191.111 195.252ZM195.713 194.927L192.02 196.465L195.178 204.048L198.871 202.51L202.564 200.972L199.405 193.389L195.713 194.927ZM198.871 202.51L197.555 198.733L189.02 201.706L190.336 205.484L191.652 209.261L200.187 206.287L198.871 202.51ZM190.336 205.484L193.115 202.606L190.184 199.776L187.406 202.654L184.627 205.532L187.558 208.361L190.336 205.484ZM187.406 202.654L183.452 202.045L182.844 205.995L186.797 206.604L190.751 207.213L191.359 203.263L187.406 202.654ZM186.797 206.604L185.539 202.807L174.836 206.355L176.095 210.151L177.353 213.948L188.056 210.401L186.797 206.604ZM176.095 210.151L179.967 209.149L176.684 196.467L172.812 197.47L168.939 198.472L172.222 211.154L176.095 210.151ZM172.812 197.47L174.203 201.22L178.354 199.68L176.963 195.93L175.572 192.179L171.421 193.719L172.812 197.47ZM176.963 195.93L180.852 196.867L181.502 194.168L177.613 193.231L173.725 192.294L173.075 194.993L176.963 195.93ZM177.613 193.231L180.379 190.341L179.367 189.373L176.602 192.263L173.836 195.152L174.848 196.121L177.613 193.231ZM176.602 192.263L175.901 188.325L171.327 189.138L172.027 193.076L172.727 197.015L177.302 196.201L176.602 192.263ZM172.027 193.076L175.661 191.404L171.705 182.811L168.072 184.483L164.438 186.156L168.393 194.749L172.027 193.076ZM168.072 184.483L169.176 188.328L177.435 185.956L176.33 182.111L175.226 178.267L166.968 180.639L168.072 184.483ZM176.33 182.111L173.685 185.111L176.994 188.03L179.64 185.031L182.286 182.031L178.976 179.112L176.33 182.111ZM179.64 185.031L183.525 185.982L184.487 182.055L180.602 181.103L176.717 180.151L175.755 184.079L179.64 185.031ZM180.602 181.103L182.27 184.739L191.885 180.328L190.217 176.692L188.549 173.057L178.934 177.467L180.602 181.103ZM190.217 176.692L186.336 177.661L189.65 190.945L193.531 189.977L197.412 189.008L194.098 175.724L190.217 176.692ZM193.531 189.977L192.573 186.093L188.246 187.16L189.204 191.044L190.162 194.928L194.489 193.86L193.531 189.977ZM189.204 191.044L185.25 190.439L184.914 192.637L188.868 193.242L192.822 193.848L193.158 191.649L189.204 191.044ZM212.897 184.33L208.943 183.724L208.615 185.864L210.228 187.309L212.897 184.33ZM215.14 186.339L212.471 189.318L213.732 190.448L215.421 190.329L215.14 186.339ZM219.742 186.014L223.435 184.477L222.329 181.822L219.461 182.024L219.742 186.014ZM222.9 193.597L224.216 197.375L228.225 195.978L226.593 192.06L222.9 193.597ZM214.366 196.571L211.587 199.449L213.358 201.158L215.682 200.348L214.366 196.571ZM211.435 193.742L214.213 190.864L208.657 185.5L207.481 193.133L211.435 193.742ZM210.826 197.692L212.085 201.489L214.407 200.719L214.78 198.301L210.826 197.692ZM200.124 201.239L196.252 202.241L197.323 206.381L201.382 205.036L200.124 201.239ZM196.841 188.557L195.45 184.807L192.063 186.063L192.969 189.56L196.841 188.557ZM200.993 187.017L202.384 190.768L204.382 190.026L204.881 187.954L200.993 187.017ZM201.643 184.319L205.532 185.256L206.07 183.019L204.409 181.429L201.643 184.319ZM200.631 183.35L203.397 180.46L201.93 179.056L199.93 179.412L200.631 183.35ZM196.056 184.164L192.423 185.836L193.715 188.643L196.757 188.102L196.056 184.164ZM192.101 175.571L190.997 171.726L186.52 173.012L188.468 177.243L192.101 175.571ZM200.36 173.199L203.006 170.199L201.362 168.749L199.256 169.354L200.36 173.199ZM203.669 176.118L201.024 179.118L205.982 183.491L207.555 177.07L203.669 176.118ZM204.632 172.19L202.964 168.555L201.207 169.361L200.747 171.239L204.632 172.19ZM214.246 167.78L218.127 166.811L216.96 162.134L212.578 164.144L214.246 167.78ZM217.56 181.064L218.518 184.948L222.412 183.987L221.442 180.096L217.56 181.064ZM213.234 182.131L212.276 178.248L209.684 178.887L209.28 181.526L213.234 182.131ZM212.897 184.33L210.228 187.309L212.471 189.318L215.14 186.339L217.809 183.36L215.566 181.351L212.897 184.33ZM215.14 186.339L215.421 190.329L220.024 190.005L219.742 186.014L219.461 182.024L214.858 182.349L215.14 186.339ZM219.742 186.014L216.05 187.552L219.208 195.135L222.9 193.597L226.593 192.06L223.435 184.477L219.742 186.014ZM222.9 193.597L221.584 189.82L213.05 192.794L214.366 196.571L215.682 200.348L224.216 197.375L222.9 193.597ZM214.366 196.571L217.144 193.693L214.213 190.864L211.435 193.742L208.657 196.619L211.587 199.449L214.366 196.571ZM211.435 193.742L207.481 193.133L206.873 197.083L210.826 197.692L214.78 198.301L215.388 194.35L211.435 193.742ZM210.826 197.692L209.568 193.895L198.866 197.442L200.124 201.239L201.382 205.036L212.085 201.489L210.826 197.692ZM200.124 201.239L203.996 200.236L200.713 187.555L196.841 188.557L192.969 189.56L196.252 202.241L200.124 201.239ZM196.841 188.557L198.232 192.307L202.384 190.768L200.993 187.017L199.602 183.267L195.45 184.807L196.841 188.557ZM200.993 187.017L204.881 187.954L205.532 185.256L201.643 184.319L197.754 183.382L197.104 186.08L200.993 187.017ZM201.643 184.319L204.409 181.429L203.397 180.46L200.631 183.35L197.865 186.24L198.877 187.208L201.643 184.319ZM200.631 183.35L199.93 179.412L195.356 180.226L196.056 184.164L196.757 188.102L201.331 187.288L200.631 183.35ZM196.056 184.164L199.69 182.491L195.735 173.898L192.101 175.571L188.468 177.243L192.423 185.836L196.056 184.164ZM192.101 175.571L193.205 179.415L201.464 177.043L200.36 173.199L199.256 169.354L190.997 171.726L192.101 175.571ZM200.36 173.199L197.714 176.199L201.024 179.118L203.669 176.118L206.315 173.118L203.006 170.199L200.36 173.199ZM203.669 176.118L207.555 177.07L208.517 173.142L204.632 172.19L200.747 171.239L199.784 175.166L203.669 176.118ZM204.632 172.19L206.3 175.826L215.914 171.415L214.246 167.78L212.578 164.144L202.964 168.555L204.632 172.19ZM214.246 167.78L210.365 168.748L213.679 182.033L217.56 181.064L221.442 180.096L218.127 166.811L214.246 167.78ZM217.56 181.064L216.603 177.181L212.276 178.248L213.234 182.131L214.192 186.015L218.518 184.948L217.56 181.064ZM213.234 182.131L209.28 181.526L208.943 183.724L212.897 184.33L216.851 184.935L217.188 182.737L213.234 182.131ZM225.249 192.534L221.483 193.883L222.793 197.538L226.485 196.339L225.249 192.534ZM222.008 183.485L220.076 179.982L217.094 181.627L218.242 184.833L222.008 183.485ZM223.283 182.781L225.215 186.284L228.032 184.73L227.118 181.645L223.283 182.781ZM220.843 174.548L224.679 173.411L223.569 169.666L219.798 170.687L220.843 174.548ZM218.541 175.172L214.711 176.327L215.834 180.049L219.586 179.032L218.541 175.172ZM216.363 167.954L214.772 164.284L211.505 165.7L212.533 169.11L216.363 167.954ZM228.669 162.622L232.419 161.231L230.951 157.274L227.078 158.952L228.669 162.622ZM231.949 171.466L233.017 175.32L237.213 174.157L235.699 170.075L231.949 171.466ZM228.258 172.489L227.189 168.634L222.654 169.892L224.626 174.165L228.258 172.489ZM230.997 178.423L227.365 180.099L229.18 184.032L232.956 181.91L230.997 178.423ZM239.035 173.905L242.706 172.317L240.944 168.245L237.076 170.418L239.035 173.905ZM244.405 186.312L245.641 190.117L249.822 188.759L248.076 184.724L244.405 186.312ZM225.249 192.534L229.015 191.185L225.774 182.136L222.008 183.485L218.242 184.833L221.483 193.883L225.249 192.534ZM222.008 183.485L223.94 186.987L225.215 186.284L223.283 182.781L221.351 179.279L220.076 179.982L222.008 183.485ZM223.283 182.781L227.118 181.645L224.679 173.411L220.843 174.548L217.008 175.684L219.448 183.918L223.283 182.781ZM220.843 174.548L219.798 170.687L217.495 171.311L218.541 175.172L219.586 179.032L221.889 178.409L220.843 174.548ZM218.541 175.172L222.37 174.016L220.192 166.799L216.363 167.954L212.533 169.11L214.711 176.327L218.541 175.172ZM216.363 167.954L217.953 171.625L230.259 166.292L228.669 162.622L227.078 158.952L214.772 164.284L216.363 167.954ZM228.669 162.622L224.918 164.013L228.198 172.857L231.949 171.466L235.699 170.075L232.419 161.231L228.669 162.622ZM231.949 171.466L230.88 167.611L227.189 168.634L228.258 172.489L229.327 176.343L233.017 175.32L231.949 171.466ZM228.258 172.489L224.626 174.165L227.365 180.099L230.997 178.423L234.629 176.747L231.89 170.813L228.258 172.489ZM230.997 178.423L232.956 181.91L240.995 177.392L239.035 173.905L237.076 170.418L229.037 174.936L230.997 178.423ZM239.035 173.905L235.364 175.494L240.734 187.901L244.405 186.312L248.076 184.724L242.706 172.317L239.035 173.905ZM244.405 186.312L243.169 182.508L224.014 188.73L225.249 192.534L226.485 196.339L245.641 190.117L244.405 186.312Z" fill="white" mask="url(#path-17-outside-5_302_2115)"/>
<circle cx="144.762" cy="150.35" r="9.77002" fill="#272727"/>
<path d="M198.95 48.2676L246.958 89.0557L261.317 141.647L246.844 209.939L218.367 245.023L142.314 270.108L77.9048 248.164L37.7612 209.81L28.1675 154.275L37.771 88.9707L81.5796 53.0117L142.366 28.6221L198.95 48.2676Z" stroke="white" stroke-width="5"/>
</svg>
