<svg width="93" height="81" viewBox="0 0 93 81" fill="none" xmlns="http://www.w3.org/2000/svg">
<rect x="1.95435" y="17.1826" width="88.4877" height="61.1268" rx="6" fill="#484848"/>
<rect x="1.95435" y="11.8101" width="88.4877" height="61.1268" rx="9" fill="#5B5B5B"/>
<rect x="6.55103" y="8.21289" width="79.2942" height="57.7882" rx="5" fill="#1F5472"/>
<rect x="6.55103" y="1.24023" width="79.2942" height="58.8681" rx="5" fill="#42B4F3"/>
<path d="M36.982 32.0723V27.3233M43.6564 24.6279V17.4402M43.6564 17.4402V10.2525C43.3368 5.46634 37.4045 5.55109 36.982 10.5089V27.3233M43.6564 17.4402C46.6432 15.7295 48.0263 15.7968 49.5605 19.2371M49.5605 19.2371V24.6279M49.5605 19.2371C53.1903 16.9777 54.6058 17.7668 56.2348 22.3176M56.2348 22.3176V26.1681M56.2348 22.3176C58.8403 21.8106 59.5687 22.6152 59.4437 26.1681L58.1601 41.057V52.4803C49.0271 55.3035 44.525 55.3712 39.164 52.4803V44.5225C34.9139 38.5522 33.7466 39.1666 33.0031 33.6126C32.619 30.7431 33.9761 29.1533 36.982 27.3233" stroke="white" stroke-opacity="0.5" stroke-width="3"/>
<path d="M6.52152 12.2689C5.89796 4.58326 7.12671 1.82025 14.0457 1.5H78.4237C86.488 1.78845 86.6343 5.33531 86.1104 12.2689C88.3324 13.6868 89.258 14.653 89.4757 17.1486C89.4757 17.1486 95.2959 74.422 87.0198 77.6705C78.7436 80.9191 4.1737 77.3871 4.1737 77.3871C-0.0271678 74.5935 1.97861 45.0826 1.97847 20.0091C2.66173 16.724 3.4233 14.9741 6.52152 12.2689Z" stroke="white" stroke-width="3"/>
</svg>
