<svg width="373" height="115" viewBox="0 0 373 115" fill="none" xmlns="http://www.w3.org/2000/svg">
<path d="M0 10.5923L328.041 15.9808L372.237 10.5923L366.549 115H292.848L27.9379 107.203L0 115L2.54722 68.7834L0 10.5923Z" fill="white"/>
<path d="M6.05273 19.6709L322.092 24.1223L364.671 19.6709L359.191 105.921H288.187L32.9685 99.4798L6.05273 105.921L8.50676 67.7419L6.05273 19.6709Z" fill="black"/>
<path d="M134.764 47.76C134.444 48.4533 134.018 49.04 133.484 49.52C132.951 49.9467 132.498 50.4533 132.124 51.04C131.698 51.1467 131.271 51.3333 130.844 51.6C130.471 51.8667 130.124 52.1333 129.804 52.4C129.271 52.72 128.791 52.72 128.364 52.4C128.151 52.2933 127.964 52.1867 127.804 52.08C127.698 51.92 127.538 51.7867 127.324 51.68C126.898 51.3067 126.338 51.1733 125.644 51.28C125.591 51.3333 125.511 51.3067 125.404 51.2V50.4C125.351 50.3467 125.271 50.2667 125.164 50.16C125.111 50.0533 125.031 50 124.924 50C123.858 49.5733 122.844 49.5467 121.884 49.92C121.564 49.9733 121.244 50.0533 120.924 50.16C120.604 50.2667 120.284 50.3733 119.964 50.48C119.751 50.8 119.538 51.12 119.324 51.44C119.164 51.76 118.978 52.0533 118.764 52.32C118.818 52.7467 118.844 53.1733 118.844 53.6C118.898 54.0267 118.951 54.4533 119.004 54.88C119.271 55.2 119.511 55.5467 119.724 55.92C119.991 56.24 120.231 56.5867 120.444 56.96C120.924 57.3333 121.431 57.7067 121.964 58.08C122.498 58.4 123.004 58.7733 123.484 59.2C123.804 59.4133 124.124 59.6 124.444 59.76C124.818 59.8667 125.138 60.0533 125.404 60.32C125.671 60.5867 125.911 60.8267 126.124 61.04C126.391 61.2 126.631 61.4133 126.844 61.68C127.004 61.7333 127.164 61.8133 127.324 61.92C127.484 62.0267 127.644 62.1333 127.804 62.24C128.711 62.8267 129.404 63.6267 129.884 64.64C130.151 65.0667 130.418 65.52 130.684 66C131.004 66.48 131.298 66.9333 131.564 67.36C131.938 67.68 132.178 68.0533 132.284 68.48C132.444 68.9067 132.604 69.3333 132.764 69.76C132.818 69.8133 132.844 69.92 132.844 70.08C132.951 70.72 133.111 71.3333 133.324 71.92C133.591 72.5067 133.858 73.0933 134.124 73.68C134.284 74.3733 134.364 75.0667 134.364 75.76C134.418 76.4 134.391 77.04 134.284 77.68C134.284 78.2133 134.204 78.7467 134.044 79.28C133.938 79.76 133.778 80.2133 133.564 80.64C133.511 80.6933 133.484 80.7467 133.484 80.8C133.484 80.8533 133.431 80.9333 133.324 81.04C132.844 81.52 132.444 82.0533 132.124 82.64C131.858 83.2267 131.538 83.8133 131.164 84.4C131.111 84.4533 131.084 84.5333 131.084 84.64C131.084 84.6933 131.031 84.7467 130.924 84.8C130.391 85.1733 129.938 85.5733 129.564 86C129.244 86.4267 128.871 86.8533 128.444 87.28C128.231 87.4933 127.964 87.68 127.644 87.84C127.324 88 127.031 88.1867 126.764 88.4L125.084 89.2C124.551 89.2533 123.991 89.3333 123.404 89.44C122.871 89.5467 122.311 89.7333 121.724 90C121.351 90.2133 120.924 90.3733 120.444 90.48C120.018 90.5867 119.591 90.6933 119.164 90.8C118.951 90.8533 118.738 90.9067 118.524 90.96C118.311 91.0133 118.098 91.0667 117.884 91.12C117.191 90.5867 116.418 90.32 115.564 90.32C114.978 90.32 114.471 90.2133 114.044 90C113.404 89.7333 112.791 89.44 112.204 89.12C111.618 88.8533 111.084 88.48 110.604 88C110.284 87.7333 109.964 87.4933 109.644 87.28C109.324 87.0667 109.031 86.8533 108.764 86.64C108.551 86.4267 108.284 86.2933 107.964 86.24C107.698 86.1333 107.431 86.0267 107.164 85.92C106.791 85.6533 106.578 85.36 106.524 85.04C106.578 84.6133 106.738 84.2133 107.004 83.84C107.324 83.4667 107.591 83.0667 107.804 82.64C107.804 82.32 107.884 81.92 108.044 81.44C108.524 80.8 109.031 80.16 109.564 79.52C110.098 78.8267 110.631 78.1333 111.164 77.44C111.378 77.28 111.618 77.12 111.884 76.96C112.151 76.7467 112.444 76.5333 112.764 76.32C113.831 76.5867 114.844 76.88 115.804 77.2C116.764 77.52 117.751 77.8133 118.764 78.08C118.978 78.0267 119.138 77.9733 119.244 77.92C119.351 77.8133 119.431 77.7333 119.484 77.68C119.644 77.6267 119.778 77.5733 119.884 77.52C119.991 77.4667 120.071 77.4133 120.124 77.36H121.564C121.618 77.2533 121.671 77.1733 121.724 77.12C121.831 77.0133 121.911 76.9067 121.964 76.8C122.178 76.2667 122.391 75.76 122.604 75.28C122.818 74.8 122.951 74.2667 123.004 73.68C122.898 73.2533 122.764 72.8 122.604 72.32C122.498 71.84 122.258 71.36 121.884 70.88C121.671 70.72 121.431 70.5333 121.164 70.32C120.898 70.1067 120.631 69.8933 120.364 69.68C119.458 69.5733 118.524 69.3333 117.564 68.96C116.658 68.5867 115.751 68.4 114.844 68.4C114.471 68.2933 114.178 68.1333 113.964 67.92C113.751 67.6533 113.511 67.4133 113.244 67.2C112.871 67.0933 112.471 67.0133 112.044 66.96C111.618 66.9067 111.271 66.6933 111.004 66.32C110.151 65.84 109.431 65.4933 108.844 65.28C108.578 64.96 108.311 64.64 108.044 64.32C107.831 64 107.591 63.7067 107.324 63.44C107.111 63.1733 106.898 62.8533 106.684 62.48C106.524 62.0533 106.311 61.6533 106.044 61.28C105.831 61.0133 105.644 60.72 105.484 60.4C105.324 60.0267 105.164 59.6533 105.004 59.28C104.844 58.5333 104.684 57.7333 104.524 56.88C104.631 56.2933 104.711 55.7067 104.764 55.12C104.871 54.48 104.951 53.84 105.004 53.2L104.684 52.4C104.898 52.2933 105.058 52.1333 105.164 51.92C105.271 51.7067 105.378 51.4933 105.484 51.28C105.591 50.96 105.724 50.6933 105.884 50.48C106.044 50.2667 106.098 49.9733 106.044 49.6C106.044 48.5867 106.311 47.6533 106.844 46.8C106.951 46.5867 107.031 46.4 107.084 46.24C107.191 46.08 107.271 45.92 107.324 45.76C107.591 45.6 107.804 45.44 107.964 45.28C108.178 45.0667 108.311 44.9333 108.364 44.88C108.631 44.6133 108.738 44.3733 108.684 44.16C108.631 43.8933 108.631 43.6533 108.684 43.44C108.898 43.12 109.138 42.8 109.404 42.48C109.671 42.16 109.964 41.8133 110.284 41.44C110.658 41.1733 111.058 40.96 111.484 40.8C111.911 40.5867 112.311 40.2933 112.684 39.92C112.791 39.76 112.924 39.6533 113.084 39.6C113.244 39.4933 113.431 39.4133 113.644 39.36C113.911 39.2 114.204 39.0667 114.524 38.96C114.844 38.8533 115.164 38.72 115.484 38.56C116.018 38.4533 116.551 38.3733 117.084 38.32C117.671 38.2667 118.231 38.2133 118.764 38.16C118.818 38.16 118.871 38.16 118.924 38.16C119.031 38.1067 119.138 38.1067 119.244 38.16C119.831 38.3733 120.418 38.3733 121.004 38.16C121.644 37.9467 122.284 37.8667 122.924 37.92C123.511 37.92 124.071 38 124.604 38.16C125.191 38.32 125.751 38.4533 126.284 38.56C126.871 38.9867 127.458 39.3867 128.044 39.76C128.631 40.08 129.271 40.3467 129.964 40.56C130.178 40.7733 130.364 41.0133 130.524 41.28C130.738 41.4933 130.951 41.7333 131.164 42C131.378 42.2133 131.591 42.4 131.804 42.56C132.018 42.72 132.204 42.9067 132.364 43.12C132.791 43.92 133.191 44.72 133.564 45.52C133.991 46.2667 134.391 47.0133 134.764 47.76ZM184.696 82.24C184.643 82.4 184.616 82.56 184.616 82.72C184.67 82.8267 184.643 82.9067 184.536 82.96C183.896 83.7067 183.23 84.48 182.536 85.28C181.896 86.08 181.256 86.9067 180.616 87.76L179.896 88.48C179.63 88.5333 179.336 88.56 179.016 88.56C178.75 88.56 178.456 88.5867 178.136 88.64C177.923 88.6933 177.683 88.7467 177.416 88.8C177.203 88.9067 176.99 89.0133 176.776 89.12C176.296 88.96 175.87 88.7733 175.496 88.56C175.123 88.4 174.803 88.1333 174.536 87.76C174.483 87.5467 174.323 87.36 174.056 87.2C173.256 86.6133 172.456 86.0267 171.656 85.44C170.856 84.8 170.003 84.2667 169.096 83.84C168.883 83.7333 168.67 83.6267 168.456 83.52C168.243 83.4133 168.003 83.28 167.736 83.12C167.47 83.0133 167.176 82.88 166.856 82.72C166.536 82.56 166.163 82.4 165.736 82.24C165.523 82.0267 165.256 81.8133 164.936 81.6C164.67 81.3333 164.403 81.0667 164.136 80.8C163.656 80.2667 163.043 79.8133 162.296 79.44C161.976 79.3333 161.683 79.1733 161.416 78.96C161.15 78.6933 160.883 78.4533 160.616 78.24C159.923 77.8667 159.256 77.5733 158.616 77.36C158.19 76.8267 157.843 76.3733 157.576 76C157.15 75.7333 156.67 75.68 156.136 75.84C156.083 75.8933 156.03 75.9733 155.976 76.08C155.923 76.1333 155.896 76.2133 155.896 76.32C155.736 77.4933 155.55 78.72 155.336 80C155.176 81.2267 154.99 82.4533 154.776 83.68C154.883 83.7867 154.963 83.92 155.016 84.08C155.123 84.24 155.23 84.4 155.336 84.56C155.443 85.04 155.443 85.5467 155.336 86.08C155.283 86.56 155.31 87.04 155.416 87.52C155.47 88 155.47 88.48 155.416 88.96C155.416 89.44 155.416 89.92 155.416 90.4C155.416 90.9333 155.176 91.2 154.696 91.2C154.11 91.1467 153.55 91.1467 153.016 91.2C152.483 91.3067 151.923 91.4133 151.336 91.52C150.483 91.5733 149.603 91.6 148.696 91.6C147.843 91.6533 147.016 91.7067 146.216 91.76C145.683 91.76 145.176 91.68 144.696 91.52C144.216 91.36 143.736 91.1733 143.256 90.96C142.616 90.7467 142.27 90.3733 142.216 89.84C142.163 89.4133 142.11 88.96 142.056 88.48C142.056 88.0533 142.003 87.6533 141.896 87.28C141.843 86.8533 141.87 86.4533 141.976 86.08C142.083 85.7067 142.163 85.3333 142.216 84.96C142.11 84.5333 141.976 84.1333 141.816 83.76C141.71 83.3867 141.656 82.96 141.656 82.48C141.763 82.2667 141.79 82.08 141.736 81.92C141.683 81.76 141.63 81.6 141.576 81.44C141.363 81.0133 141.23 80.56 141.176 80.08C141.176 79.6 141.203 79.1467 141.256 78.72C141.31 78.1333 141.31 77.5733 141.256 77.04C141.203 76.5067 141.07 76.0267 140.856 75.6C140.91 75.12 140.963 74.6933 141.016 74.32C141.123 73.8933 141.176 73.4933 141.176 73.12C141.176 72.8 141.23 72.48 141.336 72.16C141.443 71.7867 141.47 71.4133 141.416 71.04C141.363 70.6667 141.31 70.2933 141.256 69.92C141.256 69.5467 141.256 69.1733 141.256 68.8C141.256 67.4133 141.23 66.08 141.176 64.8C141.176 63.4667 141.176 62.1333 141.176 60.8C141.283 59.8933 141.176 59.0667 140.856 58.32C141.176 57.8933 141.416 57.4933 141.576 57.12C141.79 56.6933 142.11 56.32 142.536 56C142.696 55.84 142.536 55.68 142.056 55.52C142.003 55.52 141.95 55.52 141.896 55.52C141.896 55.4667 141.87 55.44 141.816 55.44C141.603 55.0667 141.55 54.6933 141.656 54.32C141.763 53.8933 141.763 53.4933 141.656 53.12C141.603 52.6933 141.656 52.32 141.816 52C142.03 51.68 142.136 51.3333 142.136 50.96C142.083 50.6933 142.03 50.4533 141.976 50.24C141.976 50.0267 141.95 49.8133 141.896 49.6C141.95 49.44 141.976 49.2533 141.976 49.04C142.03 48.7733 142.083 48.5333 142.136 48.32C141.816 47.0933 141.63 45.8667 141.576 44.64C141.576 43.4133 141.576 42.1867 141.576 40.96C141.576 40.64 141.656 40.32 141.816 40C141.816 39.7867 141.87 39.6267 141.976 39.52C142.083 39.36 142.19 39.2267 142.296 39.12C143.096 38.8 143.896 38.5067 144.696 38.24C145.496 37.92 146.323 37.7867 147.176 37.84C147.603 37.8933 148.056 37.84 148.536 37.68C149.123 37.4133 149.71 37.3067 150.296 37.36C150.883 37.36 151.47 37.4133 152.056 37.52C152.483 37.6267 152.883 37.76 153.256 37.92C153.63 38.0267 153.976 38.24 154.296 38.56C154.723 38.6133 155.096 38.56 155.416 38.4C155.79 38.1867 156.163 38.08 156.536 38.08C156.59 38.1333 156.643 38.16 156.696 38.16C156.803 38.16 156.856 38.2133 156.856 38.32C157.283 39.0133 157.496 39.76 157.496 40.56C157.443 40.88 157.443 41.2267 157.496 41.6C157.603 41.92 157.71 42.2933 157.816 42.72C157.71 43.04 157.63 43.4133 157.576 43.84C157.523 44.2133 157.443 44.6133 157.336 45.04C157.283 45.6267 157.283 46.24 157.336 46.88C157.39 47.3067 157.416 47.76 157.416 48.24C157.416 48.72 157.416 49.1733 157.416 49.6C157.416 49.76 157.39 49.92 157.336 50.08C157.283 50.1867 157.256 50.2933 157.256 50.4C156.99 50.9867 156.83 51.4667 156.776 51.84C156.776 52.16 156.776 52.48 156.776 52.8C156.776 53.0667 156.803 53.36 156.856 53.68C156.856 53.7333 156.83 53.84 156.776 54C156.723 54.16 156.723 54.2933 156.776 54.4C156.883 54.9333 156.936 55.4933 156.936 56.08C156.936 56.6133 156.963 57.1733 157.016 57.76C157.016 58.1333 157.176 58.4 157.496 58.56C157.816 58.5067 158.11 58.3733 158.376 58.16C158.643 57.9467 158.963 57.84 159.336 57.84C159.923 57.36 160.483 56.96 161.016 56.64C161.23 56.5333 161.416 56.4533 161.576 56.4C161.79 56.3467 162.003 56.2933 162.216 56.24C162.536 56.08 162.75 55.84 162.856 55.52C163.016 55.1467 163.203 54.8533 163.416 54.64C164.59 53.7867 165.63 52.88 166.536 51.92C166.803 51.6533 167.096 51.3867 167.416 51.12C167.79 50.8 168.136 50.5333 168.456 50.32C168.563 50.2133 168.67 50.1333 168.776 50.08C168.883 49.9733 168.963 49.8933 169.016 49.84C169.71 48.9333 170.536 48.1867 171.496 47.6C172.456 47.0133 173.31 46.4 174.056 45.76C174.643 45.6533 175.203 45.5467 175.736 45.44C176.27 45.28 176.776 45.1733 177.256 45.12C178.163 45.2267 178.723 45.5733 178.936 46.16C179.043 46.3733 179.15 46.56 179.256 46.72C179.416 46.88 179.55 47.0667 179.656 47.28C180.243 47.8667 180.83 48.48 181.416 49.12C182.003 49.76 182.59 50.4 183.176 51.04C183.336 51.2 183.47 51.3867 183.576 51.6C183.736 51.8133 183.87 52.0267 183.976 52.24C184.083 52.4533 184.083 52.64 183.976 52.8C183.923 52.96 183.843 53.0933 183.736 53.2C183.416 53.52 183.07 53.8667 182.696 54.24C182.376 54.56 181.976 54.8 181.496 54.96C181.39 55.0133 181.283 55.0933 181.176 55.2C181.07 55.2533 180.963 55.3067 180.856 55.36C180.59 55.5733 180.35 55.8133 180.136 56.08C179.976 56.2933 179.923 56.5867 179.976 56.96C179.816 57.1733 179.656 57.3333 179.496 57.44L177.576 59.12C177.576 59.12 177.523 59.1733 177.416 59.28C176.616 59.6533 175.87 60.1067 175.176 60.64C174.536 61.12 173.843 61.5733 173.096 62C172.296 62.3733 171.55 62.8267 170.856 63.36C170.216 63.8933 169.656 64.5333 169.176 65.28C169.07 65.5467 168.883 65.76 168.616 65.92C168.35 66.08 168.163 66.32 168.056 66.64C168.056 66.9067 168.11 67.0667 168.216 67.12C168.323 67.1733 168.456 67.2533 168.616 67.36C168.776 67.4667 168.936 67.5733 169.096 67.68C169.576 67.8933 170.003 68.1867 170.376 68.56C170.75 68.88 171.096 69.2533 171.416 69.68C171.79 70.2133 172.216 70.72 172.696 71.2C173.23 71.6267 173.79 72.0533 174.376 72.48C174.536 72.5867 174.723 72.7467 174.936 72.96C175.15 73.12 175.363 73.28 175.576 73.44C175.95 73.9733 176.376 74.4267 176.856 74.8C177.39 75.1733 177.896 75.5467 178.376 75.92C178.696 76.1333 179.016 76.3733 179.336 76.64C179.71 76.9067 180.083 77.1733 180.456 77.44C180.723 77.8133 180.963 78.24 181.176 78.72C181.39 79.2 181.79 79.4933 182.376 79.6C182.696 80.1867 182.99 80.7467 183.256 81.28C183.523 81.8133 184.003 82.1333 184.696 82.24ZM218.054 44.48C218.214 44.8533 218.294 45.2533 218.294 45.68C218.348 46.1067 218.241 46.5333 217.974 46.96C217.868 47.1733 217.814 47.3867 217.814 47.6C217.868 47.76 217.894 47.9733 217.894 48.24C217.788 48.4 217.654 48.56 217.494 48.72C217.334 48.8267 217.201 48.9867 217.094 49.2C216.988 49.3067 216.881 49.44 216.774 49.6C216.721 49.76 216.588 49.8933 216.374 50C216.108 49.9467 215.788 49.92 215.414 49.92C215.041 49.92 214.694 49.92 214.374 49.92C213.574 49.92 212.854 50.1333 212.214 50.56C212.001 50.7733 211.788 50.9333 211.574 51.04C211.361 51.0933 211.148 51.1733 210.934 51.28C210.614 51.6 210.508 51.92 210.614 52.24V53.76C210.668 54.24 210.721 54.72 210.774 55.2C210.881 55.6267 210.908 56.1067 210.854 56.64C210.801 56.7467 210.801 56.9067 210.854 57.12C210.908 57.28 210.961 57.4133 211.014 57.52C210.961 57.7333 210.881 57.92 210.774 58.08C210.721 58.1867 210.668 58.3467 210.614 58.56C210.668 58.7733 210.721 58.9867 210.774 59.2C210.828 59.36 210.881 59.5467 210.934 59.76C210.934 60.0267 210.908 60.2133 210.854 60.32C210.748 60.64 210.641 60.96 210.534 61.28C210.481 61.6 210.401 61.92 210.294 62.24C210.134 62.6133 210.108 62.96 210.214 63.28C210.321 63.6 210.294 63.92 210.134 64.24C210.134 65.36 210.081 66.4533 209.974 67.52C209.868 68.5867 209.788 69.6533 209.734 70.72C209.734 72.1067 209.974 73.52 210.454 74.96C210.668 75.44 211.014 75.68 211.494 75.68C211.601 75.6267 211.708 75.5467 211.814 75.44C211.974 75.3333 212.134 75.2533 212.294 75.2C212.454 75.2 212.588 75.2533 212.694 75.36C213.121 75.84 213.601 76.16 214.134 76.32C214.988 76.5333 215.228 76.96 214.854 77.6C214.694 77.9733 214.614 78.3733 214.614 78.8C214.668 79.2267 214.668 79.6533 214.614 80.08C214.508 81.2533 214.454 82.4533 214.454 83.68C214.454 84.8533 214.534 86.0533 214.694 87.28C214.694 87.8667 214.641 88.24 214.534 88.4C214.481 88.6133 214.161 88.9333 213.574 89.36H213.334C212.908 89.3067 212.481 89.2533 212.054 89.2C211.681 89.1467 211.308 89.0933 210.934 89.04C209.921 89.2 209.014 89.28 208.214 89.28C207.841 89.3333 207.468 89.4133 207.094 89.52C206.774 89.68 206.401 89.7333 205.974 89.68C205.548 89.5733 205.121 89.5733 204.694 89.68C204.268 89.7867 203.841 89.84 203.414 89.84C203.201 89.7333 202.988 89.6533 202.774 89.6C202.614 89.5467 202.401 89.4667 202.134 89.36C200.854 89.5733 199.574 89.7067 198.294 89.76C197.014 89.8133 195.708 89.8667 194.374 89.92C194.108 89.5467 193.841 89.2 193.574 88.88C193.308 88.6133 193.068 88.32 192.854 88C192.748 87.6267 192.534 87.3067 192.214 87.04C191.948 86.7733 191.681 86.5333 191.414 86.32C191.361 85.7867 191.254 85.28 191.094 84.8C190.988 84.3733 190.988 83.9467 191.094 83.52C191.254 83.2533 191.308 82.9867 191.254 82.72C191.148 82.24 191.121 81.76 191.174 81.28C191.281 80.7467 191.388 80.24 191.494 79.76V78.8C191.921 78.6933 192.348 78.6133 192.774 78.56C193.201 78.4533 193.628 78.4533 194.054 78.56C194.268 78.4533 194.454 78.3467 194.614 78.24C194.774 78.08 194.961 77.92 195.174 77.76C195.441 77.8667 195.708 77.9733 195.974 78.08C196.241 78.1867 196.534 78.2933 196.854 78.4C197.388 78.08 198.001 77.6533 198.694 77.12C198.801 76.8 198.854 76.56 198.854 76.4C198.854 75.8133 198.854 75.2267 198.854 74.64C198.854 74 198.881 73.3867 198.934 72.8V72.56C198.721 72.0267 198.641 71.52 198.694 71.04C198.748 70.56 198.748 70.0533 198.694 69.52V68.48C198.801 67.2533 198.828 66.0533 198.774 64.88C198.774 63.6533 198.748 62.4267 198.694 61.2L199.254 60.16C199.201 59.8933 199.148 59.6267 199.094 59.36C199.041 59.0933 198.988 58.8267 198.934 58.56C198.988 58.2933 199.041 58.0533 199.094 57.84C199.201 57.6267 199.281 57.3867 199.334 57.12C199.334 56.9067 199.308 56.7467 199.254 56.64C198.988 56 198.881 55.4133 198.934 54.88V53.68C198.934 53.4667 198.881 53.3067 198.774 53.2C198.668 53.04 198.614 52.8533 198.614 52.64C198.668 52.5333 198.694 52.2933 198.694 51.92C198.641 51.6 198.588 51.28 198.534 50.96C198.481 50.64 198.401 50.32 198.294 50C198.028 49.7333 197.734 49.6533 197.414 49.76C197.094 49.8133 196.801 49.8133 196.534 49.76C196.268 49.6533 195.974 49.6 195.654 49.6C195.334 49.6 194.988 49.6 194.614 49.6C194.241 49.3867 193.814 49.3067 193.334 49.36C192.908 49.36 192.481 49.28 192.054 49.12C191.841 48.8533 191.734 48.5333 191.734 48.16C191.788 47.7867 191.734 47.52 191.574 47.36C191.468 47.1467 191.468 46.88 191.574 46.56C191.681 46.1867 191.681 45.8667 191.574 45.6C191.788 45.3333 191.814 45.1467 191.654 45.04C191.494 44.9333 191.494 44.72 191.654 44.4C191.814 44.1333 191.894 43.84 191.894 43.52C191.894 43.1467 192.001 42.8533 192.214 42.64C192.321 42.5333 192.348 42.3733 192.294 42.16C192.294 41.8933 192.321 41.6533 192.374 41.44C192.481 41.3333 192.721 41.28 193.094 41.28C193.468 41.2267 193.681 41.1467 193.734 41.04C193.948 40.7733 194.188 40.5867 194.454 40.48C194.774 40.3733 195.094 40.24 195.414 40.08C195.521 40.08 195.654 40.08 195.814 40.08C195.974 40.0267 196.161 40 196.374 40C196.801 40 197.254 40 197.734 40C198.214 40 198.668 39.9733 199.094 39.92C199.521 39.8133 199.948 39.7333 200.374 39.68C200.801 39.5733 201.254 39.4933 201.734 39.44C202.214 39.3333 202.694 39.36 203.174 39.52C203.868 39.7333 204.721 39.7067 205.734 39.44C205.948 39.3867 206.134 39.3333 206.294 39.28C206.454 39.2267 206.588 39.1733 206.694 39.12C207.068 39.1733 207.388 39.2267 207.654 39.28C207.974 39.3333 208.241 39.36 208.454 39.36C208.614 39.36 208.774 39.3333 208.934 39.28C209.148 39.2267 209.308 39.2 209.414 39.2C209.948 39.2 210.428 39.2267 210.854 39.28C211.334 39.28 211.814 39.3333 212.294 39.44C213.308 39.6 214.214 39.6533 215.014 39.6C215.281 39.5467 215.494 39.5467 215.654 39.6C215.868 39.6 216.001 39.6 216.054 39.6C216.428 39.6533 216.694 39.7867 216.854 40C217.068 40.16 217.228 40.2933 217.334 40.4C218.188 41.2533 218.374 42.1333 217.894 43.04C217.841 43.0933 217.814 43.28 217.814 43.6C217.868 43.7067 217.894 43.84 217.894 44C217.948 44.1067 218.001 44.2667 218.054 44.48ZM265.724 53.6C265.778 54.0267 265.724 54.4533 265.564 54.88C265.458 55.2533 265.324 55.6267 265.164 56C264.844 56 264.578 56.0267 264.364 56.08C264.151 56.1867 264.071 56.3733 264.124 56.64C264.231 56.9067 264.204 57.1467 264.044 57.36C263.938 57.5733 263.831 57.8133 263.724 58.08C263.618 58.3467 263.511 58.56 263.404 58.72C263.351 59.0933 263.431 59.3867 263.644 59.6C263.911 59.8133 264.044 60.08 264.044 60.4C264.098 60.6133 264.071 60.8267 263.964 61.04C263.911 61.2 263.831 61.3867 263.724 61.6C263.618 61.8133 263.484 62 263.324 62.16C263.218 62.32 263.111 62.5067 263.004 62.72C262.844 62.9867 262.658 63.28 262.444 63.6C262.284 63.92 262.124 64.2133 261.964 64.48C261.751 64.6933 261.484 64.9067 261.164 65.12C260.898 65.3333 260.631 65.5467 260.364 65.76C260.258 65.92 260.151 66.1067 260.044 66.32C259.938 66.48 259.831 66.6933 259.724 66.96C258.871 67.6533 258.018 68.3467 257.164 69.04C256.311 69.7333 255.431 70.3733 254.524 70.96C253.884 71.1733 253.218 71.36 252.524 71.52C251.831 71.6267 251.138 71.7333 250.444 71.84C249.911 71.8933 249.378 71.9733 248.844 72.08C248.311 72.1867 247.751 72.32 247.164 72.48C246.844 72.5333 246.524 72.5867 246.204 72.64C245.884 72.64 245.511 72.64 245.084 72.64C244.391 72.6933 243.698 72.7467 243.004 72.8C242.364 72.8 241.751 72.8 241.164 72.8C240.524 73.0667 240.178 73.3867 240.124 73.76C240.071 74.08 239.991 74.4 239.884 74.72C239.778 75.04 239.671 75.36 239.564 75.68C239.564 76.3733 239.511 77.0933 239.404 77.84C239.351 78.5867 239.351 79.3067 239.404 80C239.404 80.2667 239.378 80.4533 239.324 80.56C239.324 80.88 239.298 81.2267 239.244 81.6C239.244 81.92 239.244 82.24 239.244 82.56C239.244 82.88 239.244 83.2 239.244 83.52C239.298 83.7867 239.351 84.0533 239.404 84.32C239.564 85.3333 239.431 86.3467 239.004 87.36C239.004 87.6267 238.951 87.8667 238.844 88.08C238.684 88.5067 238.391 88.6667 237.964 88.56C237.164 88.2933 236.364 88.1333 235.564 88.08C234.818 88.08 234.018 88.1333 233.164 88.24H232.124C231.378 88.6133 230.604 88.8533 229.804 88.96C229.004 89.0667 228.178 89.1467 227.324 89.2C226.844 89.2 226.551 89.04 226.444 88.72C226.444 88.72 226.418 88.6933 226.364 88.64C226.364 88.64 226.364 88.6133 226.364 88.56C226.258 87.2267 226.124 85.8667 225.964 84.48C225.804 83.0933 225.751 81.7333 225.804 80.4C225.804 80.1333 225.778 79.8667 225.724 79.6C225.724 79.3333 225.698 79.0933 225.644 78.88C225.538 78.2933 225.458 77.7067 225.404 77.12C225.351 76.48 225.298 75.8667 225.244 75.28C225.244 75.0667 225.244 74.8533 225.244 74.64C225.244 74.4267 225.191 74.2133 225.084 74C224.871 73.5733 224.764 73.12 224.764 72.64C224.818 72.16 224.844 71.7333 224.844 71.36C225.004 70.9867 225.111 70.6933 225.164 70.48C225.218 70.2133 225.271 69.92 225.324 69.6C225.164 69.3867 225.084 69.2 225.084 69.04C225.138 68.8267 225.111 68.64 225.004 68.48C225.004 68.3733 224.978 68.2933 224.924 68.24C224.871 68.1333 224.844 68.0533 224.844 68C224.791 66.6667 224.738 65.1467 224.684 63.44C224.684 61.7333 224.684 60.1333 224.684 58.64C224.738 57.1467 224.791 56.08 224.844 55.44C224.951 55.2267 225.058 55.04 225.164 54.88C225.324 54.72 225.431 54.56 225.484 54.4C225.484 54.24 225.431 54.1333 225.324 54.08C225.218 53.9733 225.111 53.8933 225.004 53.84C225.111 53.36 225.218 52.88 225.324 52.4C225.484 51.92 225.618 51.44 225.724 50.96C225.671 50.6933 225.618 50.4533 225.564 50.24C225.511 50.0267 225.431 49.8133 225.324 49.6C225.484 49.2267 225.644 48.8 225.804 48.32C225.751 47.8933 225.698 47.4133 225.644 46.88C225.644 46.3467 225.591 45.7867 225.484 45.2C225.591 45.04 225.671 44.8267 225.724 44.56C225.778 44.24 225.858 43.9467 225.964 43.68C226.071 43.4133 226.071 43.1467 225.964 42.88C225.911 42.6133 225.964 42.3733 226.124 42.16C226.444 42.0533 226.711 42.0267 226.924 42.08C227.031 42.1333 227.164 42.2133 227.324 42.32C227.484 42.3733 227.618 42.4267 227.724 42.48H228.284C228.924 42.2667 229.564 42.08 230.204 41.92C230.898 41.7067 231.538 41.4667 232.124 41.2C232.498 40.9867 232.924 40.9333 233.404 41.04C233.724 41.0933 234.018 41.1467 234.284 41.2C234.604 41.2 234.898 41.1467 235.164 41.04C235.538 40.9867 235.884 40.96 236.204 40.96C236.578 40.9067 236.951 40.88 237.324 40.88C238.338 40.88 239.351 40.8 240.364 40.64C241.378 40.48 242.391 40.2933 243.404 40.08C243.831 39.92 244.284 39.8667 244.764 39.92C245.244 39.9733 245.698 39.9733 246.124 39.92C246.498 40.0267 246.871 40.16 247.244 40.32C247.618 40.4267 247.991 40.5333 248.364 40.64C248.738 40.7467 249.111 40.8533 249.484 40.96C249.858 41.0133 250.284 41.0933 250.764 41.2C251.564 40.9867 252.418 40.9067 253.324 40.96C254.231 40.96 255.111 40.9867 255.964 41.04C256.444 41.0933 256.898 41.2 257.324 41.36C257.804 41.52 258.231 41.7333 258.604 42C259.138 42.2133 259.724 42.56 260.364 43.04C260.631 43.2533 260.871 43.4933 261.084 43.76C261.351 43.9733 261.591 44.2133 261.804 44.48C261.911 44.5333 261.991 44.64 262.044 44.8C262.098 44.9067 262.151 45.0133 262.204 45.12C262.311 45.4933 262.498 45.7867 262.764 46C263.031 46.2133 263.271 46.4533 263.484 46.72C264.444 48.16 264.924 49.8133 264.924 51.68C265.031 52 265.164 52.3467 265.324 52.72C265.484 53.04 265.618 53.3333 265.724 53.6ZM252.844 54.72C252.791 54.4 252.684 54.08 252.524 53.76C252.418 53.44 252.311 53.12 252.204 52.8C252.151 52.64 252.071 52.5067 251.964 52.4C251.911 52.2933 251.858 52.2133 251.804 52.16C251.698 51.8933 251.484 51.8133 251.164 51.92C251.058 52.0267 250.951 52.1067 250.844 52.16C250.738 52.2133 250.631 52.2933 250.524 52.4C250.258 52.4533 249.991 52.5067 249.724 52.56C249.511 52.56 249.271 52.5867 249.004 52.64H248.044C247.884 52.5333 247.698 52.4267 247.484 52.32C247.324 52.16 247.111 52 246.844 51.84C246.471 51.7867 246.044 51.76 245.564 51.76C245.138 51.7067 244.711 51.7067 244.284 51.76C243.271 51.9733 242.471 52.3733 241.884 52.96C241.564 52.8533 241.298 52.8 241.084 52.8C240.924 52.6933 240.764 52.6667 240.604 52.72C240.444 52.7733 240.284 52.8 240.124 52.8C239.804 52.96 239.511 53.1467 239.244 53.36C238.978 53.5733 238.764 53.8667 238.604 54.24C238.551 54.4533 238.471 54.6933 238.364 54.96C238.311 55.1733 238.284 55.4133 238.284 55.68C238.231 56.2133 238.178 56.7733 238.124 57.36C238.124 57.8933 238.098 58.4533 238.044 59.04C238.044 59.36 238.018 59.7067 237.964 60.08C237.964 60.4 237.991 60.72 238.044 61.04C238.044 61.0933 238.071 61.2 238.124 61.36C238.178 61.52 238.231 61.6533 238.284 61.76C239.031 61.6533 239.724 61.6 240.364 61.6C241.004 61.5467 241.618 61.5733 242.204 61.68C242.791 61.84 243.378 61.9467 243.964 62C244.604 62.0533 245.191 62.16 245.724 62.32C245.991 62.3733 246.311 62.3467 246.684 62.24C247.004 61.9733 247.298 61.7067 247.564 61.44C247.884 61.1733 248.204 60.9067 248.524 60.64C248.791 60.5867 249.031 60.56 249.244 60.56C249.511 60.5067 249.751 60.4533 249.964 60.4C250.284 60.1333 250.604 59.8667 250.924 59.6C251.244 59.28 251.538 58.9867 251.804 58.72C251.911 58.3467 251.991 58 252.044 57.68C252.151 57.36 252.231 57.0133 252.284 56.64C252.391 56.32 252.498 56.0267 252.604 55.76C252.764 55.44 252.844 55.0933 252.844 54.72Z" fill="white"/>
</svg>
