<svg width="294" height="95" viewBox="0 0 294 95" fill="none" xmlns="http://www.w3.org/2000/svg">
<path d="M0 2.11189L37.2359 0L261.86 5.33621H293.809V25.899L289.718 57.7518L293.809 92.394L200.712 92.394L92.3657 94.6654L1.75353 92.394L3.27768 71.5759L0 2.11189Z" fill="black"/>
<path d="M6.67188 8.09668H71.2118L207.514 10.8999H285.101L282.249 29.2V58.8456L285.101 86.589L238.724 84.7495H154.104L52.7912 86.589L9.77798 88.7484V37.5468L6.67188 8.09668Z" fill="white"/>
<path d="M10.5488 11.7434L43.618 14.2461H144.252H280.101L277.58 24.8826V51.0743L280.101 81.821L252.251 80.3203L139.426 81.821L50.4888 80.3203L13.5559 83.7489L15.6625 68.3436L10.5488 11.7434Z" fill="#670000"/>
<mask id="path-4-outside-1_244_2346" maskUnits="userSpaceOnUse" x="57.3018" y="21.3018" width="179" height="52" fill="black">
<rect fill="white" x="57.3018" y="21.3018" width="179" height="52"/>
<path d="M99.9569 55.5098L98.7089 65.3018L82.2449 63.8138L82.0529 53.8778L82.9169 53.9738C82.6929 51.3818 82.3569 49.6538 81.9089 48.7898C81.4609 47.8938 80.8849 47.5098 80.1809 47.6378C79.9249 47.7018 79.7329 47.7658 79.6049 47.8298L80.0369 52.9178L81.1889 52.8698L81.3809 63.3338L66.5009 65.5418L65.3009 53.2058L68.5649 53.1578L69.1409 42.9818L65.7809 43.6058L64.6289 31.7018C66.4529 31.5738 68.1649 31.4778 69.7649 31.4138L69.8609 29.7818L78.0689 29.2058L78.2129 31.1258C82.2129 31.0938 85.3329 31.3018 87.5729 31.7498C89.8449 32.1978 91.4609 32.9178 92.4209 33.9098C93.3809 34.8698 93.9249 36.1978 94.0529 37.8938C94.1809 39.7178 93.6849 41.1898 92.5649 42.3098C91.4449 43.4298 89.6369 44.4538 87.1409 45.3818C89.1569 45.7018 90.8049 46.2778 92.0849 47.1098C93.3649 47.9098 94.3889 48.9658 95.1569 50.2778C95.9569 51.5898 96.6929 53.2538 97.3649 55.2698L99.9569 55.5098ZM79.2209 43.3178C80.9169 42.8378 82.0209 42.4698 82.5329 42.2138C83.0769 41.9258 83.2849 41.6218 83.1569 41.3018C83.0609 40.9818 82.6929 40.8218 82.0529 40.8218C81.4129 40.8218 80.4209 40.9338 79.0769 41.1578L79.2209 43.3178ZM130.647 48.0218L133.815 61.1738C130.871 62.9338 127.911 64.2458 124.935 65.1098C121.991 65.9418 119.143 66.3578 116.391 66.3578C113.607 66.3578 111.111 65.9258 108.903 65.0618C106.727 64.1978 105.015 62.9818 103.767 61.4138C102.519 59.8138 101.895 57.9738 101.895 55.8938C101.895 53.9738 102.583 52.4698 103.959 51.3818C105.335 50.2938 107.175 49.5578 109.479 49.1738C107.399 48.1178 105.751 46.8218 104.535 45.2858C103.351 43.7178 102.759 41.9418 102.759 39.9578C102.759 37.8778 103.271 36.0858 104.295 34.5818C105.319 33.0778 106.727 31.9418 108.519 31.1738C110.311 30.4058 112.343 30.0218 114.615 30.0218C117.687 30.0218 120.791 30.6778 123.927 31.9898L124.455 29.2058L132.951 31.1738L122.391 50.1338C120.887 49.0458 119.543 48.2298 118.359 47.6858C117.207 47.1098 116.343 46.8218 115.767 46.8218C115.319 46.8218 115.095 46.9658 115.095 47.2538C115.095 47.8938 116.999 48.7418 120.807 49.7978L120.615 52.0538L118.647 52.0058C117.303 52.0058 116.343 52.0698 115.767 52.1978C115.191 52.3258 114.967 52.5338 115.095 52.8218C115.191 53.0778 115.623 53.2058 116.391 53.2058C117.223 53.2058 118.311 53.0458 119.655 52.7258C120.999 52.4058 122.375 51.9418 123.783 51.3338L123.543 49.7018L130.647 48.0218ZM149.946 38.9978C149.946 39.9258 150.362 40.6618 151.194 41.2058C152.026 41.7498 153.402 42.3898 155.322 43.1258C157.53 43.9578 159.354 44.8058 160.794 45.6698C162.266 46.5338 163.498 47.7978 164.49 49.4618C165.514 51.1258 165.93 53.2698 165.738 55.8938C165.514 58.9978 164.202 61.4458 161.802 63.2378C159.434 65.0298 156.298 65.9258 152.394 65.9258C150.122 65.9258 147.658 65.5898 145.002 64.9178L144.618 66.3578H136.122L135.738 47.1578L149.322 49.3178L148.698 51.5738C149.562 51.8298 150.314 51.9578 150.954 51.9578C151.946 51.9578 152.442 51.5898 152.442 50.8538C152.442 50.4378 152.106 50.0058 151.434 49.5578C150.794 49.1098 149.578 48.5658 147.786 47.9258C145.45 47.0938 143.482 46.2778 141.882 45.4778C140.314 44.6458 139.05 43.6378 138.09 42.4538C137.13 41.2698 136.65 39.8458 136.65 38.1818C136.65 37.5098 136.714 36.8698 136.842 36.2618C137.258 34.1498 138.282 32.5018 139.914 31.3178C141.546 30.1018 143.514 29.4938 145.818 29.4938C147.738 29.4938 149.754 29.9578 151.866 30.8858V29.8778L164.874 30.0218L161.226 44.3738L151.866 40.8218V40.5818C151.834 39.7178 151.69 39.0778 151.434 38.6618C151.21 38.2138 150.938 37.9898 150.618 37.9898C150.426 37.9898 150.266 38.0858 150.138 38.2778C150.01 38.4698 149.946 38.7098 149.946 38.9978ZM196.459 48.0218L199.627 61.1738C196.683 62.9338 193.723 64.2458 190.747 65.1098C187.803 65.9418 184.955 66.3578 182.203 66.3578C179.419 66.3578 176.923 65.9258 174.715 65.0618C172.539 64.1978 170.827 62.9818 169.579 61.4138C168.331 59.8138 167.707 57.9738 167.707 55.8938C167.707 53.9738 168.395 52.4698 169.771 51.3818C171.147 50.2938 172.987 49.5578 175.291 49.1738C173.211 48.1178 171.563 46.8218 170.347 45.2858C169.163 43.7178 168.571 41.9418 168.571 39.9578C168.571 37.8778 169.083 36.0858 170.107 34.5818C171.131 33.0778 172.539 31.9418 174.331 31.1738C176.123 30.4058 178.155 30.0218 180.427 30.0218C183.499 30.0218 186.603 30.6778 189.739 31.9898L190.267 29.2058L198.763 31.1738L188.203 50.1338C186.699 49.0458 185.355 48.2298 184.171 47.6858C183.019 47.1098 182.155 46.8218 181.579 46.8218C181.131 46.8218 180.907 46.9658 180.907 47.2538C180.907 47.8938 182.811 48.7418 186.619 49.7978L186.427 52.0538L184.459 52.0058C183.115 52.0058 182.155 52.0698 181.579 52.1978C181.003 52.3258 180.779 52.5338 180.907 52.8218C181.003 53.0778 181.435 53.2058 182.203 53.2058C183.035 53.2058 184.123 53.0458 185.467 52.7258C186.811 52.4058 188.187 51.9418 189.595 51.3338L189.355 49.7018L196.459 48.0218ZM228.957 47.7338L218.301 46.7738L217.725 54.1178L222.813 53.6858V66.2618L204.957 65.3018L204.333 55.2698L207.501 54.9818L206.877 45.7658L204.909 45.6218L204.765 47.3018L200.445 47.0138L199.629 32.4698L226.317 29.4938L228.957 47.7338Z"/>
</mask>
<path d="M99.9569 55.5098L98.7089 65.3018L82.2449 63.8138L82.0529 53.8778L82.9169 53.9738C82.6929 51.3818 82.3569 49.6538 81.9089 48.7898C81.4609 47.8938 80.8849 47.5098 80.1809 47.6378C79.9249 47.7018 79.7329 47.7658 79.6049 47.8298L80.0369 52.9178L81.1889 52.8698L81.3809 63.3338L66.5009 65.5418L65.3009 53.2058L68.5649 53.1578L69.1409 42.9818L65.7809 43.6058L64.6289 31.7018C66.4529 31.5738 68.1649 31.4778 69.7649 31.4138L69.8609 29.7818L78.0689 29.2058L78.2129 31.1258C82.2129 31.0938 85.3329 31.3018 87.5729 31.7498C89.8449 32.1978 91.4609 32.9178 92.4209 33.9098C93.3809 34.8698 93.9249 36.1978 94.0529 37.8938C94.1809 39.7178 93.6849 41.1898 92.5649 42.3098C91.4449 43.4298 89.6369 44.4538 87.1409 45.3818C89.1569 45.7018 90.8049 46.2778 92.0849 47.1098C93.3649 47.9098 94.3889 48.9658 95.1569 50.2778C95.9569 51.5898 96.6929 53.2538 97.3649 55.2698L99.9569 55.5098ZM79.2209 43.3178C80.9169 42.8378 82.0209 42.4698 82.5329 42.2138C83.0769 41.9258 83.2849 41.6218 83.1569 41.3018C83.0609 40.9818 82.6929 40.8218 82.0529 40.8218C81.4129 40.8218 80.4209 40.9338 79.0769 41.1578L79.2209 43.3178ZM130.647 48.0218L133.815 61.1738C130.871 62.9338 127.911 64.2458 124.935 65.1098C121.991 65.9418 119.143 66.3578 116.391 66.3578C113.607 66.3578 111.111 65.9258 108.903 65.0618C106.727 64.1978 105.015 62.9818 103.767 61.4138C102.519 59.8138 101.895 57.9738 101.895 55.8938C101.895 53.9738 102.583 52.4698 103.959 51.3818C105.335 50.2938 107.175 49.5578 109.479 49.1738C107.399 48.1178 105.751 46.8218 104.535 45.2858C103.351 43.7178 102.759 41.9418 102.759 39.9578C102.759 37.8778 103.271 36.0858 104.295 34.5818C105.319 33.0778 106.727 31.9418 108.519 31.1738C110.311 30.4058 112.343 30.0218 114.615 30.0218C117.687 30.0218 120.791 30.6778 123.927 31.9898L124.455 29.2058L132.951 31.1738L122.391 50.1338C120.887 49.0458 119.543 48.2298 118.359 47.6858C117.207 47.1098 116.343 46.8218 115.767 46.8218C115.319 46.8218 115.095 46.9658 115.095 47.2538C115.095 47.8938 116.999 48.7418 120.807 49.7978L120.615 52.0538L118.647 52.0058C117.303 52.0058 116.343 52.0698 115.767 52.1978C115.191 52.3258 114.967 52.5338 115.095 52.8218C115.191 53.0778 115.623 53.2058 116.391 53.2058C117.223 53.2058 118.311 53.0458 119.655 52.7258C120.999 52.4058 122.375 51.9418 123.783 51.3338L123.543 49.7018L130.647 48.0218ZM149.946 38.9978C149.946 39.9258 150.362 40.6618 151.194 41.2058C152.026 41.7498 153.402 42.3898 155.322 43.1258C157.53 43.9578 159.354 44.8058 160.794 45.6698C162.266 46.5338 163.498 47.7978 164.49 49.4618C165.514 51.1258 165.93 53.2698 165.738 55.8938C165.514 58.9978 164.202 61.4458 161.802 63.2378C159.434 65.0298 156.298 65.9258 152.394 65.9258C150.122 65.9258 147.658 65.5898 145.002 64.9178L144.618 66.3578H136.122L135.738 47.1578L149.322 49.3178L148.698 51.5738C149.562 51.8298 150.314 51.9578 150.954 51.9578C151.946 51.9578 152.442 51.5898 152.442 50.8538C152.442 50.4378 152.106 50.0058 151.434 49.5578C150.794 49.1098 149.578 48.5658 147.786 47.9258C145.45 47.0938 143.482 46.2778 141.882 45.4778C140.314 44.6458 139.05 43.6378 138.09 42.4538C137.13 41.2698 136.65 39.8458 136.65 38.1818C136.65 37.5098 136.714 36.8698 136.842 36.2618C137.258 34.1498 138.282 32.5018 139.914 31.3178C141.546 30.1018 143.514 29.4938 145.818 29.4938C147.738 29.4938 149.754 29.9578 151.866 30.8858V29.8778L164.874 30.0218L161.226 44.3738L151.866 40.8218V40.5818C151.834 39.7178 151.69 39.0778 151.434 38.6618C151.21 38.2138 150.938 37.9898 150.618 37.9898C150.426 37.9898 150.266 38.0858 150.138 38.2778C150.01 38.4698 149.946 38.7098 149.946 38.9978ZM196.459 48.0218L199.627 61.1738C196.683 62.9338 193.723 64.2458 190.747 65.1098C187.803 65.9418 184.955 66.3578 182.203 66.3578C179.419 66.3578 176.923 65.9258 174.715 65.0618C172.539 64.1978 170.827 62.9818 169.579 61.4138C168.331 59.8138 167.707 57.9738 167.707 55.8938C167.707 53.9738 168.395 52.4698 169.771 51.3818C171.147 50.2938 172.987 49.5578 175.291 49.1738C173.211 48.1178 171.563 46.8218 170.347 45.2858C169.163 43.7178 168.571 41.9418 168.571 39.9578C168.571 37.8778 169.083 36.0858 170.107 34.5818C171.131 33.0778 172.539 31.9418 174.331 31.1738C176.123 30.4058 178.155 30.0218 180.427 30.0218C183.499 30.0218 186.603 30.6778 189.739 31.9898L190.267 29.2058L198.763 31.1738L188.203 50.1338C186.699 49.0458 185.355 48.2298 184.171 47.6858C183.019 47.1098 182.155 46.8218 181.579 46.8218C181.131 46.8218 180.907 46.9658 180.907 47.2538C180.907 47.8938 182.811 48.7418 186.619 49.7978L186.427 52.0538L184.459 52.0058C183.115 52.0058 182.155 52.0698 181.579 52.1978C181.003 52.3258 180.779 52.5338 180.907 52.8218C181.003 53.0778 181.435 53.2058 182.203 53.2058C183.035 53.2058 184.123 53.0458 185.467 52.7258C186.811 52.4058 188.187 51.9418 189.595 51.3338L189.355 49.7018L196.459 48.0218ZM228.957 47.7338L218.301 46.7738L217.725 54.1178L222.813 53.6858V66.2618L204.957 65.3018L204.333 55.2698L207.501 54.9818L206.877 45.7658L204.909 45.6218L204.765 47.3018L200.445 47.0138L199.629 32.4698L226.317 29.4938L228.957 47.7338Z" fill="black"/>
<path d="M99.9569 55.5098L105.909 56.2683L106.694 50.1079L100.51 49.5353L99.9569 55.5098ZM98.7089 65.3018L98.1689 71.2774L103.93 71.798L104.661 66.0603L98.7089 65.3018ZM82.2449 63.8138L76.2461 63.9297L76.3499 69.3054L81.7049 69.7894L82.2449 63.8138ZM82.0529 53.8778L82.7155 47.9145L75.922 47.1596L76.0541 53.9937L82.0529 53.8778ZM82.9169 53.9738L82.2544 59.9371L89.5245 60.7448L88.8947 53.4572L82.9169 53.9738ZM81.9089 48.7898L76.5424 51.473L76.5621 51.5125L76.5824 51.5517L81.9089 48.7898ZM80.1809 47.6378L79.1076 41.7345L78.9153 41.7695L78.7257 41.8169L80.1809 47.6378ZM79.6049 47.8298L76.9217 42.4632L73.2822 44.2829L73.6265 48.3374L79.6049 47.8298ZM80.0369 52.9178L74.0585 53.4254L74.5447 59.1518L80.2867 58.9126L80.0369 52.9178ZM81.1889 52.8698L87.1879 52.7597L87.0753 46.6193L80.9392 46.875L81.1889 52.8698ZM81.3809 63.3338L82.2616 69.2688L87.4767 68.4949L87.3799 63.2237L81.3809 63.3338ZM66.5009 65.5418L60.5291 66.1227L61.1401 72.4029L67.3816 71.4768L66.5009 65.5418ZM65.3009 53.2058L65.2127 47.2064L58.6983 47.3022L59.3291 53.7867L65.3009 53.2058ZM68.5649 53.1578L68.6532 59.1571L74.2396 59.075L74.5554 53.4968L68.5649 53.1578ZM69.1409 42.9818L75.1314 43.3208L75.5635 35.6864L68.0454 37.0826L69.1409 42.9818ZM65.7809 43.6058L59.8088 44.1837L60.4395 50.7003L66.8765 49.5049L65.7809 43.6058ZM64.6289 31.7018L64.2089 25.7165L58.0634 26.1477L58.6568 32.2797L64.6289 31.7018ZM69.7649 31.4138L70.0048 37.409L75.4354 37.1917L75.7546 31.7661L69.7649 31.4138ZM69.8609 29.7818L69.4409 23.7965L64.1809 24.1656L63.8713 29.4294L69.8609 29.7818ZM78.0689 29.2058L84.0521 28.757L83.6056 22.8025L77.6489 23.2205L78.0689 29.2058ZM78.2129 31.1258L72.2297 31.5745L72.6494 37.1705L78.2609 37.1256L78.2129 31.1258ZM87.5729 31.7498L86.3962 37.6332L86.4042 37.6348L86.4122 37.6364L87.5729 31.7498ZM92.4209 33.9098L88.1093 38.0823L88.1435 38.1176L88.1783 38.1524L92.4209 33.9098ZM94.0529 37.8938L100.038 37.4737L100.037 37.458L100.036 37.4422L94.0529 37.8938ZM92.5649 42.3098L96.8076 46.5524L96.8076 46.5524L92.5649 42.3098ZM87.1409 45.3818L85.05 39.7579L63.6239 47.724L86.2003 51.3076L87.1409 45.3818ZM92.0849 47.1098L88.815 52.1404L88.8597 52.1695L88.905 52.1977L92.0849 47.1098ZM95.1569 50.2778L89.9789 53.3088L90.0061 53.3554L90.0342 53.4014L95.1569 50.2778ZM97.3649 55.2698L91.6728 57.1671L92.9115 60.8831L96.8118 61.2442L97.3649 55.2698ZM79.2209 43.3178L73.2342 43.7169L73.727 51.1083L80.8549 49.091L79.2209 43.3178ZM82.5329 42.2138L85.2162 47.5803L85.2786 47.5491L85.3403 47.5165L82.5329 42.2138ZM83.1569 41.3018L77.41 43.0258L77.4868 43.2819L77.5861 43.5301L83.1569 41.3018ZM79.0769 41.1578L78.0905 35.2394L72.7286 36.133L73.0902 41.5569L79.0769 41.1578ZM99.9569 55.5098L94.0051 54.7512L92.7571 64.5432L98.7089 65.3018L104.661 66.0603L105.909 56.2683L99.9569 55.5098ZM98.7089 65.3018L99.249 59.3261L82.785 57.8381L82.2449 63.8138L81.7049 69.7894L98.1689 71.2774L98.7089 65.3018ZM82.2449 63.8138L88.2438 63.6978L88.0518 53.7618L82.0529 53.8778L76.0541 53.9937L76.2461 63.9297L82.2449 63.8138ZM82.0529 53.8778L81.3904 59.8411L82.2544 59.9371L82.9169 53.9738L83.5795 48.0105L82.7155 47.9145L82.0529 53.8778ZM82.9169 53.9738L88.8947 53.4572C88.7722 52.0396 88.6092 50.733 88.3866 49.5885C88.1823 48.5379 87.8556 47.2238 87.2355 46.0279L81.9089 48.7898L76.5824 51.5517C76.4729 51.3404 76.4518 51.2406 76.4809 51.3368C76.5056 51.4186 76.5513 51.591 76.6073 51.879C76.7207 52.4625 76.8377 53.3159 76.9392 54.4903L82.9169 53.9738ZM81.9089 48.7898L87.2755 46.1065C86.7803 45.1161 85.9292 43.8108 84.4691 42.8375C82.8399 41.7513 80.9323 41.4028 79.1076 41.7345L80.1809 47.6378L81.2543 53.541C80.1336 53.7447 78.866 53.5242 77.8127 52.8221C76.9287 52.2327 76.5896 51.5674 76.5424 51.473L81.9089 48.7898ZM80.1809 47.6378L78.7257 41.8169C78.3369 41.9141 77.6408 42.1036 76.9217 42.4632L79.6049 47.8298L82.2882 53.1963C82.0183 53.3313 81.8149 53.4016 81.7423 53.4259C81.6567 53.4544 81.6152 53.4638 81.6362 53.4586L80.1809 47.6378ZM79.6049 47.8298L73.6265 48.3374L74.0585 53.4254L80.0369 52.9178L86.0154 52.4101L85.5834 47.3221L79.6049 47.8298ZM80.0369 52.9178L80.2867 58.9126L81.4387 58.8646L81.1889 52.8698L80.9392 46.875L79.7872 46.923L80.0369 52.9178ZM81.1889 52.8698L75.19 52.9798L75.382 63.4438L81.3809 63.3338L87.3799 63.2237L87.1879 52.7597L81.1889 52.8698ZM81.3809 63.3338L80.5003 57.3987L65.6203 59.6067L66.5009 65.5418L67.3816 71.4768L82.2616 69.2688L81.3809 63.3338ZM66.5009 65.5418L72.4728 64.9608L71.2728 52.6248L65.3009 53.2058L59.3291 53.7867L60.5291 66.1227L66.5009 65.5418ZM65.3009 53.2058L65.3892 59.2051L68.6532 59.1571L68.5649 53.1578L68.4767 47.1584L65.2127 47.2064L65.3009 53.2058ZM68.5649 53.1578L74.5554 53.4968L75.1314 43.3208L69.1409 42.9818L63.1505 42.6427L62.5745 52.8187L68.5649 53.1578ZM69.1409 42.9818L68.0454 37.0826L64.6854 37.7066L65.7809 43.6058L66.8765 49.5049L70.2365 48.8809L69.1409 42.9818ZM65.7809 43.6058L71.753 43.0278L70.601 31.1238L64.6289 31.7018L58.6568 32.2797L59.8088 44.1837L65.7809 43.6058ZM64.6289 31.7018L65.049 37.687C66.8212 37.5627 68.4726 37.4702 70.0048 37.409L69.7649 31.4138L69.5251 25.4186C67.8573 25.4853 66.0847 25.5848 64.2089 25.7165L64.6289 31.7018ZM69.7649 31.4138L75.7546 31.7661L75.8506 30.1341L69.8609 29.7818L63.8713 29.4294L63.7753 31.0614L69.7649 31.4138ZM69.8609 29.7818L70.281 35.767L78.489 35.191L78.0689 29.2058L77.6489 23.2205L69.4409 23.7965L69.8609 29.7818ZM78.0689 29.2058L72.0857 29.6545L72.2297 31.5745L78.2129 31.1258L84.1961 30.677L84.0521 28.757L78.0689 29.2058ZM78.2129 31.1258L78.2609 37.1256C82.1069 37.0948 84.751 37.3042 86.3962 37.6332L87.5729 31.7498L88.7496 25.8663C85.9149 25.2993 82.319 25.0927 78.1649 25.1259L78.2129 31.1258ZM87.5729 31.7498L86.4122 37.6364C87.2344 37.7985 87.753 37.9754 88.0471 38.1064C88.3427 38.2381 88.2902 38.2692 88.1093 38.0823L92.4209 33.9098L96.7326 29.7372C94.5192 27.4501 91.4742 26.4035 88.7337 25.8631L87.5729 31.7498ZM92.4209 33.9098L88.1783 38.1524C88.1273 38.1014 88.0835 38.0467 88.0492 37.9945C88.0153 37.943 87.9999 37.908 87.9967 37.9002C87.9912 37.8867 88.0447 38.011 88.07 38.3453L94.0529 37.8938L100.036 37.4422C99.8281 34.6885 98.8752 31.8787 96.6636 29.6671L92.4209 33.9098ZM94.0529 37.8938L88.0677 38.3138C88.0859 38.5729 88.0452 38.5858 88.0911 38.4499C88.1131 38.3843 88.148 38.3071 88.1964 38.2294C88.2446 38.1521 88.2916 38.0978 88.3223 38.0671L92.5649 42.3098L96.8076 46.5524C99.3519 44.0081 100.267 40.7343 100.038 37.4737L94.0529 37.8938ZM92.5649 42.3098L88.3223 38.0671C88.0916 38.2978 87.2164 38.9524 85.05 39.7579L87.1409 45.3818L89.2319 51.0056C92.0575 49.9551 94.7983 48.5617 96.8076 46.5524L92.5649 42.3098ZM87.1409 45.3818L86.2003 51.3076C87.6512 51.5379 88.4352 51.8935 88.815 52.1404L92.0849 47.1098L95.3549 42.0791C93.1747 40.662 90.6627 39.8657 88.0816 39.4559L87.1409 45.3818ZM92.0849 47.1098L88.905 52.1977C89.3563 52.4799 89.6972 52.8276 89.9789 53.3088L95.1569 50.2778L100.335 47.2467C99.0807 45.1039 97.3736 43.3397 95.2649 42.0218L92.0849 47.1098ZM95.1569 50.2778L90.0342 53.4014C90.5286 54.2122 91.0937 55.4297 91.6728 57.1671L97.3649 55.2698L103.057 53.3724C102.292 51.0778 101.385 48.9673 100.28 47.1541L95.1569 50.2778ZM97.3649 55.2698L96.8118 61.2442L99.4038 61.4842L99.9569 55.5098L100.51 49.5353L97.9181 49.2953L97.3649 55.2698ZM79.2209 43.3178L80.8549 49.091C82.4474 48.6403 84.1111 48.1329 85.2162 47.5803L82.5329 42.2138L79.8497 36.8472C79.9544 36.7948 79.9811 36.7892 79.8766 36.8295C79.7856 36.8647 79.6388 36.9179 79.4236 36.9897C78.9908 37.1339 78.3865 37.3182 77.587 37.5445L79.2209 43.3178ZM82.5329 42.2138L85.3403 47.5165C85.9646 47.186 87.1439 46.4804 88.0488 45.1579C89.1906 43.4891 89.5938 41.2385 88.7278 39.0734L83.1569 41.3018L77.5861 43.5301C77.2759 42.7547 77.1066 41.806 77.2387 40.7758C77.3685 39.7633 77.7525 38.9554 78.1451 38.3816C78.842 37.3631 79.6453 36.9535 79.7256 36.911L82.5329 42.2138ZM83.1569 41.3018L88.9039 39.5777C88.2459 37.3842 86.6468 36.0678 85.2013 35.4393C83.9464 34.8937 82.7623 34.8218 82.0529 34.8218V40.8218V46.8218C81.9836 46.8218 81.3035 46.8298 80.4166 46.4442C79.3391 45.9757 77.972 44.8993 77.41 43.0258L83.1569 41.3018ZM82.0529 40.8218V34.8218C80.8861 34.8218 79.4816 35.0076 78.0905 35.2394L79.0769 41.1578L80.0633 47.0761C80.6659 46.9757 81.1407 46.9087 81.5021 46.8679C81.681 46.8477 81.8179 46.8355 81.9177 46.8287C82.0205 46.8216 82.0614 46.8218 82.0529 46.8218V40.8218ZM79.0769 41.1578L73.0902 41.5569L73.2342 43.7169L79.2209 43.3178L85.2077 42.9186L85.0637 40.7586L79.0769 41.1578ZM130.647 48.0218L136.48 46.6167L135.08 40.8077L129.266 42.1828L130.647 48.0218ZM133.815 61.1738L136.893 66.3236L140.681 64.0591L139.648 59.7687L133.815 61.1738ZM124.935 65.1098L126.566 70.8836L126.587 70.8778L126.607 70.8718L124.935 65.1098ZM108.903 65.0618L106.688 70.6383L106.702 70.6438L106.716 70.6492L108.903 65.0618ZM103.767 61.4138L99.0356 65.1039L99.0537 65.1272L99.072 65.1502L103.767 61.4138ZM103.959 51.3818L100.237 46.6753L100.237 46.6753L103.959 51.3818ZM109.479 49.1738L110.465 55.0921L128.477 52.0901L112.195 43.8238L109.479 49.1738ZM104.535 45.2858L99.7463 48.9014L99.7877 48.9562L99.8303 49.01L104.535 45.2858ZM104.295 34.5818L99.335 31.205V31.205L104.295 34.5818ZM108.519 31.1738L106.155 25.6589V25.6589L108.519 31.1738ZM123.927 31.9898L121.611 37.5249L128.442 40.3827L129.821 33.1078L123.927 31.9898ZM124.455 29.2058L125.809 23.3605L119.724 21.951L118.56 28.0878L124.455 29.2058ZM132.951 31.1738L138.192 34.0932L142.072 27.1277L134.305 25.3285L132.951 31.1738ZM122.391 50.1338L118.874 54.9951L124.346 58.9537L127.632 53.0532L122.391 50.1338ZM118.359 47.6858L115.675 53.0523L115.764 53.0965L115.854 53.1378L118.359 47.6858ZM120.807 49.7978L126.785 50.3066L127.207 45.3463L122.41 44.016L120.807 49.7978ZM120.615 52.0538L120.468 58.052L126.114 58.1897L126.593 52.5626L120.615 52.0538ZM118.647 52.0058L118.793 46.0075L118.72 46.0058H118.647V52.0058ZM115.767 52.1978L117.068 58.0549L117.068 58.0549L115.767 52.1978ZM115.095 52.8218L120.713 50.715L120.65 50.548L120.577 50.3849L115.095 52.8218ZM119.655 52.7258L118.265 46.8889V46.8889L119.655 52.7258ZM123.783 51.3338L126.161 56.8421L130.389 55.0166L129.719 50.4608L123.783 51.3338ZM123.543 49.7018L122.162 43.8628L116.806 45.1295L117.606 50.5747L123.543 49.7018ZM130.647 48.0218L124.813 49.4268L127.981 62.5788L133.815 61.1738L139.648 59.7687L136.48 46.6167L130.647 48.0218ZM133.815 61.1738L130.736 56.0239C128.186 57.5482 125.696 58.6411 123.262 59.3477L124.935 65.1098L126.607 70.8718C130.126 69.8504 133.555 68.3193 136.893 66.3236L133.815 61.1738ZM124.935 65.1098L123.303 59.3359C120.831 60.0344 118.533 60.3578 116.391 60.3578V66.3578V72.3578C119.752 72.3578 123.15 71.8491 126.566 70.8836L124.935 65.1098ZM116.391 66.3578V60.3578C114.227 60.3578 112.49 60.0226 111.089 59.4743L108.903 65.0618L106.716 70.6492C109.731 71.8289 112.986 72.3578 116.391 72.3578V66.3578ZM108.903 65.0618L111.117 59.4853C109.749 58.9421 108.955 58.2974 108.461 57.6773L103.767 61.4138L99.072 65.1502C101.074 67.6662 103.704 69.4534 106.688 70.6383L108.903 65.0618ZM103.767 61.4138L108.498 57.7236C108.094 57.2061 107.895 56.6729 107.895 55.8938H101.895H95.8946C95.8946 59.2746 96.9432 62.4214 99.0356 65.1039L103.767 61.4138ZM101.895 55.8938H107.895C107.895 55.7719 107.905 55.7163 107.906 55.7137C107.906 55.7135 107.897 55.7548 107.867 55.8217C107.836 55.8898 107.794 55.9566 107.749 56.0133C107.705 56.0689 107.675 56.0922 107.68 56.0882L103.959 51.3818L100.237 46.6753C97.2731 49.0189 95.8946 52.3376 95.8946 55.8938H101.895ZM103.959 51.3818L107.68 56.0883C108.041 55.8028 108.841 55.3628 110.465 55.0921L109.479 49.1738L108.492 43.2554C105.508 43.7527 102.628 44.7848 100.237 46.6753L103.959 51.3818ZM109.479 49.1738L112.195 43.8238C110.742 43.0861 109.825 42.3013 109.239 41.5615L104.535 45.2858L99.8303 49.01C101.677 51.3422 104.055 53.1495 106.762 54.5238L109.479 49.1738ZM104.535 45.2858L109.323 41.6701C108.933 41.1545 108.759 40.6506 108.759 39.9578H102.759H96.7586C96.7586 43.2329 97.7677 46.2811 99.7463 48.9014L104.535 45.2858ZM102.759 39.9578H108.759C108.759 38.9042 109.002 38.3292 109.254 37.9585L104.295 34.5818L99.335 31.205C97.5394 33.8423 96.7586 36.8513 96.7586 39.9578H102.759ZM104.295 34.5818L109.254 37.9585C109.588 37.4684 110.063 37.0396 110.882 36.6886L108.519 31.1738L106.155 25.6589C103.39 26.8439 101.049 28.6871 99.335 31.205L104.295 34.5818ZM108.519 31.1738L110.882 36.6886C111.814 36.2892 113.022 36.0218 114.615 36.0218V30.0218V24.0218C111.663 24.0218 108.807 24.5223 106.155 25.6589L108.519 31.1738ZM114.615 30.0218V36.0218C116.811 36.0218 119.13 36.4869 121.611 37.5249L123.927 31.9898L126.242 26.4546C122.451 24.8686 118.562 24.0218 114.615 24.0218V30.0218ZM123.927 31.9898L129.821 33.1078L130.349 30.3238L124.455 29.2058L118.56 28.0878L118.032 30.8718L123.927 31.9898ZM124.455 29.2058L123.101 35.051L131.597 37.019L132.951 31.1738L134.305 25.3285L125.809 23.3605L124.455 29.2058ZM132.951 31.1738L127.709 28.2543L117.149 47.2143L122.391 50.1338L127.632 53.0532L138.192 34.0932L132.951 31.1738ZM122.391 50.1338L125.907 45.2724C124.208 44.043 122.518 42.9937 120.864 42.2337L118.359 47.6858L115.854 53.1378C116.567 53.4658 117.565 54.0485 118.874 54.9951L122.391 50.1338ZM118.359 47.6858L121.042 42.3192C119.843 41.7197 117.872 40.8218 115.767 40.8218V46.8218V52.8218C115.591 52.8218 115.444 52.8109 115.333 52.7986C115.222 52.7862 115.135 52.7711 115.076 52.7592C114.962 52.7365 114.916 52.7187 114.949 52.7299C114.98 52.74 115.056 52.7674 115.185 52.8226C115.312 52.8772 115.475 52.9521 115.675 53.0523L118.359 47.6858ZM115.767 46.8218V40.8218C115.092 40.8218 113.554 40.8953 112.018 41.8827C110.028 43.162 109.095 45.2668 109.095 47.2538H115.095H121.095C121.095 47.9671 120.952 48.8837 120.463 49.8267C119.964 50.7895 119.247 51.5011 118.507 51.9768C117.195 52.8202 115.993 52.8218 115.767 52.8218V46.8218ZM115.095 47.2538H109.095C109.095 50.3783 111.263 52.114 111.757 52.5003C112.56 53.1281 113.431 53.561 114.081 53.8507C115.447 54.4591 117.218 55.0291 119.203 55.5796L120.807 49.7978L122.41 44.016C120.587 43.5104 119.502 43.1284 118.964 42.8888C118.662 42.7545 118.819 42.7894 119.146 43.0452C119.317 43.1784 119.725 43.5186 120.127 44.1031C120.543 44.7081 121.095 45.7919 121.095 47.2538H115.095ZM120.807 49.7978L114.828 49.289L114.636 51.545L120.615 52.0538L126.593 52.5626L126.785 50.3066L120.807 49.7978ZM120.615 52.0538L120.761 46.0555L118.793 46.0075L118.647 52.0058L118.5 58.004L120.468 58.052L120.615 52.0538ZM118.647 52.0058V46.0058C117.276 46.0058 115.739 46.0576 114.465 46.3406L115.767 52.1978L117.068 58.0549C116.933 58.0849 116.978 58.0631 117.318 58.0405C117.624 58.02 118.06 58.0058 118.647 58.0058V52.0058ZM115.767 52.1978L114.465 46.3406C113.941 46.4571 112.415 46.8167 111.084 48.053C110.295 48.7851 109.475 49.9246 109.174 51.4806C108.876 53.018 109.205 54.3442 109.612 55.2586L115.095 52.8218L120.577 50.3849C120.92 51.1554 121.229 52.3475 120.955 53.7609C120.678 55.1929 119.926 56.2184 119.249 56.8465C118.623 57.4281 118.023 57.7152 117.724 57.8407C117.4 57.9767 117.158 58.0349 117.068 58.0549L115.767 52.1978ZM115.095 52.8218L109.477 54.9285C110.518 57.7069 112.929 58.6085 113.786 58.8625C114.81 59.1659 115.774 59.2058 116.391 59.2058V53.2058V47.2058C116.239 47.2058 116.603 47.1816 117.195 47.357C117.62 47.483 119.767 48.1926 120.713 50.715L115.095 52.8218ZM116.391 53.2058V59.2058C117.896 59.2058 119.502 58.9299 121.044 58.5626L119.655 52.7258L118.265 46.8889C117.119 47.1616 116.549 47.2058 116.391 47.2058V53.2058ZM119.655 52.7258L121.044 58.5626C122.761 58.1538 124.468 57.5732 126.161 56.8421L123.783 51.3338L121.404 45.8254C120.281 46.3103 119.236 46.6578 118.265 46.8889L119.655 52.7258ZM123.783 51.3338L129.719 50.4608L129.479 48.8288L123.543 49.7018L117.606 50.5747L117.846 52.2067L123.783 51.3338ZM123.543 49.7018L124.923 55.5407L132.027 53.8607L130.647 48.0218L129.266 42.1828L122.162 43.8628L123.543 49.7018ZM151.194 41.2058L147.911 46.2276L147.911 46.2276L151.194 41.2058ZM155.322 43.1258L153.175 48.7282L153.191 48.7344L153.207 48.7404L155.322 43.1258ZM160.794 45.6698L157.707 50.8147L157.732 50.8296L157.757 50.8443L160.794 45.6698ZM164.49 49.4618L159.337 52.5341L159.358 52.5704L159.38 52.6063L164.49 49.4618ZM165.738 55.8938L159.754 55.4559L159.754 55.4619L165.738 55.8938ZM161.802 63.2378L158.213 58.4301L158.197 58.4417L158.182 58.4533L161.802 63.2378ZM145.002 64.9178L146.474 59.101L140.731 57.6481L139.205 63.3718L145.002 64.9178ZM144.618 66.3578V72.3578H149.228L150.416 67.9037L144.618 66.3578ZM136.122 66.3578L130.124 66.4777L130.241 72.3578H136.122V66.3578ZM135.738 47.1578L136.681 41.2322L129.596 40.1057L129.74 47.2777L135.738 47.1578ZM149.322 49.3178L155.105 50.9173L156.895 44.4465L150.265 43.3922L149.322 49.3178ZM148.698 51.5738L142.915 49.9742L141.345 55.6528L146.994 57.3265L148.698 51.5738ZM151.434 49.5578L147.994 54.4731L148.049 54.5122L148.106 54.5501L151.434 49.5578ZM147.786 47.9258L149.804 42.2753L149.799 42.2736L147.786 47.9258ZM141.882 45.4778L139.07 50.7779L139.134 50.8119L139.199 50.8443L141.882 45.4778ZM138.09 42.4538L142.751 38.6749V38.6749L138.09 42.4538ZM136.842 36.2618L142.714 37.4978L142.722 37.4596L142.729 37.4213L136.842 36.2618ZM139.914 31.3178L143.438 36.1743L143.469 36.1519L143.499 36.1291L139.914 31.3178ZM151.866 30.8858L149.453 36.3789L157.866 40.0758V30.8858H151.866ZM151.866 29.8778L151.933 23.8781L145.866 23.811V29.8778H151.866ZM164.874 30.0218L170.689 31.4998L172.569 24.1066L164.941 24.0221L164.874 30.0218ZM161.226 44.3738L159.098 49.9834L165.385 52.3693L167.041 45.8518L161.226 44.3738ZM151.866 40.8218H145.866V44.9623L149.738 46.4314L151.866 40.8218ZM151.866 40.5818H157.866V40.4707L157.862 40.3597L151.866 40.5818ZM151.434 38.6618L146.068 41.345L146.186 41.5813L146.324 41.8064L151.434 38.6618ZM150.138 38.2778L155.131 41.606L155.131 41.606L150.138 38.2778ZM149.946 38.9978H143.946C143.946 42.117 145.528 44.6694 147.911 46.2276L151.194 41.2058L154.478 36.1839C154.724 36.3447 155.141 36.6913 155.482 37.2934C155.831 37.9122 155.946 38.5308 155.946 38.9978H149.946ZM151.194 41.2058L147.911 46.2276C149.307 47.1402 151.185 47.9654 153.175 48.7282L155.322 43.1258L157.47 37.5233C155.62 36.8141 154.746 36.3593 154.478 36.1839L151.194 41.2058ZM155.322 43.1258L153.207 48.7404C155.201 49.492 156.672 50.1937 157.707 50.8147L160.794 45.6698L163.881 40.5248C162.036 39.4179 159.859 38.4235 157.438 37.5111L155.322 43.1258ZM160.794 45.6698L157.757 50.8443C158.246 51.1312 158.791 51.6191 159.337 52.5341L164.49 49.4618L169.644 46.3894C168.206 43.9764 166.287 41.9363 163.832 40.4953L160.794 45.6698ZM164.49 49.4618L159.38 52.6063C159.55 52.8816 159.886 53.6593 159.754 55.4559L165.738 55.8938L171.722 56.3316C171.975 52.8802 171.479 49.3699 169.6 46.3172L164.49 49.4618ZM165.738 55.8938L159.754 55.4619C159.65 56.9063 159.156 57.7256 158.213 58.4301L161.802 63.2378L165.392 68.0454C169.249 65.1659 171.379 61.0892 171.723 56.3256L165.738 55.8938ZM161.802 63.2378L158.182 58.4533C157.142 59.2402 155.402 59.9258 152.394 59.9258V65.9258V71.9258C157.195 71.9258 161.727 70.8193 165.423 68.0222L161.802 63.2378ZM152.394 65.9258V59.9258C150.708 59.9258 148.744 59.6754 146.474 59.101L145.002 64.9178L143.531 70.7345C146.573 71.5041 149.537 71.9258 152.394 71.9258V65.9258ZM145.002 64.9178L139.205 63.3718L138.821 64.8118L144.618 66.3578L150.416 67.9037L150.8 66.4637L145.002 64.9178ZM144.618 66.3578V60.3578H136.122V66.3578V72.3578H144.618V66.3578ZM136.122 66.3578L142.121 66.2378L141.737 47.0378L135.738 47.1578L129.74 47.2777L130.124 66.4777L136.122 66.3578ZM135.738 47.1578L134.796 53.0833L148.38 55.2433L149.322 49.3178L150.265 43.3922L136.681 41.2322L135.738 47.1578ZM149.322 49.3178L143.539 47.7182L142.915 49.9742L148.698 51.5738L154.481 53.1733L155.105 50.9173L149.322 49.3178ZM148.698 51.5738L146.994 57.3265C148.205 57.6853 149.555 57.9578 150.954 57.9578V51.9578V45.9578C151.029 45.9578 151.022 45.9646 150.917 45.9468C150.814 45.9293 150.645 45.8929 150.403 45.821L148.698 51.5738ZM150.954 51.9578V57.9578C152.017 57.9578 153.905 57.7916 155.645 56.5003C157.721 54.9601 158.442 52.7102 158.442 50.8538H152.442H146.442C146.442 50.3695 146.524 49.6615 146.876 48.8779C147.244 48.06 147.813 47.3694 148.495 46.8632C149.74 45.9399 150.883 45.9578 150.954 45.9578V51.9578ZM152.442 50.8538H158.442C158.442 47.1431 155.627 45.1415 154.763 44.5655L151.434 49.5578L148.106 54.5501C148.101 54.5465 148.034 54.5019 147.929 54.4107C147.827 54.3214 147.651 54.1549 147.454 53.9014C147.062 53.3973 146.442 52.3482 146.442 50.8538H152.442ZM151.434 49.5578L154.875 44.6424C153.502 43.6811 151.585 42.9113 149.804 42.2753L147.786 47.9258L145.768 53.5762C146.574 53.8641 147.172 54.1025 147.592 54.2907C148.059 54.4995 148.127 54.5669 147.994 54.4731L151.434 49.5578ZM147.786 47.9258L149.799 42.2736C147.612 41.4945 145.883 40.7701 144.566 40.1112L141.882 45.4778L139.199 50.8443C141.081 51.7854 143.289 52.693 145.773 53.578L147.786 47.9258ZM141.882 45.4778L144.695 40.1777C143.723 39.662 143.127 39.1385 142.751 38.6749L138.09 42.4538L133.43 46.2326C134.974 48.137 136.906 49.6295 139.07 50.7779L141.882 45.4778ZM138.09 42.4538L142.751 38.6749C142.714 38.6296 142.705 38.6066 142.696 38.5812C142.685 38.5493 142.65 38.4315 142.65 38.1818H136.65H130.65C130.65 41.087 131.522 43.8797 133.43 46.2326L138.09 42.4538ZM136.65 38.1818H142.65C142.65 37.8917 142.678 37.6679 142.714 37.4978L136.842 36.2618L130.971 35.0257C130.751 36.0716 130.65 37.1278 130.65 38.1818H136.65ZM136.842 36.2618L142.729 37.4213C142.874 36.6857 143.12 36.4048 143.438 36.1743L139.914 31.3178L136.391 26.4612C133.445 28.5987 131.643 31.6138 130.955 35.1022L136.842 36.2618ZM139.914 31.3178L143.499 36.1291C143.961 35.7851 144.628 35.4938 145.818 35.4938V29.4938V23.4938C142.401 23.4938 139.132 24.4184 136.329 26.5065L139.914 31.3178ZM145.818 29.4938V35.4938C146.757 35.4938 147.951 35.7191 149.453 36.3789L151.866 30.8858L154.28 25.3926C151.558 24.1965 148.719 23.4938 145.818 23.4938V29.4938ZM151.866 30.8858H157.866V29.8778H151.866H145.866V30.8858H151.866ZM151.866 29.8778L151.8 35.8774L164.808 36.0214L164.874 30.0218L164.941 24.0221L151.933 23.8781L151.866 29.8778ZM164.874 30.0218L159.059 28.5437L155.411 42.8957L161.226 44.3738L167.041 45.8518L170.689 31.4998L164.874 30.0218ZM161.226 44.3738L163.355 38.7641L153.995 35.2121L151.866 40.8218L149.738 46.4314L159.098 49.9834L161.226 44.3738ZM151.866 40.8218H157.866V40.5818H151.866H145.866V40.8218H151.866ZM151.866 40.5818L157.862 40.3597C157.817 39.1483 157.615 37.2573 156.544 35.5172L151.434 38.6618L146.324 41.8064C146.009 41.2942 145.907 40.8897 145.881 40.7708C145.851 40.6384 145.864 40.6317 145.87 40.8038L151.866 40.5818ZM151.434 38.6618L156.801 35.9785C156.19 34.7573 154.341 31.9898 150.618 31.9898V37.9898V43.9898C149.243 43.9898 148.07 43.4665 147.248 42.7893C146.523 42.1924 146.184 41.5784 146.068 41.345L151.434 38.6618ZM150.618 37.9898V31.9898C147.996 31.9898 146.129 33.4753 145.146 34.9496L150.138 38.2778L155.131 41.606C154.816 42.0782 154.281 42.7026 153.441 43.2067C152.561 43.735 151.577 43.9898 150.618 43.9898V37.9898ZM150.138 38.2778L145.146 34.9495C144.215 36.3466 143.946 37.8197 143.946 38.9978H149.946H155.946C155.946 39.5998 155.806 40.5929 155.131 41.606L150.138 38.2778ZM196.459 48.0218L202.292 46.6167L200.893 40.8077L195.078 42.1828L196.459 48.0218ZM199.627 61.1738L202.706 66.3236L206.494 64.0591L205.46 59.7687L199.627 61.1738ZM190.747 65.1098L192.379 70.8836L192.399 70.8778L192.42 70.8718L190.747 65.1098ZM174.715 65.0618L172.501 70.6383L172.515 70.6438L172.529 70.6492L174.715 65.0618ZM169.579 61.4138L164.848 65.1039L164.866 65.1272L164.885 65.1502L169.579 61.4138ZM169.771 51.3818L166.05 46.6753V46.6753L169.771 51.3818ZM175.291 49.1738L176.277 55.0921L194.289 52.0901L178.007 43.8238L175.291 49.1738ZM170.347 45.2858L165.559 48.9014L165.6 48.9562L165.643 49.01L170.347 45.2858ZM170.107 34.5818L165.147 31.205V31.205L170.107 34.5818ZM174.331 31.1738L171.968 25.6589V25.6589L174.331 31.1738ZM189.739 31.9898L187.423 37.5249L194.254 40.3827L195.634 33.1078L189.739 31.9898ZM190.267 29.2058L191.621 23.3605L185.536 21.951L184.372 28.0878L190.267 29.2058ZM198.763 31.1738L204.005 34.0932L207.884 27.1277L200.117 25.3285L198.763 31.1738ZM188.203 50.1338L184.686 54.9951L190.159 58.9537L193.445 53.0532L188.203 50.1338ZM184.171 47.6858L181.488 53.0523L181.576 53.0965L181.666 53.1378L184.171 47.6858ZM186.619 49.7978L192.597 50.3066L193.02 45.3463L188.222 44.016L186.619 49.7978ZM186.427 52.0538L186.281 58.052L191.927 58.1897L192.405 52.5626L186.427 52.0538ZM184.459 52.0058L184.605 46.0075L184.532 46.0058H184.459V52.0058ZM181.579 52.1978L182.881 58.0549L182.881 58.0549L181.579 52.1978ZM180.907 52.8218L186.525 50.715L186.462 50.548L186.39 50.3849L180.907 52.8218ZM185.467 52.7258L184.077 46.8889V46.8889L185.467 52.7258ZM189.595 51.3338L191.974 56.8421L196.201 55.0166L195.531 50.4608L189.595 51.3338ZM189.355 49.7018L187.974 43.8628L182.618 45.1295L183.419 50.5747L189.355 49.7018ZM196.459 48.0218L190.626 49.4268L193.794 62.5788L199.627 61.1738L205.46 59.7687L202.292 46.6167L196.459 48.0218ZM199.627 61.1738L196.548 56.0239C193.998 57.5482 191.508 58.6411 189.074 59.3477L190.747 65.1098L192.42 70.8718C195.938 69.8504 199.368 68.3193 202.706 66.3236L199.627 61.1738ZM190.747 65.1098L189.115 59.3359C186.644 60.0344 184.346 60.3578 182.203 60.3578V66.3578V72.3578C185.564 72.3578 188.962 71.8491 192.379 70.8836L190.747 65.1098ZM182.203 66.3578V60.3578C180.039 60.3578 178.303 60.0226 176.901 59.4743L174.715 65.0618L172.529 70.6492C175.543 71.8289 178.799 72.3578 182.203 72.3578V66.3578ZM174.715 65.0618L176.929 59.4853C175.561 58.9421 174.767 58.2974 174.274 57.6773L169.579 61.4138L164.885 65.1502C166.887 67.6662 169.517 69.4534 172.501 70.6383L174.715 65.0618ZM169.579 61.4138L174.31 57.7236C173.906 57.2061 173.707 56.6729 173.707 55.8938H167.707H161.707C161.707 59.2746 162.756 62.4214 164.848 65.1039L169.579 61.4138ZM167.707 55.8938H173.707C173.707 55.7719 173.718 55.7163 173.718 55.7137C173.719 55.7135 173.71 55.7548 173.679 55.8217C173.648 55.8898 173.607 55.9566 173.562 56.0133C173.518 56.0689 173.487 56.0922 173.492 56.0882L169.771 51.3818L166.05 46.6753C163.086 49.0189 161.707 52.3376 161.707 55.8938H167.707ZM169.771 51.3818L173.492 56.0883C173.854 55.8028 174.654 55.3628 176.277 55.0921L175.291 49.1738L174.305 43.2554C171.321 43.7527 168.441 44.7848 166.05 46.6753L169.771 51.3818ZM175.291 49.1738L178.007 43.8238C176.554 43.0861 175.637 42.3013 175.051 41.5615L170.347 45.2858L165.643 49.01C167.489 51.3422 169.868 53.1495 172.575 54.5238L175.291 49.1738ZM170.347 45.2858L175.135 41.6701C174.746 41.1545 174.571 40.6506 174.571 39.9578H168.571H162.571C162.571 43.2329 163.58 46.2811 165.559 48.9014L170.347 45.2858ZM168.571 39.9578H174.571C174.571 38.9042 174.814 38.3292 175.067 37.9585L170.107 34.5818L165.147 31.205C163.352 33.8423 162.571 36.8513 162.571 39.9578H168.571ZM170.107 34.5818L175.067 37.9585C175.4 37.4684 175.876 37.0396 176.695 36.6886L174.331 31.1738L171.968 25.6589C169.203 26.8439 166.862 28.6871 165.147 31.205L170.107 34.5818ZM174.331 31.1738L176.695 36.6886C177.627 36.2892 178.835 36.0218 180.427 36.0218V30.0218V24.0218C177.475 24.0218 174.62 24.5223 171.968 25.6589L174.331 31.1738ZM180.427 30.0218V36.0218C182.623 36.0218 184.942 36.4869 187.423 37.5249L189.739 31.9898L192.055 26.4546C188.264 24.8686 184.375 24.0218 180.427 24.0218V30.0218ZM189.739 31.9898L195.634 33.1078L196.162 30.3238L190.267 29.2058L184.372 28.0878L183.844 30.8718L189.739 31.9898ZM190.267 29.2058L188.913 35.051L197.409 37.019L198.763 31.1738L200.117 25.3285L191.621 23.3605L190.267 29.2058ZM198.763 31.1738L193.521 28.2543L182.961 47.2143L188.203 50.1338L193.445 53.0532L204.005 34.0932L198.763 31.1738ZM188.203 50.1338L191.72 45.2724C190.02 44.043 188.33 42.9937 186.676 42.2337L184.171 47.6858L181.666 53.1378C182.38 53.4658 183.378 54.0485 184.686 54.9951L188.203 50.1338ZM184.171 47.6858L186.854 42.3192C185.655 41.7197 183.684 40.8218 181.579 40.8218V46.8218V52.8218C181.403 52.8218 181.257 52.8109 181.146 52.7986C181.035 52.7862 180.948 52.7711 180.888 52.7592C180.775 52.7365 180.728 52.7187 180.762 52.7299C180.792 52.74 180.869 52.7674 180.998 52.8226C181.125 52.8772 181.287 52.9521 181.488 53.0523L184.171 47.6858ZM181.579 46.8218V40.8218C180.905 40.8218 179.367 40.8953 177.831 41.8827C175.841 43.162 174.907 45.2668 174.907 47.2538H180.907H186.907C186.907 47.9671 186.765 48.8837 186.276 49.8267C185.776 50.7895 185.06 51.5011 184.32 51.9768C183.008 52.8202 181.805 52.8218 181.579 52.8218V46.8218ZM180.907 47.2538H174.907C174.907 50.3783 177.075 52.114 177.569 52.5003C178.373 53.1281 179.243 53.561 179.894 53.8507C181.26 54.4591 183.031 55.0291 185.016 55.5796L186.619 49.7978L188.222 44.016C186.399 43.5104 185.314 43.1284 184.776 42.8888C184.475 42.7545 184.631 42.7894 184.959 43.0452C185.129 43.1784 185.538 43.5186 185.94 44.1031C186.356 44.7081 186.907 45.7919 186.907 47.2538H180.907ZM186.619 49.7978L180.641 49.289L180.449 51.545L186.427 52.0538L192.405 52.5626L192.597 50.3066L186.619 49.7978ZM186.427 52.0538L186.573 46.0555L184.605 46.0075L184.459 52.0058L184.313 58.004L186.281 58.052L186.427 52.0538ZM184.459 52.0058V46.0058C183.088 46.0058 181.551 46.0576 180.277 46.3406L181.579 52.1978L182.881 58.0549C182.746 58.0849 182.79 58.0631 183.13 58.0405C183.437 58.02 183.872 58.0058 184.459 58.0058V52.0058ZM181.579 52.1978L180.277 46.3406C179.753 46.4571 178.228 46.8167 176.896 48.053C176.108 48.7851 175.288 49.9246 174.986 51.4806C174.689 53.018 175.018 54.3442 175.424 55.2586L180.907 52.8218L186.39 50.3849C186.732 51.1554 187.041 52.3475 186.768 53.7609C186.491 55.1929 185.738 56.2184 185.062 56.8465C184.435 57.4281 183.835 57.7152 183.536 57.8407C183.213 57.9767 182.971 58.0349 182.881 58.0549L181.579 52.1978ZM180.907 52.8218L175.289 54.9285C176.331 57.7069 178.741 58.6085 179.599 58.8625C180.622 59.1659 181.587 59.2058 182.203 59.2058V53.2058V47.2058C182.051 47.2058 182.416 47.1816 183.008 47.357C183.433 47.483 185.579 48.1926 186.525 50.715L180.907 52.8218ZM182.203 53.2058V59.2058C183.709 59.2058 185.314 58.9299 186.857 58.5626L185.467 52.7258L184.077 46.8889C182.932 47.1616 182.361 47.2058 182.203 47.2058V53.2058ZM185.467 52.7258L186.857 58.5626C188.574 58.1538 190.281 57.5732 191.974 56.8421L189.595 51.3338L187.216 45.8254C186.094 46.3103 185.048 46.6578 184.077 46.8889L185.467 52.7258ZM189.595 51.3338L195.531 50.4608L195.291 48.8288L189.355 49.7018L183.419 50.5747L183.659 52.2067L189.595 51.3338ZM189.355 49.7018L190.736 55.5407L197.84 53.8607L196.459 48.0218L195.078 42.1828L187.974 43.8628L189.355 49.7018ZM228.957 47.7338L228.419 53.7096L235.983 54.391L234.895 46.8743L228.957 47.7338ZM218.301 46.7738L218.839 40.798L212.794 40.2533L212.319 46.3046L218.301 46.7738ZM217.725 54.1178L211.743 53.6486L211.191 60.6941L218.233 60.0962L217.725 54.1178ZM222.813 53.6858H228.813V47.1547L222.305 47.7073L222.813 53.6858ZM222.813 66.2618L222.491 72.2531L228.813 72.593V66.2618H222.813ZM204.957 65.3018L198.969 65.6742L199.3 71.0063L204.635 71.2931L204.957 65.3018ZM204.333 55.2698L203.79 49.2944L197.983 49.8223L198.345 55.6422L204.333 55.2698ZM207.501 54.9818L208.044 60.9571L213.883 60.4263L213.487 54.5764L207.501 54.9818ZM206.877 45.7658L212.863 45.3604L212.511 40.162L207.315 39.7818L206.877 45.7658ZM204.909 45.6218L205.347 39.6378L199.437 39.2053L198.931 45.1093L204.909 45.6218ZM204.765 47.3018L204.366 53.2885L210.24 53.6801L210.743 47.8142L204.765 47.3018ZM200.445 47.0138L194.454 47.3499L194.752 52.6475L200.046 53.0005L200.445 47.0138ZM199.629 32.4698L198.964 26.5067L193.32 27.1361L193.638 32.8059L199.629 32.4698ZM226.317 29.4938L232.255 28.6343L231.423 22.8872L225.652 23.5307L226.317 29.4938ZM228.957 47.7338L229.495 41.758L218.839 40.798L218.301 46.7738L217.763 52.7496L228.419 53.7096L228.957 47.7338ZM218.301 46.7738L212.319 46.3046L211.743 53.6486L217.725 54.1178L223.707 54.5869L224.283 47.2429L218.301 46.7738ZM217.725 54.1178L218.233 60.0962L223.321 59.6642L222.813 53.6858L222.305 47.7073L217.217 48.1393L217.725 54.1178ZM222.813 53.6858H216.813V66.2618H222.813H228.813V53.6858H222.813ZM222.813 66.2618L223.135 60.2704L205.279 59.3104L204.957 65.3018L204.635 71.2931L222.491 72.2531L222.813 66.2618ZM204.957 65.3018L210.945 64.9293L210.321 54.8973L204.333 55.2698L198.345 55.6422L198.969 65.6742L204.957 65.3018ZM204.333 55.2698L204.876 61.2451L208.044 60.9571L207.501 54.9818L206.958 49.0064L203.79 49.2944L204.333 55.2698ZM207.501 54.9818L213.487 54.5764L212.863 45.3604L206.877 45.7658L200.891 46.1711L201.515 55.3871L207.501 54.9818ZM206.877 45.7658L207.315 39.7818L205.347 39.6378L204.909 45.6218L204.471 51.6058L206.439 51.7498L206.877 45.7658ZM204.909 45.6218L198.931 45.1093L198.787 46.7893L204.765 47.3018L210.743 47.8142L210.887 46.1342L204.909 45.6218ZM204.765 47.3018L205.164 41.315L200.844 41.027L200.445 47.0138L200.046 53.0005L204.366 53.2885L204.765 47.3018ZM200.445 47.0138L206.436 46.6777L205.62 32.1337L199.629 32.4698L193.638 32.8059L194.454 47.3499L200.445 47.0138ZM199.629 32.4698L200.294 38.4328L226.982 35.4568L226.317 29.4938L225.652 23.5307L198.964 26.5067L199.629 32.4698ZM226.317 29.4938L220.379 30.3532L223.019 48.5932L228.957 47.7338L234.895 46.8743L232.255 28.6343L226.317 29.4938Z" fill="white" mask="url(#path-4-outside-1_244_2346)"/>
</svg>
