<svg width="294" height="95" viewBox="0 0 294 95" fill="none" xmlns="http://www.w3.org/2000/svg">
<path d="M0 2.11189L37.2359 0L261.86 5.33621H293.809V25.899L289.718 57.7518L293.809 92.394L200.712 92.394L92.3657 94.6654L1.75353 92.394L3.27768 71.5759L0 2.11189Z" fill="black"/>
<path d="M6.67188 8.09668H71.2118L207.514 10.8999H285.101L282.249 29.2V58.8456L285.101 86.589L238.724 84.7495H154.104L52.7912 86.589L9.77798 88.7484V37.5468L6.67188 8.09668Z" fill="white"/>
<path d="M10.5488 11.7437L43.618 14.2464H144.252H280.101L277.58 24.8829V51.0746L280.101 81.8213L252.251 80.3206L139.426 81.8213L50.4888 80.3206L13.5559 83.7492L15.6625 68.3438L10.5488 11.7437Z" fill="#3080A3"/>
<mask id="path-4-outside-1_244_2348" maskUnits="userSpaceOnUse" x="68.3018" y="21.3018" width="156" height="52" fill="black">
<rect fill="white" x="68.3018" y="21.3018" width="156" height="52"/>
<path d="M92.0526 32.8058C98.1326 33.8938 102.629 35.8938 105.541 38.8058C108.485 41.7178 109.957 45.8458 109.957 51.1898C109.957 55.1578 108.629 58.1818 105.973 60.2618C103.349 62.3098 99.8606 63.7338 95.5086 64.5338C91.1566 65.3018 85.3966 65.8778 78.2286 66.2618L76.7886 50.6138H82.6926L82.8846 43.9418C82.1166 43.8458 80.9006 43.7338 79.2366 43.6058L76.6446 31.7018C78.9486 31.7018 81.1566 31.7498 83.2686 31.8458L83.3166 29.7818L91.5246 29.2058L92.0526 32.8058ZM94.5486 50.5178C95.9886 50.4218 97.0446 50.2138 97.7166 49.8938C98.3886 49.5738 98.7246 49.0938 98.7246 48.4538C98.7246 47.3338 97.0926 46.3738 93.8286 45.5738L94.5486 50.5178ZM127.927 67.1738C123.223 67.1738 119.623 65.6538 117.127 62.6138C114.631 59.5418 112.951 54.7258 112.087 48.1658C111.959 47.3018 111.895 46.3738 111.895 45.3818C111.895 42.4378 112.471 39.7338 113.623 37.2698C114.807 34.7738 116.503 32.7898 118.711 31.3178C120.919 29.8138 123.495 29.0618 126.439 29.0618C127.143 29.0618 127.863 29.1098 128.599 29.2058C134.103 29.8778 138.215 31.8618 140.935 35.1578C143.687 38.4538 145.063 42.7898 145.063 48.1658C145.063 51.6218 144.295 54.8058 142.759 57.7178C141.223 60.6298 139.143 62.9338 136.519 64.6298C133.895 66.3258 131.031 67.1738 127.927 67.1738ZM126.631 60.7898C127.175 60.7898 127.447 60.4218 127.447 59.6858C127.447 59.1098 127.175 57.7338 126.631 55.5578C126.439 54.9178 126.135 53.6698 125.719 51.8138C125.111 49.1578 124.615 47.2058 124.231 45.9578C123.847 44.7098 123.527 43.9258 123.271 43.6058C123.015 43.2858 122.727 43.1738 122.407 43.2698C122.055 43.3658 121.879 43.6538 121.879 44.1338C121.879 44.5498 121.991 45.3338 122.215 46.4858C122.471 47.6378 122.807 49.0458 123.223 50.7098L123.655 52.4858L123.991 53.8778C124.695 56.6938 125.207 58.5498 125.527 59.4458C125.847 60.3418 126.215 60.7898 126.631 60.7898ZM165.964 30.9338H182.092L181.708 42.6458L179.596 42.2618L177.628 65.3018L168.844 66.2138L160.876 47.5898L161.308 53.2538L162.556 53.3018L163.564 65.9258L147.34 65.3018L147.484 52.4858L149.404 52.5818L150.172 40.8218L147.004 40.4858L147.628 30.4538L161.836 29.5418L168.124 47.3018L167.836 40.1978L166.3 39.9098L165.964 30.9338ZM212.787 48.0218L215.955 61.1738C213.011 62.9338 210.051 64.2458 207.075 65.1098C204.131 65.9418 201.283 66.3578 198.531 66.3578C195.747 66.3578 193.251 65.9258 191.043 65.0618C188.867 64.1978 187.155 62.9818 185.907 61.4138C184.659 59.8138 184.035 57.9738 184.035 55.8938C184.035 53.9738 184.723 52.4698 186.099 51.3818C187.475 50.2938 189.315 49.5578 191.619 49.1738C189.539 48.1178 187.891 46.8218 186.675 45.2858C185.491 43.7178 184.899 41.9418 184.899 39.9578C184.899 37.8778 185.411 36.0858 186.435 34.5818C187.459 33.0778 188.867 31.9418 190.659 31.1738C192.451 30.4058 194.483 30.0218 196.755 30.0218C199.827 30.0218 202.931 30.6778 206.067 31.9898L206.595 29.2058L215.091 31.1738L204.531 50.1338C203.027 49.0458 201.683 48.2298 200.499 47.6858C199.347 47.1098 198.483 46.8218 197.907 46.8218C197.459 46.8218 197.235 46.9658 197.235 47.2538C197.235 47.8938 199.139 48.7418 202.947 49.7978L202.755 52.0538L200.787 52.0058C199.443 52.0058 198.483 52.0698 197.907 52.1978C197.331 52.3258 197.107 52.5338 197.235 52.8218C197.331 53.0778 197.763 53.2058 198.531 53.2058C199.363 53.2058 200.451 53.0458 201.795 52.7258C203.139 52.4058 204.515 51.9418 205.923 51.3338L205.683 49.7018L212.787 48.0218Z"/>
</mask>
<path d="M92.0526 32.8058C98.1326 33.8938 102.629 35.8938 105.541 38.8058C108.485 41.7178 109.957 45.8458 109.957 51.1898C109.957 55.1578 108.629 58.1818 105.973 60.2618C103.349 62.3098 99.8606 63.7338 95.5086 64.5338C91.1566 65.3018 85.3966 65.8778 78.2286 66.2618L76.7886 50.6138H82.6926L82.8846 43.9418C82.1166 43.8458 80.9006 43.7338 79.2366 43.6058L76.6446 31.7018C78.9486 31.7018 81.1566 31.7498 83.2686 31.8458L83.3166 29.7818L91.5246 29.2058L92.0526 32.8058ZM94.5486 50.5178C95.9886 50.4218 97.0446 50.2138 97.7166 49.8938C98.3886 49.5738 98.7246 49.0938 98.7246 48.4538C98.7246 47.3338 97.0926 46.3738 93.8286 45.5738L94.5486 50.5178ZM127.927 67.1738C123.223 67.1738 119.623 65.6538 117.127 62.6138C114.631 59.5418 112.951 54.7258 112.087 48.1658C111.959 47.3018 111.895 46.3738 111.895 45.3818C111.895 42.4378 112.471 39.7338 113.623 37.2698C114.807 34.7738 116.503 32.7898 118.711 31.3178C120.919 29.8138 123.495 29.0618 126.439 29.0618C127.143 29.0618 127.863 29.1098 128.599 29.2058C134.103 29.8778 138.215 31.8618 140.935 35.1578C143.687 38.4538 145.063 42.7898 145.063 48.1658C145.063 51.6218 144.295 54.8058 142.759 57.7178C141.223 60.6298 139.143 62.9338 136.519 64.6298C133.895 66.3258 131.031 67.1738 127.927 67.1738ZM126.631 60.7898C127.175 60.7898 127.447 60.4218 127.447 59.6858C127.447 59.1098 127.175 57.7338 126.631 55.5578C126.439 54.9178 126.135 53.6698 125.719 51.8138C125.111 49.1578 124.615 47.2058 124.231 45.9578C123.847 44.7098 123.527 43.9258 123.271 43.6058C123.015 43.2858 122.727 43.1738 122.407 43.2698C122.055 43.3658 121.879 43.6538 121.879 44.1338C121.879 44.5498 121.991 45.3338 122.215 46.4858C122.471 47.6378 122.807 49.0458 123.223 50.7098L123.655 52.4858L123.991 53.8778C124.695 56.6938 125.207 58.5498 125.527 59.4458C125.847 60.3418 126.215 60.7898 126.631 60.7898ZM165.964 30.9338H182.092L181.708 42.6458L179.596 42.2618L177.628 65.3018L168.844 66.2138L160.876 47.5898L161.308 53.2538L162.556 53.3018L163.564 65.9258L147.34 65.3018L147.484 52.4858L149.404 52.5818L150.172 40.8218L147.004 40.4858L147.628 30.4538L161.836 29.5418L168.124 47.3018L167.836 40.1978L166.3 39.9098L165.964 30.9338ZM212.787 48.0218L215.955 61.1738C213.011 62.9338 210.051 64.2458 207.075 65.1098C204.131 65.9418 201.283 66.3578 198.531 66.3578C195.747 66.3578 193.251 65.9258 191.043 65.0618C188.867 64.1978 187.155 62.9818 185.907 61.4138C184.659 59.8138 184.035 57.9738 184.035 55.8938C184.035 53.9738 184.723 52.4698 186.099 51.3818C187.475 50.2938 189.315 49.5578 191.619 49.1738C189.539 48.1178 187.891 46.8218 186.675 45.2858C185.491 43.7178 184.899 41.9418 184.899 39.9578C184.899 37.8778 185.411 36.0858 186.435 34.5818C187.459 33.0778 188.867 31.9418 190.659 31.1738C192.451 30.4058 194.483 30.0218 196.755 30.0218C199.827 30.0218 202.931 30.6778 206.067 31.9898L206.595 29.2058L215.091 31.1738L204.531 50.1338C203.027 49.0458 201.683 48.2298 200.499 47.6858C199.347 47.1098 198.483 46.8218 197.907 46.8218C197.459 46.8218 197.235 46.9658 197.235 47.2538C197.235 47.8938 199.139 48.7418 202.947 49.7978L202.755 52.0538L200.787 52.0058C199.443 52.0058 198.483 52.0698 197.907 52.1978C197.331 52.3258 197.107 52.5338 197.235 52.8218C197.331 53.0778 197.763 53.2058 198.531 53.2058C199.363 53.2058 200.451 53.0458 201.795 52.7258C203.139 52.4058 204.515 51.9418 205.923 51.3338L205.683 49.7018L212.787 48.0218Z" fill="black"/>
<path d="M92.0526 32.8058L86.1161 33.6764L86.743 37.9509L90.9957 38.7119L92.0526 32.8058ZM105.541 38.8058L101.298 43.0484L101.31 43.06L101.321 43.0715L105.541 38.8058ZM105.973 60.2618L109.664 64.9917L109.672 64.9856L105.973 60.2618ZM95.5086 64.5338L96.5513 70.4425L96.5723 70.4387L96.5933 70.4349L95.5086 64.5338ZM78.2286 66.2618L72.2538 66.8116L72.783 72.5621L78.5495 72.2532L78.2286 66.2618ZM76.7886 50.6138V44.6138H70.2111L70.8138 51.1636L76.7886 50.6138ZM82.6926 50.6138V56.6138H88.5224L88.6901 50.7863L82.6926 50.6138ZM82.8846 43.9418L88.8821 44.1143L89.0389 38.6644L83.6288 37.9881L82.8846 43.9418ZM79.2366 43.6058L73.3739 44.8823L74.324 49.2456L78.7764 49.5881L79.2366 43.6058ZM76.6446 31.7018V25.7018H69.1975L70.7819 32.9783L76.6446 31.7018ZM83.2686 31.8458L82.9961 37.8396L89.1243 38.1181L89.2669 31.9853L83.2686 31.8458ZM83.3166 29.7818L82.8966 23.7965L77.4452 24.179L77.3182 29.6423L83.3166 29.7818ZM91.5246 29.2058L97.4611 28.3351L96.6538 22.8311L91.1046 23.2205L91.5246 29.2058ZM94.5486 50.5178L88.6112 51.3824L89.4109 56.8736L94.9477 56.5045L94.5486 50.5178ZM97.7166 49.8938L100.296 55.3109L100.296 55.3109L97.7166 49.8938ZM93.8286 45.5738L95.2569 39.7462L86.6079 37.6264L87.8912 46.4384L93.8286 45.5738ZM92.0526 32.8058L90.9957 38.7119C96.4374 39.6857 99.5872 41.3377 101.298 43.0484L105.541 38.8058L109.783 34.5631C105.67 30.4498 99.8278 28.1018 93.1095 26.8996L92.0526 32.8058ZM105.541 38.8058L101.321 43.0715C102.821 44.5546 103.957 46.961 103.957 51.1898H109.957H115.957C115.957 44.7305 114.149 38.8809 109.76 34.54L105.541 38.8058ZM109.957 51.1898H103.957C103.957 53.6781 103.212 54.8026 102.273 55.5379L105.973 60.2618L109.672 64.9856C114.045 61.5609 115.957 56.6375 115.957 51.1898H109.957ZM105.973 60.2618L102.281 55.5319C100.628 56.822 98.1258 57.9521 94.4238 58.6326L95.5086 64.5338L96.5933 70.4349C101.595 69.5154 106.069 67.7975 109.664 64.9917L105.973 60.2618ZM95.5086 64.5338L94.4659 58.6251C90.4529 59.3332 84.9628 59.8924 77.9076 60.2703L78.2286 66.2618L78.5495 72.2532C85.8304 71.8631 91.8603 71.2703 96.5513 70.4425L95.5086 64.5338ZM78.2286 66.2618L84.2033 65.7119L82.7633 50.0639L76.7886 50.6138L70.8138 51.1636L72.2538 66.8116L78.2286 66.2618ZM76.7886 50.6138V56.6138H82.6926V50.6138V44.6138H76.7886V50.6138ZM82.6926 50.6138L88.6901 50.7863L88.8821 44.1143L82.8846 43.9418L76.8871 43.7692L76.6951 50.4412L82.6926 50.6138ZM82.8846 43.9418L83.6288 37.9881C82.7098 37.8732 81.3733 37.7524 79.6968 37.6234L79.2366 43.6058L78.7764 49.5881C80.4278 49.7151 81.5233 49.8183 82.1404 49.8954L82.8846 43.9418ZM79.2366 43.6058L85.0992 42.3292L82.5072 30.4252L76.6446 31.7018L70.7819 32.9783L73.3739 44.8823L79.2366 43.6058ZM76.6446 31.7018V37.7018C78.8657 37.7018 80.9825 37.748 82.9961 37.8396L83.2686 31.8458L83.541 25.8519C81.3306 25.7515 79.0314 25.7018 76.6446 25.7018V31.7018ZM83.2686 31.8458L89.2669 31.9853L89.3149 29.9213L83.3166 29.7818L77.3182 29.6423L77.2702 31.7063L83.2686 31.8458ZM83.3166 29.7818L83.7366 35.767L91.9446 35.191L91.5246 29.2058L91.1046 23.2205L82.8966 23.7965L83.3166 29.7818ZM91.5246 29.2058L85.5881 30.0764L86.1161 33.6764L92.0526 32.8058L97.9891 31.9351L97.4611 28.3351L91.5246 29.2058ZM94.5486 50.5178L94.9477 56.5045C96.5693 56.3964 98.563 56.1362 100.296 55.3109L97.7166 49.8938L95.137 44.4766C95.2854 44.4059 95.3778 44.3775 95.3873 44.3746C95.3992 44.371 95.3613 44.3831 95.261 44.4029C95.0521 44.444 94.6941 44.4947 94.1495 44.531L94.5486 50.5178ZM97.7166 49.8938L100.296 55.3109C101.32 54.8233 102.485 54.0242 103.388 52.7345C104.327 51.3926 104.725 49.8856 104.725 48.4538H98.7246H92.7246C92.7246 47.6619 92.9538 46.7149 93.5572 45.853C94.1239 45.0434 94.785 44.6442 95.137 44.4766L97.7166 49.8938ZM98.7246 48.4538H104.725C104.725 44.5999 101.89 42.5149 100.543 41.7222C98.978 40.8018 97.0895 40.1954 95.2569 39.7462L93.8286 45.5738L92.4003 51.4013C93.068 51.5649 93.5731 51.7178 93.9409 51.85C94.3216 51.9869 94.4664 52.0701 94.4585 52.0654C94.448 52.0592 94.3655 52.0103 94.24 51.9077C94.1153 51.8059 93.9155 51.6244 93.6981 51.3475C93.2285 50.7489 92.7246 49.7484 92.7246 48.4538H98.7246ZM93.8286 45.5738L87.8912 46.4384L88.6112 51.3824L94.5486 50.5178L100.486 49.6531L99.7659 44.7091L93.8286 45.5738ZM117.127 62.6138L112.47 66.3973L112.48 66.4093L112.489 66.4212L117.127 62.6138ZM112.087 48.1658L118.035 47.3823L118.029 47.3343L118.022 47.2865L112.087 48.1658ZM113.623 37.2698L108.202 34.6982L108.194 34.7134L108.187 34.7286L113.623 37.2698ZM118.711 31.3178L122.039 36.3101L122.064 36.2935L122.088 36.2766L118.711 31.3178ZM128.599 29.2058L127.823 35.1554L127.847 35.1585L127.871 35.1615L128.599 29.2058ZM140.935 35.1578L136.307 38.9767L136.318 38.99L136.329 39.0033L140.935 35.1578ZM142.759 57.7178L148.066 60.517V60.517L142.759 57.7178ZM136.519 64.6298L139.776 69.6688H139.776L136.519 64.6298ZM126.631 55.5578L132.451 54.1025L132.418 53.9672L132.378 53.8337L126.631 55.5578ZM125.719 51.8138L131.573 50.5015L131.57 50.4882L131.567 50.4749L125.719 51.8138ZM123.271 43.6058L118.585 47.3539L118.585 47.3539L123.271 43.6058ZM122.407 43.2698L123.985 49.0583L124.058 49.0384L124.131 49.0167L122.407 43.2698ZM122.215 46.4858L116.325 47.631L116.34 47.7094L116.357 47.7873L122.215 46.4858ZM123.223 50.7098L129.053 49.2916L129.048 49.2731L129.043 49.2545L123.223 50.7098ZM123.655 52.4858L129.487 51.0779L129.485 51.0676L123.655 52.4858ZM123.991 53.8778L118.158 55.2856L118.164 55.3093L118.17 55.333L123.991 53.8778ZM125.527 59.4458L131.177 57.4277L131.177 57.4277L125.527 59.4458ZM127.927 67.1738V61.1738C124.629 61.1738 122.894 60.1829 121.764 58.8064L117.127 62.6138L112.489 66.4212C116.351 71.1246 121.816 73.1738 127.927 73.1738V67.1738ZM117.127 62.6138L121.783 58.8302C120.312 57.0198 118.841 53.5001 118.035 47.3823L112.087 48.1658L106.138 48.9492C107.06 55.9514 108.949 62.0637 112.47 66.3973L117.127 62.6138ZM112.087 48.1658L118.022 47.2865C117.942 46.7496 117.895 46.1182 117.895 45.3818H111.895H105.895C105.895 46.6293 105.975 47.854 106.151 49.045L112.087 48.1658ZM111.895 45.3818H117.895C117.895 43.2425 118.308 41.4155 119.058 39.8109L113.623 37.2698L108.187 34.7286C106.633 38.0521 105.895 41.633 105.895 45.3818H111.895ZM113.623 37.2698L119.044 39.8413C119.782 38.2846 120.773 37.1541 122.039 36.3101L118.711 31.3178L115.382 26.3255C112.232 28.4254 109.831 31.2629 108.202 34.6982L113.623 37.2698ZM118.711 31.3178L122.088 36.2766C123.2 35.5197 124.571 35.0618 126.439 35.0618V29.0618V23.0618C122.418 23.0618 118.638 24.1078 115.333 26.3589L118.711 31.3178ZM126.439 29.0618V35.0618C126.869 35.0618 127.33 35.0911 127.823 35.1554L128.599 29.2058L129.375 23.2562C128.395 23.1284 127.416 23.0618 126.439 23.0618V29.0618ZM128.599 29.2058L127.871 35.1615C132.319 35.7046 134.83 37.187 136.307 38.9767L140.935 35.1578L145.562 31.3388C141.599 26.5365 135.886 24.0509 129.326 23.25L128.599 29.2058ZM140.935 35.1578L136.329 39.0033C137.971 40.9703 139.063 43.831 139.063 48.1658H145.063H151.063C151.063 41.7485 149.402 35.9372 145.54 31.3123L140.935 35.1578ZM145.063 48.1658H139.063C139.063 50.6963 138.51 52.9126 137.452 54.9185L142.759 57.7178L148.066 60.517C150.08 56.6989 151.063 52.5472 151.063 48.1658H145.063ZM142.759 57.7178L137.452 54.9185C136.369 56.9712 134.975 58.4835 133.262 59.5907L136.519 64.6298L139.776 69.6688C143.311 67.384 146.076 64.2883 148.066 60.517L142.759 57.7178ZM136.519 64.6298L133.262 59.5907C131.601 60.6638 129.867 61.1738 127.927 61.1738V67.1738V73.1738C132.194 73.1738 136.188 71.9877 139.776 69.6688L136.519 64.6298ZM126.631 60.7898V66.7898C128.4 66.7898 130.579 66.0944 132.068 64.0801C133.306 62.4051 133.447 60.6172 133.447 59.6858H127.447H121.447C121.447 59.4903 121.451 58.2544 122.418 56.9474C123.634 55.3012 125.405 54.7898 126.631 54.7898V60.7898ZM127.447 59.6858H133.447C133.447 58.7473 133.263 57.7399 133.129 57.0582C132.965 56.2326 132.735 55.2375 132.451 54.1025L126.631 55.5578L120.81 57.013C121.07 58.054 121.248 58.8349 121.356 59.3853C121.411 59.6603 121.44 59.836 121.453 59.9318C121.472 60.0648 121.447 59.9454 121.447 59.6858H127.447ZM126.631 55.5578L132.378 53.8337C132.256 53.4289 131.995 52.384 131.573 50.5015L125.719 51.8138L119.864 53.126C120.274 54.9555 120.621 56.4066 120.884 57.2818L126.631 55.5578ZM125.719 51.8138L131.567 50.4749C130.954 47.7944 130.418 45.6632 129.965 44.1932L124.231 45.9578L118.496 47.7223C118.812 48.7483 119.267 50.5211 119.87 53.1526L125.719 51.8138ZM124.231 45.9578L129.965 44.1932C129.746 43.4795 129.511 42.7861 129.258 42.1664C129.06 41.6828 128.653 40.7288 127.956 39.8576L123.271 43.6058L118.585 47.3539C118.44 47.1723 118.339 47.02 118.279 46.9233C118.217 46.8235 118.176 46.7481 118.155 46.7082C118.116 46.6338 118.115 46.6212 118.147 46.7011C118.178 46.7747 118.224 46.8953 118.285 47.073C118.346 47.2486 118.416 47.4636 118.496 47.7223L124.231 45.9578ZM123.271 43.6058L127.956 39.8576C127.376 39.1334 126.436 38.2338 125.037 37.6897C123.544 37.1089 122.012 37.1239 120.682 37.5228L122.407 43.2698L124.131 49.0167C123.121 49.3197 121.894 49.3427 120.688 48.8738C119.577 48.4417 118.909 47.7581 118.585 47.3539L123.271 43.6058ZM122.407 43.2698L120.828 37.4812C119.306 37.8961 117.845 38.868 116.891 40.4291C116.033 41.8322 115.879 43.2322 115.879 44.1338H121.879H127.879C127.879 44.5553 127.812 45.5713 127.13 46.6865C126.352 47.9595 125.155 48.7394 123.985 49.0583L122.407 43.2698ZM121.879 44.1338H115.879C115.879 45.2149 116.115 46.5496 116.325 47.631L122.215 46.4858L128.104 45.3405C128.003 44.821 127.939 44.4431 127.902 44.1852C127.884 44.0579 127.876 43.9853 127.874 43.9572C127.87 43.9183 127.879 43.9895 127.879 44.1338H121.879ZM122.215 46.4858L116.357 47.7873C116.629 49.0079 116.978 50.4705 117.402 52.165L123.223 50.7098L129.043 49.2545C128.635 47.621 128.312 46.2676 128.072 45.1842L122.215 46.4858ZM123.223 50.7098L117.393 52.1279L117.825 53.9039L123.655 52.4858L129.485 51.0676L129.053 49.2916L123.223 50.7098ZM123.655 52.4858L117.822 53.8936L118.158 55.2856L123.991 53.8778L129.823 52.4699L129.487 51.0779L123.655 52.4858ZM123.991 53.8778L118.17 55.333C118.861 58.0975 119.44 60.2432 119.876 61.4638L125.527 59.4458L131.177 57.4277C130.973 56.8563 130.528 55.2901 129.811 52.4225L123.991 53.8778ZM125.527 59.4458L119.876 61.4638C120.139 62.2006 120.592 63.2715 121.406 64.2622C122.259 65.3002 123.998 66.7898 126.631 66.7898V60.7898V54.7898C128.848 54.7898 130.194 56.0553 130.679 56.6453C131.125 57.188 131.234 57.5869 131.177 57.4277L125.527 59.4458ZM165.964 30.9338V24.9338H159.735L159.968 31.1582L165.964 30.9338ZM182.092 30.9338L188.089 31.1304L188.292 24.9338H182.092V30.9338ZM181.708 42.6458L180.635 48.549L187.477 49.793L187.705 42.8424L181.708 42.6458ZM179.596 42.2618L180.669 36.3585L174.179 35.1785L173.618 41.7511L179.596 42.2618ZM177.628 65.3018L178.248 71.2697L183.184 70.7572L183.606 65.8124L177.628 65.3018ZM168.844 66.2138L163.328 68.5738L165.066 72.6382L169.464 72.1817L168.844 66.2138ZM160.876 47.5898L166.392 45.2297L154.893 48.0461L160.876 47.5898ZM161.308 53.2538L155.325 53.7101L155.732 59.0437L161.077 59.2493L161.308 53.2538ZM162.556 53.3018L168.537 52.8242L168.113 47.511L162.787 47.3062L162.556 53.3018ZM163.564 65.9258L163.333 71.9213L170.083 72.1809L169.545 65.4482L163.564 65.9258ZM147.34 65.3018L141.34 65.2343L141.275 71.0729L147.109 71.2973L147.34 65.3018ZM147.484 52.4858L147.784 46.4932L141.554 46.1818L141.484 52.4183L147.484 52.4858ZM149.404 52.5818L149.104 58.5743L155.006 58.8694L155.391 52.9728L149.404 52.5818ZM150.172 40.8218L156.159 41.2128L156.535 35.4629L150.805 34.8552L150.172 40.8218ZM147.004 40.4858L141.016 40.1133L140.659 45.8465L146.371 46.4523L147.004 40.4858ZM147.628 30.4538L147.244 24.4661L141.968 24.8047L141.64 30.0813L147.628 30.4538ZM161.836 29.5418L167.492 27.5392L165.978 23.2635L161.452 23.5541L161.836 29.5418ZM168.124 47.3018L162.468 49.3043L174.119 47.0587L168.124 47.3018ZM167.836 40.1978L173.831 39.9547L173.637 35.181L168.942 34.3005L167.836 40.1978ZM166.3 39.9098L160.304 40.1342L160.483 44.9237L165.194 45.807L166.3 39.9098ZM165.964 30.9338V36.9338H182.092V30.9338V24.9338H165.964V30.9338ZM182.092 30.9338L176.095 30.7371L175.711 42.4491L181.708 42.6458L187.705 42.8424L188.089 31.1304L182.092 30.9338ZM181.708 42.6458L182.781 36.7425L180.669 36.3585L179.596 42.2618L178.523 48.165L180.635 48.549L181.708 42.6458ZM179.596 42.2618L173.618 41.7511L171.65 64.7911L177.628 65.3018L183.606 65.8124L185.574 42.7724L179.596 42.2618ZM177.628 65.3018L177.008 59.3338L168.224 60.2458L168.844 66.2138L169.464 72.1817L178.248 71.2697L177.628 65.3018ZM168.844 66.2138L174.36 63.8537L166.392 45.2297L160.876 47.5898L155.36 49.9498L163.328 68.5738L168.844 66.2138ZM160.876 47.5898L154.893 48.0461L155.325 53.7101L161.308 53.2538L167.291 52.7975L166.859 47.1335L160.876 47.5898ZM161.308 53.2538L161.077 59.2493L162.325 59.2973L162.556 53.3018L162.787 47.3062L161.539 47.2582L161.308 53.2538ZM162.556 53.3018L156.575 53.7793L157.583 66.4033L163.564 65.9258L169.545 65.4482L168.537 52.8242L162.556 53.3018ZM163.564 65.9258L163.795 59.9302L147.571 59.3062L147.34 65.3018L147.109 71.2973L163.333 71.9213L163.564 65.9258ZM147.34 65.3018L153.34 65.3692L153.484 52.5532L147.484 52.4858L141.484 52.4183L141.34 65.2343L147.34 65.3018ZM147.484 52.4858L147.184 58.4783L149.104 58.5743L149.404 52.5818L149.704 46.5892L147.784 46.4932L147.484 52.4858ZM149.404 52.5818L155.391 52.9728L156.159 41.2128L150.172 40.8218L144.185 40.4308L143.417 52.1908L149.404 52.5818ZM150.172 40.8218L150.805 34.8552L147.637 34.5192L147.004 40.4858L146.371 46.4523L149.539 46.7883L150.172 40.8218ZM147.004 40.4858L152.992 40.8582L153.616 30.8262L147.628 30.4538L141.64 30.0813L141.016 40.1133L147.004 40.4858ZM147.628 30.4538L148.012 36.4414L162.22 35.5294L161.836 29.5418L161.452 23.5541L147.244 24.4661L147.628 30.4538ZM161.836 29.5418L156.18 31.5443L162.468 49.3043L168.124 47.3018L173.78 45.2992L167.492 27.5392L161.836 29.5418ZM168.124 47.3018L174.119 47.0587L173.831 39.9547L167.836 40.1978L161.841 40.4408L162.129 47.5448L168.124 47.3018ZM167.836 40.1978L168.942 34.3005L167.406 34.0125L166.3 39.9098L165.194 45.807L166.73 46.095L167.836 40.1978ZM166.3 39.9098L172.296 39.6853L171.96 30.7093L165.964 30.9338L159.968 31.1582L160.304 40.1342L166.3 39.9098ZM212.787 48.0218L218.62 46.6167L217.221 40.8077L211.406 42.1828L212.787 48.0218ZM215.955 61.1738L219.034 66.3236L222.822 64.0591L221.788 59.7687L215.955 61.1738ZM207.075 65.1098L208.707 70.8836L208.728 70.8778L208.748 70.8718L207.075 65.1098ZM191.043 65.0618L188.829 70.6383L188.843 70.6438L188.857 70.6492L191.043 65.0618ZM185.907 61.4138L181.176 65.1039L181.194 65.1272L181.213 65.1502L185.907 61.4138ZM186.099 51.3818L182.378 46.6753V46.6753L186.099 51.3818ZM191.619 49.1738L192.606 55.0921L210.618 52.0901L194.335 43.8238L191.619 49.1738ZM186.675 45.2858L181.887 48.9014L181.928 48.9562L181.971 49.01L186.675 45.2858ZM186.435 34.5818L181.476 31.205V31.205L186.435 34.5818ZM190.659 31.1738L188.296 25.6589V25.6589L190.659 31.1738ZM206.067 31.9898L203.751 37.5249L210.582 40.3827L211.962 33.1078L206.067 31.9898ZM206.595 29.2058L207.949 23.3605L201.864 21.951L200.7 28.0878L206.595 29.2058ZM215.091 31.1738L220.333 34.0932L224.213 27.1277L216.445 25.3285L215.091 31.1738ZM204.531 50.1338L201.014 54.9951L206.487 58.9537L209.773 53.0532L204.531 50.1338ZM200.499 47.6858L197.816 53.0523L197.904 53.0965L197.994 53.1378L200.499 47.6858ZM202.947 49.7978L208.926 50.3066L209.348 45.3463L204.551 44.016L202.947 49.7978ZM202.755 52.0538L202.609 58.052L208.255 58.1897L208.734 52.5626L202.755 52.0538ZM200.787 52.0058L200.933 46.0075L200.86 46.0058H200.787V52.0058ZM197.907 52.1978L199.209 58.0549L199.209 58.0549L197.907 52.1978ZM197.235 52.8218L202.853 50.715L202.791 50.548L202.718 50.3849L197.235 52.8218ZM201.795 52.7258L200.405 46.8889V46.8889L201.795 52.7258ZM205.923 51.3338L208.302 56.8421L212.529 55.0166L211.859 50.4608L205.923 51.3338ZM205.683 49.7018L204.302 43.8628L198.946 45.1295L199.747 50.5747L205.683 49.7018ZM212.787 48.0218L206.954 49.4268L210.122 62.5788L215.955 61.1738L221.788 59.7687L218.62 46.6167L212.787 48.0218ZM215.955 61.1738L212.876 56.0239C210.327 57.5482 207.836 58.6411 205.402 59.3477L207.075 65.1098L208.748 70.8718C212.266 69.8504 215.696 68.3193 219.034 66.3236L215.955 61.1738ZM207.075 65.1098L205.443 59.3359C202.972 60.0344 200.674 60.3578 198.531 60.3578V66.3578V72.3578C201.893 72.3578 205.29 71.8491 208.707 70.8836L207.075 65.1098ZM198.531 66.3578V60.3578C196.367 60.3578 194.631 60.0226 193.23 59.4743L191.043 65.0618L188.857 70.6492C191.872 71.8289 195.127 72.3578 198.531 72.3578V66.3578ZM191.043 65.0618L193.257 59.4853C191.889 58.9421 191.095 58.2974 190.602 57.6773L185.907 61.4138L181.213 65.1502C183.215 67.6662 185.845 69.4534 188.829 70.6383L191.043 65.0618ZM185.907 61.4138L190.638 57.7236C190.235 57.2061 190.035 56.6729 190.035 55.8938H184.035H178.035C178.035 59.2746 179.084 62.4214 181.176 65.1039L185.907 61.4138ZM184.035 55.8938H190.035C190.035 55.7719 190.046 55.7163 190.047 55.7137C190.047 55.7135 190.038 55.7548 190.007 55.8217C189.976 55.8898 189.935 55.9566 189.89 56.0133C189.846 56.0689 189.816 56.0922 189.821 56.0882L186.099 51.3818L182.378 46.6753C179.414 49.0189 178.035 52.3376 178.035 55.8938H184.035ZM186.099 51.3818L189.821 56.0883C190.182 55.8028 190.982 55.3628 192.606 55.0921L191.619 49.1738L190.633 43.2554C187.649 43.7527 184.769 44.7848 182.378 46.6753L186.099 51.3818ZM191.619 49.1738L194.335 43.8238C192.882 43.0861 191.965 42.3013 191.379 41.5615L186.675 45.2858L181.971 49.01C183.817 51.3422 186.196 53.1495 188.903 54.5238L191.619 49.1738ZM186.675 45.2858L191.463 41.6701C191.074 41.1545 190.899 40.6506 190.899 39.9578H184.899H178.899C178.899 43.2329 179.908 46.2811 181.887 48.9014L186.675 45.2858ZM184.899 39.9578H190.899C190.899 38.9042 191.142 38.3292 191.395 37.9585L186.435 34.5818L181.476 31.205C179.68 33.8423 178.899 36.8513 178.899 39.9578H184.899ZM186.435 34.5818L191.395 37.9585C191.729 37.4684 192.204 37.0396 193.023 36.6886L190.659 31.1738L188.296 25.6589C185.531 26.8439 183.19 28.6871 181.476 31.205L186.435 34.5818ZM190.659 31.1738L193.023 36.6886C193.955 36.2892 195.163 36.0218 196.755 36.0218V30.0218V24.0218C193.804 24.0218 190.948 24.5223 188.296 25.6589L190.659 31.1738ZM196.755 30.0218V36.0218C198.951 36.0218 201.271 36.4869 203.751 37.5249L206.067 31.9898L208.383 26.4546C204.592 24.8686 200.703 24.0218 196.755 24.0218V30.0218ZM206.067 31.9898L211.962 33.1078L212.49 30.3238L206.595 29.2058L200.7 28.0878L200.172 30.8718L206.067 31.9898ZM206.595 29.2058L205.241 35.051L213.737 37.019L215.091 31.1738L216.445 25.3285L207.949 23.3605L206.595 29.2058ZM215.091 31.1738L209.849 28.2543L199.289 47.2143L204.531 50.1338L209.773 53.0532L220.333 34.0932L215.091 31.1738ZM204.531 50.1338L208.048 45.2724C206.348 44.043 204.658 42.9937 203.004 42.2337L200.499 47.6858L197.994 53.1378C198.708 53.4658 199.706 54.0485 201.014 54.9951L204.531 50.1338ZM200.499 47.6858L203.182 42.3192C201.983 41.7197 200.012 40.8218 197.907 40.8218V46.8218V52.8218C197.731 52.8218 197.585 52.8109 197.474 52.7986C197.363 52.7862 197.276 52.7711 197.216 52.7592C197.103 52.7365 197.056 52.7187 197.09 52.7299C197.12 52.74 197.197 52.7674 197.326 52.8226C197.453 52.8772 197.615 52.9521 197.816 53.0523L200.499 47.6858ZM197.907 46.8218V40.8218C197.233 40.8218 195.695 40.8953 194.159 41.8827C192.169 43.162 191.235 45.2668 191.235 47.2538H197.235H203.235C203.235 47.9671 203.093 48.8837 202.604 49.8267C202.104 50.7895 201.388 51.5011 200.648 51.9768C199.336 52.8202 198.134 52.8218 197.907 52.8218V46.8218ZM197.235 47.2538H191.235C191.235 50.3783 193.403 52.114 193.898 52.5003C194.701 53.1281 195.572 53.561 196.222 53.8507C197.588 54.4591 199.359 55.0291 201.344 55.5796L202.947 49.7978L204.551 44.016C202.728 43.5104 201.642 43.1284 201.104 42.8888C200.803 42.7545 200.959 42.7894 201.287 43.0452C201.457 43.1784 201.866 43.5186 202.268 44.1031C202.684 44.7081 203.235 45.7919 203.235 47.2538H197.235ZM202.947 49.7978L196.969 49.289L196.777 51.545L202.755 52.0538L208.734 52.5626L208.926 50.3066L202.947 49.7978ZM202.755 52.0538L202.901 46.0555L200.933 46.0075L200.787 52.0058L200.641 58.004L202.609 58.052L202.755 52.0538ZM200.787 52.0058V46.0058C199.417 46.0058 197.879 46.0576 196.606 46.3406L197.907 52.1978L199.209 58.0549C199.074 58.0849 199.118 58.0631 199.458 58.0405C199.765 58.02 200.201 58.0058 200.787 58.0058V52.0058ZM197.907 52.1978L196.606 46.3406C196.082 46.4571 194.556 46.8167 193.224 48.053C192.436 48.7851 191.616 49.9246 191.315 51.4806C191.017 53.018 191.346 54.3442 191.752 55.2586L197.235 52.8218L202.718 50.3849C203.06 51.1554 203.369 52.3475 203.096 53.7609C202.819 55.1929 202.066 56.2184 201.39 56.8465C200.764 57.4281 200.163 57.7152 199.865 57.8407C199.541 57.9767 199.299 58.0349 199.209 58.0549L197.907 52.1978ZM197.235 52.8218L191.617 54.9285C192.659 57.7069 195.069 58.6085 195.927 58.8625C196.951 59.1659 197.915 59.2058 198.531 59.2058V53.2058V47.2058C198.379 47.2058 198.744 47.1816 199.336 47.357C199.761 47.483 201.907 48.1926 202.853 50.715L197.235 52.8218ZM198.531 53.2058V59.2058C200.037 59.2058 201.642 58.9299 203.185 58.5626L201.795 52.7258L200.405 46.8889C199.26 47.1616 198.69 47.2058 198.531 47.2058V53.2058ZM201.795 52.7258L203.185 58.5626C204.902 58.1538 206.609 57.5732 208.302 56.8421L205.923 51.3338L203.545 45.8254C202.422 46.3103 201.376 46.6578 200.405 46.8889L201.795 52.7258ZM205.923 51.3338L211.859 50.4608L211.619 48.8288L205.683 49.7018L199.747 50.5747L199.987 52.2067L205.923 51.3338ZM205.683 49.7018L207.064 55.5407L214.168 53.8607L212.787 48.0218L211.406 42.1828L204.302 43.8628L205.683 49.7018Z" fill="white" mask="url(#path-4-outside-1_244_2348)"/>
</svg>
