<svg width="298" height="100" viewBox="0 0 298 100" fill="none" xmlns="http://www.w3.org/2000/svg">
<path d="M0 0L100.612 4.49307L230.129 1.58827L297.525 3.46251L291.47 33.5411V74.5955L297.525 96.9515L206.924 94.9291L3.31914 99.6187L0 35.8677V0Z" fill="white"/>
<path d="M9.00537 11.6353L53.0437 14.4385H287.435L284.583 31.9003L279.679 64.4307L287.435 90.1276L109.991 87.2111L12.1115 92.287V62.0698L9.00537 11.6353Z" fill="black"/>
<path d="M12.8823 15.2822L146.585 17.785H282.435L278.438 38.3255L275.644 73.2439L282.435 85.3599L200.779 83.8591H107.775L15.8894 87.2878V41.6777L12.8823 15.2822Z" fill="#FFCC00"/>
<mask id="path-4-outside-1_244_2347" maskUnits="userSpaceOnUse" x="74.6353" y="24.8408" width="149" height="53" fill="black">
<rect fill="white" x="74.6353" y="24.8408" width="149" height="53"/>
<path d="M97.0335 70.7128C92.3295 70.7128 88.7295 69.1928 86.2335 66.1528C83.7375 63.0808 82.0575 58.2648 81.1935 51.7048C81.0655 50.8408 81.0015 49.9128 81.0015 48.9208C81.0015 45.9768 81.5775 43.2728 82.7295 40.8088C83.9135 38.3128 85.6095 36.3288 87.8175 34.8568C90.0255 33.3528 92.6015 32.6008 95.5455 32.6008C96.2495 32.6008 96.9695 32.6488 97.7055 32.7448C103.21 33.4168 107.322 35.4008 110.042 38.6968C112.794 41.9928 114.17 46.3288 114.17 51.7048C114.17 55.1608 113.402 58.3448 111.866 61.2568C110.33 64.1688 108.25 66.4728 105.626 68.1688C103.002 69.8648 100.138 70.7128 97.0335 70.7128ZM95.7375 64.3288C96.2815 64.3288 96.5535 63.9608 96.5535 63.2248C96.5535 62.6488 96.2815 61.2728 95.7375 59.0968C95.5455 58.4568 95.2415 57.2088 94.8255 55.3528C94.2175 52.6968 93.7215 50.7448 93.3375 49.4968C92.9535 48.2488 92.6335 47.4648 92.3775 47.1448C92.1215 46.8248 91.8335 46.7128 91.5135 46.8088C91.1615 46.9048 90.9855 47.1928 90.9855 47.6728C90.9855 48.0888 91.0975 48.8728 91.3215 50.0248C91.5775 51.1768 91.9135 52.5848 92.3295 54.2488L92.7615 56.0248L93.0975 57.4168C93.8015 60.2328 94.3135 62.0888 94.6335 62.9848C94.9535 63.8808 95.3215 64.3288 95.7375 64.3288ZM150.25 55.7368L150.97 68.8408L133.258 67.3528L133.21 56.6008L133.738 56.5528C133.482 54.5048 133.098 53.1128 132.586 52.3768C132.074 51.6408 131.434 51.3048 130.666 51.3688H130.57L131.05 56.8408H132.202L132.394 66.8728L117.514 69.0808L116.314 56.7448H119.578L120.25 44.5048L116.794 45.1768L115.642 33.2728L132.442 32.6968L132.826 42.0088L129.85 42.5848L129.994 44.2168C131.882 43.7368 133.258 43.2568 134.122 42.7768C135.018 42.2968 135.706 41.5128 136.186 40.4248L134.362 40.3288L135.37 32.2648H150.154L148.474 40.9528L146.794 40.8568C146.122 42.5528 145.306 43.9608 144.346 45.0808C143.386 46.1688 142.218 47.0808 140.842 47.8168C142.986 48.2328 144.57 49.0648 145.594 50.3128C146.618 51.5608 147.45 53.4008 148.09 55.8328L150.25 55.7368ZM169.601 70.5688V60.2008L170.513 60.1048L170.321 58.5688H167.681L167.489 59.8648L168.737 60.1048L167.633 70.5688L153.377 68.4568L155.201 57.4648L157.841 57.9928L159.809 49.4008H158.657L158.081 33.7048L180.401 32.7448L181.697 48.9688L180.113 49.0168L182.849 58.6168L185.057 58.3288L186.497 70.9528L169.601 70.5688ZM168.929 49.2088L168.353 53.5288H169.697L169.169 49.2088H168.929ZM206.71 60.3928L209.782 60.4408L209.878 68.3608L190.534 70.0408L189.43 60.2488L192.454 60.2968L192.694 55.9768C190.454 54.9208 188.774 53.3208 187.654 51.1768C186.534 49.0328 185.862 46.3288 185.638 43.0648L183.142 42.8728L183.862 32.4088L201.142 34.3768L200.326 44.1688L199.318 44.0728C199.222 45.3208 199.174 46.3288 199.174 47.0968C199.174 47.9288 199.238 48.5368 199.366 48.9208C199.494 49.3048 199.718 49.4968 200.038 49.4968C200.614 49.4968 201.062 49.0328 201.382 48.1048C201.702 47.1768 201.974 45.4648 202.198 42.9688L201.574 42.9208L202.246 32.7928H217.03L217.27 44.2168L213.286 43.8808C212.646 47.5608 211.798 50.3768 210.742 52.3288C209.718 54.2808 208.262 55.6568 206.374 56.4568L206.71 60.3928Z"/>
</mask>
<path d="M97.0335 70.7128C92.3295 70.7128 88.7295 69.1928 86.2335 66.1528C83.7375 63.0808 82.0575 58.2648 81.1935 51.7048C81.0655 50.8408 81.0015 49.9128 81.0015 48.9208C81.0015 45.9768 81.5775 43.2728 82.7295 40.8088C83.9135 38.3128 85.6095 36.3288 87.8175 34.8568C90.0255 33.3528 92.6015 32.6008 95.5455 32.6008C96.2495 32.6008 96.9695 32.6488 97.7055 32.7448C103.21 33.4168 107.322 35.4008 110.042 38.6968C112.794 41.9928 114.17 46.3288 114.17 51.7048C114.17 55.1608 113.402 58.3448 111.866 61.2568C110.33 64.1688 108.25 66.4728 105.626 68.1688C103.002 69.8648 100.138 70.7128 97.0335 70.7128ZM95.7375 64.3288C96.2815 64.3288 96.5535 63.9608 96.5535 63.2248C96.5535 62.6488 96.2815 61.2728 95.7375 59.0968C95.5455 58.4568 95.2415 57.2088 94.8255 55.3528C94.2175 52.6968 93.7215 50.7448 93.3375 49.4968C92.9535 48.2488 92.6335 47.4648 92.3775 47.1448C92.1215 46.8248 91.8335 46.7128 91.5135 46.8088C91.1615 46.9048 90.9855 47.1928 90.9855 47.6728C90.9855 48.0888 91.0975 48.8728 91.3215 50.0248C91.5775 51.1768 91.9135 52.5848 92.3295 54.2488L92.7615 56.0248L93.0975 57.4168C93.8015 60.2328 94.3135 62.0888 94.6335 62.9848C94.9535 63.8808 95.3215 64.3288 95.7375 64.3288ZM150.25 55.7368L150.97 68.8408L133.258 67.3528L133.21 56.6008L133.738 56.5528C133.482 54.5048 133.098 53.1128 132.586 52.3768C132.074 51.6408 131.434 51.3048 130.666 51.3688H130.57L131.05 56.8408H132.202L132.394 66.8728L117.514 69.0808L116.314 56.7448H119.578L120.25 44.5048L116.794 45.1768L115.642 33.2728L132.442 32.6968L132.826 42.0088L129.85 42.5848L129.994 44.2168C131.882 43.7368 133.258 43.2568 134.122 42.7768C135.018 42.2968 135.706 41.5128 136.186 40.4248L134.362 40.3288L135.37 32.2648H150.154L148.474 40.9528L146.794 40.8568C146.122 42.5528 145.306 43.9608 144.346 45.0808C143.386 46.1688 142.218 47.0808 140.842 47.8168C142.986 48.2328 144.57 49.0648 145.594 50.3128C146.618 51.5608 147.45 53.4008 148.09 55.8328L150.25 55.7368ZM169.601 70.5688V60.2008L170.513 60.1048L170.321 58.5688H167.681L167.489 59.8648L168.737 60.1048L167.633 70.5688L153.377 68.4568L155.201 57.4648L157.841 57.9928L159.809 49.4008H158.657L158.081 33.7048L180.401 32.7448L181.697 48.9688L180.113 49.0168L182.849 58.6168L185.057 58.3288L186.497 70.9528L169.601 70.5688ZM168.929 49.2088L168.353 53.5288H169.697L169.169 49.2088H168.929ZM206.71 60.3928L209.782 60.4408L209.878 68.3608L190.534 70.0408L189.43 60.2488L192.454 60.2968L192.694 55.9768C190.454 54.9208 188.774 53.3208 187.654 51.1768C186.534 49.0328 185.862 46.3288 185.638 43.0648L183.142 42.8728L183.862 32.4088L201.142 34.3768L200.326 44.1688L199.318 44.0728C199.222 45.3208 199.174 46.3288 199.174 47.0968C199.174 47.9288 199.238 48.5368 199.366 48.9208C199.494 49.3048 199.718 49.4968 200.038 49.4968C200.614 49.4968 201.062 49.0328 201.382 48.1048C201.702 47.1768 201.974 45.4648 202.198 42.9688L201.574 42.9208L202.246 32.7928H217.03L217.27 44.2168L213.286 43.8808C212.646 47.5608 211.798 50.3768 210.742 52.3288C209.718 54.2808 208.262 55.6568 206.374 56.4568L206.71 60.3928Z" fill="black"/>
<path d="M86.2335 66.1528L81.5768 69.9364L81.5865 69.9483L81.5963 69.9602L86.2335 66.1528ZM81.1935 51.7048L87.1421 50.9213L87.1358 50.8734L87.1287 50.8255L81.1935 51.7048ZM82.7295 40.8088L77.3085 38.2373L77.3013 38.2525L77.2942 38.2676L82.7295 40.8088ZM87.8175 34.8568L91.1457 39.8491L91.1706 39.8325L91.1953 39.8157L87.8175 34.8568ZM97.7055 32.7448L96.9295 38.6944L96.9539 38.6976L96.9783 38.7006L97.7055 32.7448ZM110.042 38.6968L105.414 42.5158L105.425 42.5291L105.436 42.5423L110.042 38.6968ZM111.866 61.2568L117.172 64.0561L117.172 64.0561L111.866 61.2568ZM105.626 68.1688L108.882 73.2079H108.882L105.626 68.1688ZM95.7375 59.0968L101.558 57.6416L101.525 57.5063L101.484 57.3727L95.7375 59.0968ZM94.8255 55.3528L100.68 54.0406L100.677 54.0272L100.674 54.014L94.8255 55.3528ZM92.3775 47.1448L87.6923 50.893L87.6923 50.893L92.3775 47.1448ZM91.5135 46.8088L93.0922 52.5974L93.1652 52.5775L93.2376 52.5558L91.5135 46.8088ZM91.3215 50.0248L85.4318 51.17L85.4471 51.2484L85.4644 51.3264L91.3215 50.0248ZM92.3295 54.2488L98.1595 52.8307L98.155 52.8121L98.1504 52.7936L92.3295 54.2488ZM92.7615 56.0248L98.594 54.617L98.5915 54.6067L92.7615 56.0248ZM93.0975 57.4168L87.265 58.8247L87.2707 58.8484L87.2766 58.872L93.0975 57.4168ZM94.6335 62.9848L100.284 60.9668L100.284 60.9668L94.6335 62.9848ZM97.0335 70.7128V64.7128C93.7359 64.7128 92.0009 63.722 90.8707 62.3454L86.2335 66.1528L81.5963 69.9602C85.4581 74.6637 90.9231 76.7128 97.0335 76.7128V70.7128ZM86.2335 66.1528L90.8902 62.3693C89.4192 60.5588 87.9479 57.0392 87.1421 50.9213L81.1935 51.7048L75.2449 52.4883C76.1671 59.4904 78.0558 65.6028 81.5768 69.9364L86.2335 66.1528ZM81.1935 51.7048L87.1287 50.8255C87.0492 50.2886 87.0015 49.6573 87.0015 48.9208H81.0015H75.0015C75.0015 50.1684 75.0818 51.393 75.2583 52.5841L81.1935 51.7048ZM81.0015 48.9208H87.0015C87.0015 46.7816 87.4146 44.9545 88.1648 43.35L82.7295 40.8088L77.2942 38.2676C75.7404 41.5911 75.0015 45.1721 75.0015 48.9208H81.0015ZM82.7295 40.8088L88.1505 43.3803C88.8889 41.8237 89.8796 40.6932 91.1457 39.8491L87.8175 34.8568L84.4893 29.8645C81.3394 31.9645 78.9381 34.8019 77.3085 38.2373L82.7295 40.8088ZM87.8175 34.8568L91.1953 39.8157C92.3065 39.0588 93.6782 38.6008 95.5455 38.6008V32.6008V26.6008C91.5248 26.6008 87.7445 27.6469 84.4397 29.8979L87.8175 34.8568ZM95.5455 32.6008V38.6008C95.9764 38.6008 96.437 38.6302 96.9295 38.6944L97.7055 32.7448L98.4815 26.7952C97.5021 26.6675 96.5226 26.6008 95.5455 26.6008V32.6008ZM97.7055 32.7448L96.9783 38.7006C101.426 39.2436 103.937 40.7261 105.414 42.5158L110.042 38.6968L114.669 34.8779C110.706 30.0756 104.993 27.59 98.4327 26.789L97.7055 32.7448ZM110.042 38.6968L105.436 42.5423C107.078 44.5094 108.17 47.3701 108.17 51.7048H114.17H120.17C120.17 45.2875 118.509 39.4763 114.647 34.8513L110.042 38.6968ZM114.17 51.7048H108.17C108.17 54.2354 107.617 56.4517 106.559 58.4575L111.866 61.2568L117.172 64.0561C119.186 60.238 120.17 56.0863 120.17 51.7048H114.17ZM111.866 61.2568L106.559 58.4575C105.476 60.5102 104.082 62.0225 102.369 63.1298L105.626 68.1688L108.882 73.2079C112.417 70.9231 115.183 67.8274 117.172 64.0561L111.866 61.2568ZM105.626 68.1688L102.369 63.1298C100.708 64.2029 98.9739 64.7128 97.0335 64.7128V70.7128V76.7128C101.301 76.7128 105.295 75.5268 108.882 73.2079L105.626 68.1688ZM95.7375 64.3288V70.3288C97.5066 70.3288 99.6858 69.6334 101.175 67.6192C102.413 65.9442 102.554 64.1562 102.554 63.2248H96.5535H90.5535C90.5535 63.0294 90.5584 61.7934 91.5244 60.4865C92.7412 58.8402 94.5124 58.3288 95.7375 58.3288V64.3288ZM96.5535 63.2248H102.554C102.554 62.2863 102.37 61.279 102.236 60.5973C102.072 59.7716 101.842 58.7766 101.558 57.6416L95.7375 59.0968L89.9166 60.552C90.1769 61.5931 90.3546 62.374 90.4634 62.9244C90.5178 63.1994 90.5466 63.3751 90.5599 63.4709C90.5784 63.6038 90.5535 63.4845 90.5535 63.2248H96.5535ZM95.7375 59.0968L101.484 57.3727C101.363 56.968 101.102 55.9231 100.68 54.0406L94.8255 55.3528L88.9708 56.6651C89.3808 58.4946 89.728 59.9457 89.9905 60.8209L95.7375 59.0968ZM94.8255 55.3528L100.674 54.014C100.061 51.3334 99.5245 49.2023 99.0722 47.7323L93.3375 49.4968L87.6028 51.2613C87.9185 52.2873 88.3744 54.0602 88.9768 56.6917L94.8255 55.3528ZM93.3375 49.4968L99.0722 47.7323C98.8526 47.0185 98.6176 46.3252 98.3646 45.7054C98.1672 45.2219 97.7597 44.2679 97.0627 43.3966L92.3775 47.1448L87.6923 50.893C87.5469 50.7113 87.4462 50.559 87.3859 50.4624C87.3236 50.3626 87.2829 50.2872 87.262 50.2472C87.2232 50.1729 87.2218 50.1602 87.2544 50.2402C87.2845 50.3138 87.3306 50.4344 87.3921 50.612C87.453 50.7876 87.5232 51.0027 87.6028 51.2613L93.3375 49.4968ZM92.3775 47.1448L97.0627 43.3967C96.4833 42.6724 95.5432 41.7728 94.1442 41.2288C92.6505 40.6479 91.1192 40.6629 89.7894 41.0619L91.5135 46.8088L93.2376 52.5558C92.2278 52.8587 91.0005 52.8817 89.7948 52.4128C88.6839 51.9808 88.0157 51.2972 87.6923 50.893L92.3775 47.1448ZM91.5135 46.8088L89.9348 41.0202C88.4133 41.4352 86.9518 42.4071 85.9978 43.9681C85.1404 45.3712 84.9855 46.7713 84.9855 47.6728H90.9855H96.9855C96.9855 48.0944 96.9187 49.1104 96.2372 50.2255C95.4592 51.4985 94.2617 52.2784 93.0922 52.5974L91.5135 46.8088ZM90.9855 47.6728H84.9855C84.9855 48.754 85.2215 50.0887 85.4318 51.17L91.3215 50.0248L97.2112 48.8796C97.1102 48.3601 97.046 47.9822 97.0092 47.7243C96.991 47.5969 96.9832 47.5244 96.9805 47.4962C96.9769 47.4573 96.9855 47.5286 96.9855 47.6728H90.9855ZM91.3215 50.0248L85.4644 51.3264C85.7356 52.547 86.085 54.0096 86.5086 55.704L92.3295 54.2488L98.1504 52.7936C97.742 51.16 97.4194 49.8066 97.1786 48.7232L91.3215 50.0248ZM92.3295 54.2488L86.4995 55.6669L86.9315 57.4429L92.7615 56.0248L98.5915 54.6067L98.1595 52.8307L92.3295 54.2488ZM92.7615 56.0248L86.929 57.4327L87.265 58.8247L93.0975 57.4168L98.93 56.009L98.594 54.617L92.7615 56.0248ZM93.0975 57.4168L87.2766 58.872C87.9678 61.6365 88.5471 63.7822 88.9831 65.0028L94.6335 62.9848L100.284 60.9668C100.08 60.3954 99.6352 58.8291 98.9184 55.9616L93.0975 57.4168ZM94.6335 62.9848L88.9831 65.0028C89.2462 65.7396 89.6994 66.8106 90.5131 67.8013C91.3658 68.8392 93.1045 70.3288 95.7375 70.3288V64.3288V58.3288C97.9545 58.3288 99.3012 59.5944 99.7859 60.1844C100.232 60.7271 100.341 61.126 100.284 60.9668L94.6335 62.9848ZM150.25 55.7368L156.241 55.4076L155.915 49.4791L149.984 49.7427L150.25 55.7368ZM150.97 68.8408L150.468 74.8198L157.339 75.397L156.961 68.5116L150.97 68.8408ZM133.258 67.3528L127.258 67.3796L127.283 72.872L132.756 73.3318L133.258 67.3528ZM133.21 56.6008L132.667 50.6255L127.186 51.1238L127.21 56.6276L133.21 56.6008ZM133.738 56.5528L134.281 62.5282L140.462 61.9664L139.692 55.8086L133.738 56.5528ZM130.666 51.3688V57.3688H130.916L131.164 57.3481L130.666 51.3688ZM130.57 51.3688V45.3688H124.021L124.593 51.8931L130.57 51.3688ZM131.05 56.8408L125.073 57.3651L125.553 62.8408H131.05V56.8408ZM132.202 56.8408L138.201 56.726L138.088 50.8408H132.202V56.8408ZM132.394 66.8728L133.275 72.8078L138.494 72.0334L138.393 66.758L132.394 66.8728ZM117.514 69.0808L111.542 69.6617L112.153 75.942L118.395 75.0158L117.514 69.0808ZM116.314 56.7448V50.7448H109.702L110.342 57.3257L116.314 56.7448ZM119.578 56.7448V62.7448H125.258L125.569 57.0737L119.578 56.7448ZM120.25 44.5048L126.241 44.8337L126.663 37.1455L119.105 38.6151L120.25 44.5048ZM116.794 45.1768L110.822 45.7548L111.458 52.3268L117.939 51.0665L116.794 45.1768ZM115.642 33.2728L115.437 27.2763L109.055 27.4951L109.67 33.8508L115.642 33.2728ZM132.442 32.6968L138.437 32.4496L138.192 26.4962L132.237 26.7003L132.442 32.6968ZM132.826 42.0088L133.966 47.8995L139.034 46.9187L138.821 41.7616L132.826 42.0088ZM129.85 42.5848L128.71 36.6941L123.398 37.7223L123.873 43.1122L129.85 42.5848ZM129.994 44.2168L124.017 44.7442L124.637 51.7696L131.473 50.0318L129.994 44.2168ZM134.122 42.7768L131.289 37.4879L131.248 37.5096L131.208 37.5319L134.122 42.7768ZM136.186 40.4248L141.676 42.8467L145.186 34.8902L136.501 34.4331L136.186 40.4248ZM134.362 40.3288L128.408 39.5846L127.609 45.9817L134.047 46.3205L134.362 40.3288ZM135.37 32.2648V26.2648H130.073L129.416 31.5206L135.37 32.2648ZM150.154 32.2648L156.045 33.4039L157.425 26.2648H150.154V32.2648ZM148.474 40.9528L148.132 46.943L153.369 47.2423L154.365 42.0919L148.474 40.9528ZM146.794 40.8568L147.136 34.8666L142.812 34.6195L141.216 38.6466L146.794 40.8568ZM144.346 45.0808L148.845 49.0506L148.874 49.0183L148.902 48.9856L144.346 45.0808ZM140.842 47.8168L138.012 42.5261L123.122 50.4905L139.699 53.707L140.842 47.8168ZM148.09 55.8328L142.288 57.3598L143.52 62.0419L148.357 61.8269L148.09 55.8328ZM150.25 55.7368L144.259 56.066L144.979 69.17L150.97 68.8408L156.961 68.5116L156.241 55.4076L150.25 55.7368ZM150.97 68.8408L151.472 62.8619L133.76 61.3739L133.258 67.3528L132.756 73.3318L150.468 74.8198L150.97 68.8408ZM133.258 67.3528L139.258 67.326L139.21 56.574L133.21 56.6008L127.21 56.6276L127.258 67.3796L133.258 67.3528ZM133.21 56.6008L133.753 62.5762L134.281 62.5282L133.738 56.5528L133.195 50.5775L132.667 50.6255L133.21 56.6008ZM133.738 56.5528L139.692 55.8086C139.434 53.7432 138.944 51.0098 137.512 48.9504L132.586 52.3768L127.661 55.8032C127.493 55.5616 127.423 55.3962 127.416 55.3802C127.407 55.3573 127.431 55.411 127.474 55.5684C127.564 55.8947 127.679 56.4495 127.784 57.297L133.738 56.5528ZM132.586 52.3768L137.512 48.9504C136.015 46.7989 133.455 45.1156 130.168 45.3895L130.666 51.3688L131.164 57.3481C130.49 57.4043 129.691 57.283 128.933 56.8852C128.219 56.5103 127.825 56.0396 127.661 55.8032L132.586 52.3768ZM130.666 51.3688V45.3688H130.57V51.3688V57.3688H130.666V51.3688ZM130.57 51.3688L124.593 51.8931L125.073 57.3651L131.05 56.8408L137.027 56.3165L136.547 50.8445L130.57 51.3688ZM131.05 56.8408V62.8408H132.202V56.8408V50.8408H131.05V56.8408ZM132.202 56.8408L126.203 56.9556L126.395 66.9876L132.394 66.8728L138.393 66.758L138.201 56.726L132.202 56.8408ZM132.394 66.8728L131.513 60.9378L116.633 63.1458L117.514 69.0808L118.395 75.0158L133.275 72.8078L132.394 66.8728ZM117.514 69.0808L123.486 68.4999L122.286 56.1639L116.314 56.7448L110.342 57.3257L111.542 69.6617L117.514 69.0808ZM116.314 56.7448V62.7448H119.578V56.7448V50.7448H116.314V56.7448ZM119.578 56.7448L125.569 57.0737L126.241 44.8337L120.25 44.5048L114.259 44.1759L113.587 56.4159L119.578 56.7448ZM120.25 44.5048L119.105 38.6151L115.649 39.2871L116.794 45.1768L117.939 51.0665L121.395 50.3945L120.25 44.5048ZM116.794 45.1768L122.766 44.5989L121.614 32.6949L115.642 33.2728L109.67 33.8508L110.822 45.7548L116.794 45.1768ZM115.642 33.2728L115.848 39.2693L132.648 38.6933L132.442 32.6968L132.237 26.7003L115.437 27.2763L115.642 33.2728ZM132.442 32.6968L126.447 32.944L126.831 42.256L132.826 42.0088L138.821 41.7616L138.437 32.4496L132.442 32.6968ZM132.826 42.0088L131.686 36.1181L128.71 36.6941L129.85 42.5848L130.99 48.4755L133.966 47.8995L132.826 42.0088ZM129.85 42.5848L123.873 43.1122L124.017 44.7442L129.994 44.2168L135.971 43.6895L135.827 42.0575L129.85 42.5848ZM129.994 44.2168L131.473 50.0318C133.476 49.5224 135.47 48.8917 137.036 48.0218L134.122 42.7768L131.208 37.5319C131.209 37.5313 131.195 37.5395 131.161 37.5559C131.127 37.5721 131.079 37.5943 131.015 37.622C130.884 37.6781 130.704 37.7487 130.466 37.8316C129.985 37.9992 129.344 38.1913 128.516 38.4018L129.994 44.2168ZM134.122 42.7768L136.955 48.0657C139.225 46.8497 140.751 44.9431 141.676 42.8467L136.186 40.4248L130.697 38.003C130.669 38.0651 130.69 37.9975 130.8 37.8713C130.918 37.737 131.086 37.5966 131.289 37.4879L134.122 42.7768ZM136.186 40.4248L136.501 34.4331L134.677 34.3371L134.362 40.3288L134.047 46.3205L135.871 46.4165L136.186 40.4248ZM134.362 40.3288L140.316 41.073L141.324 33.009L135.37 32.2648L129.416 31.5206L128.408 39.5846L134.362 40.3288ZM135.37 32.2648V38.2648H150.154V32.2648V26.2648H135.37V32.2648ZM150.154 32.2648L144.263 31.1257L142.583 39.8137L148.474 40.9528L154.365 42.0919L156.045 33.4039L150.154 32.2648ZM148.474 40.9528L148.816 34.9626L147.136 34.8666L146.794 40.8568L146.452 46.847L148.132 46.943L148.474 40.9528ZM146.794 40.8568L141.216 38.6466C140.733 39.8655 140.23 40.6636 139.791 41.1761L144.346 45.0808L148.902 48.9856C150.382 47.258 151.511 45.2401 152.372 43.067L146.794 40.8568ZM144.346 45.0808L139.847 41.1111C139.395 41.6236 138.805 42.1019 138.012 42.5261L140.842 47.8168L143.672 53.1075C145.631 52.0598 147.377 50.7141 148.845 49.0506L144.346 45.0808ZM140.842 47.8168L139.699 53.707C140.955 53.9507 141.088 54.2798 140.956 54.1187L145.594 50.3128L150.233 46.5069C148.052 43.8498 145.017 42.515 141.985 41.9267L140.842 47.8168ZM145.594 50.3128L140.956 54.1187C141.212 54.4314 141.757 55.3448 142.288 57.3598L148.09 55.8328L153.893 54.3059C153.143 51.4569 152.024 48.6902 150.233 46.5069L145.594 50.3128ZM148.09 55.8328L148.357 61.8269L150.517 61.7309L150.25 55.7368L149.984 49.7427L147.824 49.8387L148.09 55.8328ZM169.601 70.5688H163.601V76.434L169.464 76.5673L169.601 70.5688ZM169.601 60.2008L168.972 54.2338L163.601 54.7993V60.2008H169.601ZM170.513 60.1048L171.141 66.0719L177.225 65.4314L176.466 59.3606L170.513 60.1048ZM170.321 58.5688L176.274 57.8246L175.617 52.5688H170.321V58.5688ZM167.681 58.5688V52.5688H162.504L161.745 57.6895L167.681 58.5688ZM167.489 59.8648L161.553 58.9855L160.711 64.6714L166.355 65.7569L167.489 59.8648ZM168.737 60.1048L174.703 60.7344L175.282 55.2536L169.87 54.2128L168.737 60.1048ZM167.633 70.5688L166.753 76.504L172.943 77.421L173.599 71.1984L167.633 70.5688ZM153.377 68.4568L147.457 67.4746L146.458 73.4973L152.497 74.392L153.377 68.4568ZM155.201 57.4648L156.377 51.5813L150.297 50.3652L149.281 56.4826L155.201 57.4648ZM157.841 57.9928L156.664 63.8763L162.386 65.0208L163.689 59.3324L157.841 57.9928ZM159.809 49.4008L165.657 50.7404L167.338 43.4008H159.809V49.4008ZM158.657 49.4008L152.661 49.6209L152.873 55.4008H158.657V49.4008ZM158.081 33.7048L157.823 27.7104L151.866 27.9666L152.085 33.9249L158.081 33.7048ZM180.401 32.7448L186.381 32.2671L185.921 26.5018L180.143 26.7504L180.401 32.7448ZM181.697 48.9688L181.878 54.9661L188.179 54.7751L187.677 48.4911L181.697 48.9688ZM180.113 49.0168L179.931 43.0196L172.231 43.2529L174.342 50.6613L180.113 49.0168ZM182.849 58.6168L177.078 60.2613L178.496 65.2354L183.625 64.5664L182.849 58.6168ZM185.057 58.3288L191.018 57.6488L190.327 51.5906L184.28 52.3792L185.057 58.3288ZM186.497 70.9528L186.36 76.9513L193.237 77.1076L192.458 70.2728L186.497 70.9528ZM168.929 49.2088V43.2088H163.675L162.981 48.4158L168.929 49.2088ZM168.353 53.5288L162.405 52.7358L161.499 59.5288H168.353V53.5288ZM169.697 53.5288V59.5288H176.474L175.652 52.8009L169.697 53.5288ZM169.169 49.2088L175.124 48.4809L174.48 43.2088H169.169V49.2088ZM169.601 70.5688H175.601V60.2008H169.601H163.601V70.5688H169.601ZM169.601 60.2008L170.229 66.1679L171.141 66.0719L170.513 60.1048L169.884 54.1378L168.972 54.2338L169.601 60.2008ZM170.513 60.1048L176.466 59.3606L176.274 57.8246L170.321 58.5688L164.367 59.313L164.559 60.849L170.513 60.1048ZM170.321 58.5688V52.5688H167.681V58.5688V64.5688H170.321V58.5688ZM167.681 58.5688L161.745 57.6895L161.553 58.9855L167.489 59.8648L173.424 60.7441L173.616 59.4481L167.681 58.5688ZM167.489 59.8648L166.355 65.7569L167.603 65.9969L168.737 60.1048L169.87 54.2128L168.622 53.9728L167.489 59.8648ZM168.737 60.1048L162.77 59.4753L161.666 69.9393L167.633 70.5688L173.599 71.1984L174.703 60.7344L168.737 60.1048ZM167.633 70.5688L168.512 64.6336L154.256 62.5216L153.377 68.4568L152.497 74.392L166.753 76.504L167.633 70.5688ZM153.377 68.4568L159.296 69.439L161.12 58.447L155.201 57.4648L149.281 56.4826L147.457 67.4746L153.377 68.4568ZM155.201 57.4648L154.024 63.3483L156.664 63.8763L157.841 57.9928L159.017 52.1093L156.377 51.5813L155.201 57.4648ZM157.841 57.9928L163.689 59.3324L165.657 50.7404L159.809 49.4008L153.96 48.0612L151.992 56.6532L157.841 57.9928ZM159.809 49.4008V43.4008H158.657V49.4008V55.4008H159.809V49.4008ZM158.657 49.4008L164.652 49.1808L164.076 33.4848L158.081 33.7048L152.085 33.9249L152.661 49.6209L158.657 49.4008ZM158.081 33.7048L158.338 39.6993L180.658 38.7393L180.401 32.7448L180.143 26.7504L157.823 27.7104L158.081 33.7048ZM180.401 32.7448L174.42 33.2226L175.716 49.4466L181.697 48.9688L187.677 48.4911L186.381 32.2671L180.401 32.7448ZM181.697 48.9688L181.515 42.9716L179.931 43.0196L180.113 49.0168L180.294 55.0141L181.878 54.9661L181.697 48.9688ZM180.113 49.0168L174.342 50.6613L177.078 60.2613L182.849 58.6168L188.619 56.9723L185.883 47.3723L180.113 49.0168ZM182.849 58.6168L183.625 64.5664L185.833 64.2784L185.057 58.3288L184.28 52.3792L182.072 52.6672L182.849 58.6168ZM185.057 58.3288L179.095 59.0088L180.535 71.6328L186.497 70.9528L192.458 70.2728L191.018 57.6488L185.057 58.3288ZM186.497 70.9528L186.633 64.9544L169.737 64.5704L169.601 70.5688L169.464 76.5673L186.36 76.9513L186.497 70.9528ZM168.929 49.2088L162.981 48.4158L162.405 52.7358L168.353 53.5288L174.3 54.3218L174.876 50.0018L168.929 49.2088ZM168.353 53.5288V59.5288H169.697V53.5288V47.5288H168.353V53.5288ZM169.697 53.5288L175.652 52.8009L175.124 48.4809L169.169 49.2088L163.213 49.9367L163.741 54.2567L169.697 53.5288ZM169.169 49.2088V43.2088H168.929V49.2088V55.2088H169.169V49.2088ZM206.71 60.3928L200.732 60.9032L201.193 66.3074L206.616 66.3921L206.71 60.3928ZM209.782 60.4408L215.782 60.3681L215.711 54.5327L209.876 54.4416L209.782 60.4408ZM209.878 68.3608L210.397 74.3383L215.945 73.8565L215.878 68.2881L209.878 68.3608ZM190.534 70.0408L184.572 70.713L185.227 76.5243L191.053 76.0183L190.534 70.0408ZM189.43 60.2488L189.525 54.2496L182.704 54.1413L183.468 60.921L189.43 60.2488ZM192.454 60.2968L192.359 66.2961L198.125 66.3876L198.445 60.6296L192.454 60.2968ZM192.694 55.9768L198.685 56.3096L198.909 52.2734L195.253 50.5497L192.694 55.9768ZM187.654 51.1768L192.972 48.3987V48.3987L187.654 51.1768ZM185.638 43.0648L191.624 42.654L191.269 37.4802L186.098 37.0825L185.638 43.0648ZM183.142 42.8728L177.156 42.4609L176.748 48.3987L182.682 48.8551L183.142 42.8728ZM183.862 32.4088L184.541 26.4474L178.307 25.7374L177.876 31.9969L183.862 32.4088ZM201.142 34.3768L207.121 34.8751L207.605 29.0741L201.821 28.4154L201.142 34.3768ZM200.326 44.1688L199.757 50.1418L205.801 50.7174L206.305 44.6671L200.326 44.1688ZM199.318 44.0728L199.887 38.0998L193.804 37.5205L193.336 43.6126L199.318 44.0728ZM201.382 48.1048L195.71 46.1489V46.1489L201.382 48.1048ZM202.198 42.9688L208.174 43.5051L208.717 37.4526L202.658 36.9865L202.198 42.9688ZM201.574 42.9208L195.587 42.5236L195.194 48.4478L201.114 48.9031L201.574 42.9208ZM202.246 32.7928V26.7928H196.631L196.259 32.3956L202.246 32.7928ZM217.03 32.7928L223.029 32.6668L222.905 26.7928H217.03V32.7928ZM217.27 44.2168L216.766 50.1956L223.409 50.7558L223.269 44.0908L217.27 44.2168ZM213.286 43.8808L213.79 37.902L208.316 37.4404L207.375 42.8528L213.286 43.8808ZM210.742 52.3288L205.465 49.4739L205.447 49.5076L205.429 49.5415L210.742 52.3288ZM206.374 56.4568L204.033 50.9323L200.026 52.6304L200.396 56.9672L206.374 56.4568ZM206.71 60.3928L206.616 66.3921L209.688 66.4401L209.782 60.4408L209.876 54.4416L206.804 54.3936L206.71 60.3928ZM209.782 60.4408L203.783 60.5135L203.879 68.4335L209.878 68.3608L215.878 68.2881L215.782 60.3681L209.782 60.4408ZM209.878 68.3608L209.359 62.3833L190.015 64.0633L190.534 70.0408L191.053 76.0183L210.397 74.3383L209.878 68.3608ZM190.534 70.0408L196.496 69.3686L195.392 59.5766L189.43 60.2488L183.468 60.921L184.572 70.713L190.534 70.0408ZM189.43 60.2488L189.335 66.2481L192.359 66.2961L192.454 60.2968L192.549 54.2976L189.525 54.2496L189.43 60.2488ZM192.454 60.2968L198.445 60.6296L198.685 56.3096L192.694 55.9768L186.703 55.644L186.463 59.964L192.454 60.2968ZM192.694 55.9768L195.253 50.5497C194.167 50.0376 193.471 49.3529 192.972 48.3987L187.654 51.1768L182.336 53.9549C184.078 57.2888 186.742 59.804 190.136 61.404L192.694 55.9768ZM187.654 51.1768L192.972 48.3987C192.346 47.1994 191.81 45.3662 191.624 42.654L185.638 43.0648L179.652 43.4756C179.914 47.2914 180.723 50.8662 182.336 53.9549L187.654 51.1768ZM185.638 43.0648L186.098 37.0825L183.602 36.8905L183.142 42.8728L182.682 48.8551L185.178 49.0471L185.638 43.0648ZM183.142 42.8728L189.128 43.2847L189.848 32.8207L183.862 32.4088L177.876 31.9969L177.156 42.4609L183.142 42.8728ZM183.862 32.4088L183.183 38.3703L200.463 40.3383L201.142 34.3768L201.821 28.4154L184.541 26.4474L183.862 32.4088ZM201.142 34.3768L195.163 33.8785L194.347 43.6705L200.326 44.1688L206.305 44.6671L207.121 34.8751L201.142 34.3768ZM200.326 44.1688L200.895 38.1958L199.887 38.0998L199.318 44.0728L198.749 50.0458L199.757 50.1418L200.326 44.1688ZM199.318 44.0728L193.336 43.6126C193.234 44.9315 193.174 46.1104 193.174 47.0968H199.174H205.174C205.174 46.5472 205.21 45.7101 205.3 44.533L199.318 44.0728ZM199.174 47.0968H193.174C193.174 48.0418 193.223 49.4663 193.674 50.8182L199.366 48.9208L205.058 47.0234C205.093 47.1284 205.118 47.2173 205.136 47.2862C205.153 47.3555 205.165 47.4112 205.173 47.4507C205.188 47.5269 205.191 47.5633 205.189 47.5487C205.188 47.5359 205.184 47.4923 205.18 47.4124C205.177 47.3334 205.174 47.2292 205.174 47.0968H199.174ZM199.366 48.9208L193.674 50.8182C193.959 51.6733 194.536 52.8886 195.725 53.9084C197.02 55.0182 198.577 55.4968 200.038 55.4968V49.4968V43.4968C201.18 43.4968 202.464 43.8795 203.535 44.7973C204.501 45.6251 204.901 46.5523 205.058 47.0234L199.366 48.9208ZM200.038 49.4968V55.4968C204.736 55.4968 206.56 51.4944 207.054 50.0608L201.382 48.1048L195.71 46.1489C195.717 46.1277 195.761 46.0033 195.865 45.8154C195.967 45.6296 196.162 45.3212 196.49 44.9813C197.248 44.1964 198.496 43.4968 200.038 43.4968V49.4968ZM201.382 48.1048L207.054 50.0608C207.642 48.3568 207.953 45.9646 208.174 43.5051L202.198 42.9688L196.222 42.4325C196.117 43.5989 196.008 44.5064 195.9 45.1834C195.785 45.9131 195.701 46.1734 195.71 46.1489L201.382 48.1048ZM202.198 42.9688L202.658 36.9865L202.034 36.9385L201.574 42.9208L201.114 48.9031L201.738 48.9511L202.198 42.9688ZM201.574 42.9208L207.561 43.3181L208.233 33.19L202.246 32.7928L196.259 32.3956L195.587 42.5236L201.574 42.9208ZM202.246 32.7928V38.7928H217.03V32.7928V26.7928H202.246V32.7928ZM217.03 32.7928L211.031 32.9188L211.271 44.3428L217.27 44.2168L223.269 44.0908L223.029 32.6668L217.03 32.7928ZM217.27 44.2168L217.774 38.238L213.79 37.902L213.286 43.8808L212.782 49.8596L216.766 50.1956L217.27 44.2168ZM213.286 43.8808L207.375 42.8528C206.781 46.2674 206.072 48.351 205.465 49.4739L210.742 52.3288L216.019 55.1837C217.524 52.4026 218.511 48.8542 219.197 44.9089L213.286 43.8808ZM210.742 52.3288L205.429 49.5415C204.997 50.3639 204.544 50.7157 204.033 50.9323L206.374 56.4568L208.715 61.9813C211.98 60.598 214.439 58.1977 216.055 55.1161L210.742 52.3288ZM206.374 56.4568L200.396 56.9672L200.732 60.9032L206.71 60.3928L212.688 59.8825L212.352 55.9465L206.374 56.4568Z" fill="white" mask="url(#path-4-outside-1_244_2347)"/>
</svg>
