<svg width="298" height="100" viewBox="0 0 298 100" fill="none" xmlns="http://www.w3.org/2000/svg">
<path d="M0 0L100.612 4.49307L230.129 1.58827L297.525 3.46251L291.47 33.5411V74.5955L297.525 96.9515L206.924 94.9291L3.31914 99.6187L0 35.8677V0Z" fill="white"/>
<path d="M9.00537 11.6354L53.0437 14.4386H287.435L284.583 31.9004L279.679 64.4308L287.435 90.1277L109.991 87.2112L12.1115 92.2871V62.07L9.00537 11.6354Z" fill="black"/>
<path d="M12.8823 15.2822L146.585 17.785H282.435L278.438 38.3255L275.644 73.2439L282.435 85.3599L200.779 83.8591H107.775L15.8894 87.2878V41.6777L12.8823 15.2822Z" fill="#FFCC00"/>
<mask id="path-4-outside-1_199_1319" maskUnits="userSpaceOnUse" x="74.6353" y="24.8406" width="149" height="53" fill="black">
<rect fill="white" x="74.6353" y="24.8406" width="149" height="53"/>
<path d="M97.0335 70.7126C92.3295 70.7126 88.7295 69.1926 86.2335 66.1526C83.7375 63.0806 82.0575 58.2646 81.1935 51.7046C81.0655 50.8406 81.0015 49.9126 81.0015 48.9206C81.0015 45.9766 81.5775 43.2726 82.7295 40.8086C83.9135 38.3126 85.6095 36.3286 87.8175 34.8566C90.0255 33.3526 92.6015 32.6006 95.5455 32.6006C96.2495 32.6006 96.9695 32.6486 97.7055 32.7446C103.21 33.4166 107.322 35.4006 110.042 38.6966C112.794 41.9926 114.17 46.3286 114.17 51.7046C114.17 55.1606 113.402 58.3446 111.866 61.2566C110.33 64.1686 108.25 66.4726 105.626 68.1686C103.002 69.8646 100.138 70.7126 97.0335 70.7126ZM95.7375 64.3286C96.2815 64.3286 96.5535 63.9606 96.5535 63.2246C96.5535 62.6486 96.2815 61.2726 95.7375 59.0966C95.5455 58.4566 95.2415 57.2086 94.8255 55.3526C94.2175 52.6966 93.7215 50.7446 93.3375 49.4966C92.9535 48.2486 92.6335 47.4646 92.3775 47.1446C92.1215 46.8246 91.8335 46.7126 91.5135 46.8086C91.1615 46.9046 90.9855 47.1926 90.9855 47.6726C90.9855 48.0886 91.0975 48.8726 91.3215 50.0246C91.5775 51.1766 91.9135 52.5846 92.3295 54.2486L92.7615 56.0246L93.0975 57.4166C93.8015 60.2326 94.3135 62.0886 94.6335 62.9846C94.9535 63.8806 95.3215 64.3286 95.7375 64.3286ZM150.25 55.7366L150.97 68.8406L133.258 67.3526L133.21 56.6006L133.738 56.5526C133.482 54.5046 133.098 53.1126 132.586 52.3766C132.074 51.6406 131.434 51.3046 130.666 51.3686H130.57L131.05 56.8406H132.202L132.394 66.8726L117.514 69.0806L116.314 56.7446H119.578L120.25 44.5046L116.794 45.1766L115.642 33.2726L132.442 32.6966L132.826 42.0086L129.85 42.5846L129.994 44.2166C131.882 43.7366 133.258 43.2566 134.122 42.7766C135.018 42.2966 135.706 41.5126 136.186 40.4246L134.362 40.3286L135.37 32.2646H150.154L148.474 40.9526L146.794 40.8566C146.122 42.5526 145.306 43.9606 144.346 45.0806C143.386 46.1686 142.218 47.0806 140.842 47.8166C142.986 48.2326 144.57 49.0646 145.594 50.3126C146.618 51.5606 147.45 53.4006 148.09 55.8326L150.25 55.7366ZM169.601 70.5686V60.2006L170.513 60.1046L170.321 58.5686H167.681L167.489 59.8646L168.737 60.1046L167.633 70.5686L153.377 68.4566L155.201 57.4646L157.841 57.9926L159.809 49.4006H158.657L158.081 33.7046L180.401 32.7446L181.697 48.9686L180.113 49.0166L182.849 58.6166L185.057 58.3286L186.497 70.9526L169.601 70.5686ZM168.929 49.2086L168.353 53.5286H169.697L169.169 49.2086H168.929ZM206.71 60.3926L209.782 60.4406L209.878 68.3606L190.534 70.0406L189.43 60.2486L192.454 60.2966L192.694 55.9766C190.454 54.9206 188.774 53.3206 187.654 51.1766C186.534 49.0326 185.862 46.3286 185.638 43.0646L183.142 42.8726L183.862 32.4086L201.142 34.3766L200.326 44.1686L199.318 44.0726C199.222 45.3206 199.174 46.3286 199.174 47.0966C199.174 47.9286 199.238 48.5366 199.366 48.9206C199.494 49.3046 199.718 49.4966 200.038 49.4966C200.614 49.4966 201.062 49.0326 201.382 48.1046C201.702 47.1766 201.974 45.4646 202.198 42.9686L201.574 42.9206L202.246 32.7926H217.03L217.27 44.2166L213.286 43.8806C212.646 47.5606 211.798 50.3766 210.742 52.3286C209.718 54.2806 208.262 55.6566 206.374 56.4566L206.71 60.3926Z"/>
</mask>
<path d="M97.0335 70.7126C92.3295 70.7126 88.7295 69.1926 86.2335 66.1526C83.7375 63.0806 82.0575 58.2646 81.1935 51.7046C81.0655 50.8406 81.0015 49.9126 81.0015 48.9206C81.0015 45.9766 81.5775 43.2726 82.7295 40.8086C83.9135 38.3126 85.6095 36.3286 87.8175 34.8566C90.0255 33.3526 92.6015 32.6006 95.5455 32.6006C96.2495 32.6006 96.9695 32.6486 97.7055 32.7446C103.21 33.4166 107.322 35.4006 110.042 38.6966C112.794 41.9926 114.17 46.3286 114.17 51.7046C114.17 55.1606 113.402 58.3446 111.866 61.2566C110.33 64.1686 108.25 66.4726 105.626 68.1686C103.002 69.8646 100.138 70.7126 97.0335 70.7126ZM95.7375 64.3286C96.2815 64.3286 96.5535 63.9606 96.5535 63.2246C96.5535 62.6486 96.2815 61.2726 95.7375 59.0966C95.5455 58.4566 95.2415 57.2086 94.8255 55.3526C94.2175 52.6966 93.7215 50.7446 93.3375 49.4966C92.9535 48.2486 92.6335 47.4646 92.3775 47.1446C92.1215 46.8246 91.8335 46.7126 91.5135 46.8086C91.1615 46.9046 90.9855 47.1926 90.9855 47.6726C90.9855 48.0886 91.0975 48.8726 91.3215 50.0246C91.5775 51.1766 91.9135 52.5846 92.3295 54.2486L92.7615 56.0246L93.0975 57.4166C93.8015 60.2326 94.3135 62.0886 94.6335 62.9846C94.9535 63.8806 95.3215 64.3286 95.7375 64.3286ZM150.25 55.7366L150.97 68.8406L133.258 67.3526L133.21 56.6006L133.738 56.5526C133.482 54.5046 133.098 53.1126 132.586 52.3766C132.074 51.6406 131.434 51.3046 130.666 51.3686H130.57L131.05 56.8406H132.202L132.394 66.8726L117.514 69.0806L116.314 56.7446H119.578L120.25 44.5046L116.794 45.1766L115.642 33.2726L132.442 32.6966L132.826 42.0086L129.85 42.5846L129.994 44.2166C131.882 43.7366 133.258 43.2566 134.122 42.7766C135.018 42.2966 135.706 41.5126 136.186 40.4246L134.362 40.3286L135.37 32.2646H150.154L148.474 40.9526L146.794 40.8566C146.122 42.5526 145.306 43.9606 144.346 45.0806C143.386 46.1686 142.218 47.0806 140.842 47.8166C142.986 48.2326 144.57 49.0646 145.594 50.3126C146.618 51.5606 147.45 53.4006 148.09 55.8326L150.25 55.7366ZM169.601 70.5686V60.2006L170.513 60.1046L170.321 58.5686H167.681L167.489 59.8646L168.737 60.1046L167.633 70.5686L153.377 68.4566L155.201 57.4646L157.841 57.9926L159.809 49.4006H158.657L158.081 33.7046L180.401 32.7446L181.697 48.9686L180.113 49.0166L182.849 58.6166L185.057 58.3286L186.497 70.9526L169.601 70.5686ZM168.929 49.2086L168.353 53.5286H169.697L169.169 49.2086H168.929ZM206.71 60.3926L209.782 60.4406L209.878 68.3606L190.534 70.0406L189.43 60.2486L192.454 60.2966L192.694 55.9766C190.454 54.9206 188.774 53.3206 187.654 51.1766C186.534 49.0326 185.862 46.3286 185.638 43.0646L183.142 42.8726L183.862 32.4086L201.142 34.3766L200.326 44.1686L199.318 44.0726C199.222 45.3206 199.174 46.3286 199.174 47.0966C199.174 47.9286 199.238 48.5366 199.366 48.9206C199.494 49.3046 199.718 49.4966 200.038 49.4966C200.614 49.4966 201.062 49.0326 201.382 48.1046C201.702 47.1766 201.974 45.4646 202.198 42.9686L201.574 42.9206L202.246 32.7926H217.03L217.27 44.2166L213.286 43.8806C212.646 47.5606 211.798 50.3766 210.742 52.3286C209.718 54.2806 208.262 55.6566 206.374 56.4566L206.71 60.3926Z" fill="black"/>
<path d="M86.2335 66.1526L81.5768 69.9361L81.5865 69.9481L81.5963 69.96L86.2335 66.1526ZM81.1935 51.7046L87.1421 50.9211L87.1358 50.8731L87.1287 50.8253L81.1935 51.7046ZM82.7295 40.8086L77.3085 38.2371L77.3013 38.2522L77.2942 38.2674L82.7295 40.8086ZM87.8175 34.8566L91.1457 39.8489L91.1706 39.8323L91.1953 39.8155L87.8175 34.8566ZM97.7055 32.7446L96.9295 38.6942L96.9539 38.6974L96.9783 38.7003L97.7055 32.7446ZM110.042 38.6966L105.414 42.5155L105.425 42.5288L105.436 42.5421L110.042 38.6966ZM111.866 61.2566L117.172 64.0559L117.172 64.0559L111.866 61.2566ZM105.626 68.1686L108.882 73.2076H108.882L105.626 68.1686ZM95.7375 59.0966L101.558 57.6414L101.525 57.5061L101.484 57.3725L95.7375 59.0966ZM94.8255 55.3526L100.68 54.0403L100.677 54.027L100.674 54.0137L94.8255 55.3526ZM92.3775 47.1446L87.6923 50.8927L87.6923 50.8928L92.3775 47.1446ZM91.5135 46.8086L93.0922 52.5972L93.1652 52.5773L93.2376 52.5555L91.5135 46.8086ZM91.3215 50.0246L85.4318 51.1698L85.4471 51.2482L85.4644 51.3262L91.3215 50.0246ZM92.3295 54.2486L98.1595 52.8305L98.155 52.8119L98.1504 52.7934L92.3295 54.2486ZM92.7615 56.0246L98.594 54.6167L98.5915 54.6065L92.7615 56.0246ZM93.0975 57.4166L87.265 58.8244L87.2707 58.8481L87.2766 58.8718L93.0975 57.4166ZM94.6335 62.9846L100.284 60.9666L100.284 60.9666L94.6335 62.9846ZM97.0335 70.7126V64.7126C93.7359 64.7126 92.0009 63.7217 90.8707 62.3452L86.2335 66.1526L81.5963 69.96C85.4581 74.6634 90.9231 76.7126 97.0335 76.7126V70.7126ZM86.2335 66.1526L90.8902 62.369C89.4192 60.5586 87.9479 57.039 87.1421 50.9211L81.1935 51.7046L75.2449 52.4881C76.1671 59.4902 78.0558 65.6026 81.5768 69.9361L86.2335 66.1526ZM81.1935 51.7046L87.1287 50.8253C87.0492 50.2884 87.0015 49.657 87.0015 48.9206H81.0015H75.0015C75.0015 50.1681 75.0818 51.3928 75.2583 52.5839L81.1935 51.7046ZM81.0015 48.9206H87.0015C87.0015 46.7813 87.4146 44.9543 88.1648 43.3498L82.7295 40.8086L77.2942 38.2674C75.7404 41.5909 75.0015 45.1718 75.0015 48.9206H81.0015ZM82.7295 40.8086L88.1505 43.3801C88.8889 41.8235 89.8796 40.6929 91.1457 39.8489L87.8175 34.8566L84.4893 29.8643C81.3394 31.9642 78.9381 34.8017 77.3085 38.2371L82.7295 40.8086ZM87.8175 34.8566L91.1953 39.8155C92.3065 39.0585 93.6782 38.6006 95.5455 38.6006V32.6006V26.6006C91.5248 26.6006 87.7445 27.6466 84.4397 29.8977L87.8175 34.8566ZM95.5455 32.6006V38.6006C95.9764 38.6006 96.437 38.6299 96.9295 38.6942L97.7055 32.7446L98.4815 26.795C97.5021 26.6672 96.5226 26.6006 95.5455 26.6006V32.6006ZM97.7055 32.7446L96.9783 38.7003C101.426 39.2434 103.937 40.7258 105.414 42.5155L110.042 38.6966L114.669 34.8776C110.706 30.0753 104.993 27.5897 98.4327 26.7888L97.7055 32.7446ZM110.042 38.6966L105.436 42.5421C107.078 44.5091 108.17 47.3698 108.17 51.7046H114.17H120.17C120.17 45.2873 118.509 39.476 114.647 34.8511L110.042 38.6966ZM114.17 51.7046H108.17C108.17 54.2351 107.617 56.4514 106.559 58.4573L111.866 61.2566L117.172 64.0559C119.186 60.2377 120.17 56.086 120.17 51.7046H114.17ZM111.866 61.2566L106.559 58.4573C105.476 60.51 104.082 62.0223 102.369 63.1295L105.626 68.1686L108.882 73.2076C112.417 70.9228 115.183 67.8272 117.172 64.0559L111.866 61.2566ZM105.626 68.1686L102.369 63.1295C100.708 64.2026 98.9739 64.7126 97.0335 64.7126V70.7126V76.7126C101.301 76.7126 105.295 75.5265 108.882 73.2076L105.626 68.1686ZM95.7375 64.3286V70.3286C97.5066 70.3286 99.6858 69.6332 101.175 67.6189C102.413 65.9439 102.554 64.156 102.554 63.2246H96.5535H90.5535C90.5535 63.0292 90.5584 61.7932 91.5244 60.4862C92.7412 58.84 94.5124 58.3286 95.7375 58.3286V64.3286ZM96.5535 63.2246H102.554C102.554 62.2861 102.37 61.2788 102.236 60.597C102.072 59.7714 101.842 58.7763 101.558 57.6414L95.7375 59.0966L89.9166 60.5518C90.1769 61.5928 90.3546 62.3738 90.4634 62.9241C90.5178 63.1991 90.5466 63.3748 90.5599 63.4706C90.5784 63.6036 90.5535 63.4843 90.5535 63.2246H96.5535ZM95.7375 59.0966L101.484 57.3725C101.363 56.9677 101.102 55.9228 100.68 54.0403L94.8255 55.3526L88.9708 56.6648C89.3808 58.4943 89.728 59.9454 89.9905 60.8207L95.7375 59.0966ZM94.8255 55.3526L100.674 54.0137C100.061 51.3332 99.5245 49.2021 99.0722 47.7321L93.3375 49.4966L87.6028 51.2611C87.9185 52.2871 88.3744 54.06 88.9768 56.6914L94.8255 55.3526ZM93.3375 49.4966L99.0722 47.7321C98.8526 47.0183 98.6176 46.325 98.3646 45.7052C98.1672 45.2216 97.7597 44.2677 97.0627 43.3964L92.3775 47.1446L87.6923 50.8928C87.5469 50.7111 87.4462 50.5588 87.3859 50.4621C87.3236 50.3623 87.2829 50.287 87.262 50.247C87.2232 50.1726 87.2218 50.16 87.2544 50.24C87.2845 50.3136 87.3306 50.4341 87.3921 50.6118C87.453 50.7874 87.5232 51.0024 87.6028 51.2611L93.3375 49.4966ZM92.3775 47.1446L97.0627 43.3964C96.4833 42.6722 95.5432 41.7726 94.1442 41.2285C92.6505 40.6477 91.1192 40.6627 89.7894 41.0616L91.5135 46.8086L93.2376 52.5555C92.2278 52.8585 91.0005 52.8815 89.7948 52.4126C88.6839 51.9806 88.0157 51.297 87.6923 50.8927L92.3775 47.1446ZM91.5135 46.8086L89.9348 41.02C88.4133 41.4349 86.9518 42.4069 85.9978 43.9679C85.1404 45.371 84.9855 46.771 84.9855 47.6726H90.9855H96.9855C96.9855 48.0941 96.9187 49.1102 96.2372 50.2253C95.4592 51.4983 94.2617 52.2782 93.0922 52.5972L91.5135 46.8086ZM90.9855 47.6726H84.9855C84.9855 48.7537 85.2215 50.0884 85.4318 51.1698L91.3215 50.0246L97.2112 48.8794C97.1102 48.3599 97.046 47.9819 97.0092 47.724C96.991 47.5967 96.9832 47.5241 96.9805 47.496C96.9769 47.4571 96.9855 47.5284 96.9855 47.6726H90.9855ZM91.3215 50.0246L85.4644 51.3262C85.7356 52.5468 86.085 54.0094 86.5086 55.7038L92.3295 54.2486L98.1504 52.7934C97.742 51.1598 97.4194 49.8064 97.1786 48.723L91.3215 50.0246ZM92.3295 54.2486L86.4995 55.6667L86.9315 57.4427L92.7615 56.0246L98.5915 54.6065L98.1595 52.8305L92.3295 54.2486ZM92.7615 56.0246L86.929 57.4324L87.265 58.8244L93.0975 57.4166L98.93 56.0087L98.594 54.6167L92.7615 56.0246ZM93.0975 57.4166L87.2766 58.8718C87.9678 61.6363 88.5471 63.782 88.9831 65.0026L94.6335 62.9846L100.284 60.9666C100.08 60.3952 99.6352 58.8289 98.9184 55.9614L93.0975 57.4166ZM94.6335 62.9846L88.9831 65.0026C89.2462 65.7394 89.6994 66.8103 90.5131 67.801C91.3658 68.839 93.1045 70.3286 95.7375 70.3286V64.3286V58.3286C97.9545 58.3286 99.3012 59.5942 99.7859 60.1841C100.232 60.7268 100.341 61.1257 100.284 60.9666L94.6335 62.9846ZM150.25 55.7366L156.241 55.4074L155.915 49.4789L149.984 49.7425L150.25 55.7366ZM150.97 68.8406L150.468 74.8195L157.339 75.3968L156.961 68.5114L150.97 68.8406ZM133.258 67.3526L127.258 67.3794L127.283 72.8717L132.756 73.3315L133.258 67.3526ZM133.21 56.6006L132.667 50.6252L127.186 51.1235L127.21 56.6274L133.21 56.6006ZM133.738 56.5526L134.281 62.5279L140.462 61.9661L139.692 55.8084L133.738 56.5526ZM130.666 51.3686V57.3686H130.916L131.164 57.3479L130.666 51.3686ZM130.57 51.3686V45.3686H124.021L124.593 51.8929L130.57 51.3686ZM131.05 56.8406L125.073 57.3649L125.553 62.8406H131.05V56.8406ZM132.202 56.8406L138.201 56.7258L138.088 50.8406H132.202V56.8406ZM132.394 66.8726L133.275 72.8076L138.494 72.0331L138.393 66.7578L132.394 66.8726ZM117.514 69.0806L111.542 69.6615L112.153 75.9418L118.395 75.0156L117.514 69.0806ZM116.314 56.7446V50.7446H109.702L110.342 57.3255L116.314 56.7446ZM119.578 56.7446V62.7446H125.258L125.569 57.0735L119.578 56.7446ZM120.25 44.5046L126.241 44.8335L126.663 37.1452L119.105 38.6149L120.25 44.5046ZM116.794 45.1766L110.822 45.7545L111.458 52.3265L117.939 51.0663L116.794 45.1766ZM115.642 33.2726L115.437 27.2761L109.055 27.4949L109.67 33.8505L115.642 33.2726ZM132.442 32.6966L138.437 32.4494L138.192 26.4959L132.237 26.7001L132.442 32.6966ZM132.826 42.0086L133.966 47.8993L139.034 46.9185L138.821 41.7614L132.826 42.0086ZM129.85 42.5846L128.71 36.6939L123.398 37.7221L123.873 43.1119L129.85 42.5846ZM129.994 44.2166L124.017 44.7439L124.637 51.7694L131.473 50.0316L129.994 44.2166ZM134.122 42.7766L131.289 37.4877L131.248 37.5094L131.208 37.5316L134.122 42.7766ZM136.186 40.4246L141.676 42.8464L145.186 34.8899L136.501 34.4329L136.186 40.4246ZM134.362 40.3286L128.408 39.5844L127.609 45.9814L134.047 46.3203L134.362 40.3286ZM135.37 32.2646V26.2646H130.073L129.416 31.5204L135.37 32.2646ZM150.154 32.2646L156.045 33.4037L157.425 26.2646H150.154V32.2646ZM148.474 40.9526L148.132 46.9428L153.369 47.2421L154.365 42.0917L148.474 40.9526ZM146.794 40.8566L147.136 34.8663L142.812 34.6192L141.216 38.6464L146.794 40.8566ZM144.346 45.0806L148.845 49.0503L148.874 49.018L148.902 48.9853L144.346 45.0806ZM140.842 47.8166L138.012 42.5259L123.122 50.4903L139.699 53.7067L140.842 47.8166ZM148.09 55.8326L142.288 57.3595L143.52 62.0416L148.357 61.8267L148.09 55.8326ZM150.25 55.7366L144.259 56.0658L144.979 69.1698L150.97 68.8406L156.961 68.5114L156.241 55.4074L150.25 55.7366ZM150.97 68.8406L151.472 62.8616L133.76 61.3736L133.258 67.3526L132.756 73.3315L150.468 74.8195L150.97 68.8406ZM133.258 67.3526L139.258 67.3258L139.21 56.5738L133.21 56.6006L127.21 56.6274L127.258 67.3794L133.258 67.3526ZM133.21 56.6006L133.753 62.5759L134.281 62.5279L133.738 56.5526L133.195 50.5772L132.667 50.6252L133.21 56.6006ZM133.738 56.5526L139.692 55.8084C139.434 53.7429 138.944 51.0095 137.512 48.9502L132.586 52.3766L127.661 55.803C127.493 55.5613 127.423 55.396 127.416 55.3799C127.407 55.357 127.431 55.4108 127.474 55.5681C127.564 55.8945 127.679 56.4493 127.784 57.2968L133.738 56.5526ZM132.586 52.3766L137.512 48.9502C136.015 46.7986 133.455 45.1154 130.168 45.3893L130.666 51.3686L131.164 57.3479C130.49 57.404 129.691 57.2828 128.933 56.885C128.219 56.51 127.825 56.0393 127.661 55.803L132.586 52.3766ZM130.666 51.3686V45.3686H130.57V51.3686V57.3686H130.666V51.3686ZM130.57 51.3686L124.593 51.8929L125.073 57.3649L131.05 56.8406L137.027 56.3163L136.547 50.8443L130.57 51.3686ZM131.05 56.8406V62.8406H132.202V56.8406V50.8406H131.05V56.8406ZM132.202 56.8406L126.203 56.9554L126.395 66.9874L132.394 66.8726L138.393 66.7578L138.201 56.7258L132.202 56.8406ZM132.394 66.8726L131.513 60.9376L116.633 63.1456L117.514 69.0806L118.395 75.0156L133.275 72.8076L132.394 66.8726ZM117.514 69.0806L123.486 68.4997L122.286 56.1637L116.314 56.7446L110.342 57.3255L111.542 69.6615L117.514 69.0806ZM116.314 56.7446V62.7446H119.578V56.7446V50.7446H116.314V56.7446ZM119.578 56.7446L125.569 57.0735L126.241 44.8335L120.25 44.5046L114.259 44.1757L113.587 56.4157L119.578 56.7446ZM120.25 44.5046L119.105 38.6149L115.649 39.2869L116.794 45.1766L117.939 51.0663L121.395 50.3943L120.25 44.5046ZM116.794 45.1766L122.766 44.5986L121.614 32.6946L115.642 33.2726L109.67 33.8505L110.822 45.7545L116.794 45.1766ZM115.642 33.2726L115.848 39.2691L132.648 38.6931L132.442 32.6966L132.237 26.7001L115.437 27.2761L115.642 33.2726ZM132.442 32.6966L126.447 32.9438L126.831 42.2558L132.826 42.0086L138.821 41.7614L138.437 32.4494L132.442 32.6966ZM132.826 42.0086L131.686 36.1179L128.71 36.6939L129.85 42.5846L130.99 48.4753L133.966 47.8993L132.826 42.0086ZM129.85 42.5846L123.873 43.1119L124.017 44.7439L129.994 44.2166L135.971 43.6892L135.827 42.0572L129.85 42.5846ZM129.994 44.2166L131.473 50.0316C133.476 49.5222 135.47 48.8915 137.036 48.0215L134.122 42.7766L131.208 37.5316C131.209 37.531 131.195 37.5393 131.161 37.5556C131.127 37.5718 131.079 37.5941 131.015 37.6217C130.884 37.6778 130.704 37.7485 130.466 37.8314C129.985 37.999 129.344 38.1911 128.516 38.4016L129.994 44.2166ZM134.122 42.7766L136.955 48.0655C139.225 46.8495 140.751 44.9429 141.676 42.8464L136.186 40.4246L130.697 38.0027C130.669 38.0648 130.69 37.9972 130.8 37.871C130.918 37.7367 131.086 37.5963 131.289 37.4877L134.122 42.7766ZM136.186 40.4246L136.501 34.4329L134.677 34.3369L134.362 40.3286L134.047 46.3203L135.871 46.4163L136.186 40.4246ZM134.362 40.3286L140.316 41.0728L141.324 33.0088L135.37 32.2646L129.416 31.5204L128.408 39.5844L134.362 40.3286ZM135.37 32.2646V38.2646H150.154V32.2646V26.2646H135.37V32.2646ZM150.154 32.2646L144.263 31.1255L142.583 39.8135L148.474 40.9526L154.365 42.0917L156.045 33.4037L150.154 32.2646ZM148.474 40.9526L148.816 34.9623L147.136 34.8663L146.794 40.8566L146.452 46.8468L148.132 46.9428L148.474 40.9526ZM146.794 40.8566L141.216 38.6464C140.733 39.8653 140.23 40.6634 139.791 41.1758L144.346 45.0806L148.902 48.9853C150.382 47.2578 151.511 45.2398 152.372 43.0668L146.794 40.8566ZM144.346 45.0806L139.847 41.1108C139.395 41.6233 138.805 42.1016 138.012 42.5259L140.842 47.8166L143.672 53.1073C145.631 52.0595 147.377 50.7138 148.845 49.0503L144.346 45.0806ZM140.842 47.8166L139.699 53.7067C140.955 53.9504 141.088 54.2796 140.956 54.1185L145.594 50.3126L150.233 46.5067C148.052 43.8496 145.017 42.5147 141.985 41.9264L140.842 47.8166ZM145.594 50.3126L140.956 54.1185C141.212 54.4312 141.757 55.3445 142.288 57.3595L148.09 55.8326L153.893 54.3056C153.143 51.4566 152.024 48.69 150.233 46.5067L145.594 50.3126ZM148.09 55.8326L148.357 61.8267L150.517 61.7307L150.25 55.7366L149.984 49.7425L147.824 49.8385L148.09 55.8326ZM169.601 70.5686H163.601V76.4338L169.464 76.567L169.601 70.5686ZM169.601 60.2006L168.972 54.2335L163.601 54.799V60.2006H169.601ZM170.513 60.1046L171.141 66.0716L177.225 65.4311L176.466 59.3604L170.513 60.1046ZM170.321 58.5686L176.274 57.8244L175.617 52.5686H170.321V58.5686ZM167.681 58.5686V52.5686H162.504L161.745 57.6893L167.681 58.5686ZM167.489 59.8646L161.553 58.9853L160.711 64.6711L166.355 65.7566L167.489 59.8646ZM168.737 60.1046L174.703 60.7341L175.282 55.2533L169.87 54.2125L168.737 60.1046ZM167.633 70.5686L166.753 76.5038L172.943 77.4208L173.599 71.1981L167.633 70.5686ZM153.377 68.4566L147.457 67.4744L146.458 73.4971L152.497 74.3918L153.377 68.4566ZM155.201 57.4646L156.377 51.5811L150.297 50.365L149.281 56.4824L155.201 57.4646ZM157.841 57.9926L156.664 63.8761L162.386 65.0205L163.689 59.3322L157.841 57.9926ZM159.809 49.4006L165.657 50.7402L167.338 43.4006H159.809V49.4006ZM158.657 49.4006L152.661 49.6206L152.873 55.4006H158.657V49.4006ZM158.081 33.7046L157.823 27.7101L151.866 27.9663L152.085 33.9246L158.081 33.7046ZM180.401 32.7446L186.381 32.2668L185.921 26.5016L180.143 26.7501L180.401 32.7446ZM181.697 48.9686L181.878 54.9658L188.179 54.7749L187.677 48.4908L181.697 48.9686ZM180.113 49.0166L179.931 43.0193L172.231 43.2527L174.342 50.6611L180.113 49.0166ZM182.849 58.6166L177.078 60.2611L178.496 65.2351L183.625 64.5662L182.849 58.6166ZM185.057 58.3286L191.018 57.6486L190.327 51.5903L184.28 52.379L185.057 58.3286ZM186.497 70.9526L186.36 76.951L193.237 77.1073L192.458 70.2726L186.497 70.9526ZM168.929 49.2086V43.2086H163.675L162.981 48.4156L168.929 49.2086ZM168.353 53.5286L162.405 52.7356L161.499 59.5286H168.353V53.5286ZM169.697 53.5286V59.5286H176.474L175.652 52.8007L169.697 53.5286ZM169.169 49.2086L175.124 48.4807L174.48 43.2086H169.169V49.2086ZM169.601 70.5686H175.601V60.2006H169.601H163.601V70.5686H169.601ZM169.601 60.2006L170.229 66.1676L171.141 66.0716L170.513 60.1046L169.884 54.1375L168.972 54.2335L169.601 60.2006ZM170.513 60.1046L176.466 59.3604L176.274 57.8244L170.321 58.5686L164.367 59.3128L164.559 60.8488L170.513 60.1046ZM170.321 58.5686V52.5686H167.681V58.5686V64.5686H170.321V58.5686ZM167.681 58.5686L161.745 57.6893L161.553 58.9853L167.489 59.8646L173.424 60.7439L173.616 59.4479L167.681 58.5686ZM167.489 59.8646L166.355 65.7566L167.603 65.9966L168.737 60.1046L169.87 54.2125L168.622 53.9725L167.489 59.8646ZM168.737 60.1046L162.77 59.475L161.666 69.939L167.633 70.5686L173.599 71.1981L174.703 60.7341L168.737 60.1046ZM167.633 70.5686L168.512 64.6334L154.256 62.5214L153.377 68.4566L152.497 74.3918L166.753 76.5038L167.633 70.5686ZM153.377 68.4566L159.296 69.4388L161.12 58.4468L155.201 57.4646L149.281 56.4824L147.457 67.4744L153.377 68.4566ZM155.201 57.4646L154.024 63.3481L156.664 63.8761L157.841 57.9926L159.017 52.1091L156.377 51.5811L155.201 57.4646ZM157.841 57.9926L163.689 59.3322L165.657 50.7402L159.809 49.4006L153.96 48.061L151.992 56.653L157.841 57.9926ZM159.809 49.4006V43.4006H158.657V49.4006V55.4006H159.809V49.4006ZM158.657 49.4006L164.652 49.1805L164.076 33.4845L158.081 33.7046L152.085 33.9246L152.661 49.6206L158.657 49.4006ZM158.081 33.7046L158.338 39.699L180.658 38.739L180.401 32.7446L180.143 26.7501L157.823 27.7101L158.081 33.7046ZM180.401 32.7446L174.42 33.2223L175.716 49.4463L181.697 48.9686L187.677 48.4908L186.381 32.2668L180.401 32.7446ZM181.697 48.9686L181.515 42.9713L179.931 43.0193L180.113 49.0166L180.294 55.0138L181.878 54.9658L181.697 48.9686ZM180.113 49.0166L174.342 50.6611L177.078 60.2611L182.849 58.6166L188.619 56.9721L185.883 47.3721L180.113 49.0166ZM182.849 58.6166L183.625 64.5662L185.833 64.2782L185.057 58.3286L184.28 52.379L182.072 52.667L182.849 58.6166ZM185.057 58.3286L179.095 59.0086L180.535 71.6326L186.497 70.9526L192.458 70.2726L191.018 57.6486L185.057 58.3286ZM186.497 70.9526L186.633 64.9541L169.737 64.5701L169.601 70.5686L169.464 76.567L186.36 76.951L186.497 70.9526ZM168.929 49.2086L162.981 48.4156L162.405 52.7356L168.353 53.5286L174.3 54.3216L174.876 50.0016L168.929 49.2086ZM168.353 53.5286V59.5286H169.697V53.5286V47.5286H168.353V53.5286ZM169.697 53.5286L175.652 52.8007L175.124 48.4807L169.169 49.2086L163.213 49.9365L163.741 54.2565L169.697 53.5286ZM169.169 49.2086V43.2086H168.929V49.2086V55.2086H169.169V49.2086ZM206.71 60.3926L200.732 60.9029L201.193 66.3071L206.616 66.3918L206.71 60.3926ZM209.782 60.4406L215.782 60.3679L215.711 54.5325L209.876 54.4413L209.782 60.4406ZM209.878 68.3606L210.397 74.3381L215.945 73.8562L215.878 68.2879L209.878 68.3606ZM190.534 70.0406L184.572 70.7128L185.227 76.5241L191.053 76.0181L190.534 70.0406ZM189.43 60.2486L189.525 54.2493L182.704 54.141L183.468 60.9208L189.43 60.2486ZM192.454 60.2966L192.359 66.2958L198.125 66.3873L198.445 60.6294L192.454 60.2966ZM192.694 55.9766L198.685 56.3094L198.909 52.2732L195.253 50.5494L192.694 55.9766ZM187.654 51.1766L192.972 48.3985V48.3985L187.654 51.1766ZM185.638 43.0646L191.624 42.6538L191.269 37.48L186.098 37.0822L185.638 43.0646ZM183.142 42.8726L177.156 42.4607L176.748 48.3984L182.682 48.8549L183.142 42.8726ZM183.862 32.4086L184.541 26.4471L178.307 25.7371L177.876 31.9967L183.862 32.4086ZM201.142 34.3766L207.121 34.8748L207.605 29.0738L201.821 28.4151L201.142 34.3766ZM200.326 44.1686L199.757 50.1415L205.801 50.7172L206.305 44.6668L200.326 44.1686ZM199.318 44.0726L199.887 38.0996L193.804 37.5203L193.336 43.6124L199.318 44.0726ZM201.382 48.1046L195.71 46.1486V46.1486L201.382 48.1046ZM202.198 42.9686L208.174 43.5049L208.717 37.4523L202.658 36.9862L202.198 42.9686ZM201.574 42.9206L195.587 42.5233L195.194 48.4475L201.114 48.9029L201.574 42.9206ZM202.246 32.7926V26.7926H196.631L196.259 32.3953L202.246 32.7926ZM217.03 32.7926L223.029 32.6665L222.905 26.7926H217.03V32.7926ZM217.27 44.2166L216.766 50.1954L223.409 50.7556L223.269 44.0906L217.27 44.2166ZM213.286 43.8806L213.79 37.9018L208.316 37.4401L207.375 42.8525L213.286 43.8806ZM210.742 52.3286L205.465 49.4737L205.447 49.5074L205.429 49.5413L210.742 52.3286ZM206.374 56.4566L204.033 50.9321L200.026 52.6302L200.396 56.9669L206.374 56.4566ZM206.71 60.3926L206.616 66.3918L209.688 66.4398L209.782 60.4406L209.876 54.4413L206.804 54.3933L206.71 60.3926ZM209.782 60.4406L203.783 60.5133L203.879 68.4333L209.878 68.3606L215.878 68.2879L215.782 60.3679L209.782 60.4406ZM209.878 68.3606L209.359 62.3831L190.015 64.0631L190.534 70.0406L191.053 76.0181L210.397 74.3381L209.878 68.3606ZM190.534 70.0406L196.496 69.3684L195.392 59.5764L189.43 60.2486L183.468 60.9208L184.572 70.7128L190.534 70.0406ZM189.43 60.2486L189.335 66.2478L192.359 66.2958L192.454 60.2966L192.549 54.2973L189.525 54.2493L189.43 60.2486ZM192.454 60.2966L198.445 60.6294L198.685 56.3094L192.694 55.9766L186.703 55.6438L186.463 59.9638L192.454 60.2966ZM192.694 55.9766L195.253 50.5494C194.167 50.0374 193.471 49.3526 192.972 48.3985L187.654 51.1766L182.336 53.9547C184.078 57.2885 186.742 59.8037 190.136 61.4037L192.694 55.9766ZM187.654 51.1766L192.972 48.3985C192.346 47.1992 191.81 45.366 191.624 42.6538L185.638 43.0646L179.652 43.4754C179.914 47.2912 180.723 50.8659 182.336 53.9547L187.654 51.1766ZM185.638 43.0646L186.098 37.0822L183.602 36.8902L183.142 42.8726L182.682 48.8549L185.178 49.0469L185.638 43.0646ZM183.142 42.8726L189.128 43.2844L189.848 32.8204L183.862 32.4086L177.876 31.9967L177.156 42.4607L183.142 42.8726ZM183.862 32.4086L183.183 38.37L200.463 40.338L201.142 34.3766L201.821 28.4151L184.541 26.4471L183.862 32.4086ZM201.142 34.3766L195.163 33.8783L194.347 43.6703L200.326 44.1686L206.305 44.6668L207.121 34.8748L201.142 34.3766ZM200.326 44.1686L200.895 38.1956L199.887 38.0996L199.318 44.0726L198.749 50.0455L199.757 50.1415L200.326 44.1686ZM199.318 44.0726L193.336 43.6124C193.234 44.9313 193.174 46.1102 193.174 47.0966H199.174H205.174C205.174 46.547 205.21 45.7099 205.3 44.5328L199.318 44.0726ZM199.174 47.0966H193.174C193.174 48.0416 193.223 49.4661 193.674 50.8179L199.366 48.9206L205.058 47.0232C205.093 47.1281 205.118 47.2171 205.136 47.286C205.153 47.3552 205.165 47.4109 205.173 47.4504C205.188 47.5267 205.191 47.563 205.189 47.5485C205.188 47.5357 205.184 47.492 205.18 47.4122C205.177 47.3332 205.174 47.2289 205.174 47.0966H199.174ZM199.366 48.9206L193.674 50.8179C193.959 51.6731 194.536 52.8883 195.725 53.9081C197.02 55.0179 198.577 55.4966 200.038 55.4966V49.4966V43.4966C201.18 43.4966 202.464 43.8792 203.535 44.797C204.501 45.6248 204.901 46.5521 205.058 47.0232L199.366 48.9206ZM200.038 49.4966V55.4966C204.736 55.4966 206.56 51.4941 207.054 50.0605L201.382 48.1046L195.71 46.1486C195.717 46.1275 195.761 46.0031 195.865 45.8151C195.967 45.6293 196.162 45.3209 196.49 44.981C197.248 44.1961 198.496 43.4966 200.038 43.4966V49.4966ZM201.382 48.1046L207.054 50.0605C207.642 48.3566 207.953 45.9644 208.174 43.5049L202.198 42.9686L196.222 42.4323C196.117 43.5986 196.008 44.5061 195.9 45.1831C195.785 45.9129 195.701 46.1732 195.71 46.1486L201.382 48.1046ZM202.198 42.9686L202.658 36.9862L202.034 36.9382L201.574 42.9206L201.114 48.9029L201.738 48.9509L202.198 42.9686ZM201.574 42.9206L207.561 43.3178L208.233 33.1898L202.246 32.7926L196.259 32.3953L195.587 42.5233L201.574 42.9206ZM202.246 32.7926V38.7926H217.03V32.7926V26.7926H202.246V32.7926ZM217.03 32.7926L211.031 32.9186L211.271 44.3426L217.27 44.2166L223.269 44.0906L223.029 32.6665L217.03 32.7926ZM217.27 44.2166L217.774 38.2378L213.79 37.9018L213.286 43.8806L212.782 49.8593L216.766 50.1954L217.27 44.2166ZM213.286 43.8806L207.375 42.8525C206.781 46.2672 206.072 48.3508 205.465 49.4737L210.742 52.3286L216.019 55.1835C217.524 52.4024 218.511 48.854 219.197 44.9086L213.286 43.8806ZM210.742 52.3286L205.429 49.5413C204.997 50.3637 204.544 50.7154 204.033 50.9321L206.374 56.4566L208.715 61.9811C211.98 60.5977 214.439 58.1975 216.055 55.1159L210.742 52.3286ZM206.374 56.4566L200.396 56.9669L200.732 60.9029L206.71 60.3926L212.688 59.8822L212.352 55.9462L206.374 56.4566Z" fill="white" mask="url(#path-4-outside-1_199_1319)"/>
</svg>
