<svg width="383" height="63" viewBox="0 0 383 63" fill="none" xmlns="http://www.w3.org/2000/svg">
<mask id="path-1-outside-1_272_2174" maskUnits="userSpaceOnUse" x="-0.565674" y="10.2832" width="132" height="35" fill="black">
<rect fill="white" x="-0.565674" y="10.2832" width="132" height="35"/>
<path d="M25.1503 28.1072L17.1583 27.3872L16.7263 32.8952L20.5423 32.5712V42.0032L7.15033 41.2832L6.68233 33.7592L9.05833 33.5432L8.59033 26.6312L7.11433 26.5232L7.00633 27.7832L3.76633 27.5672L3.15433 16.6592L23.1703 14.4272L25.1503 28.1072ZM33.7661 13.7072C36.3341 13.9712 38.3021 14.4392 39.6701 15.1112C41.0621 15.7592 41.6861 16.7912 41.5421 18.2072C41.4461 19.3832 40.9781 20.1992 40.1381 20.6552C39.2981 21.1112 38.1221 21.3392 36.6101 21.3392C35.6981 21.3392 34.4861 21.2552 32.9741 21.0872C31.2701 20.8952 29.8661 20.6672 28.7621 20.4032C27.6821 20.1392 26.8061 19.7312 26.1341 19.1792C25.4861 18.6272 25.1621 17.8712 25.1621 16.9112C25.1621 15.6632 25.6181 14.7872 26.5301 14.2832C27.4421 13.7552 28.7261 13.4912 30.3821 13.4912C31.4381 13.4912 32.5661 13.5632 33.7661 13.7072ZM38.8781 26.4512L37.8341 26.4872L38.4461 32.6432L40.0301 32.4992V41.9312L26.4221 41.2832L25.9541 33.7592L27.7901 33.5792L28.4021 26.9912L26.9621 27.0632V21.7712L38.9141 22.7072L38.8781 26.4512ZM74.2704 23.6792L72.8304 23.5352L72.9744 30.9872L74.5584 30.8792V41.9672L62.1024 41.2832L63.5424 31.5992L64.2264 31.5632L64.6944 26.6312L61.2384 36.0992L57.7464 36.3512L54.9384 28.3232L54.7944 31.4552L55.4424 31.5272L55.9824 40.8512L44.8944 41.2832V30.1952L46.1544 30.3392L45.1104 21.3752L43.4904 21.1952L42.9864 15.5072H54.6864L59.7624 25.3352L62.3544 15.1472L74.5944 14.4992L74.2704 23.6792ZM97.9488 28.3232L100.325 38.1872C98.1168 39.5072 95.8968 40.4912 93.6648 41.1392C91.4568 41.7632 89.3208 42.0752 87.2568 42.0752C85.1688 42.0752 83.2968 41.7512 81.6408 41.1032C80.0088 40.4552 78.7248 39.5432 77.7888 38.3672C76.8528 37.1672 76.3848 35.7872 76.3848 34.2272C76.3848 32.7872 76.9008 31.6592 77.9328 30.8432C78.9648 30.0272 80.3448 29.4752 82.0728 29.1872C80.5128 28.3952 79.2768 27.4232 78.3648 26.2712C77.4768 25.0952 77.0328 23.7632 77.0328 22.2752C77.0328 20.7152 77.4168 19.3712 78.1848 18.2432C78.9528 17.1152 80.0088 16.2632 81.3528 15.6872C82.6968 15.1112 84.2208 14.8232 85.9248 14.8232C88.2288 14.8232 90.5568 15.3152 92.9088 16.2992L93.3048 14.2112L99.6768 15.6872L91.7568 29.9072C90.6288 29.0912 89.6208 28.4792 88.7328 28.0712C87.8688 27.6392 87.2208 27.4232 86.7888 27.4232C86.4528 27.4232 86.2848 27.5312 86.2848 27.7472C86.2848 28.2272 87.7128 28.8632 90.5688 29.6552L90.4248 31.3472L88.9488 31.3112C87.9408 31.3112 87.2208 31.3592 86.7888 31.4552C86.3568 31.5512 86.1888 31.7072 86.2848 31.9232C86.3568 32.1152 86.6808 32.2112 87.2568 32.2112C87.8808 32.2112 88.6968 32.0912 89.7048 31.8512C90.7128 31.6112 91.7448 31.2632 92.8008 30.8072L92.6208 29.5832L97.9488 28.3232ZM127.56 33.9392L126.624 41.2832L114.276 40.1672L114.132 32.7152L114.78 32.7872C114.612 30.8432 114.36 29.5472 114.024 28.8992C113.688 28.2272 113.256 27.9392 112.728 28.0352C112.536 28.0832 112.392 28.1312 112.296 28.1792L112.62 31.9952L113.484 31.9592L113.628 39.8072L102.468 41.4632L101.568 32.2112L104.016 32.1752L104.448 24.5432L101.928 25.0112L101.064 16.0832C102.432 15.9872 103.716 15.9152 104.916 15.8672L104.988 14.6432L111.144 14.2112L111.252 15.6512C114.252 15.6272 116.592 15.7832 118.272 16.1192C119.976 16.4552 121.188 16.9952 121.908 17.7392C122.628 18.4592 123.036 19.4552 123.132 20.7272C123.228 22.0952 122.856 23.1992 122.016 24.0392C121.176 24.8792 119.82 25.6472 117.948 26.3432C119.46 26.5832 120.696 27.0152 121.656 27.6392C122.616 28.2392 123.384 29.0312 123.96 30.0152C124.56 30.9992 125.112 32.2472 125.616 33.7592L127.56 33.9392ZM112.008 24.7952C113.28 24.4352 114.108 24.1592 114.492 23.9672C114.9 23.7512 115.056 23.5232 114.96 23.2832C114.888 23.0432 114.612 22.9232 114.132 22.9232C113.652 22.9232 112.908 23.0072 111.9 23.1752L112.008 24.7952Z"/>
</mask>
<path d="M25.1503 28.1072L17.1583 27.3872L16.7263 32.8952L20.5423 32.5712V42.0032L7.15033 41.2832L6.68233 33.7592L9.05833 33.5432L8.59033 26.6312L7.11433 26.5232L7.00633 27.7832L3.76633 27.5672L3.15433 16.6592L23.1703 14.4272L25.1503 28.1072ZM33.7661 13.7072C36.3341 13.9712 38.3021 14.4392 39.6701 15.1112C41.0621 15.7592 41.6861 16.7912 41.5421 18.2072C41.4461 19.3832 40.9781 20.1992 40.1381 20.6552C39.2981 21.1112 38.1221 21.3392 36.6101 21.3392C35.6981 21.3392 34.4861 21.2552 32.9741 21.0872C31.2701 20.8952 29.8661 20.6672 28.7621 20.4032C27.6821 20.1392 26.8061 19.7312 26.1341 19.1792C25.4861 18.6272 25.1621 17.8712 25.1621 16.9112C25.1621 15.6632 25.6181 14.7872 26.5301 14.2832C27.4421 13.7552 28.7261 13.4912 30.3821 13.4912C31.4381 13.4912 32.5661 13.5632 33.7661 13.7072ZM38.8781 26.4512L37.8341 26.4872L38.4461 32.6432L40.0301 32.4992V41.9312L26.4221 41.2832L25.9541 33.7592L27.7901 33.5792L28.4021 26.9912L26.9621 27.0632V21.7712L38.9141 22.7072L38.8781 26.4512ZM74.2704 23.6792L72.8304 23.5352L72.9744 30.9872L74.5584 30.8792V41.9672L62.1024 41.2832L63.5424 31.5992L64.2264 31.5632L64.6944 26.6312L61.2384 36.0992L57.7464 36.3512L54.9384 28.3232L54.7944 31.4552L55.4424 31.5272L55.9824 40.8512L44.8944 41.2832V30.1952L46.1544 30.3392L45.1104 21.3752L43.4904 21.1952L42.9864 15.5072H54.6864L59.7624 25.3352L62.3544 15.1472L74.5944 14.4992L74.2704 23.6792ZM97.9488 28.3232L100.325 38.1872C98.1168 39.5072 95.8968 40.4912 93.6648 41.1392C91.4568 41.7632 89.3208 42.0752 87.2568 42.0752C85.1688 42.0752 83.2968 41.7512 81.6408 41.1032C80.0088 40.4552 78.7248 39.5432 77.7888 38.3672C76.8528 37.1672 76.3848 35.7872 76.3848 34.2272C76.3848 32.7872 76.9008 31.6592 77.9328 30.8432C78.9648 30.0272 80.3448 29.4752 82.0728 29.1872C80.5128 28.3952 79.2768 27.4232 78.3648 26.2712C77.4768 25.0952 77.0328 23.7632 77.0328 22.2752C77.0328 20.7152 77.4168 19.3712 78.1848 18.2432C78.9528 17.1152 80.0088 16.2632 81.3528 15.6872C82.6968 15.1112 84.2208 14.8232 85.9248 14.8232C88.2288 14.8232 90.5568 15.3152 92.9088 16.2992L93.3048 14.2112L99.6768 15.6872L91.7568 29.9072C90.6288 29.0912 89.6208 28.4792 88.7328 28.0712C87.8688 27.6392 87.2208 27.4232 86.7888 27.4232C86.4528 27.4232 86.2848 27.5312 86.2848 27.7472C86.2848 28.2272 87.7128 28.8632 90.5688 29.6552L90.4248 31.3472L88.9488 31.3112C87.9408 31.3112 87.2208 31.3592 86.7888 31.4552C86.3568 31.5512 86.1888 31.7072 86.2848 31.9232C86.3568 32.1152 86.6808 32.2112 87.2568 32.2112C87.8808 32.2112 88.6968 32.0912 89.7048 31.8512C90.7128 31.6112 91.7448 31.2632 92.8008 30.8072L92.6208 29.5832L97.9488 28.3232ZM127.56 33.9392L126.624 41.2832L114.276 40.1672L114.132 32.7152L114.78 32.7872C114.612 30.8432 114.36 29.5472 114.024 28.8992C113.688 28.2272 113.256 27.9392 112.728 28.0352C112.536 28.0832 112.392 28.1312 112.296 28.1792L112.62 31.9952L113.484 31.9592L113.628 39.8072L102.468 41.4632L101.568 32.2112L104.016 32.1752L104.448 24.5432L101.928 25.0112L101.064 16.0832C102.432 15.9872 103.716 15.9152 104.916 15.8672L104.988 14.6432L111.144 14.2112L111.252 15.6512C114.252 15.6272 116.592 15.7832 118.272 16.1192C119.976 16.4552 121.188 16.9952 121.908 17.7392C122.628 18.4592 123.036 19.4552 123.132 20.7272C123.228 22.0952 122.856 23.1992 122.016 24.0392C121.176 24.8792 119.82 25.6472 117.948 26.3432C119.46 26.5832 120.696 27.0152 121.656 27.6392C122.616 28.2392 123.384 29.0312 123.96 30.0152C124.56 30.9992 125.112 32.2472 125.616 33.7592L127.56 33.9392ZM112.008 24.7952C113.28 24.4352 114.108 24.1592 114.492 23.9672C114.9 23.7512 115.056 23.5232 114.96 23.2832C114.888 23.0432 114.612 22.9232 114.132 22.9232C113.652 22.9232 112.908 23.0072 111.9 23.1752L112.008 24.7952Z" fill="black"/>
<path d="M25.1503 28.1072L24.8811 31.0951L28.6634 31.4358L28.1194 27.6775L25.1503 28.1072ZM17.1583 27.3872L17.4275 24.3993L14.4048 24.127L14.1675 27.1526L17.1583 27.3872ZM16.7263 32.8952L13.7355 32.6606L13.4592 36.1834L16.9801 35.8844L16.7263 32.8952ZM20.5423 32.5712H23.5423V29.3057L20.2885 29.582L20.5423 32.5712ZM20.5423 42.0032L20.3813 44.9989L23.5423 45.1688V42.0032H20.5423ZM7.15033 41.2832L4.15611 41.4694L4.32194 44.1355L6.98927 44.2789L7.15033 41.2832ZM6.68233 33.7592L6.41072 30.7715L3.50711 31.0355L3.68811 33.9454L6.68233 33.7592ZM9.05833 33.5432L9.32993 36.5309L12.2495 36.2655L12.0515 33.3405L9.05833 33.5432ZM8.59033 26.6312L11.5835 26.4285L11.4075 23.8293L8.80925 23.6392L8.59033 26.6312ZM7.11433 26.5232L7.33325 23.5312L4.37832 23.315L4.12529 26.267L7.11433 26.5232ZM7.00633 27.7832L6.80677 30.7766L9.74397 30.9724L9.99537 28.0394L7.00633 27.7832ZM3.76633 27.5672L0.771037 27.7353L0.919651 30.3841L3.56677 30.5606L3.76633 27.5672ZM3.15433 16.6592L2.82185 13.6777L-1.71661e-05 13.9924L0.159037 16.8273L3.15433 16.6592ZM23.1703 14.4272L26.1394 13.9975L25.7235 11.1239L22.8379 11.4457L23.1703 14.4272ZM25.1503 28.1072L25.4195 25.1193L17.4275 24.3993L17.1583 27.3872L16.8891 30.3751L24.8811 31.0951L25.1503 28.1072ZM17.1583 27.3872L14.1675 27.1526L13.7355 32.6606L16.7263 32.8952L19.7171 33.1298L20.1491 27.6218L17.1583 27.3872ZM16.7263 32.8952L16.9801 35.8844L20.7961 35.5604L20.5423 32.5712L20.2885 29.582L16.4725 29.906L16.7263 32.8952ZM20.5423 32.5712H17.5423V42.0032H20.5423H23.5423V32.5712H20.5423ZM20.5423 42.0032L20.7034 39.0075L7.31138 38.2875L7.15033 41.2832L6.98927 44.2789L20.3813 44.9989L20.5423 42.0032ZM7.15033 41.2832L10.1445 41.097L9.67654 33.573L6.68233 33.7592L3.68811 33.9454L4.15611 41.4694L7.15033 41.2832ZM6.68233 33.7592L6.95393 36.7469L9.32993 36.5309L9.05833 33.5432L8.78672 30.5555L6.41072 30.7715L6.68233 33.7592ZM9.05833 33.5432L12.0515 33.3405L11.5835 26.4285L8.59033 26.6312L5.59718 26.8339L6.06518 33.7459L9.05833 33.5432ZM8.59033 26.6312L8.80925 23.6392L7.33325 23.5312L7.11433 26.5232L6.8954 29.5152L8.3714 29.6232L8.59033 26.6312ZM7.11433 26.5232L4.12529 26.267L4.01729 27.527L7.00633 27.7832L9.99537 28.0394L10.1034 26.7794L7.11433 26.5232ZM7.00633 27.7832L7.20588 24.7898L3.96588 24.5738L3.76633 27.5672L3.56677 30.5606L6.80677 30.7766L7.00633 27.7832ZM3.76633 27.5672L6.76162 27.3992L6.14962 16.4911L3.15433 16.6592L0.159037 16.8273L0.771037 27.7353L3.76633 27.5672ZM3.15433 16.6592L3.4868 19.6407L23.5028 17.4087L23.1703 14.4272L22.8379 11.4457L2.82185 13.6777L3.15433 16.6592ZM23.1703 14.4272L20.2013 14.8569L22.1813 28.5369L25.1503 28.1072L28.1194 27.6775L26.1394 13.9975L23.1703 14.4272ZM33.7661 13.7072L33.4087 16.6858L33.434 16.6889L33.4593 16.6915L33.7661 13.7072ZM39.6701 15.1112L38.3474 17.8039L38.3756 17.8177L38.404 17.8309L39.6701 15.1112ZM41.5421 18.2072L38.5575 17.9037L38.5545 17.9334L38.5521 17.9631L41.5421 18.2072ZM32.9741 21.0872L32.6382 24.0683L32.6428 24.0689L32.9741 21.0872ZM28.7621 20.4032L28.0498 23.3174L28.0571 23.3192L28.0644 23.3209L28.7621 20.4032ZM26.1341 19.1792L24.1887 21.4629L24.2092 21.4803L24.2299 21.4974L26.1341 19.1792ZM26.5301 14.2832L27.9812 16.9089L28.0074 16.8945L28.0332 16.8795L26.5301 14.2832ZM38.8781 26.4512L38.9815 29.4494L41.8504 29.3505L41.878 26.48L38.8781 26.4512ZM37.8341 26.4872L37.7308 23.489L34.5322 23.5993L34.8489 26.784L37.8341 26.4872ZM38.4461 32.6432L35.4609 32.94L35.7551 35.9002L38.7177 35.6309L38.4461 32.6432ZM40.0301 32.4992H43.0301V29.2141L39.7585 29.5115L40.0301 32.4992ZM40.0301 41.9312L39.8874 44.9278L43.0301 45.0775V41.9312H40.0301ZM26.4221 41.2832L23.4279 41.4694L23.5948 44.152L26.2794 44.2798L26.4221 41.2832ZM25.9541 33.7592L25.6614 30.7735L22.7802 31.056L22.9599 33.9454L25.9541 33.7592ZM27.7901 33.5792L28.0829 36.5649L30.5481 36.3232L30.7773 33.8567L27.7901 33.5792ZM28.4021 26.9912L31.3893 27.2687L31.7095 23.8221L28.2523 23.9949L28.4021 26.9912ZM26.9621 27.0632H23.9621V30.2169L27.112 30.0595L26.9621 27.0632ZM26.9621 21.7712L27.1964 18.7804L23.9621 18.5271V21.7712H26.9621ZM38.9141 22.7072L41.914 22.736L41.9409 19.9351L39.1484 19.7164L38.9141 22.7072ZM33.7661 13.7072L33.4593 16.6915C35.8842 16.9408 37.4445 17.3603 38.3474 17.8039L39.6701 15.1112L40.9929 12.4185C39.1598 11.5181 36.7841 11.0016 34.0729 10.7229L33.7661 13.7072ZM39.6701 15.1112L38.404 17.8309C38.5557 17.9015 38.6273 17.9553 38.6496 17.9739C38.6683 17.9894 38.6458 17.9744 38.6149 17.9235C38.6006 17.8997 38.5882 17.8743 38.5786 17.8491C38.569 17.8242 38.5643 17.805 38.5622 17.7944C38.558 17.7729 38.5678 17.803 38.5575 17.9037L41.5421 18.2072L44.5267 18.5107C44.6523 17.2759 44.4559 15.9874 43.7493 14.8189C43.0548 13.6702 42.0252 12.8984 40.9362 12.3915L39.6701 15.1112ZM41.5421 18.2072L38.5521 17.9631C38.5311 18.2202 38.4829 18.2677 38.5168 18.2087C38.5343 18.1782 38.5641 18.1366 38.6069 18.095C38.6494 18.0537 38.6871 18.0294 38.7069 18.0186L40.1381 20.6552L41.5694 23.2918C43.5143 22.236 44.3759 20.3663 44.5322 18.4513L41.5421 18.2072ZM40.1381 20.6552L38.7069 18.0186C38.4901 18.1363 37.8846 18.3392 36.6101 18.3392V21.3392V24.3392C38.3597 24.3392 40.1062 24.0861 41.5694 23.2918L40.1381 20.6552ZM36.6101 21.3392V18.3392C35.8574 18.3392 34.7696 18.2682 33.3054 18.1056L32.9741 21.0872L32.6428 24.0689C34.2027 24.2422 35.5389 24.3392 36.6101 24.3392V21.3392ZM32.9741 21.0872L33.31 18.1061C31.6731 17.9216 30.401 17.7105 29.4599 17.4855L28.7621 20.4032L28.0644 23.3209C29.3313 23.6239 30.8672 23.8688 32.6382 24.0683L32.9741 21.0872ZM28.7621 20.4032L29.4745 17.489C28.7138 17.3031 28.28 17.0595 28.0384 16.861L26.1341 19.1792L24.2299 21.4974C25.3323 22.4029 26.6505 22.9754 28.0498 23.3174L28.7621 20.4032ZM26.1341 19.1792L28.0795 16.8955C28.0822 16.8977 28.0974 16.9114 28.1168 16.9376C28.1365 16.964 28.1521 16.992 28.1626 17.0164C28.1728 17.0402 28.1732 17.0493 28.1708 17.0364C28.1682 17.0224 28.1621 16.9827 28.1621 16.9112H25.1621H22.1621C22.1621 18.6244 22.7814 20.2641 24.1887 21.4629L26.1341 19.1792ZM25.1621 16.9112H28.1621C28.1621 16.6453 28.2109 16.6156 28.1652 16.7034C28.1422 16.7475 28.1071 16.7977 28.0622 16.843C28.0183 16.8873 27.9849 16.9069 27.9812 16.9089L26.5301 14.2832L25.0791 11.6575C23.0057 12.8033 22.1621 14.8285 22.1621 16.9112H25.1621ZM26.5301 14.2832L28.0332 16.8795C28.2986 16.7259 28.9798 16.4912 30.3821 16.4912V13.4912V10.4912C28.4725 10.4912 26.5857 10.7845 25.027 11.6869L26.5301 14.2832ZM30.3821 13.4912V16.4912C31.3031 16.4912 32.3107 16.5541 33.4087 16.6858L33.7661 13.7072L34.1236 10.7286C32.8215 10.5723 31.5732 10.4912 30.3821 10.4912V13.4912ZM38.8781 26.4512L38.7747 23.453L37.7308 23.489L37.8341 26.4872L37.9375 29.4854L38.9815 29.4494L38.8781 26.4512ZM37.8341 26.4872L34.8489 26.784L35.4609 32.94L38.4461 32.6432L41.4314 32.3464L40.8194 26.1904L37.8341 26.4872ZM38.4461 32.6432L38.7177 35.6309L40.3017 35.4869L40.0301 32.4992L39.7585 29.5115L38.1745 29.6555L38.4461 32.6432ZM40.0301 32.4992H37.0301V41.9312H40.0301H43.0301V32.4992H40.0301ZM40.0301 41.9312L40.1728 38.9346L26.5648 38.2866L26.4221 41.2832L26.2794 44.2798L39.8874 44.9278L40.0301 41.9312ZM26.4221 41.2832L29.4164 41.097L28.9484 33.573L25.9541 33.7592L22.9599 33.9454L23.4279 41.4694L26.4221 41.2832ZM25.9541 33.7592L26.2469 36.7449L28.0829 36.5649L27.7901 33.5792L27.4974 30.5935L25.6614 30.7735L25.9541 33.7592ZM27.7901 33.5792L30.7773 33.8567L31.3893 27.2687L28.4021 26.9912L25.415 26.7137L24.803 33.3017L27.7901 33.5792ZM28.4021 26.9912L28.2523 23.9949L26.8123 24.0669L26.9621 27.0632L27.112 30.0595L28.552 29.9875L28.4021 26.9912ZM26.9621 27.0632H29.9621V21.7712H26.9621H23.9621V27.0632H26.9621ZM26.9621 21.7712L26.7279 24.762L38.6799 25.698L38.9141 22.7072L39.1484 19.7164L27.1964 18.7804L26.9621 21.7712ZM38.9141 22.7072L35.9143 22.6784L35.8783 26.4224L38.8781 26.4512L41.878 26.48L41.914 22.736L38.9141 22.7072ZM74.2704 23.6792L73.9718 26.6643L77.1556 26.9827L77.2685 23.785L74.2704 23.6792ZM72.8304 23.5352L73.1289 20.5501L69.7656 20.2138L69.8309 23.5932L72.8304 23.5352ZM72.9744 30.9872L69.9749 31.0452L70.0358 34.1945L73.1784 33.9803L72.9744 30.9872ZM74.5584 30.8792H77.5584V27.6677L74.3543 27.8862L74.5584 30.8792ZM74.5584 41.9672L74.3939 44.9627L77.5584 45.1365V41.9672H74.5584ZM62.1024 41.2832L59.135 40.842L58.6508 44.0982L61.9379 44.2787L62.1024 41.2832ZM63.5424 31.5992L63.3847 28.6033L60.9357 28.7322L60.575 31.158L63.5424 31.5992ZM64.2264 31.5632L64.384 34.5591L66.9685 34.423L67.2129 31.8466L64.2264 31.5632ZM64.6944 26.6312L67.6809 26.9146L61.8762 25.6025L64.6944 26.6312ZM61.2384 36.0992L61.4543 39.0914L63.3908 38.9517L64.0565 37.1279L61.2384 36.0992ZM57.7464 36.3512L54.9146 37.3417L55.6725 39.5087L57.9623 39.3434L57.7464 36.3512ZM54.9384 28.3232L57.7701 27.3327L51.9415 28.1854L54.9384 28.3232ZM54.7944 31.4552L51.7975 31.3174L51.6684 34.1263L54.4631 34.4369L54.7944 31.4552ZM55.4424 31.5272L58.4373 31.3537L58.2909 28.8252L55.7736 28.5456L55.4424 31.5272ZM55.9824 40.8512L56.0992 43.8489L59.1541 43.7299L58.9773 40.6777L55.9824 40.8512ZM44.8944 41.2832H41.8944V44.4024L45.0112 44.2809L44.8944 41.2832ZM44.8944 30.1952L45.235 27.2146L41.8944 26.8328V30.1952H44.8944ZM46.1544 30.3392L45.8137 33.3198L49.5718 33.7493L49.1342 29.9921L46.1544 30.3392ZM45.1104 21.3752L48.0902 21.0282L47.8141 18.6572L45.4417 18.3936L45.1104 21.3752ZM43.4904 21.1952L40.5021 21.46L40.7188 23.9057L43.1591 24.1769L43.4904 21.1952ZM42.9864 15.5072V12.5072H39.7088L39.9981 15.772L42.9864 15.5072ZM54.6864 15.5072L57.3518 14.1305L56.5134 12.5072H54.6864V15.5072ZM59.7624 25.3352L57.0969 26.7119L60.722 33.7307L62.6697 26.0749L59.7624 25.3352ZM62.3544 15.1472L62.1958 12.1514L59.9913 12.2681L59.447 14.4075L62.3544 15.1472ZM74.5944 14.4992L77.5925 14.605L77.7081 11.3302L74.4358 11.5034L74.5944 14.4992ZM74.2704 23.6792L74.5689 20.6941L73.1289 20.5501L72.8304 23.5352L72.5318 26.5203L73.9718 26.6643L74.2704 23.6792ZM72.8304 23.5352L69.8309 23.5932L69.9749 31.0452L72.9744 30.9872L75.9738 30.9292L75.8298 23.4772L72.8304 23.5352ZM72.9744 30.9872L73.1784 33.9803L74.7624 33.8723L74.5584 30.8792L74.3543 27.8862L72.7703 27.9942L72.9744 30.9872ZM74.5584 30.8792H71.5584V41.9672H74.5584H77.5584V30.8792H74.5584ZM74.5584 41.9672L74.7229 38.9717L62.2668 38.2877L62.1024 41.2832L61.9379 44.2787L74.3939 44.9627L74.5584 41.9672ZM62.1024 41.2832L65.0697 41.7244L66.5097 32.0404L63.5424 31.5992L60.575 31.158L59.135 40.842L62.1024 41.2832ZM63.5424 31.5992L63.7 34.5951L64.384 34.5591L64.2264 31.5632L64.0687 28.5673L63.3847 28.6033L63.5424 31.5992ZM64.2264 31.5632L67.2129 31.8466L67.6809 26.9146L64.6944 26.6312L61.7078 26.3478L61.2398 31.2798L64.2264 31.5632ZM64.6944 26.6312L61.8762 25.6025L58.4202 35.0705L61.2384 36.0992L64.0565 37.1279L67.5125 27.6599L64.6944 26.6312ZM61.2384 36.0992L61.0224 33.107L57.5304 33.359L57.7464 36.3512L57.9623 39.3434L61.4543 39.0914L61.2384 36.0992ZM57.7464 36.3512L60.5781 35.3607L57.7701 27.3327L54.9384 28.3232L52.1066 29.3137L54.9146 37.3417L57.7464 36.3512ZM54.9384 28.3232L51.9415 28.1854L51.7975 31.3174L54.7944 31.4552L57.7912 31.593L57.9352 28.461L54.9384 28.3232ZM54.7944 31.4552L54.4631 34.4369L55.1111 34.5089L55.4424 31.5272L55.7736 28.5456L55.1256 28.4736L54.7944 31.4552ZM55.4424 31.5272L52.4474 31.7007L52.9874 41.0247L55.9824 40.8512L58.9773 40.6777L58.4373 31.3537L55.4424 31.5272ZM55.9824 40.8512L55.8656 37.8535L44.7776 38.2855L44.8944 41.2832L45.0112 44.2809L56.0992 43.8489L55.9824 40.8512ZM44.8944 41.2832H47.8944V30.1952H44.8944H41.8944V41.2832H44.8944ZM44.8944 30.1952L44.5537 33.1758L45.8137 33.3198L46.1544 30.3392L46.495 27.3586L45.235 27.2146L44.8944 30.1952ZM46.1544 30.3392L49.1342 29.9921L48.0902 21.0282L45.1104 21.3752L42.1305 21.7223L43.1745 30.6863L46.1544 30.3392ZM45.1104 21.3752L45.4417 18.3936L43.8217 18.2136L43.4904 21.1952L43.1591 24.1769L44.7791 24.3569L45.1104 21.3752ZM43.4904 21.1952L46.4786 20.9304L45.9746 15.2424L42.9864 15.5072L39.9981 15.772L40.5021 21.46L43.4904 21.1952ZM42.9864 15.5072V18.5072H54.6864V15.5072V12.5072H42.9864V15.5072ZM54.6864 15.5072L52.0209 16.8839L57.0969 26.7119L59.7624 25.3352L62.4278 23.9585L57.3518 14.1305L54.6864 15.5072ZM59.7624 25.3352L62.6697 26.0749L65.2617 15.8869L62.3544 15.1472L59.447 14.4075L56.855 24.5955L59.7624 25.3352ZM62.3544 15.1472L62.513 18.143L74.753 17.495L74.5944 14.4992L74.4358 11.5034L62.1958 12.1514L62.3544 15.1472ZM74.5944 14.4992L71.5962 14.3934L71.2722 23.5734L74.2704 23.6792L77.2685 23.785L77.5925 14.605L74.5944 14.4992ZM97.9488 28.3232L100.865 27.6207L100.166 24.7162L97.2584 25.4037L97.9488 28.3232ZM100.325 38.1872L101.864 40.7621L103.758 39.6299L103.241 37.4847L100.325 38.1872ZM93.6648 41.1392L94.4807 44.0261L94.491 44.0232L94.5012 44.0202L93.6648 41.1392ZM81.6408 41.1032L80.5337 43.8915L80.5406 43.8942L80.5476 43.8969L81.6408 41.1032ZM77.7888 38.3672L75.4233 40.2123L75.4324 40.2239L75.4415 40.2354L77.7888 38.3672ZM77.9328 30.8432L76.0721 28.49V28.49L77.9328 30.8432ZM82.0728 29.1872L82.566 32.1464L91.572 30.6454L83.4309 26.5122L82.0728 29.1872ZM78.3648 26.2712L75.9707 28.079L75.9914 28.1064L76.0127 28.1333L78.3648 26.2712ZM78.1848 18.2432L75.705 16.5548V16.5548L78.1848 18.2432ZM81.3528 15.6872L80.171 12.9298V12.9298L81.3528 15.6872ZM92.9088 16.2992L91.7509 19.0668L95.1664 20.4957L95.8563 16.8582L92.9088 16.2992ZM93.3048 14.2112L93.9818 11.2886L90.9393 10.5838L90.3573 13.6522L93.3048 14.2112ZM99.6768 15.6872L102.298 17.1469L104.237 13.6642L100.354 12.7646L99.6768 15.6872ZM91.7568 29.9072L89.9984 32.3379L92.7345 34.3172L94.3777 31.3669L91.7568 29.9072ZM88.7328 28.0712L87.3912 30.7545L87.4354 30.7766L87.4803 30.7972L88.7328 28.0712ZM90.5688 29.6552L93.558 29.9096L93.7691 27.4295L91.3705 26.7643L90.5688 29.6552ZM90.4248 31.3472L90.3516 34.3463L93.1745 34.4152L93.414 31.6016L90.4248 31.3472ZM88.9488 31.3112L89.0219 28.3121L88.9854 28.3112H88.9488V31.3112ZM86.7888 31.4552L87.4396 34.3838L87.4396 34.3838L86.7888 31.4552ZM86.2848 31.9232L89.0938 30.8698L89.0625 30.7863L89.0262 30.7048L86.2848 31.9232ZM89.7048 31.8512L89.0099 28.9328V28.9328L89.7048 31.8512ZM92.8008 30.8072L93.9901 33.5614L96.1039 32.6486L95.7689 30.3707L92.8008 30.8072ZM92.6208 29.5832L91.9304 26.6637L89.2523 27.2971L89.6527 30.0197L92.6208 29.5832ZM97.9488 28.3232L95.0322 29.0257L97.4082 38.8897L100.325 38.1872L103.241 37.4847L100.865 27.6207L97.9488 28.3232ZM100.325 38.1872L98.7854 35.6123C96.7745 36.8144 94.7893 37.6889 92.8284 38.2582L93.6648 41.1392L94.5012 44.0202C97.0043 43.2935 99.4591 42.2 101.864 40.7621L100.325 38.1872ZM93.6648 41.1392L92.8489 38.2523C90.8772 38.8095 89.0161 39.0752 87.2568 39.0752V42.0752V45.0752C89.6255 45.0752 92.0364 44.7169 94.4807 44.0261L93.6648 41.1392ZM87.2568 42.0752V39.0752C85.4789 39.0752 83.9866 38.7996 82.734 38.3095L81.6408 41.1032L80.5476 43.8969C82.6069 44.7028 84.8587 45.0752 87.2568 45.0752V42.0752ZM81.6408 41.1032L82.7479 38.315C81.5199 37.8274 80.6948 37.201 80.1361 36.499L77.7888 38.3672L75.4415 40.2354C76.7548 41.8854 78.4977 43.083 80.5337 43.8915L81.6408 41.1032ZM77.7888 38.3672L80.1543 36.5221C79.6405 35.8634 79.3848 35.1368 79.3848 34.2272H76.3848H73.3848C73.3848 36.4376 74.0651 38.471 75.4233 40.2123L77.7888 38.3672ZM76.3848 34.2272H79.3848C79.3848 33.6053 79.5555 33.3846 79.7935 33.1964L77.9328 30.8432L76.0721 28.49C74.2461 29.9338 73.3848 31.9691 73.3848 34.2272H76.3848ZM77.9328 30.8432L79.7935 33.1964C80.318 32.7817 81.178 32.3777 82.566 32.1464L82.0728 29.1872L81.5796 26.228C79.5115 26.5727 77.6115 27.2727 76.0721 28.49L77.9328 30.8432ZM82.0728 29.1872L83.4309 26.5122C82.1843 25.8794 81.3138 25.163 80.7169 24.4091L78.3648 26.2712L76.0127 28.1333C77.2398 29.6834 78.8412 30.9111 80.7147 31.8622L82.0728 29.1872ZM78.3648 26.2712L80.7589 24.4634C80.2682 23.8135 80.0328 23.1176 80.0328 22.2752H77.0328H74.0328C74.0328 24.4088 74.6854 26.3769 75.9707 28.079L78.3648 26.2712ZM77.0328 22.2752H80.0328C80.0328 21.2284 80.2824 20.4929 80.6646 19.9316L78.1848 18.2432L75.705 16.5548C74.5512 18.2495 74.0328 20.202 74.0328 22.2752H77.0328ZM78.1848 18.2432L80.6646 19.9316C81.0874 19.3105 81.677 18.8121 82.5346 18.4446L81.3528 15.6872L80.171 12.9298C78.3406 13.7143 76.8181 14.9199 75.705 16.5548L78.1848 18.2432ZM81.3528 15.6872L82.5346 18.4446C83.4485 18.0529 84.5606 17.8232 85.9248 17.8232V14.8232V11.8232C83.881 11.8232 81.945 12.1695 80.171 12.9298L81.3528 15.6872ZM85.9248 14.8232V17.8232C87.7909 17.8232 89.7265 18.2198 91.7509 19.0668L92.9088 16.2992L94.0667 13.5316C91.3871 12.4106 88.6667 11.8232 85.9248 11.8232V14.8232ZM92.9088 16.2992L95.8563 16.8582L96.2523 14.7702L93.3048 14.2112L90.3573 13.6522L89.9613 15.7402L92.9088 16.2992ZM93.3048 14.2112L92.6278 17.1338L98.9998 18.6098L99.6768 15.6872L100.354 12.7646L93.9818 11.2886L93.3048 14.2112ZM99.6768 15.6872L97.0559 14.2275L89.1359 28.4475L91.7568 29.9072L94.3777 31.3669L102.298 17.1469L99.6768 15.6872ZM91.7568 29.9072L93.5152 27.4765C92.2894 26.5898 91.1084 25.8612 89.9853 25.3452L88.7328 28.0712L87.4803 30.7972C88.1332 31.0972 88.9682 31.5926 89.9984 32.3379L91.7568 29.9072ZM88.7328 28.0712L90.0744 25.3879C89.1869 24.9442 87.9853 24.4232 86.7888 24.4232V27.4232V30.4232C86.6541 30.4232 86.5737 30.4072 86.5649 30.4054C86.5531 30.4031 86.5794 30.4077 86.6501 30.4313C86.797 30.4802 87.0386 30.5782 87.3912 30.7545L88.7328 28.0712ZM86.7888 27.4232V24.4232C86.3956 24.4232 85.5845 24.469 84.7885 24.9807C83.7655 25.6383 83.2848 26.7177 83.2848 27.7472H86.2848H89.2848C89.2848 28.0859 89.217 28.5284 88.9796 28.9864C88.7369 29.4543 88.3891 29.7989 88.0331 30.0277C87.4051 30.4314 86.846 30.4232 86.7888 30.4232V27.4232ZM86.2848 27.7472H83.2848C83.2848 29.3495 84.3986 30.2606 84.7052 30.5002C85.1664 30.8606 85.6909 31.1268 86.1352 31.3247C87.0562 31.7349 88.2986 32.1389 89.7671 32.5461L90.5688 29.6552L91.3705 26.7643C89.983 26.3795 89.0834 26.0695 88.5763 25.8437C88.3066 25.7236 88.2957 25.6913 88.3999 25.7727C88.4553 25.816 88.6373 25.9637 88.8234 26.2343C89.0166 26.5152 89.2848 27.0363 89.2848 27.7472H86.2848ZM90.5688 29.6552L87.5796 29.4008L87.4356 31.0928L90.4248 31.3472L93.414 31.6016L93.558 29.9096L90.5688 29.6552ZM90.4248 31.3472L90.4979 28.3481L89.0219 28.3121L88.9488 31.3112L88.8756 34.3103L90.3516 34.3463L90.4248 31.3472ZM88.9488 31.3112V28.3112C87.9275 28.3112 86.9189 28.3531 86.138 28.5266L86.7888 31.4552L87.4396 34.3838C87.4323 34.3854 87.4615 34.3787 87.5389 34.369C87.6138 34.3597 87.7168 34.3496 87.8524 34.3406C88.1257 34.3223 88.4875 34.3112 88.9488 34.3112V31.3112ZM86.7888 31.4552L86.138 28.5266C85.804 28.6009 84.9912 28.8017 84.2974 29.4458C83.8892 29.8249 83.4705 30.4089 83.317 31.2024C83.1652 31.9866 83.3322 32.6664 83.5434 33.1416L86.2848 31.9232L89.0262 30.7048C89.1894 31.072 89.3414 31.6513 89.2076 32.3425C89.0721 33.043 88.7044 33.5415 88.3801 33.8426C88.081 34.1204 87.8003 34.2522 87.676 34.3044C87.5391 34.3619 87.4486 34.3818 87.4396 34.3838L86.7888 31.4552ZM86.2848 31.9232L83.4758 32.9766C84.0088 34.3978 85.2469 34.8726 85.7295 35.0156C86.2955 35.1833 86.8527 35.2112 87.2568 35.2112V32.2112V29.2112C87.0849 29.2112 87.1921 29.1911 87.4341 29.2628C87.5927 29.3098 88.6328 29.6406 89.0938 30.8698L86.2848 31.9232ZM87.2568 32.2112V35.2112C88.2176 35.2112 89.2923 35.0333 90.3997 34.7696L89.7048 31.8512L89.0099 28.9328C88.1013 29.1491 87.544 29.2112 87.2568 29.2112V32.2112ZM89.7048 31.8512L90.3997 34.7696C91.5942 34.4852 92.7916 34.0789 93.9901 33.5614L92.8008 30.8072L91.6115 28.053C90.698 28.4475 89.8314 28.7372 89.0099 28.9328L89.7048 31.8512ZM92.8008 30.8072L95.7689 30.3707L95.5889 29.1467L92.6208 29.5832L89.6527 30.0197L89.8327 31.2437L92.8008 30.8072ZM92.6208 29.5832L93.3112 32.5027L98.6392 31.2427L97.9488 28.3232L97.2584 25.4037L91.9304 26.6637L92.6208 29.5832ZM127.56 33.9392L130.536 34.3185L130.929 31.2383L127.837 30.952L127.56 33.9392ZM126.624 41.2832L126.354 44.271L129.235 44.5313L129.6 41.6625L126.624 41.2832ZM114.276 40.1672L111.277 40.2252L111.329 42.913L114.006 43.155L114.276 40.1672ZM114.132 32.7152L114.464 29.7336L111.067 29.3561L111.133 32.7732L114.132 32.7152ZM114.78 32.7872L114.449 35.7689L118.084 36.1727L117.769 32.5289L114.78 32.7872ZM114.024 28.8992L111.341 30.2408L111.351 30.2606L111.361 30.2802L114.024 28.8992ZM112.728 28.0352L112.192 25.0836L112.096 25.1011L112.001 25.1248L112.728 28.0352ZM112.296 28.1792L110.955 25.4959L109.135 26.4058L109.307 28.433L112.296 28.1792ZM112.62 31.9952L109.631 32.249L109.874 35.1122L112.745 34.9926L112.62 31.9952ZM113.484 31.9592L116.484 31.9042L116.428 28.834L113.36 28.9618L113.484 31.9592ZM113.628 39.8072L114.069 42.7747L116.676 42.3878L116.628 39.7522L113.628 39.8072ZM102.468 41.4632L99.4826 41.7537L99.788 44.8938L102.909 44.4307L102.468 41.4632ZM101.568 32.2112L101.524 29.2115L98.2672 29.2594L98.5826 32.5017L101.568 32.2112ZM104.016 32.1752L104.061 35.1749L106.854 35.1338L107.012 32.3447L104.016 32.1752ZM104.448 24.5432L107.444 24.7127L107.66 20.8955L103.901 21.5936L104.448 24.5432ZM101.928 25.0112L98.9424 25.3002L99.2578 28.5585L102.476 27.9608L101.928 25.0112ZM101.064 16.0832L100.854 13.0906L97.7817 13.3062L98.0784 16.3722L101.064 16.0832ZM104.916 15.8672L105.036 18.8648L107.752 18.7562L107.911 16.0434L104.916 15.8672ZM104.988 14.6432L104.778 11.6506L102.148 11.8351L101.994 14.467L104.988 14.6432ZM111.144 14.2112L114.136 13.9868L113.913 11.0096L110.934 11.2186L111.144 14.2112ZM111.252 15.6512L108.261 15.8756L108.471 18.6736L111.276 18.6511L111.252 15.6512ZM118.272 16.1192L117.684 19.061L117.692 19.0625L118.272 16.1192ZM121.908 17.7392L119.753 19.8255L119.77 19.8431L119.787 19.8605L121.908 17.7392ZM123.132 20.7272L126.125 20.5172L126.125 20.5093L126.124 20.5014L123.132 20.7272ZM122.016 24.0392L124.138 26.1605V26.1605L122.016 24.0392ZM117.948 26.3432L116.903 23.5313L106.19 27.5143L117.478 29.3061L117.948 26.3432ZM121.656 27.6392L120.022 30.1545L120.044 30.1691L120.066 30.1832L121.656 27.6392ZM123.96 30.0152L121.371 31.5307L121.385 31.554L121.399 31.577L123.96 30.0152ZM125.616 33.7592L122.77 34.7079L123.39 36.5659L125.34 36.7464L125.616 33.7592ZM112.008 24.7952L109.015 24.9948L109.262 28.6905L112.825 27.6818L112.008 24.7952ZM114.492 23.9672L115.834 26.6505L115.865 26.6349L115.896 26.6186L114.492 23.9672ZM114.96 23.2832L112.087 24.1452L112.125 24.2733L112.175 24.3974L114.96 23.2832ZM111.9 23.1752L111.407 20.216L108.726 20.6628L108.907 23.3748L111.9 23.1752ZM127.56 33.9392L124.585 33.5599L123.649 40.9039L126.624 41.2832L129.6 41.6625L130.536 34.3185L127.56 33.9392ZM126.624 41.2832L126.895 38.2954L114.547 37.1794L114.276 40.1672L114.006 43.155L126.354 44.271L126.624 41.2832ZM114.276 40.1672L117.276 40.1092L117.132 32.6572L114.132 32.7152L111.133 32.7732L111.277 40.2252L114.276 40.1672ZM114.132 32.7152L113.801 35.6969L114.449 35.7689L114.78 32.7872L115.112 29.8056L114.464 29.7336L114.132 32.7152ZM114.78 32.7872L117.769 32.5289C117.68 31.4961 117.564 30.5728 117.41 29.7846C117.266 29.0433 117.054 28.2242 116.688 27.5183L114.024 28.8992L111.361 30.2802C111.331 30.2222 111.413 30.3752 111.521 30.9298C111.619 31.4376 111.713 32.1343 111.792 33.0455L114.78 32.7872ZM114.024 28.8992L116.708 27.5576C116.404 26.9504 115.915 26.2177 115.113 25.6831C114.226 25.092 113.192 24.9017 112.192 25.0836L112.728 28.0352L113.265 30.9868C113.061 31.024 112.803 31.034 112.518 30.9769C112.231 30.9195 111.982 30.8074 111.784 30.6754C111.414 30.4287 111.309 30.176 111.341 30.2408L114.024 28.8992ZM112.728 28.0352L112.001 25.1248C111.742 25.1894 111.346 25.3001 110.955 25.4959L112.296 28.1792L113.638 30.8625C113.575 30.8942 113.524 30.9157 113.492 30.9286C113.459 30.9418 113.436 30.9498 113.425 30.9533C113.406 30.9595 113.414 30.9562 113.456 30.9456L112.728 28.0352ZM112.296 28.1792L109.307 28.433L109.631 32.249L112.62 31.9952L115.61 31.7414L115.286 27.9254L112.296 28.1792ZM112.62 31.9952L112.745 34.9926L113.609 34.9566L113.484 31.9592L113.36 28.9618L112.496 28.9978L112.62 31.9952ZM113.484 31.9592L110.485 32.0142L110.629 39.8622L113.628 39.8072L116.628 39.7522L116.484 31.9042L113.484 31.9592ZM113.628 39.8072L113.188 36.8397L102.028 38.4957L102.468 41.4632L102.909 44.4307L114.069 42.7747L113.628 39.8072ZM102.468 41.4632L105.454 41.1727L104.554 31.9207L101.568 32.2112L98.5826 32.5017L99.4826 41.7537L102.468 41.4632ZM101.568 32.2112L101.613 35.2109L104.061 35.1749L104.016 32.1752L103.972 29.1755L101.524 29.2115L101.568 32.2112ZM104.016 32.1752L107.012 32.3447L107.444 24.7127L104.448 24.5432L101.453 24.3737L101.021 32.0057L104.016 32.1752ZM104.448 24.5432L103.901 21.5936L101.381 22.0616L101.928 25.0112L102.476 27.9608L104.996 27.4928L104.448 24.5432ZM101.928 25.0112L104.915 24.7222L104.051 15.7942L101.064 16.0832L98.0784 16.3722L98.9424 25.3002L101.928 25.0112ZM101.064 16.0832L101.274 19.0758C102.617 18.9817 103.87 18.9114 105.036 18.8648L104.916 15.8672L104.797 12.8696C103.563 12.919 102.248 12.9927 100.854 13.0906L101.064 16.0832ZM104.916 15.8672L107.911 16.0434L107.983 14.8194L104.988 14.6432L101.994 14.467L101.922 15.691L104.916 15.8672ZM104.988 14.6432L105.198 17.6358L111.354 17.2038L111.144 14.2112L110.934 11.2186L104.778 11.6506L104.988 14.6432ZM111.144 14.2112L108.153 14.4356L108.261 15.8756L111.252 15.6512L114.244 15.4268L114.136 13.9868L111.144 14.2112ZM111.252 15.6512L111.276 18.6511C114.199 18.6277 116.301 18.7844 117.684 19.0609L118.272 16.1192L118.861 13.1775C116.883 12.782 114.306 12.6267 111.228 12.6513L111.252 15.6512ZM118.272 16.1192L117.692 19.0625C119.162 19.3523 119.659 19.729 119.753 19.8255L121.908 17.7392L124.064 15.6529C122.718 14.2614 120.791 13.5581 118.853 13.1759L118.272 16.1192ZM121.908 17.7392L119.787 19.8605C119.881 19.9547 120.085 20.2098 120.141 20.953L123.132 20.7272L126.124 20.5014C125.988 18.7006 125.376 16.9637 124.03 15.6179L121.908 17.7392ZM123.132 20.7272L120.14 20.9372C120.185 21.5869 120.023 21.79 119.895 21.9179L122.016 24.0392L124.138 26.1605C125.69 24.6084 126.272 22.6035 126.125 20.5172L123.132 20.7272ZM122.016 24.0392L119.895 21.9179C119.5 22.3132 118.61 22.8965 116.903 23.5313L117.948 26.3432L118.994 29.1551C121.031 28.3979 122.853 27.4452 124.138 26.1605L122.016 24.0392ZM117.948 26.3432L117.478 29.3061C118.708 29.5013 119.512 29.8231 120.022 30.1545L121.656 27.6392L123.291 25.1239C121.881 24.2073 120.213 23.6651 118.419 23.3803L117.948 26.3432ZM121.656 27.6392L120.066 30.1832C120.612 30.5243 121.039 30.9621 121.371 31.5307L123.96 30.0152L126.55 28.4997C125.73 27.1003 124.621 25.9542 123.246 25.0952L121.656 27.6392ZM123.96 30.0152L121.399 31.577C121.846 32.3104 122.313 33.3352 122.77 34.7079L125.616 33.7592L128.463 32.8105C127.912 31.1592 127.275 29.688 126.522 28.4534L123.96 30.0152ZM125.616 33.7592L125.34 36.7464L127.284 36.9264L127.56 33.9392L127.837 30.952L125.893 30.772L125.616 33.7592ZM112.008 24.7952L112.825 27.6818C114.046 27.3365 115.154 26.9908 115.834 26.6505L114.492 23.9672L113.151 21.2839C113.158 21.2804 113.022 21.3431 112.635 21.4722C112.28 21.5903 111.803 21.7354 111.192 21.9086L112.008 24.7952ZM114.492 23.9672L115.896 26.6186C116.276 26.4173 116.913 26.0275 117.391 25.3283C117.988 24.4559 118.195 23.2916 117.746 22.169L114.96 23.2832L112.175 24.3974C112.028 24.0297 111.946 23.5751 112.01 23.0795C112.072 22.5927 112.256 22.208 112.44 21.9401C112.615 21.6837 112.794 21.5254 112.896 21.4457C113 21.3635 113.074 21.3236 113.089 21.3158L114.492 23.9672ZM114.96 23.2832L117.834 22.4212C117.493 21.2844 116.664 20.5962 115.896 20.262C115.222 19.9692 114.567 19.9232 114.132 19.9232V22.9232V25.9232C114.131 25.9232 114.117 25.9232 114.094 25.9215C114.07 25.9199 114.033 25.9164 113.984 25.9086C113.893 25.8941 113.719 25.8583 113.503 25.7644C113.011 25.5502 112.356 25.042 112.087 24.1452L114.96 23.2832ZM114.132 22.9232V19.9232C113.389 19.9232 112.439 20.0441 111.407 20.216L111.9 23.1752L112.394 26.1344C113.378 25.9703 113.916 25.9232 114.132 25.9232V22.9232ZM111.9 23.1752L108.907 23.3748L109.015 24.9948L112.008 24.7952L115.002 24.5956L114.894 22.9756L111.9 23.1752Z" fill="white" mask="url(#path-1-outside-1_272_2174)"/>
<path d="M136.487 0L353.317 2.95883L382.529 0L378.769 57.33H330.055L154.954 53.0487L136.487 57.33L138.171 31.9526L136.487 0Z" fill="white"/>
<path d="M140.072 5.3042L349.476 7.74321L377.688 5.3042L374.057 52.5624H327.01L157.906 49.0332L140.072 52.5624L141.698 31.6433L140.072 5.3042Z" fill="black"/>
<path d="M211.567 43.6493C209.887 43.6493 208.435 43.1813 207.211 42.2453C206.011 41.2853 205.243 40.0613 204.907 38.5733C204.883 38.4533 204.859 38.3213 204.835 38.1773C204.811 38.0093 204.787 37.8533 204.763 37.7093C204.763 37.5413 204.763 37.4093 204.763 37.3133V37.2773C204.763 37.1093 204.763 37.0133 204.763 36.9893C204.763 36.9413 204.763 36.8573 204.763 36.7373C204.763 36.5933 204.763 36.3173 204.763 35.9093V34.0733C204.763 33.6653 204.763 33.4133 204.763 33.3173C204.763 33.1973 204.763 33.1133 204.763 33.0653C204.763 33.0173 204.763 32.9213 204.763 32.7773V32.7413C204.763 32.5733 204.763 32.4773 204.763 32.4533C204.763 32.4053 204.763 32.3213 204.763 32.2013C204.763 32.0573 204.763 31.7933 204.763 31.4093V24.1373C204.763 22.8413 205.051 21.6893 205.627 20.6813C206.227 19.6733 207.043 18.8813 208.075 18.3053C209.107 17.7293 210.271 17.4413 211.567 17.4413H218.479C219.799 17.4413 220.963 17.7293 221.971 18.3053C223.003 18.8813 223.807 19.6733 224.383 20.6813C224.983 21.6893 225.283 22.8413 225.283 24.1373V31.4093C225.283 31.7933 225.283 32.0573 225.283 32.2013C225.283 32.3213 225.283 32.4053 225.283 32.4533C225.283 32.4773 225.283 32.5733 225.283 32.7413V32.7773C225.283 32.9213 225.283 33.0173 225.283 33.0653C225.283 33.1133 225.283 33.1973 225.283 33.3173C225.283 33.4133 225.283 33.6653 225.283 34.0733V35.9093C225.283 36.2933 225.283 36.5573 225.283 36.7013C225.283 36.8213 225.283 36.9053 225.283 36.9533C225.283 36.9773 225.283 37.0733 225.283 37.2413V37.2773C225.283 37.4213 225.271 37.5773 225.247 37.7453C225.247 37.9133 225.235 38.0693 225.211 38.2133C225.187 38.3333 225.163 38.4533 225.139 38.5733C224.803 40.0613 224.023 41.2853 222.799 42.2453C221.599 43.1813 220.159 43.6493 218.479 43.6493H211.567ZM212.215 27.3053C212.335 26.6333 212.659 26.0813 213.187 25.6493C213.715 25.1933 214.327 24.9653 215.023 24.9653C215.719 24.9653 216.331 25.1933 216.859 25.6493C217.387 26.0813 217.711 26.6333 217.831 27.3053C218.263 26.9453 218.479 26.3213 218.479 25.4333V22.9493C218.479 22.2293 218.299 21.6533 217.939 21.2213C217.603 20.7653 216.979 20.5373 216.067 20.5373H213.979C213.091 20.5373 212.467 20.7653 212.107 21.2213C211.747 21.6533 211.567 22.2293 211.567 22.9493V25.4333C211.567 26.3213 211.783 26.9453 212.215 27.3053ZM234.173 43.6493C232.493 43.6493 231.041 43.1813 229.817 42.2453C228.617 41.2853 227.849 40.0613 227.513 38.5733C227.489 38.4533 227.465 38.3213 227.441 38.1773C227.417 38.0093 227.393 37.8533 227.369 37.7093C227.369 37.5413 227.369 37.4093 227.369 37.3133V37.2773C227.369 37.1093 227.369 37.0133 227.369 36.9893C227.369 36.9413 227.369 36.8573 227.369 36.7373C227.369 36.5933 227.369 36.3173 227.369 35.9093V34.0733C227.369 33.6653 227.369 33.4133 227.369 33.3173C227.369 33.1973 227.369 33.1133 227.369 33.0653C227.369 33.0173 227.369 32.9213 227.369 32.7773V32.7413C227.369 32.5733 227.369 32.4773 227.369 32.4533C227.369 32.4053 227.369 32.3213 227.369 32.2013C227.369 32.0573 227.369 31.7933 227.369 31.4093V24.1373C227.369 22.8413 227.657 21.6893 228.233 20.6813C228.833 19.6733 229.649 18.8813 230.681 18.3053C231.713 17.7293 232.877 17.4413 234.173 17.4413H241.085C242.405 17.4413 243.569 17.7293 244.577 18.3053C245.609 18.8813 246.413 19.6733 246.989 20.6813C247.589 21.6893 247.889 22.8413 247.889 24.1373V31.4093C247.889 31.7933 247.889 32.0573 247.889 32.2013C247.889 32.3213 247.889 32.4053 247.889 32.4533C247.889 32.4773 247.889 32.5733 247.889 32.7413V32.7773C247.889 32.9213 247.889 33.0173 247.889 33.0653C247.889 33.1133 247.889 33.1973 247.889 33.3173C247.889 33.4133 247.889 33.6653 247.889 34.0733V35.9093C247.889 36.2933 247.889 36.5573 247.889 36.7013C247.889 36.8213 247.889 36.9053 247.889 36.9533C247.889 36.9773 247.889 37.0733 247.889 37.2413V37.2773C247.889 37.4213 247.877 37.5773 247.853 37.7453C247.853 37.9133 247.841 38.0693 247.817 38.2133C247.793 38.3333 247.769 38.4533 247.745 38.5733C247.409 40.0613 246.629 41.2853 245.405 42.2453C244.205 43.1813 242.765 43.6493 241.085 43.6493H234.173ZM234.821 27.3053C234.941 26.6333 235.265 26.0813 235.793 25.6493C236.321 25.1933 236.933 24.9653 237.629 24.9653C238.325 24.9653 238.937 25.1933 239.465 25.6493C239.993 26.0813 240.317 26.6333 240.437 27.3053C240.869 26.9453 241.085 26.3213 241.085 25.4333V22.9493C241.085 22.2293 240.905 21.6533 240.545 21.2213C240.209 20.7653 239.585 20.5373 238.673 20.5373H236.585C235.697 20.5373 235.073 20.7653 234.713 21.2213C234.353 21.6533 234.173 22.2293 234.173 22.9493V25.4333C234.173 26.3213 234.389 26.9453 234.821 27.3053ZM258.79 29.2853C257.926 29.2853 257.158 29.0453 256.486 28.5653C255.814 28.0853 255.286 27.4853 254.902 26.7653C254.518 26.0453 254.326 25.3373 254.326 24.6413C254.326 23.7773 254.53 23.0213 254.938 22.3733C255.346 21.7253 255.886 21.2213 256.558 20.8613C257.23 20.4773 257.95 20.2853 258.718 20.2853C259.558 20.2853 260.314 20.4893 260.986 20.8973C261.682 21.2813 262.234 21.7973 262.642 22.4453C263.05 23.0933 263.254 23.8253 263.254 24.6413C263.254 26.0813 262.834 27.2213 261.994 28.0613C261.154 28.8773 260.086 29.2853 258.79 29.2853ZM258.97 40.9133C257.674 40.9133 256.606 40.5053 255.766 39.6893C254.926 38.8493 254.506 37.7093 254.506 36.2693C254.506 35.4533 254.71 34.7213 255.118 34.0733C255.526 33.4253 256.066 32.9093 256.738 32.5253C257.434 32.1173 258.202 31.9133 259.042 31.9133C259.81 31.9133 260.53 32.1053 261.202 32.4893C261.874 32.8493 262.414 33.3533 262.822 34.0013C263.23 34.6493 263.434 35.4053 263.434 36.2693C263.434 36.9653 263.242 37.6733 262.858 38.3933C262.474 39.1133 261.946 39.7133 261.274 40.1933C260.626 40.6733 259.858 40.9133 258.97 40.9133ZM276.677 43.6493C274.997 43.6493 273.545 43.1813 272.321 42.2453C271.121 41.2853 270.353 40.0613 270.017 38.5733C269.993 38.4533 269.969 38.3213 269.945 38.1773C269.921 38.0093 269.897 37.8533 269.873 37.7093C269.873 37.5413 269.873 37.4093 269.873 37.3133V37.2773C269.873 37.1093 269.873 37.0133 269.873 36.9893C269.873 36.9413 269.873 36.8573 269.873 36.7373C269.873 36.5933 269.873 36.3173 269.873 35.9093V34.0733C269.873 33.6653 269.873 33.4133 269.873 33.3173C269.873 33.1973 269.873 33.1133 269.873 33.0653C269.873 33.0173 269.873 32.9213 269.873 32.7773V32.7413C269.873 32.5733 269.873 32.4773 269.873 32.4533C269.873 32.4053 269.873 32.3213 269.873 32.2013C269.873 32.0573 269.873 31.7933 269.873 31.4093V24.1373C269.873 22.8413 270.161 21.6893 270.737 20.6813C271.337 19.6733 272.153 18.8813 273.185 18.3053C274.217 17.7293 275.381 17.4413 276.677 17.4413H283.589C284.909 17.4413 286.073 17.7293 287.081 18.3053C288.113 18.8813 288.917 19.6733 289.493 20.6813C290.093 21.6893 290.393 22.8413 290.393 24.1373V31.4093C290.393 31.7933 290.393 32.0573 290.393 32.2013C290.393 32.3213 290.393 32.4053 290.393 32.4533C290.393 32.4773 290.393 32.5733 290.393 32.7413V32.7773C290.393 32.9213 290.393 33.0173 290.393 33.0653C290.393 33.1133 290.393 33.1973 290.393 33.3173C290.393 33.4133 290.393 33.6653 290.393 34.0733V35.9093C290.393 36.2933 290.393 36.5573 290.393 36.7013C290.393 36.8213 290.393 36.9053 290.393 36.9533C290.393 36.9773 290.393 37.0733 290.393 37.2413V37.2773C290.393 37.4213 290.381 37.5773 290.357 37.7453C290.357 37.9133 290.345 38.0693 290.321 38.2133C290.297 38.3333 290.273 38.4533 290.249 38.5733C289.913 40.0613 289.133 41.2853 287.909 42.2453C286.709 43.1813 285.269 43.6493 283.589 43.6493H276.677ZM277.325 27.3053C277.445 26.6333 277.769 26.0813 278.297 25.6493C278.825 25.1933 279.437 24.9653 280.133 24.9653C280.829 24.9653 281.441 25.1933 281.969 25.6493C282.497 26.0813 282.821 26.6333 282.941 27.3053C283.373 26.9453 283.589 26.3213 283.589 25.4333V22.9493C283.589 22.2293 283.409 21.6533 283.049 21.2213C282.713 20.7653 282.089 20.5373 281.177 20.5373H279.089C278.201 20.5373 277.577 20.7653 277.217 21.2213C276.857 21.6533 276.677 22.2293 276.677 22.9493V25.4333C276.677 26.3213 276.893 26.9453 277.325 27.3053ZM299.282 43.6493C297.602 43.6493 296.15 43.1813 294.926 42.2453C293.726 41.2853 292.958 40.0613 292.622 38.5733C292.598 38.4533 292.574 38.3213 292.55 38.1773C292.526 38.0093 292.502 37.8533 292.478 37.7093C292.478 37.5413 292.478 37.4093 292.478 37.3133V37.2773C292.478 37.1093 292.478 37.0133 292.478 36.9893C292.478 36.9413 292.478 36.8573 292.478 36.7373C292.478 36.5933 292.478 36.3173 292.478 35.9093V34.0733C292.478 33.6653 292.478 33.4133 292.478 33.3173C292.478 33.1973 292.478 33.1133 292.478 33.0653C292.478 33.0173 292.478 32.9213 292.478 32.7773V32.7413C292.478 32.5733 292.478 32.4773 292.478 32.4533C292.478 32.4053 292.478 32.3213 292.478 32.2013C292.478 32.0573 292.478 31.7933 292.478 31.4093V24.1373C292.478 22.8413 292.766 21.6893 293.342 20.6813C293.942 19.6733 294.758 18.8813 295.79 18.3053C296.822 17.7293 297.986 17.4413 299.282 17.4413H306.194C307.514 17.4413 308.678 17.7293 309.686 18.3053C310.718 18.8813 311.522 19.6733 312.098 20.6813C312.698 21.6893 312.998 22.8413 312.998 24.1373V31.4093C312.998 31.7933 312.998 32.0573 312.998 32.2013C312.998 32.3213 312.998 32.4053 312.998 32.4533C312.998 32.4773 312.998 32.5733 312.998 32.7413V32.7773C312.998 32.9213 312.998 33.0173 312.998 33.0653C312.998 33.1133 312.998 33.1973 312.998 33.3173C312.998 33.4133 312.998 33.6653 312.998 34.0733V35.9093C312.998 36.2933 312.998 36.5573 312.998 36.7013C312.998 36.8213 312.998 36.9053 312.998 36.9533C312.998 36.9773 312.998 37.0733 312.998 37.2413V37.2773C312.998 37.4213 312.986 37.5773 312.962 37.7453C312.962 37.9133 312.95 38.0693 312.926 38.2133C312.902 38.3333 312.878 38.4533 312.854 38.5733C312.518 40.0613 311.738 41.2853 310.514 42.2453C309.314 43.1813 307.874 43.6493 306.194 43.6493H299.282ZM299.93 27.3053C300.05 26.6333 300.374 26.0813 300.902 25.6493C301.43 25.1933 302.042 24.9653 302.738 24.9653C303.434 24.9653 304.046 25.1933 304.574 25.6493C305.102 26.0813 305.426 26.6333 305.546 27.3053C305.978 26.9453 306.194 26.3213 306.194 25.4333V22.9493C306.194 22.2293 306.014 21.6533 305.654 21.2213C305.318 20.7653 304.694 20.5373 303.782 20.5373H301.694C300.806 20.5373 300.182 20.7653 299.822 21.2213C299.462 21.6533 299.282 22.2293 299.282 22.9493V25.4333C299.282 26.3213 299.498 26.9453 299.93 27.3053Z" fill="white"/>
</svg>
