<svg width="294" height="95" viewBox="0 0 294 95" fill="none" xmlns="http://www.w3.org/2000/svg">
<path d="M0 2.11189L37.2359 0L261.86 5.33621H293.809V25.899L289.718 57.7518L293.809 92.394L200.712 92.394L92.3657 94.6654L1.75353 92.394L3.27768 71.5759L0 2.11189Z" fill="black"/>
<path d="M6.67188 8.09668H71.2118L207.514 10.8999H285.101L282.249 29.2V58.8456L285.101 86.589L238.724 84.7495H154.104L52.7912 86.589L9.77798 88.7484V37.5468L6.67188 8.09668Z" fill="white"/>
<path d="M10.5488 11.7434L43.618 14.2461H144.252H280.101L277.58 24.8826V51.0743L280.101 81.821L252.251 80.3203L139.426 81.821L50.4888 80.3203L13.5559 83.7489L15.6625 68.3436L10.5488 11.7434Z" fill="#670000"/>
<mask id="path-4-outside-1_244_1960" maskUnits="userSpaceOnUse" x="63.3018" y="22.3019" width="166" height="52" fill="black">
<rect fill="white" x="63.3018" y="22.3019" width="166" height="52"/>
<path d="M84.5244 38.9979C84.5244 39.9259 84.9404 40.6619 85.7724 41.2059C86.6044 41.7499 87.9804 42.3899 89.9004 43.1259C92.1084 43.9579 93.9324 44.8059 95.3724 45.6699C96.8444 46.5339 98.0764 47.7979 99.0684 49.4619C100.092 51.1259 100.508 53.2699 100.316 55.8939C100.092 58.9979 98.7804 61.4459 96.3804 63.2379C94.0124 65.0299 90.8764 65.9259 86.9724 65.9259C84.7004 65.9259 82.2364 65.5899 79.5804 64.9179L79.1964 66.3579H70.7004L70.3164 47.1579L83.9004 49.3179L83.2764 51.5739C84.1404 51.8299 84.8924 51.9579 85.5324 51.9579C86.5244 51.9579 87.0204 51.5899 87.0204 50.8539C87.0204 50.4379 86.6844 50.0059 86.0124 49.5579C85.3724 49.1099 84.1564 48.5659 82.3644 47.9259C80.0284 47.0939 78.0604 46.2779 76.4604 45.4779C74.8924 44.6459 73.6284 43.6379 72.6684 42.4539C71.7084 41.2699 71.2284 39.8459 71.2284 38.1819C71.2284 37.5099 71.2924 36.8699 71.4204 36.2619C71.8364 34.1499 72.8604 32.5019 74.4924 31.3179C76.1244 30.1019 78.0924 29.4939 80.3964 29.4939C82.3164 29.4939 84.3324 29.9579 86.4444 30.8859V29.8779L99.4524 30.0219L95.8044 44.3739L86.4444 40.8219V40.5819C86.4124 39.7179 86.2684 39.0779 86.0124 38.6619C85.7884 38.2139 85.5164 37.9899 85.1964 37.9899C85.0044 37.9899 84.8444 38.0859 84.7164 38.2779C84.5884 38.4699 84.5244 38.7099 84.5244 38.9979ZM130.16 47.7339L119.504 46.7739L118.928 54.1179L124.016 53.6859V66.2619L106.16 65.3019L105.536 55.2699L108.704 54.9819L108.08 45.7659L106.112 45.6219L105.968 47.3019L101.648 47.0139L100.832 32.4699L127.52 29.4939L130.16 47.7339ZM143.54 67.0299V56.6619L144.452 56.5659L144.26 55.0299H141.62L141.428 56.3259L142.676 56.5659L141.572 67.0299L127.316 64.9179L129.14 53.9259L131.78 54.4539L133.748 45.8619H132.596L132.02 30.1659L154.34 29.2059L155.636 45.4299L154.052 45.4779L156.788 55.0779L158.996 54.7899L160.436 67.4139L143.54 67.0299ZM142.868 45.6699L142.292 49.9899H143.636L143.108 45.6699H142.868ZM195.785 55.5099L194.537 65.3019L178.073 63.8139L177.881 53.8779L178.745 53.9739C178.521 51.3819 178.185 49.6539 177.737 48.7899C177.289 47.8939 176.713 47.5099 176.009 47.6379C175.753 47.7019 175.561 47.7659 175.433 47.8299L175.865 52.9179L177.017 52.8699L177.209 63.3339L162.329 65.5419L161.129 53.2059L164.393 53.1579L164.969 42.9819L161.609 43.6059L160.457 31.7019C162.281 31.5739 163.993 31.4779 165.593 31.4139L165.689 29.7819L173.897 29.2059L174.041 31.1259C178.041 31.0939 181.161 31.3019 183.401 31.7499C185.673 32.1979 187.289 32.9179 188.249 33.9099C189.209 34.8699 189.753 36.1979 189.881 37.8939C190.009 39.7179 189.513 41.1899 188.393 42.3099C187.273 43.4299 185.465 44.4539 182.969 45.3819C184.985 45.7019 186.633 46.2779 187.913 47.1099C189.193 47.9099 190.217 48.9659 190.985 50.2779C191.785 51.5899 192.521 53.2539 193.193 55.2699L195.785 55.5099ZM175.049 43.3179C176.745 42.8379 177.849 42.4699 178.361 42.2139C178.905 41.9259 179.113 41.6219 178.985 41.3019C178.889 40.9819 178.521 40.8219 177.881 40.8219C177.241 40.8219 176.249 40.9339 174.905 41.1579L175.049 43.3179ZM222.269 47.7339L211.613 46.7739L211.037 54.1179L216.125 53.6859V66.2619L198.269 65.3019L197.645 55.2699L200.813 54.9819L200.189 45.7659L198.221 45.6219L198.077 47.3019L193.757 47.0139L192.941 32.4699L219.629 29.4939L222.269 47.7339Z"/>
</mask>
<path d="M84.5244 38.9979C84.5244 39.9259 84.9404 40.6619 85.7724 41.2059C86.6044 41.7499 87.9804 42.3899 89.9004 43.1259C92.1084 43.9579 93.9324 44.8059 95.3724 45.6699C96.8444 46.5339 98.0764 47.7979 99.0684 49.4619C100.092 51.1259 100.508 53.2699 100.316 55.8939C100.092 58.9979 98.7804 61.4459 96.3804 63.2379C94.0124 65.0299 90.8764 65.9259 86.9724 65.9259C84.7004 65.9259 82.2364 65.5899 79.5804 64.9179L79.1964 66.3579H70.7004L70.3164 47.1579L83.9004 49.3179L83.2764 51.5739C84.1404 51.8299 84.8924 51.9579 85.5324 51.9579C86.5244 51.9579 87.0204 51.5899 87.0204 50.8539C87.0204 50.4379 86.6844 50.0059 86.0124 49.5579C85.3724 49.1099 84.1564 48.5659 82.3644 47.9259C80.0284 47.0939 78.0604 46.2779 76.4604 45.4779C74.8924 44.6459 73.6284 43.6379 72.6684 42.4539C71.7084 41.2699 71.2284 39.8459 71.2284 38.1819C71.2284 37.5099 71.2924 36.8699 71.4204 36.2619C71.8364 34.1499 72.8604 32.5019 74.4924 31.3179C76.1244 30.1019 78.0924 29.4939 80.3964 29.4939C82.3164 29.4939 84.3324 29.9579 86.4444 30.8859V29.8779L99.4524 30.0219L95.8044 44.3739L86.4444 40.8219V40.5819C86.4124 39.7179 86.2684 39.0779 86.0124 38.6619C85.7884 38.2139 85.5164 37.9899 85.1964 37.9899C85.0044 37.9899 84.8444 38.0859 84.7164 38.2779C84.5884 38.4699 84.5244 38.7099 84.5244 38.9979ZM130.16 47.7339L119.504 46.7739L118.928 54.1179L124.016 53.6859V66.2619L106.16 65.3019L105.536 55.2699L108.704 54.9819L108.08 45.7659L106.112 45.6219L105.968 47.3019L101.648 47.0139L100.832 32.4699L127.52 29.4939L130.16 47.7339ZM143.54 67.0299V56.6619L144.452 56.5659L144.26 55.0299H141.62L141.428 56.3259L142.676 56.5659L141.572 67.0299L127.316 64.9179L129.14 53.9259L131.78 54.4539L133.748 45.8619H132.596L132.02 30.1659L154.34 29.2059L155.636 45.4299L154.052 45.4779L156.788 55.0779L158.996 54.7899L160.436 67.4139L143.54 67.0299ZM142.868 45.6699L142.292 49.9899H143.636L143.108 45.6699H142.868ZM195.785 55.5099L194.537 65.3019L178.073 63.8139L177.881 53.8779L178.745 53.9739C178.521 51.3819 178.185 49.6539 177.737 48.7899C177.289 47.8939 176.713 47.5099 176.009 47.6379C175.753 47.7019 175.561 47.7659 175.433 47.8299L175.865 52.9179L177.017 52.8699L177.209 63.3339L162.329 65.5419L161.129 53.2059L164.393 53.1579L164.969 42.9819L161.609 43.6059L160.457 31.7019C162.281 31.5739 163.993 31.4779 165.593 31.4139L165.689 29.7819L173.897 29.2059L174.041 31.1259C178.041 31.0939 181.161 31.3019 183.401 31.7499C185.673 32.1979 187.289 32.9179 188.249 33.9099C189.209 34.8699 189.753 36.1979 189.881 37.8939C190.009 39.7179 189.513 41.1899 188.393 42.3099C187.273 43.4299 185.465 44.4539 182.969 45.3819C184.985 45.7019 186.633 46.2779 187.913 47.1099C189.193 47.9099 190.217 48.9659 190.985 50.2779C191.785 51.5899 192.521 53.2539 193.193 55.2699L195.785 55.5099ZM175.049 43.3179C176.745 42.8379 177.849 42.4699 178.361 42.2139C178.905 41.9259 179.113 41.6219 178.985 41.3019C178.889 40.9819 178.521 40.8219 177.881 40.8219C177.241 40.8219 176.249 40.9339 174.905 41.1579L175.049 43.3179ZM222.269 47.7339L211.613 46.7739L211.037 54.1179L216.125 53.6859V66.2619L198.269 65.3019L197.645 55.2699L200.813 54.9819L200.189 45.7659L198.221 45.6219L198.077 47.3019L193.757 47.0139L192.941 32.4699L219.629 29.4939L222.269 47.7339Z" fill="black"/>
<path d="M85.7724 41.2059L82.4889 46.2277L82.4889 46.2277L85.7724 41.2059ZM89.9004 43.1259L87.7528 48.7284L87.7688 48.7345L87.7848 48.7405L89.9004 43.1259ZM95.3724 45.6699L92.2855 50.8148L92.3103 50.8297L92.3352 50.8444L95.3724 45.6699ZM99.0684 49.4619L93.9148 52.5343L93.9364 52.5705L93.9585 52.6065L99.0684 49.4619ZM100.316 55.8939L94.3324 55.456L94.332 55.462L100.316 55.8939ZM96.3804 63.2379L92.7907 58.4302L92.7752 58.4418L92.7598 58.4534L96.3804 63.2379ZM79.5804 64.9179L81.0521 59.1012L75.3094 57.6482L73.783 63.3719L79.5804 64.9179ZM79.1964 66.3579V72.3579H83.8061L84.9939 67.9039L79.1964 66.3579ZM70.7004 66.3579L64.7016 66.4779L64.8192 72.3579H70.7004V66.3579ZM70.3164 47.1579L71.2587 41.2323L64.1742 40.1058L64.3176 47.2779L70.3164 47.1579ZM83.9004 49.3179L89.6833 50.9174L91.4731 44.4466L84.8427 43.3923L83.9004 49.3179ZM83.2764 51.5739L77.4936 49.9744L75.9229 55.6529L81.5719 57.3267L83.2764 51.5739ZM86.0124 49.5579L82.5717 54.4733L82.6275 54.5124L82.6842 54.5502L86.0124 49.5579ZM82.3644 47.9259L84.3825 42.2754L84.3776 42.2737L82.3644 47.9259ZM76.4604 45.4779L73.6482 50.778L73.7123 50.812L73.7772 50.8444L76.4604 45.4779ZM72.6684 42.4539L77.329 38.6751V38.6751L72.6684 42.4539ZM71.4204 36.2619L77.2917 37.4979L77.2998 37.4597L77.3073 37.4214L71.4204 36.2619ZM74.4924 31.3179L78.0158 36.1744L78.0467 36.152L78.0773 36.1292L74.4924 31.3179ZM86.4444 30.8859L84.0308 36.379L92.4444 40.0759V30.8859H86.4444ZM86.4444 29.8779L86.5109 23.8782L80.4444 23.8111V29.8779H86.4444ZM99.4524 30.0219L105.268 31.5L107.147 24.1067L99.5189 24.0222L99.4524 30.0219ZM95.8044 44.3739L93.6757 49.9835L99.9629 52.3695L101.62 45.852L95.8044 44.3739ZM86.4444 40.8219H80.4444V44.9625L84.3157 46.4315L86.4444 40.8219ZM86.4444 40.5819H92.4444V40.4708L92.4403 40.3598L86.4444 40.5819ZM86.0124 38.6619L80.6459 41.3452L80.764 41.5815L80.9025 41.8065L86.0124 38.6619ZM84.7164 38.2779L89.7087 41.6061L89.7088 41.6061L84.7164 38.2779ZM84.5244 38.9979H78.5244C78.5244 42.1172 80.1059 44.6696 82.4889 46.2277L85.7724 41.2059L89.0559 36.1841C89.3018 36.3448 89.7195 36.6914 90.0598 37.2935C90.4096 37.9124 90.5244 38.5309 90.5244 38.9979H84.5244ZM85.7724 41.2059L82.4889 46.2277C83.8848 47.1404 85.7628 47.9655 87.7528 48.7284L89.9004 43.1259L92.0481 37.5234C90.1981 36.8143 89.3241 36.3594 89.0559 36.1841L85.7724 41.2059ZM89.9004 43.1259L87.7848 48.7405C89.7795 49.4921 91.2504 50.1938 92.2855 50.8148L95.3724 45.6699L98.4594 40.5249C96.6145 39.418 94.4374 38.4236 92.0161 37.5113L89.9004 43.1259ZM95.3724 45.6699L92.3352 50.8444C92.8241 51.1313 93.3693 51.6192 93.9148 52.5343L99.0684 49.4619L104.222 46.3895C102.784 43.9765 100.865 41.9364 98.4097 40.4954L95.3724 45.6699ZM99.0684 49.4619L93.9585 52.6065C94.1279 52.8818 94.4639 53.6594 94.3324 55.456L100.316 55.8939L106.3 56.3317C106.553 52.8804 106.057 49.37 104.178 46.3173L99.0684 49.4619ZM100.316 55.8939L94.332 55.462C94.2278 56.9064 93.7342 57.7257 92.7907 58.4302L96.3804 63.2379L99.9702 68.0456C103.827 65.166 105.957 61.0893 106.301 56.3257L100.316 55.8939ZM96.3804 63.2379L92.7598 58.4534C91.72 59.2403 89.9802 59.9259 86.9724 59.9259V65.9259V71.9259C91.7727 71.9259 96.3049 70.8195 100.001 68.0223L96.3804 63.2379ZM86.9724 65.9259V59.9259C85.286 59.9259 83.3221 59.6755 81.0521 59.1012L79.5804 64.9179L78.1087 70.7346C81.1508 71.5043 84.1149 71.9259 86.9724 71.9259V65.9259ZM79.5804 64.9179L73.783 63.3719L73.399 64.8119L79.1964 66.3579L84.9939 67.9039L85.3779 66.4639L79.5804 64.9179ZM79.1964 66.3579V60.3579H70.7004V66.3579V72.3579H79.1964V66.3579ZM70.7004 66.3579L76.6992 66.2379L76.3152 47.0379L70.3164 47.1579L64.3176 47.2779L64.7016 66.4779L70.7004 66.3579ZM70.3164 47.1579L69.3742 53.0834L82.9582 55.2434L83.9004 49.3179L84.8427 43.3923L71.2587 41.2323L70.3164 47.1579ZM83.9004 49.3179L78.1176 47.7184L77.4936 49.9744L83.2764 51.5739L89.0593 53.1734L89.6833 50.9174L83.9004 49.3179ZM83.2764 51.5739L81.5719 57.3267C82.7827 57.6854 84.1336 57.9579 85.5324 57.9579V51.9579V45.9579C85.6066 45.9579 85.5997 45.9647 85.4952 45.947C85.3925 45.9295 85.2236 45.893 84.981 45.8211L83.2764 51.5739ZM85.5324 51.9579V57.9579C86.5953 57.9579 88.4831 57.7917 90.2235 56.5005C92.2995 54.9603 93.0204 52.7103 93.0204 50.8539H87.0204H81.0204C81.0204 50.3696 81.1024 49.6616 81.4544 48.878C81.8219 48.0601 82.3911 47.3695 83.0734 46.8633C84.3178 45.94 85.4616 45.9579 85.5324 45.9579V51.9579ZM87.0204 50.8539H93.0204C93.0204 47.1432 90.2047 45.1416 89.3406 44.5656L86.0124 49.5579L82.6842 54.5502C82.6789 54.5466 82.6121 54.5021 82.5075 54.4108C82.4052 54.3215 82.2295 54.1551 82.0323 53.9015C81.6403 53.3974 81.0204 52.3483 81.0204 50.8539H87.0204ZM86.0124 49.5579L89.4532 44.6425C88.08 43.6812 86.1632 42.9114 84.3825 42.2754L82.3644 47.9259L80.3464 53.5763C81.1524 53.8642 81.7497 54.1026 82.1702 54.2908C82.637 54.4996 82.7055 54.567 82.5717 54.4733L86.0124 49.5579ZM82.3644 47.9259L84.3776 42.2737C82.1902 41.4946 80.4615 40.7702 79.1437 40.1113L76.4604 45.4779L73.7772 50.8444C75.6594 51.7856 77.8667 52.6931 80.3513 53.5781L82.3644 47.9259ZM76.4604 45.4779L79.2727 40.1778C78.3009 39.6621 77.7048 39.1386 77.329 38.6751L72.6684 42.4539L68.0079 46.2327C69.5521 48.1372 71.484 49.6296 73.6482 50.778L76.4604 45.4779ZM72.6684 42.4539L77.329 38.6751C77.2922 38.6297 77.2827 38.6067 77.2741 38.5814C77.2634 38.5494 77.2284 38.4316 77.2284 38.1819H71.2284H65.2284C65.2284 41.0871 66.1001 43.8798 68.0079 46.2327L72.6684 42.4539ZM71.2284 38.1819H77.2284C77.2284 37.8918 77.2559 37.668 77.2917 37.4979L71.4204 36.2619L65.5491 35.0258C65.3289 36.0718 65.2284 37.128 65.2284 38.1819H71.2284ZM71.4204 36.2619L77.3073 37.4214C77.4522 36.6859 77.6981 36.4049 78.0158 36.1744L74.4924 31.3179L70.9691 26.4613C68.0228 28.5988 66.2207 31.6139 65.5336 35.1023L71.4204 36.2619ZM74.4924 31.3179L78.0773 36.1292C78.539 35.7852 79.2058 35.4939 80.3964 35.4939V29.4939V23.4939C76.9791 23.4939 73.7099 24.4186 70.9076 26.5066L74.4924 31.3179ZM80.3964 29.4939V35.4939C81.3356 35.4939 82.5292 35.7192 84.0308 36.379L86.4444 30.8859L88.8581 25.3928C86.1357 24.1966 83.2973 23.4939 80.3964 23.4939V29.4939ZM86.4444 30.8859H92.4444V29.8779H86.4444H80.4444V30.8859H86.4444ZM86.4444 29.8779L86.378 35.8775L99.386 36.0215L99.4524 30.0219L99.5189 24.0222L86.5109 23.8782L86.4444 29.8779ZM99.4524 30.0219L93.6374 28.5438L89.9894 42.8958L95.8044 44.3739L101.62 45.852L105.268 31.5L99.4524 30.0219ZM95.8044 44.3739L97.9332 38.7642L88.5732 35.2122L86.4444 40.8219L84.3157 46.4315L93.6757 49.9835L95.8044 44.3739ZM86.4444 40.8219H92.4444V40.5819H86.4444H80.4444V40.8219H86.4444ZM86.4444 40.5819L92.4403 40.3598C92.3955 39.1484 92.1932 37.2574 91.1224 35.5173L86.0124 38.6619L80.9025 41.8065C80.5873 41.2943 80.4855 40.8898 80.4588 40.771C80.429 40.6386 80.4422 40.6318 80.4486 40.8039L86.4444 40.5819ZM86.0124 38.6619L91.379 35.9786C90.7684 34.7574 88.9189 31.9899 85.1964 31.9899V37.9899V43.9899C83.8216 43.9899 82.6484 43.4666 81.8262 42.7895C81.1014 42.1926 80.7626 41.5785 80.6459 41.3452L86.0124 38.6619ZM85.1964 37.9899V31.9899C82.5741 31.9899 80.707 33.4754 79.7241 34.9497L84.7164 38.2779L89.7088 41.6061C89.3939 42.0784 88.8596 42.7027 88.0194 43.2068C87.139 43.7351 86.1548 43.9899 85.1964 43.9899V37.9899ZM84.7164 38.2779L79.7242 34.9497C78.7928 36.3467 78.5244 37.8198 78.5244 38.9979H84.5244H90.5244C90.5244 39.5999 90.3841 40.5931 89.7087 41.6061L84.7164 38.2779ZM130.16 47.7339L129.622 53.7097L137.186 54.3912L136.098 46.8744L130.16 47.7339ZM119.504 46.7739L120.042 40.7981L113.997 40.2535L113.522 46.3047L119.504 46.7739ZM118.928 54.1179L112.946 53.6487L112.394 60.6943L119.436 60.0964L118.928 54.1179ZM124.016 53.6859H130.016V47.1549L123.508 47.7074L124.016 53.6859ZM124.016 66.2619L123.694 72.2532L130.016 72.5931V66.2619H124.016ZM106.16 65.3019L100.172 65.6744L100.503 71.0064L105.838 71.2932L106.16 65.3019ZM105.536 55.2699L104.993 49.2945L99.1856 49.8224L99.5476 55.6424L105.536 55.2699ZM108.704 54.9819L109.247 60.9572L115.086 60.4264L114.69 54.5766L108.704 54.9819ZM108.08 45.7659L114.066 45.3606L113.714 40.1621L108.518 39.7819L108.08 45.7659ZM106.112 45.6219L106.55 39.6379L100.64 39.2054L100.134 45.1095L106.112 45.6219ZM105.968 47.3019L105.569 53.2886L111.443 53.6802L111.946 47.8143L105.968 47.3019ZM101.648 47.0139L95.6575 47.35L95.9547 52.6476L101.249 53.0006L101.648 47.0139ZM100.832 32.4699L100.167 26.5068L94.5234 27.1362L94.8415 32.806L100.832 32.4699ZM127.52 29.4939L133.458 28.6344L132.626 22.8873L126.855 23.5308L127.52 29.4939ZM130.16 47.7339L130.698 41.7581L120.042 40.7981L119.504 46.7739L118.966 52.7497L129.622 53.7097L130.16 47.7339ZM119.504 46.7739L113.522 46.3047L112.946 53.6487L118.928 54.1179L124.91 54.587L125.486 47.243L119.504 46.7739ZM118.928 54.1179L119.436 60.0964L124.524 59.6644L124.016 53.6859L123.508 47.7074L118.42 48.1394L118.928 54.1179ZM124.016 53.6859H118.016V66.2619H124.016H130.016V53.6859H124.016ZM124.016 66.2619L124.338 60.2705L106.482 59.3105L106.16 65.3019L105.838 71.2932L123.694 72.2532L124.016 66.2619ZM106.16 65.3019L112.148 64.9294L111.524 54.8974L105.536 55.2699L99.5476 55.6424L100.172 65.6744L106.16 65.3019ZM105.536 55.2699L106.079 61.2452L109.247 60.9572L108.704 54.9819L108.161 49.0065L104.993 49.2945L105.536 55.2699ZM108.704 54.9819L114.69 54.5766L114.066 45.3606L108.08 45.7659L102.094 46.1712L102.718 55.3872L108.704 54.9819ZM108.08 45.7659L108.518 39.7819L106.55 39.6379L106.112 45.6219L105.674 51.6059L107.642 51.7499L108.08 45.7659ZM106.112 45.6219L100.134 45.1095L99.99 46.7895L105.968 47.3019L111.946 47.8143L112.09 46.1343L106.112 45.6219ZM105.968 47.3019L106.367 41.3152L102.047 41.0272L101.648 47.0139L101.249 53.0006L105.569 53.2886L105.968 47.3019ZM101.648 47.0139L107.639 46.6778L106.823 32.1338L100.832 32.4699L94.8415 32.806L95.6575 47.35L101.648 47.0139ZM100.832 32.4699L101.497 38.4329L128.185 35.4569L127.52 29.4939L126.855 23.5308L100.167 26.5068L100.832 32.4699ZM127.52 29.4939L121.582 30.3533L124.222 48.5933L130.16 47.7339L136.098 46.8744L133.458 28.6344L127.52 29.4939ZM143.54 67.0299H137.54V72.8951L143.404 73.0283L143.54 67.0299ZM143.54 56.6619L142.912 50.6948L137.54 51.2603V56.6619H143.54ZM144.452 56.5659L145.081 62.5329L151.165 61.8924L150.406 55.8217L144.452 56.5659ZM144.26 55.0299L150.214 54.2857L149.557 49.0299H144.26V55.0299ZM141.62 55.0299V49.0299H136.444L135.685 54.1506L141.62 55.0299ZM141.428 56.3259L135.493 55.4466L134.651 61.1324L140.295 62.2179L141.428 56.3259ZM142.676 56.5659L148.643 57.1954L149.222 51.7146L143.81 50.6738L142.676 56.5659ZM141.572 67.0299L140.693 72.9651L146.883 73.8821L147.539 67.6594L141.572 67.0299ZM127.316 64.9179L121.397 63.9357L120.398 69.9584L126.437 70.8531L127.316 64.9179ZM129.14 53.9259L130.317 48.0424L124.236 46.8263L123.221 52.9437L129.14 53.9259ZM131.78 54.4539L130.604 60.3374L136.326 61.4818L137.629 55.7935L131.78 54.4539ZM133.748 45.8619L139.597 47.2015L141.278 39.8619H133.748V45.8619ZM132.596 45.8619L126.6 46.0819L126.813 51.8619H132.596V45.8619ZM132.02 30.1659L131.763 24.1714L125.806 24.4276L126.024 30.3859L132.02 30.1659ZM154.34 29.2059L160.321 28.7281L159.861 22.9629L154.083 23.2114L154.34 29.2059ZM155.636 45.4299L155.818 51.4271L162.119 51.2362L161.617 44.9521L155.636 45.4299ZM154.052 45.4779L153.871 39.4806L146.171 39.714L148.282 47.1224L154.052 45.4779ZM156.788 55.0779L151.018 56.7224L152.436 61.6964L157.564 61.0275L156.788 55.0779ZM158.996 54.7899L164.958 54.1099L164.267 48.0516L158.22 48.8403L158.996 54.7899ZM160.436 67.4139L160.3 73.4123L167.177 73.5686L166.398 66.7339L160.436 67.4139ZM142.868 45.6699V39.6699H137.615L136.921 44.8769L142.868 45.6699ZM142.292 49.9899L136.345 49.1969L135.439 55.9899H142.292V49.9899ZM143.636 49.9899V55.9899H150.414L149.592 49.262L143.636 49.9899ZM143.108 45.6699L149.064 44.942L148.42 39.6699H143.108V45.6699ZM143.54 67.0299H149.54V56.6619H143.54H137.54V67.0299H143.54ZM143.54 56.6619L144.169 62.6289L145.081 62.5329L144.452 56.5659L143.824 50.5988L142.912 50.6948L143.54 56.6619ZM144.452 56.5659L150.406 55.8217L150.214 54.2857L144.26 55.0299L138.307 55.7741L138.499 57.3101L144.452 56.5659ZM144.26 55.0299V49.0299H141.62V55.0299V61.0299H144.26V55.0299ZM141.62 55.0299L135.685 54.1506L135.493 55.4466L141.428 56.3259L147.364 57.2052L147.556 55.9092L141.62 55.0299ZM141.428 56.3259L140.295 62.2179L141.543 62.4579L142.676 56.5659L143.81 50.6738L142.562 50.4338L141.428 56.3259ZM142.676 56.5659L136.71 55.9363L135.606 66.4003L141.572 67.0299L147.539 67.6594L148.643 57.1954L142.676 56.5659ZM141.572 67.0299L142.452 61.0947L128.196 58.9827L127.316 64.9179L126.437 70.8531L140.693 72.9651L141.572 67.0299ZM127.316 64.9179L133.236 65.9001L135.06 54.9081L129.14 53.9259L123.221 52.9437L121.397 63.9357L127.316 64.9179ZM129.14 53.9259L127.964 59.8094L130.604 60.3374L131.78 54.4539L132.957 48.5704L130.317 48.0424L129.14 53.9259ZM131.78 54.4539L137.629 55.7935L139.597 47.2015L133.748 45.8619L127.9 44.5223L125.932 53.1143L131.78 54.4539ZM133.748 45.8619V39.8619H132.596V45.8619V51.8619H133.748V45.8619ZM132.596 45.8619L138.592 45.6418L138.016 29.9458L132.02 30.1659L126.024 30.3859L126.6 46.0819L132.596 45.8619ZM132.02 30.1659L132.278 36.1603L154.598 35.2003L154.34 29.2059L154.083 23.2114L131.763 24.1714L132.02 30.1659ZM154.34 29.2059L148.359 29.6836L149.656 45.9076L155.636 45.4299L161.617 44.9521L160.321 28.7281L154.34 29.2059ZM155.636 45.4299L155.455 39.4326L153.871 39.4806L154.052 45.4779L154.234 51.4751L155.818 51.4271L155.636 45.4299ZM154.052 45.4779L148.282 47.1224L151.018 56.7224L156.788 55.0779L162.559 53.4334L159.823 43.8334L154.052 45.4779ZM156.788 55.0779L157.564 61.0275L159.772 60.7395L158.996 54.7899L158.22 48.8403L156.012 49.1283L156.788 55.0779ZM158.996 54.7899L153.035 55.4699L154.475 68.0939L160.436 67.4139L166.398 66.7339L164.958 54.1099L158.996 54.7899ZM160.436 67.4139L160.573 61.4154L143.677 61.0314L143.54 67.0299L143.404 73.0283L160.3 73.4123L160.436 67.4139ZM142.868 45.6699L136.921 44.8769L136.345 49.1969L142.292 49.9899L148.24 50.7829L148.816 46.4629L142.868 45.6699ZM142.292 49.9899V55.9899H143.636V49.9899V43.9899H142.292V49.9899ZM143.636 49.9899L149.592 49.262L149.064 44.942L143.108 45.6699L137.153 46.3978L137.681 50.7178L143.636 49.9899ZM143.108 45.6699V39.6699H142.868V45.6699V51.6699H143.108V45.6699ZM195.785 55.5099L201.737 56.2684L202.522 50.108L196.338 49.5354L195.785 55.5099ZM194.537 65.3019L193.997 71.2775L199.758 71.7982L200.489 66.0605L194.537 65.3019ZM178.073 63.8139L172.074 63.9298L172.178 69.3055L177.533 69.7895L178.073 63.8139ZM177.881 53.8779L178.544 47.9146L171.75 47.1597L171.882 53.9938L177.881 53.8779ZM178.745 53.9739L178.082 59.9372L185.353 60.745L184.723 53.4573L178.745 53.9739ZM177.737 48.7899L172.371 51.4732L172.39 51.5126L172.411 51.5518L177.737 48.7899ZM176.009 47.6379L174.936 41.7347L174.743 41.7696L174.554 41.817L176.009 47.6379ZM175.433 47.8299L172.75 42.4633L169.11 44.283L169.455 48.3375L175.433 47.8299ZM175.865 52.9179L169.887 53.4255L170.373 59.1519L176.115 58.9127L175.865 52.9179ZM177.017 52.8699L183.016 52.7598L182.903 46.6194L176.767 46.8751L177.017 52.8699ZM177.209 63.3339L178.09 69.2689L183.305 68.4951L183.208 63.2238L177.209 63.3339ZM162.329 65.5419L156.357 66.1228L156.968 72.4031L163.21 71.4769L162.329 65.5419ZM161.129 53.2059L161.041 47.2065L154.526 47.3023L155.157 53.7868L161.129 53.2059ZM164.393 53.1579L164.481 59.1572L170.068 59.0751L170.383 53.497L164.393 53.1579ZM164.969 42.9819L170.959 43.321L171.392 35.6865L163.874 37.0827L164.969 42.9819ZM161.609 43.6059L155.637 44.1838L156.268 50.7005L162.705 49.505L161.609 43.6059ZM160.457 31.7019L160.037 25.7166L153.892 26.1479L154.485 32.2798L160.457 31.7019ZM165.593 31.4139L165.833 37.4091L171.264 37.1919L171.583 31.7662L165.593 31.4139ZM165.689 29.7819L165.269 23.7966L160.009 24.1657L159.699 29.4295L165.689 29.7819ZM173.897 29.2059L179.88 28.7571L179.434 22.8026L173.477 23.2206L173.897 29.2059ZM174.041 31.1259L168.058 31.5746L168.478 37.1706L174.089 37.1257L174.041 31.1259ZM183.401 31.7499L182.224 37.6334L182.232 37.635L182.24 37.6365L183.401 31.7499ZM188.249 33.9099L183.937 38.0824L183.972 38.1177L184.006 38.1525L188.249 33.9099ZM189.881 37.8939L195.866 37.4739L195.865 37.4581L195.864 37.4423L189.881 37.8939ZM188.393 42.3099L192.636 46.5525V46.5525L188.393 42.3099ZM182.969 45.3819L180.878 39.758L159.452 47.7241L182.028 51.3077L182.969 45.3819ZM187.913 47.1099L184.643 52.1405L184.688 52.1696L184.733 52.1979L187.913 47.1099ZM190.985 50.2779L185.807 53.309L185.834 53.3555L185.862 53.4015L190.985 50.2779ZM193.193 55.2699L187.501 57.1672L188.74 60.8832L192.64 61.2443L193.193 55.2699ZM175.049 43.3179L169.062 43.717L169.555 51.1084L176.683 49.0911L175.049 43.3179ZM178.361 42.2139L181.044 47.5804L181.107 47.5492L181.168 47.5166L178.361 42.2139ZM178.985 41.3019L173.238 43.026L173.315 43.282L173.414 43.5302L178.985 41.3019ZM174.905 41.1579L173.919 35.2395L168.557 36.1332L168.918 41.557L174.905 41.1579ZM195.785 55.5099L189.833 54.7513L188.585 64.5433L194.537 65.3019L200.489 66.0605L201.737 56.2684L195.785 55.5099ZM194.537 65.3019L195.077 59.3262L178.613 57.8382L178.073 63.8139L177.533 69.7895L193.997 71.2775L194.537 65.3019ZM178.073 63.8139L184.072 63.698L183.88 53.762L177.881 53.8779L171.882 53.9938L172.074 63.9298L178.073 63.8139ZM177.881 53.8779L177.218 59.8412L178.082 59.9372L178.745 53.9739L179.408 48.0106L178.544 47.9146L177.881 53.8779ZM178.745 53.9739L184.723 53.4573C184.6 52.0397 184.437 50.7331 184.215 49.5887C184.01 48.538 183.684 47.2239 183.064 46.028L177.737 48.7899L172.411 51.5518C172.301 51.3406 172.28 51.2407 172.309 51.337C172.334 51.4187 172.379 51.5911 172.435 51.8791C172.549 52.4627 172.666 53.316 172.767 54.4905L178.745 53.9739ZM177.737 48.7899L183.104 46.1066C182.608 45.1162 181.757 43.811 180.297 42.8376C178.668 41.7514 176.76 41.4029 174.936 41.7347L176.009 47.6379L177.082 53.5411C175.962 53.7448 174.694 53.5244 173.641 52.8222C172.757 52.2328 172.418 51.5676 172.371 51.4732L177.737 48.7899ZM176.009 47.6379L174.554 41.817C174.165 41.9142 173.469 42.1037 172.75 42.4633L175.433 47.8299L178.116 53.1964C177.846 53.3314 177.643 53.4018 177.57 53.426C177.485 53.4545 177.443 53.464 177.464 53.4587L176.009 47.6379ZM175.433 47.8299L169.455 48.3375L169.887 53.4255L175.865 52.9179L181.844 52.4103L181.412 47.3223L175.433 47.8299ZM175.865 52.9179L176.115 58.9127L177.267 58.8647L177.017 52.8699L176.767 46.8751L175.615 46.9231L175.865 52.9179ZM177.017 52.8699L171.018 52.98L171.21 63.444L177.209 63.3339L183.208 63.2238L183.016 52.7598L177.017 52.8699ZM177.209 63.3339L176.328 57.3989L161.448 59.6069L162.329 65.5419L163.21 71.4769L178.09 69.2689L177.209 63.3339ZM162.329 65.5419L168.301 64.961L167.101 52.625L161.129 53.2059L155.157 53.7868L156.357 66.1228L162.329 65.5419ZM161.129 53.2059L161.217 59.2052L164.481 59.1572L164.393 53.1579L164.305 47.1585L161.041 47.2065L161.129 53.2059ZM164.393 53.1579L170.383 53.497L170.959 43.321L164.969 42.9819L158.979 42.6428L158.403 52.8188L164.393 53.1579ZM164.969 42.9819L163.874 37.0827L160.514 37.7067L161.609 43.6059L162.705 49.505L166.065 48.881L164.969 42.9819ZM161.609 43.6059L167.581 43.0279L166.429 31.1239L160.457 31.7019L154.485 32.2798L155.637 44.1838L161.609 43.6059ZM160.457 31.7019L160.877 37.6872C162.649 37.5628 164.301 37.4704 165.833 37.4091L165.593 31.4139L165.353 25.4187C163.685 25.4854 161.913 25.585 160.037 25.7166L160.457 31.7019ZM165.593 31.4139L171.583 31.7662L171.679 30.1342L165.689 29.7819L159.699 29.4295L159.603 31.0615L165.593 31.4139ZM165.689 29.7819L166.109 35.7672L174.317 35.1912L173.897 29.2059L173.477 23.2206L165.269 23.7966L165.689 29.7819ZM173.897 29.2059L167.914 29.6546L168.058 31.5746L174.041 31.1259L180.024 30.6771L179.88 28.7571L173.897 29.2059ZM174.041 31.1259L174.089 37.1257C177.935 37.0949 180.579 37.3043 182.224 37.6334L183.401 31.7499L184.578 25.8664C181.743 25.2995 178.147 25.0928 173.993 25.1261L174.041 31.1259ZM183.401 31.7499L182.24 37.6365C183.062 37.7986 183.581 37.9755 183.875 38.1065C184.171 38.2382 184.118 38.2693 183.937 38.0824L188.249 33.9099L192.561 29.7373C190.347 27.4502 187.302 26.4036 184.562 25.8632L183.401 31.7499ZM188.249 33.9099L184.006 38.1525C183.955 38.1015 183.912 38.0468 183.877 37.9946C183.843 37.9432 183.828 37.9081 183.825 37.9003C183.819 37.8869 183.873 38.0111 183.898 38.3454L189.881 37.8939L195.864 37.4423C195.656 34.6886 194.703 31.8788 192.492 29.6672L188.249 33.9099ZM189.881 37.8939L183.896 38.3139C183.914 38.573 183.873 38.586 183.919 38.45C183.941 38.3844 183.976 38.3073 184.025 38.2295C184.073 38.1522 184.12 38.0979 184.15 38.0672L188.393 42.3099L192.636 46.5525C195.18 44.0082 196.095 40.7344 195.866 37.4739L189.881 37.8939ZM188.393 42.3099L184.15 38.0672C183.92 38.2979 183.044 38.9526 180.878 39.758L182.969 45.3819L185.06 51.0058C187.886 49.9552 190.626 48.5618 192.636 46.5525L188.393 42.3099ZM182.969 45.3819L182.028 51.3077C183.479 51.538 184.263 51.8936 184.643 52.1405L187.913 47.1099L191.183 42.0792C189.003 40.6621 186.491 39.8658 183.91 39.4561L182.969 45.3819ZM187.913 47.1099L184.733 52.1979C185.184 52.48 185.525 52.8278 185.807 53.309L190.985 50.2779L196.163 47.2468C194.909 45.104 193.202 43.3398 191.093 42.0219L187.913 47.1099ZM190.985 50.2779L185.862 53.4015C186.357 54.2124 186.922 55.4298 187.501 57.1672L193.193 55.2699L198.885 53.3725C198.12 51.0779 197.213 48.9674 196.108 47.1542L190.985 50.2779ZM193.193 55.2699L192.64 61.2443L195.232 61.4843L195.785 55.5099L196.338 49.5354L193.746 49.2954L193.193 55.2699ZM175.049 43.3179L176.683 49.0911C178.276 48.6404 179.939 48.133 181.044 47.5804L178.361 42.2139L175.678 36.8473C175.783 36.7949 175.809 36.7893 175.705 36.8297C175.614 36.8648 175.467 36.918 175.252 36.9898C174.819 37.134 174.215 37.3184 173.415 37.5446L175.049 43.3179ZM178.361 42.2139L181.168 47.5166C181.793 47.1861 182.972 46.4805 183.877 45.158C185.019 43.4892 185.422 41.2386 184.556 39.0735L178.985 41.3019L173.414 43.5302C173.104 42.7548 172.935 41.8061 173.067 40.7759C173.197 39.7634 173.581 38.9556 173.973 38.3818C174.67 37.3632 175.473 36.9536 175.554 36.9111L178.361 42.2139ZM178.985 41.3019L184.732 39.5778C184.074 37.3843 182.475 36.0679 181.029 35.4395C179.775 34.8939 178.59 34.8219 177.881 34.8219V40.8219V46.8219C177.812 46.8219 177.132 46.8299 176.245 46.4443C175.167 45.9758 173.8 44.8994 173.238 43.026L178.985 41.3019ZM177.881 40.8219V34.8219C176.714 34.8219 175.31 35.0077 173.919 35.2395L174.905 41.1579L175.891 47.0762C176.494 46.9758 176.969 46.9088 177.33 46.868C177.509 46.8478 177.646 46.8356 177.746 46.8288C177.849 46.8217 177.89 46.8219 177.881 46.8219V40.8219ZM174.905 41.1579L168.918 41.557L169.062 43.717L175.049 43.3179L181.036 42.9188L180.892 40.7588L174.905 41.1579ZM222.269 47.7339L221.731 53.7097L229.296 54.3912L228.208 46.8744L222.269 47.7339ZM211.613 46.7739L212.152 40.7981L206.106 40.2535L205.632 46.3047L211.613 46.7739ZM211.037 54.1179L205.056 53.6487L204.503 60.6943L211.545 60.0964L211.037 54.1179ZM216.125 53.6859H222.125V47.1549L215.618 47.7074L216.125 53.6859ZM216.125 66.2619L215.803 72.2532L222.125 72.5931V66.2619H216.125ZM198.269 65.3019L192.281 65.6744L192.613 71.0064L197.947 71.2932L198.269 65.3019ZM197.645 55.2699L197.102 49.2945L191.295 49.8224L191.657 55.6424L197.645 55.2699ZM200.813 54.9819L201.357 60.9572L207.196 60.4264L206.8 54.5766L200.813 54.9819ZM200.189 45.7659L206.176 45.3606L205.824 40.1621L200.627 39.7819L200.189 45.7659ZM198.221 45.6219L198.659 39.6379L192.749 39.2054L192.243 45.1095L198.221 45.6219ZM198.077 47.3019L197.678 53.2886L203.553 53.6802L204.056 47.8143L198.077 47.3019ZM193.757 47.0139L187.767 47.35L188.064 52.6476L193.358 53.0006L193.757 47.0139ZM192.941 32.4699L192.277 26.5068L186.633 27.1362L186.951 32.806L192.941 32.4699ZM219.629 29.4939L225.568 28.6344L224.736 22.8873L218.965 23.5308L219.629 29.4939ZM222.269 47.7339L222.808 41.7581L212.152 40.7981L211.613 46.7739L211.075 52.7497L221.731 53.7097L222.269 47.7339ZM211.613 46.7739L205.632 46.3047L205.056 53.6487L211.037 54.1179L217.019 54.587L217.595 47.243L211.613 46.7739ZM211.037 54.1179L211.545 60.0964L216.633 59.6644L216.125 53.6859L215.618 47.7074L210.53 48.1394L211.037 54.1179ZM216.125 53.6859H210.125V66.2619H216.125H222.125V53.6859H216.125ZM216.125 66.2619L216.448 60.2705L198.592 59.3105L198.269 65.3019L197.947 71.2932L215.803 72.2532L216.125 66.2619ZM198.269 65.3019L204.258 64.9294L203.634 54.8974L197.645 55.2699L191.657 55.6424L192.281 65.6744L198.269 65.3019ZM197.645 55.2699L198.189 61.2452L201.357 60.9572L200.813 54.9819L200.27 49.0065L197.102 49.2945L197.645 55.2699ZM200.813 54.9819L206.8 54.5766L206.176 45.3606L200.189 45.7659L194.203 46.1712L194.827 55.3872L200.813 54.9819ZM200.189 45.7659L200.627 39.7819L198.659 39.6379L198.221 45.6219L197.784 51.6059L199.752 51.7499L200.189 45.7659ZM198.221 45.6219L192.243 45.1095L192.099 46.7895L198.077 47.3019L204.056 47.8143L204.2 46.1343L198.221 45.6219ZM198.077 47.3019L198.477 41.3152L194.157 41.0272L193.757 47.0139L193.358 53.0006L197.678 53.2886L198.077 47.3019ZM193.757 47.0139L199.748 46.6778L198.932 32.1338L192.941 32.4699L186.951 32.806L187.767 47.35L193.757 47.0139ZM192.941 32.4699L193.606 38.4329L220.294 35.4569L219.629 29.4939L218.965 23.5308L192.277 26.5068L192.941 32.4699ZM219.629 29.4939L213.691 30.3533L216.331 48.5933L222.269 47.7339L228.208 46.8744L225.568 28.6344L219.629 29.4939Z" fill="white" mask="url(#path-4-outside-1_244_1960)"/>
</svg>
