<svg width="298" height="100" viewBox="0 0 298 100" fill="none" xmlns="http://www.w3.org/2000/svg">
<path d="M0 0L100.612 4.49307L230.129 1.58827L297.525 3.46251L291.47 33.5411V74.5955L297.525 96.9515L206.924 94.9291L3.31914 99.6187L0 35.8677V0Z" fill="white"/>
<path d="M9.00537 11.6354L53.0437 14.4386H287.435L284.583 31.9004L279.679 64.4308L287.435 90.1277L109.991 87.2112L12.1115 92.2871V62.07L9.00537 11.6354Z" fill="black"/>
<path d="M12.8821 15.2822L146.585 17.785H282.435L278.437 38.3255L275.644 73.2439L282.435 85.3599L200.779 83.8591H107.775L15.8892 87.2878V41.6777L12.8821 15.2822Z" fill="#FFCC00"/>
<mask id="path-4-outside-1_244_1954" maskUnits="userSpaceOnUse" x="69.6353" y="25.8406" width="156" height="51" fill="black">
<rect fill="white" x="69.6353" y="25.8406" width="156" height="51"/>
<path d="M112.009 56.5526C112.009 59.6566 110.921 62.1046 108.745 63.8966C106.601 65.6886 103.145 66.9846 98.3768 67.7846L98.6648 70.0406L84.3128 69.8486L84.3608 68.7926C83.4968 68.8246 82.1368 68.8406 80.2808 68.8406L78.8408 53.1926H84.7928L84.9848 46.2326L82.4408 46.3286L78.6968 35.2406H85.1768H85.3208L85.3688 33.3206L93.5768 32.7446L93.9608 35.4806C97.7688 35.7046 100.825 36.0886 103.129 36.6326C105.433 37.1766 107.145 37.9926 108.265 39.0806C109.385 40.1366 109.945 41.5446 109.945 43.3046C109.945 45.7366 108.345 47.6406 105.145 49.0166C107.449 49.6566 109.161 50.6006 110.281 51.8486C111.433 53.0646 112.009 54.6326 112.009 56.5526ZM95.3528 45.8486L95.5928 47.6246C97.1608 47.5286 98.2328 47.4006 98.8088 47.2406C99.3848 47.0486 99.6728 46.7766 99.6728 46.4246C99.6728 46.1686 99.4968 45.9926 99.1448 45.8966C98.7928 45.8006 98.1208 45.7686 97.1288 45.8006L95.3528 45.8486ZM96.3608 53.1446C97.8328 53.0806 98.9208 52.9526 99.6248 52.7606C100.329 52.5366 100.649 52.2166 100.585 51.8006C100.521 51.3526 99.7848 51.1286 98.3768 51.1286C97.8008 51.1286 97.0488 51.1766 96.1208 51.2726L96.3608 53.1446ZM129.51 70.7126C124.806 70.7126 121.206 69.1926 118.71 66.1526C116.214 63.0806 114.534 58.2646 113.67 51.7046C113.542 50.8406 113.478 49.9126 113.478 48.9206C113.478 45.9766 114.054 43.2726 115.206 40.8086C116.39 38.3126 118.086 36.3286 120.294 34.8566C122.502 33.3526 125.078 32.6006 128.022 32.6006C128.726 32.6006 129.446 32.6486 130.182 32.7446C135.686 33.4166 139.798 35.4006 142.518 38.6966C145.27 41.9926 146.646 46.3286 146.646 51.7046C146.646 55.1606 145.878 58.3446 144.342 61.2566C142.806 64.1686 140.726 66.4726 138.102 68.1686C135.478 69.8646 132.614 70.7126 129.51 70.7126ZM128.214 64.3286C128.758 64.3286 129.03 63.9606 129.03 63.2246C129.03 62.6486 128.758 61.2726 128.214 59.0966C128.022 58.4566 127.718 57.2086 127.302 55.3526C126.694 52.6966 126.198 50.7446 125.814 49.4966C125.43 48.2486 125.11 47.4646 124.854 47.1446C124.598 46.8246 124.31 46.7126 123.99 46.8086C123.638 46.9046 123.462 47.1926 123.462 47.6726C123.462 48.0886 123.574 48.8726 123.798 50.0246C124.054 51.1766 124.39 52.5846 124.806 54.2486L125.238 56.0246L125.574 57.4166C126.278 60.2326 126.79 62.0886 127.11 62.9846C127.43 63.8806 127.798 64.3286 128.214 64.3286ZM164.619 70.7126C159.915 70.7126 156.315 69.1926 153.819 66.1526C151.323 63.0806 149.643 58.2646 148.779 51.7046C148.651 50.8406 148.587 49.9126 148.587 48.9206C148.587 45.9766 149.163 43.2726 150.315 40.8086C151.499 38.3126 153.195 36.3286 155.403 34.8566C157.611 33.3526 160.187 32.6006 163.131 32.6006C163.835 32.6006 164.555 32.6486 165.291 32.7446C170.795 33.4166 174.907 35.4006 177.627 38.6966C180.379 41.9926 181.755 46.3286 181.755 51.7046C181.755 55.1606 180.987 58.3446 179.451 61.2566C177.915 64.1686 175.835 66.4726 173.211 68.1686C170.587 69.8646 167.723 70.7126 164.619 70.7126ZM163.323 64.3286C163.867 64.3286 164.139 63.9606 164.139 63.2246C164.139 62.6486 163.867 61.2726 163.323 59.0966C163.131 58.4566 162.827 57.2086 162.411 55.3526C161.803 52.6966 161.307 50.7446 160.923 49.4966C160.539 48.2486 160.219 47.4646 159.963 47.1446C159.707 46.8246 159.419 46.7126 159.099 46.8086C158.747 46.9046 158.571 47.1926 158.571 47.6726C158.571 48.0886 158.683 48.8726 158.907 50.0246C159.163 51.1766 159.499 52.5846 159.915 54.2486L160.347 56.0246L160.683 57.4166C161.387 60.2326 161.899 62.0886 162.219 62.9846C162.539 63.8806 162.907 64.3286 163.323 64.3286ZM217.836 55.7366L218.556 68.8406L200.844 67.3526L200.796 56.6006L201.324 56.5526C201.068 54.5046 200.684 53.1126 200.172 52.3766C199.66 51.6406 199.02 51.3046 198.252 51.3686H198.156L198.636 56.8406H199.788L199.98 66.8726L185.1 69.0806L183.9 56.7446H187.164L187.836 44.5046L184.38 45.1766L183.228 33.2726L200.028 32.6966L200.412 42.0086L197.436 42.5846L197.58 44.2166C199.468 43.7366 200.844 43.2566 201.708 42.7766C202.604 42.2966 203.292 41.5126 203.772 40.4246L201.948 40.3286L202.956 32.2646H217.74L216.06 40.9526L214.38 40.8566C213.708 42.5526 212.892 43.9606 211.932 45.0806C210.972 46.1686 209.804 47.0806 208.428 47.8166C210.572 48.2326 212.156 49.0646 213.18 50.3126C214.204 51.5606 215.036 53.4006 215.676 55.8326L217.836 55.7366Z"/>
</mask>
<path d="M112.009 56.5526C112.009 59.6566 110.921 62.1046 108.745 63.8966C106.601 65.6886 103.145 66.9846 98.3768 67.7846L98.6648 70.0406L84.3128 69.8486L84.3608 68.7926C83.4968 68.8246 82.1368 68.8406 80.2808 68.8406L78.8408 53.1926H84.7928L84.9848 46.2326L82.4408 46.3286L78.6968 35.2406H85.1768H85.3208L85.3688 33.3206L93.5768 32.7446L93.9608 35.4806C97.7688 35.7046 100.825 36.0886 103.129 36.6326C105.433 37.1766 107.145 37.9926 108.265 39.0806C109.385 40.1366 109.945 41.5446 109.945 43.3046C109.945 45.7366 108.345 47.6406 105.145 49.0166C107.449 49.6566 109.161 50.6006 110.281 51.8486C111.433 53.0646 112.009 54.6326 112.009 56.5526ZM95.3528 45.8486L95.5928 47.6246C97.1608 47.5286 98.2328 47.4006 98.8088 47.2406C99.3848 47.0486 99.6728 46.7766 99.6728 46.4246C99.6728 46.1686 99.4968 45.9926 99.1448 45.8966C98.7928 45.8006 98.1208 45.7686 97.1288 45.8006L95.3528 45.8486ZM96.3608 53.1446C97.8328 53.0806 98.9208 52.9526 99.6248 52.7606C100.329 52.5366 100.649 52.2166 100.585 51.8006C100.521 51.3526 99.7848 51.1286 98.3768 51.1286C97.8008 51.1286 97.0488 51.1766 96.1208 51.2726L96.3608 53.1446ZM129.51 70.7126C124.806 70.7126 121.206 69.1926 118.71 66.1526C116.214 63.0806 114.534 58.2646 113.67 51.7046C113.542 50.8406 113.478 49.9126 113.478 48.9206C113.478 45.9766 114.054 43.2726 115.206 40.8086C116.39 38.3126 118.086 36.3286 120.294 34.8566C122.502 33.3526 125.078 32.6006 128.022 32.6006C128.726 32.6006 129.446 32.6486 130.182 32.7446C135.686 33.4166 139.798 35.4006 142.518 38.6966C145.27 41.9926 146.646 46.3286 146.646 51.7046C146.646 55.1606 145.878 58.3446 144.342 61.2566C142.806 64.1686 140.726 66.4726 138.102 68.1686C135.478 69.8646 132.614 70.7126 129.51 70.7126ZM128.214 64.3286C128.758 64.3286 129.03 63.9606 129.03 63.2246C129.03 62.6486 128.758 61.2726 128.214 59.0966C128.022 58.4566 127.718 57.2086 127.302 55.3526C126.694 52.6966 126.198 50.7446 125.814 49.4966C125.43 48.2486 125.11 47.4646 124.854 47.1446C124.598 46.8246 124.31 46.7126 123.99 46.8086C123.638 46.9046 123.462 47.1926 123.462 47.6726C123.462 48.0886 123.574 48.8726 123.798 50.0246C124.054 51.1766 124.39 52.5846 124.806 54.2486L125.238 56.0246L125.574 57.4166C126.278 60.2326 126.79 62.0886 127.11 62.9846C127.43 63.8806 127.798 64.3286 128.214 64.3286ZM164.619 70.7126C159.915 70.7126 156.315 69.1926 153.819 66.1526C151.323 63.0806 149.643 58.2646 148.779 51.7046C148.651 50.8406 148.587 49.9126 148.587 48.9206C148.587 45.9766 149.163 43.2726 150.315 40.8086C151.499 38.3126 153.195 36.3286 155.403 34.8566C157.611 33.3526 160.187 32.6006 163.131 32.6006C163.835 32.6006 164.555 32.6486 165.291 32.7446C170.795 33.4166 174.907 35.4006 177.627 38.6966C180.379 41.9926 181.755 46.3286 181.755 51.7046C181.755 55.1606 180.987 58.3446 179.451 61.2566C177.915 64.1686 175.835 66.4726 173.211 68.1686C170.587 69.8646 167.723 70.7126 164.619 70.7126ZM163.323 64.3286C163.867 64.3286 164.139 63.9606 164.139 63.2246C164.139 62.6486 163.867 61.2726 163.323 59.0966C163.131 58.4566 162.827 57.2086 162.411 55.3526C161.803 52.6966 161.307 50.7446 160.923 49.4966C160.539 48.2486 160.219 47.4646 159.963 47.1446C159.707 46.8246 159.419 46.7126 159.099 46.8086C158.747 46.9046 158.571 47.1926 158.571 47.6726C158.571 48.0886 158.683 48.8726 158.907 50.0246C159.163 51.1766 159.499 52.5846 159.915 54.2486L160.347 56.0246L160.683 57.4166C161.387 60.2326 161.899 62.0886 162.219 62.9846C162.539 63.8806 162.907 64.3286 163.323 64.3286ZM217.836 55.7366L218.556 68.8406L200.844 67.3526L200.796 56.6006L201.324 56.5526C201.068 54.5046 200.684 53.1126 200.172 52.3766C199.66 51.6406 199.02 51.3046 198.252 51.3686H198.156L198.636 56.8406H199.788L199.98 66.8726L185.1 69.0806L183.9 56.7446H187.164L187.836 44.5046L184.38 45.1766L183.228 33.2726L200.028 32.6966L200.412 42.0086L197.436 42.5846L197.58 44.2166C199.468 43.7366 200.844 43.2566 201.708 42.7766C202.604 42.2966 203.292 41.5126 203.772 40.4246L201.948 40.3286L202.956 32.2646H217.74L216.06 40.9526L214.38 40.8566C213.708 42.5526 212.892 43.9606 211.932 45.0806C210.972 46.1686 209.804 47.0806 208.428 47.8166C210.572 48.2326 212.156 49.0646 213.18 50.3126C214.204 51.5606 215.036 53.4006 215.676 55.8326L217.836 55.7366Z" fill="black"/>
<path d="M108.745 63.8966L104.931 59.265L104.914 59.2789L104.897 59.2929L108.745 63.8966ZM98.3768 67.7846L97.384 61.8673L91.6946 62.8219L92.4251 68.5444L98.3768 67.7846ZM98.6648 70.0406L98.5846 76.04L105.491 76.1324L104.617 69.2808L98.6648 70.0406ZM84.3128 69.8486L78.319 69.5761L78.0377 75.7652L84.2326 75.848L84.3128 69.8486ZM84.3608 68.7926L90.3546 69.065L90.6505 62.5555L84.1387 62.7967L84.3608 68.7926ZM80.2808 68.8406L74.3061 69.3904L74.8076 74.8406H80.2808V68.8406ZM78.8408 53.1926V47.1926H72.2633L72.8661 53.7424L78.8408 53.1926ZM84.7928 53.1926V59.1926H90.6296L90.7905 53.358L84.7928 53.1926ZM84.9848 46.2326L90.9825 46.398L91.1592 39.9953L84.7586 40.2368L84.9848 46.2326ZM82.4408 46.3286L76.7561 48.2481L78.1896 52.4933L82.6671 52.3243L82.4408 46.3286ZM78.6968 35.2406V29.2406H70.338L73.0121 37.1601L78.6968 35.2406ZM85.3208 35.2406V41.2406H91.1727L91.3189 35.3905L85.3208 35.2406ZM85.3688 33.3206L84.9488 27.3353L79.507 27.7172L79.3707 33.1706L85.3688 33.3206ZM93.5768 32.7446L99.5186 31.9106L98.7406 26.3674L93.1568 26.7593L93.5768 32.7446ZM93.9608 35.4806L88.0191 36.3145L88.7022 41.1816L93.6085 41.4702L93.9608 35.4806ZM103.129 36.6326L101.75 42.472H101.75L103.129 36.6326ZM108.265 39.0806L104.084 43.3843L104.116 43.4154L104.149 43.4461L108.265 39.0806ZM105.145 49.0166L102.775 43.5046L87.1189 50.2365L103.539 54.7977L105.145 49.0166ZM110.281 51.8486L105.815 55.856L105.869 55.9163L105.925 55.975L110.281 51.8486ZM95.3528 45.8486L95.1907 39.8508L88.5122 40.0313L89.4069 46.6521L95.3528 45.8486ZM95.5928 47.6246L89.6469 48.4281L90.3936 53.9541L95.9595 53.6134L95.5928 47.6246ZM98.8088 47.2406L100.415 53.0217L100.562 52.9809L100.706 52.9327L98.8088 47.2406ZM99.1448 45.8966L97.5661 51.6852L97.5661 51.6852L99.1448 45.8966ZM97.1288 45.8006L97.2909 51.7984L97.3066 51.798L97.3223 51.7975L97.1288 45.8006ZM96.3608 53.1446L90.4095 53.9076L91.1109 59.3785L96.6214 59.1389L96.3608 53.1446ZM99.6248 52.7606L101.204 58.5492L101.325 58.5162L101.444 58.4781L99.6248 52.7606ZM100.585 51.8006L94.6451 52.6491L94.6497 52.681L94.6546 52.7129L100.585 51.8006ZM96.1208 51.2726L95.5034 45.3044L89.3877 45.9371L90.1695 52.0356L96.1208 51.2726ZM112.009 56.5526H106.009C106.009 58.0694 105.571 58.7374 104.931 59.265L108.745 63.8966L112.559 68.5282C116.27 65.4718 118.009 61.2437 118.009 56.5526H112.009ZM108.745 63.8966L104.897 59.2929C103.97 60.0677 101.771 61.1312 97.384 61.8673L98.3768 67.7846L99.3696 73.7019C104.518 72.838 109.232 71.3094 112.593 68.5003L108.745 63.8966ZM98.3768 67.7846L92.4251 68.5444L92.7131 70.8004L98.6648 70.0406L104.617 69.2808L104.329 67.0248L98.3768 67.7846ZM98.6648 70.0406L98.7451 64.0411L84.3931 63.8491L84.3128 69.8486L84.2326 75.848L98.5846 76.04L98.6648 70.0406ZM84.3128 69.8486L90.3066 70.121L90.3546 69.065L84.3608 68.7926L78.367 68.5201L78.319 69.5761L84.3128 69.8486ZM84.3608 68.7926L84.1387 62.7967C83.3928 62.8243 82.1266 62.8406 80.2808 62.8406V68.8406V74.8406C82.147 74.8406 83.6008 74.8248 84.5829 74.7885L84.3608 68.7926ZM80.2808 68.8406L86.2556 68.2908L84.8156 52.6428L78.8408 53.1926L72.8661 53.7424L74.3061 69.3904L80.2808 68.8406ZM78.8408 53.1926V59.1926H84.7928V53.1926V47.1926H78.8408V53.1926ZM84.7928 53.1926L90.7905 53.358L90.9825 46.398L84.9848 46.2326L78.9871 46.0671L78.7951 53.0271L84.7928 53.1926ZM84.9848 46.2326L84.7586 40.2368L82.2146 40.3328L82.4408 46.3286L82.6671 52.3243L85.2111 52.2283L84.9848 46.2326ZM82.4408 46.3286L88.1255 44.4091L84.3815 33.3211L78.6968 35.2406L73.0121 37.1601L76.7561 48.2481L82.4408 46.3286ZM78.6968 35.2406V41.2406H85.1768V35.2406V29.2406H78.6968V35.2406ZM85.1768 35.2406V41.2406H85.3208V35.2406V29.2406H85.1768V35.2406ZM85.3208 35.2406L91.3189 35.3905L91.3669 33.4705L85.3688 33.3206L79.3707 33.1706L79.3227 35.0906L85.3208 35.2406ZM85.3688 33.3206L85.7888 39.3059L93.9968 38.7299L93.5768 32.7446L93.1568 26.7593L84.9488 27.3353L85.3688 33.3206ZM93.5768 32.7446L87.6351 33.5785L88.0191 36.3145L93.9608 35.4806L99.9026 34.6466L99.5186 31.9106L93.5768 32.7446ZM93.9608 35.4806L93.6085 41.4702C97.2525 41.6846 99.9234 42.0407 101.75 42.472L103.129 36.6326L104.508 30.7931C101.726 30.1364 98.2851 29.7246 94.3132 29.4909L93.9608 35.4806ZM103.129 36.6326L101.75 42.472C103.502 42.8857 104.044 43.3457 104.084 43.3843L108.265 39.0806L112.446 34.7769C110.245 32.6395 107.363 31.4674 104.508 30.7931L103.129 36.6326ZM108.265 39.0806L104.149 43.4461C104.124 43.4226 104.084 43.3799 104.042 43.3186C104 43.257 103.97 43.1964 103.95 43.146C103.907 43.0401 103.945 43.063 103.945 43.3046H109.945H115.945C115.945 40.1518 114.88 37.0714 112.381 34.715L108.265 39.0806ZM109.945 43.3046H103.945C103.945 43.2413 103.958 43.1098 104.016 42.9525C104.073 42.797 104.14 42.7101 104.151 42.6965C104.156 42.6913 104.083 42.7792 103.86 42.9317C103.635 43.0855 103.287 43.2844 102.775 43.5046L105.145 49.0166L107.515 54.5286C111.804 52.6843 115.945 49.149 115.945 43.3046H109.945ZM105.145 49.0166L103.539 54.7977C105.188 55.2556 105.72 55.7498 105.815 55.856L110.281 51.8486L114.746 47.8411C112.602 45.4513 109.71 44.0575 106.751 43.2355L105.145 49.0166ZM110.281 51.8486L105.925 55.975C105.94 55.9908 105.942 55.9955 105.939 55.9908C105.936 55.986 105.938 55.9882 105.945 56.0055C105.956 56.0359 106.009 56.1946 106.009 56.5526H112.009H118.009C118.009 53.3391 117 50.2165 114.637 47.7221L110.281 51.8486ZM95.3528 45.8486L89.4069 46.6521L89.6469 48.4281L95.5928 47.6246L101.539 46.8211L101.299 45.0451L95.3528 45.8486ZM95.5928 47.6246L95.9595 53.6134C97.4828 53.5201 99.1503 53.3729 100.415 53.0217L98.8088 47.2406L97.203 41.4595C97.3531 41.4178 97.2946 41.4472 96.8615 41.4989C96.4786 41.5446 95.9417 41.592 95.2262 41.6358L95.5928 47.6246ZM98.8088 47.2406L100.706 52.9327C101.738 52.5886 105.673 50.9714 105.673 46.4246H99.6728H93.6728C93.6728 44.7348 94.4467 43.3714 95.3371 42.5305C96.0758 41.8329 96.7696 41.5958 96.9114 41.5485L98.8088 47.2406ZM99.6728 46.4246H105.673C105.673 44.7561 105.032 43.1066 103.783 41.8579C102.692 40.766 101.469 40.3113 100.724 40.108L99.1448 45.8966L97.5661 51.6852C97.1727 51.5779 96.2141 51.2591 95.2982 50.3432C94.2256 49.2706 93.6728 47.8371 93.6728 46.4246H99.6728ZM99.1448 45.8966L100.724 40.108C99.3781 39.7411 97.8348 39.7747 96.9354 39.8037L97.1288 45.8006L97.3223 51.7975C97.5177 51.7912 97.6802 51.7886 97.8128 51.7886C97.9469 51.7886 98.0376 51.7912 98.0914 51.7938C98.1492 51.7965 98.1386 51.798 98.0766 51.7902C98.0435 51.7861 97.9846 51.778 97.9053 51.7633C97.8275 51.7489 97.7109 51.7247 97.5661 51.6852L99.1448 45.8966ZM97.1288 45.8006L96.9667 39.8028L95.1907 39.8508L95.3528 45.8486L95.5149 51.8464L97.2909 51.7984L97.1288 45.8006ZM96.3608 53.1446L96.6214 59.1389C98.1844 59.071 99.8256 58.925 101.204 58.5492L99.6248 52.7606L98.0461 46.972C98.0863 46.961 97.9586 46.9971 97.5798 47.0417C97.222 47.0838 96.7355 47.1226 96.1002 47.1502L96.3608 53.1446ZM99.6248 52.7606L101.444 58.4781C102.197 58.2385 103.498 57.7325 104.635 56.5952C106.028 55.2023 106.862 53.1451 106.515 50.8882L100.585 51.8006L94.6546 52.7129C94.5339 51.9283 94.5785 51.0299 94.8938 50.1235C95.2036 49.2328 95.6932 48.5669 96.1502 48.1099C96.9674 47.2927 97.7563 47.0587 97.8056 47.043L99.6248 52.7606ZM100.585 51.8006L106.525 50.9521C105.973 47.0905 102.662 45.8395 101.732 45.5565C100.51 45.1845 99.2684 45.1286 98.3768 45.1286V51.1286V57.1286C98.8933 57.1286 98.7241 57.1846 98.2378 57.0366C97.9819 56.9587 97.292 56.7227 96.5517 56.1008C95.7067 55.3911 94.87 54.223 94.6451 52.6491L100.585 51.8006ZM98.3768 51.1286V45.1286C97.5084 45.1286 96.5278 45.1985 95.5034 45.3044L96.1208 51.2726L96.7382 57.2407C97.5698 57.1547 98.0932 57.1286 98.3768 57.1286V51.1286ZM96.1208 51.2726L90.1695 52.0356L90.4095 53.9076L96.3608 53.1446L102.312 52.3816L102.072 50.5096L96.1208 51.2726ZM118.71 66.1526L114.053 69.9361L114.063 69.9481L114.073 69.96L118.71 66.1526ZM113.67 51.7046L119.619 50.9211L119.612 50.8731L119.605 50.8253L113.67 51.7046ZM115.206 40.8086L109.785 38.2371L109.778 38.2522L109.771 38.2674L115.206 40.8086ZM120.294 34.8566L123.622 39.8489L123.647 39.8323L123.672 39.8155L120.294 34.8566ZM130.182 32.7446L129.406 38.6942L129.43 38.6974L129.455 38.7003L130.182 32.7446ZM142.518 38.6966L137.89 42.5155L137.901 42.5288L137.912 42.5421L142.518 38.6966ZM144.342 61.2566L149.649 64.0559V64.0559L144.342 61.2566ZM138.102 68.1686L141.359 73.2076H141.359L138.102 68.1686ZM128.214 59.0966L134.035 57.6414L134.001 57.5061L133.961 57.3725L128.214 59.0966ZM127.302 55.3526L133.157 54.0403L133.154 54.027L133.151 54.0137L127.302 55.3526ZM124.854 47.1446L120.169 50.8927L120.169 50.8928L124.854 47.1446ZM123.99 46.8086L125.569 52.5972L125.642 52.5773L125.714 52.5555L123.99 46.8086ZM123.798 50.0246L117.908 51.1698L117.924 51.2482L117.941 51.3262L123.798 50.0246ZM124.806 54.2486L130.636 52.8305L130.632 52.8119L130.627 52.7934L124.806 54.2486ZM125.238 56.0246L131.071 54.6167L131.068 54.6065L125.238 56.0246ZM125.574 57.4166L119.742 58.8244L119.747 58.8481L119.753 58.8718L125.574 57.4166ZM127.11 62.9846L132.761 60.9666L132.761 60.9666L127.11 62.9846ZM129.51 70.7126V64.7126C126.212 64.7126 124.477 63.7217 123.347 62.3452L118.71 66.1526L114.073 69.96C117.935 74.6634 123.4 76.7126 129.51 76.7126V70.7126ZM118.71 66.1526L123.367 62.369C121.896 60.5586 120.424 57.039 119.619 50.9211L113.67 51.7046L107.721 52.4881C108.644 59.4902 110.532 65.6026 114.053 69.9361L118.71 66.1526ZM113.67 51.7046L119.605 50.8253C119.526 50.2884 119.478 49.657 119.478 48.9206H113.478H107.478C107.478 50.1681 107.558 51.3928 107.735 52.5839L113.67 51.7046ZM113.478 48.9206H119.478C119.478 46.7813 119.891 44.9543 120.641 43.3498L115.206 40.8086L109.771 38.2674C108.217 41.5909 107.478 45.1718 107.478 48.9206H113.478ZM115.206 40.8086L120.627 43.3801C121.365 41.8235 122.356 40.6929 123.622 39.8489L120.294 34.8566L116.966 29.8643C113.816 31.9642 111.415 34.8017 109.785 38.2371L115.206 40.8086ZM120.294 34.8566L123.672 39.8155C124.783 39.0585 126.155 38.6006 128.022 38.6006V32.6006V26.6006C124.001 26.6006 120.221 27.6466 116.916 29.8977L120.294 34.8566ZM128.022 32.6006V38.6006C128.453 38.6006 128.914 38.6299 129.406 38.6942L130.182 32.7446L130.958 26.795C129.979 26.6672 128.999 26.6006 128.022 26.6006V32.6006ZM130.182 32.7446L129.455 38.7003C133.903 39.2434 136.413 40.7258 137.89 42.5155L142.518 38.6966L147.146 34.8776C143.183 30.0753 137.469 27.5897 130.909 26.7888L130.182 32.7446ZM142.518 38.6966L137.912 42.5421C139.555 44.5091 140.646 47.3698 140.646 51.7046H146.646H152.646C152.646 45.2873 150.985 39.476 147.124 34.8511L142.518 38.6966ZM146.646 51.7046H140.646C140.646 54.2351 140.093 56.4514 139.035 58.4573L144.342 61.2566L149.649 64.0559C151.663 60.2377 152.646 56.086 152.646 51.7046H146.646ZM144.342 61.2566L139.035 58.4573C137.952 60.51 136.558 62.0223 134.845 63.1295L138.102 68.1686L141.359 73.2076C144.894 70.9228 147.66 67.8272 149.649 64.0559L144.342 61.2566ZM138.102 68.1686L134.845 63.1295C133.185 64.2026 131.45 64.7126 129.51 64.7126V70.7126V76.7126C133.778 76.7126 137.771 75.5265 141.359 73.2076L138.102 68.1686ZM128.214 64.3286V70.3286C129.983 70.3286 132.162 69.6332 133.651 67.6189C134.889 65.9439 135.03 64.156 135.03 63.2246H129.03H123.03C123.03 63.0292 123.035 61.7932 124.001 60.4862C125.218 58.84 126.989 58.3286 128.214 58.3286V64.3286ZM129.03 63.2246H135.03C135.03 62.2861 134.847 61.2788 134.712 60.597C134.549 59.7714 134.319 58.7763 134.035 57.6414L128.214 59.0966L122.393 60.5518C122.653 61.5928 122.831 62.3738 122.94 62.9241C122.994 63.1991 123.023 63.3748 123.036 63.4706C123.055 63.6036 123.03 63.4843 123.03 63.2246H129.03ZM128.214 59.0966L133.961 57.3725C133.84 56.9677 133.579 55.9228 133.157 54.0403L127.302 55.3526L121.447 56.6648C121.857 58.4943 122.205 59.9454 122.467 60.8207L128.214 59.0966ZM127.302 55.3526L133.151 54.0137C132.537 51.3332 132.001 49.2021 131.549 47.7321L125.814 49.4966L120.079 51.2611C120.395 52.2871 120.851 54.06 121.453 56.6914L127.302 55.3526ZM125.814 49.4966L131.549 47.7321C131.329 47.0183 131.094 46.325 130.841 45.7052C130.644 45.2216 130.236 44.2677 129.539 43.3964L124.854 47.1446L120.169 50.8928C120.024 50.7111 119.923 50.5588 119.862 50.4621C119.8 50.3623 119.759 50.287 119.739 50.247C119.7 50.1726 119.698 50.16 119.731 50.24C119.761 50.3136 119.807 50.4341 119.869 50.6118C119.93 50.7874 120 51.0024 120.079 51.2611L125.814 49.4966ZM124.854 47.1446L129.539 43.3964C128.96 42.6722 128.02 41.7726 126.621 41.2285C125.127 40.6477 123.596 40.6627 122.266 41.0616L123.99 46.8086L125.714 52.5555C124.704 52.8585 123.477 52.8815 122.271 52.4126C121.16 51.9806 120.492 51.297 120.169 50.8927L124.854 47.1446ZM123.99 46.8086L122.411 41.02C120.89 41.4349 119.428 42.4069 118.474 43.9679C117.617 45.371 117.462 46.771 117.462 47.6726H123.462H129.462C129.462 48.0941 129.395 49.1102 128.714 50.2253C127.936 51.4983 126.738 52.2782 125.569 52.5972L123.99 46.8086ZM123.462 47.6726H117.462C117.462 48.7537 117.698 50.0884 117.908 51.1698L123.798 50.0246L129.688 48.8794C129.587 48.3599 129.523 47.9819 129.486 47.724C129.468 47.5967 129.46 47.5241 129.457 47.496C129.453 47.4571 129.462 47.5284 129.462 47.6726H123.462ZM123.798 50.0246L117.941 51.3262C118.212 52.5468 118.562 54.0094 118.985 55.7038L124.806 54.2486L130.627 52.7934C130.219 51.1598 129.896 49.8064 129.655 48.723L123.798 50.0246ZM124.806 54.2486L118.976 55.6667L119.408 57.4427L125.238 56.0246L131.068 54.6065L130.636 52.8305L124.806 54.2486ZM125.238 56.0246L119.406 57.4324L119.742 58.8244L125.574 57.4166L131.407 56.0087L131.071 54.6167L125.238 56.0246ZM125.574 57.4166L119.753 58.8718C120.444 61.6363 121.024 63.782 121.46 65.0026L127.11 62.9846L132.761 60.9666C132.556 60.3952 132.112 58.8289 131.395 55.9614L125.574 57.4166ZM127.11 62.9846L121.46 65.0026C121.723 65.7394 122.176 66.8103 122.99 67.801C123.842 68.839 125.581 70.3286 128.214 70.3286V64.3286V58.3286C130.431 58.3286 131.778 59.5942 132.262 60.1841C132.708 60.7268 132.817 61.1257 132.761 60.9666L127.11 62.9846ZM153.819 66.1526L149.163 69.9361L149.172 69.9481L149.182 69.96L153.819 66.1526ZM148.779 51.7046L154.728 50.9211L154.722 50.8731L154.715 50.8253L148.779 51.7046ZM150.315 40.8086L144.894 38.2371L144.887 38.2522L144.88 38.2674L150.315 40.8086ZM155.403 34.8566L158.732 39.8489L158.757 39.8323L158.781 39.8155L155.403 34.8566ZM165.291 32.7446L164.515 38.6942L164.54 38.6974L164.564 38.7003L165.291 32.7446ZM177.627 38.6966L173 42.5155L173.011 42.5288L173.022 42.5421L177.627 38.6966ZM179.451 61.2566L184.758 64.0559V64.0559L179.451 61.2566ZM173.211 68.1686L176.468 73.2076H176.468L173.211 68.1686ZM163.323 59.0966L169.144 57.6414L169.11 57.5061L169.07 57.3725L163.323 59.0966ZM162.411 55.3526L168.266 54.0403L168.263 54.027L168.26 54.0137L162.411 55.3526ZM159.963 47.1446L155.278 50.8927L155.278 50.8928L159.963 47.1446ZM159.099 46.8086L160.678 52.5972L160.751 52.5773L160.824 52.5555L159.099 46.8086ZM158.907 50.0246L153.018 51.1698L153.033 51.2482L153.05 51.3262L158.907 50.0246ZM159.915 54.2486L165.745 52.8305L165.741 52.8119L165.736 52.7934L159.915 54.2486ZM160.347 56.0246L166.18 54.6167L166.177 54.6065L160.347 56.0246ZM160.683 57.4166L154.851 58.8244L154.857 58.8481L154.863 58.8718L160.683 57.4166ZM162.219 62.9846L167.87 60.9666L167.87 60.9666L162.219 62.9846ZM164.619 70.7126V64.7126C161.322 64.7126 159.587 63.7217 158.457 62.3452L153.819 66.1526L149.182 69.96C153.044 74.6634 158.509 76.7126 164.619 76.7126V70.7126ZM153.819 66.1526L158.476 62.369C157.005 60.5586 155.534 57.039 154.728 50.9211L148.779 51.7046L142.831 52.4881C143.753 59.4902 145.642 65.6026 149.163 69.9361L153.819 66.1526ZM148.779 51.7046L154.715 50.8253C154.635 50.2884 154.587 49.657 154.587 48.9206H148.587H142.587C142.587 50.1681 142.668 51.3928 142.844 52.5839L148.779 51.7046ZM148.587 48.9206H154.587C154.587 46.7813 155.001 44.9543 155.751 43.3498L150.315 40.8086L144.88 38.2674C143.326 41.5909 142.587 45.1718 142.587 48.9206H148.587ZM150.315 40.8086L155.736 43.3801C156.475 41.8235 157.466 40.6929 158.732 39.8489L155.403 34.8566L152.075 29.8643C148.925 31.9642 146.524 34.8017 144.894 38.2371L150.315 40.8086ZM155.403 34.8566L158.781 39.8155C159.892 39.0585 161.264 38.6006 163.131 38.6006V32.6006V26.6006C159.111 26.6006 155.33 27.6466 152.026 29.8977L155.403 34.8566ZM163.131 32.6006V38.6006C163.562 38.6006 164.023 38.6299 164.515 38.6942L165.291 32.7446L166.067 26.795C165.088 26.6672 164.109 26.6006 163.131 26.6006V32.6006ZM165.291 32.7446L164.564 38.7003C169.012 39.2434 171.523 40.7258 173 42.5155L177.627 38.6966L182.255 34.8776C178.292 30.0753 172.579 27.5897 166.019 26.7888L165.291 32.7446ZM177.627 38.6966L173.022 42.5421C174.664 44.5091 175.755 47.3698 175.755 51.7046H181.755H187.755C187.755 45.2873 186.095 39.476 182.233 34.8511L177.627 38.6966ZM181.755 51.7046H175.755C175.755 54.2351 175.203 56.4514 174.144 58.4573L179.451 61.2566L184.758 64.0559C186.772 60.2377 187.755 56.086 187.755 51.7046H181.755ZM179.451 61.2566L174.144 58.4573C173.062 60.51 171.668 62.0223 169.954 63.1295L173.211 68.1686L176.468 73.2076C180.003 70.9228 182.769 67.8272 184.758 64.0559L179.451 61.2566ZM173.211 68.1686L169.954 63.1295C168.294 64.2026 166.56 64.7126 164.619 64.7126V70.7126V76.7126C168.887 76.7126 172.881 75.5265 176.468 73.2076L173.211 68.1686ZM163.323 64.3286V70.3286C165.093 70.3286 167.272 69.6332 168.76 67.6189C169.999 65.9439 170.139 64.156 170.139 63.2246H164.139H158.139C158.139 63.0292 158.144 61.7932 159.11 60.4862C160.327 58.84 162.098 58.3286 163.323 58.3286V64.3286ZM164.139 63.2246H170.139C170.139 62.2861 169.956 61.2788 169.822 60.597C169.658 59.7714 169.428 58.7763 169.144 57.6414L163.323 59.0966L157.503 60.5518C157.763 61.5928 157.941 62.3738 158.049 62.9241C158.104 63.1991 158.133 63.3748 158.146 63.4706C158.164 63.6036 158.139 63.4843 158.139 63.2246H164.139ZM163.323 59.0966L169.07 57.3725C168.949 56.9677 168.688 55.9228 168.266 54.0403L162.411 55.3526L156.557 56.6648C156.967 58.4943 157.314 59.9454 157.576 60.8207L163.323 59.0966ZM162.411 55.3526L168.26 54.0137C167.647 51.3332 167.11 49.2021 166.658 47.7321L160.923 49.4966L155.189 51.2611C155.504 52.2871 155.96 54.06 156.563 56.6914L162.411 55.3526ZM160.923 49.4966L166.658 47.7321C166.438 47.0183 166.203 46.325 165.951 45.7052C165.753 45.2216 165.346 44.2677 164.649 43.3964L159.963 47.1446L155.278 50.8928C155.133 50.7111 155.032 50.5588 154.972 50.4621C154.91 50.3623 154.869 50.287 154.848 50.247C154.809 50.1726 154.808 50.16 154.84 50.24C154.87 50.3136 154.917 50.4341 154.978 50.6118C155.039 50.7874 155.109 51.0024 155.189 51.2611L160.923 49.4966ZM159.963 47.1446L164.649 43.3964C164.069 42.6722 163.129 41.7726 161.73 41.2285C160.236 40.6477 158.705 40.6627 157.375 41.0616L159.099 46.8086L160.824 52.5555C159.814 52.8585 158.586 52.8815 157.381 52.4126C156.27 51.9806 155.602 51.297 155.278 50.8927L159.963 47.1446ZM159.099 46.8086L157.521 41.02C155.999 41.4349 154.538 42.4069 153.584 43.9679C152.726 45.371 152.571 46.771 152.571 47.6726H158.571H164.571C164.571 48.0941 164.505 49.1102 163.823 50.2253C163.045 51.4983 161.848 52.2782 160.678 52.5972L159.099 46.8086ZM158.571 47.6726H152.571C152.571 48.7537 152.807 50.0884 153.018 51.1698L158.907 50.0246L164.797 48.8794C164.696 48.3599 164.632 47.9819 164.595 47.724C164.577 47.5967 164.569 47.5241 164.566 47.496C164.563 47.4571 164.571 47.5284 164.571 47.6726H158.571ZM158.907 50.0246L153.05 51.3262C153.322 52.5468 153.671 54.0094 154.095 55.7038L159.915 54.2486L165.736 52.7934C165.328 51.1598 165.005 49.8064 164.765 48.723L158.907 50.0246ZM159.915 54.2486L154.085 55.6667L154.517 57.4427L160.347 56.0246L166.177 54.6065L165.745 52.8305L159.915 54.2486ZM160.347 56.0246L154.515 57.4324L154.851 58.8244L160.683 57.4166L166.516 56.0087L166.18 54.6167L160.347 56.0246ZM160.683 57.4166L154.863 58.8718C155.554 61.6363 156.133 63.782 156.569 65.0026L162.219 62.9846L167.87 60.9666C167.666 60.3952 167.221 58.8289 166.504 55.9614L160.683 57.4166ZM162.219 62.9846L156.569 65.0026C156.832 65.7394 157.285 66.8103 158.099 67.801C158.952 68.839 160.69 70.3286 163.323 70.3286V64.3286V58.3286C165.54 58.3286 166.887 59.5942 167.372 60.1841C167.818 60.7268 167.927 61.1257 167.87 60.9666L162.219 62.9846ZM217.836 55.7366L223.827 55.4074L223.501 49.4789L217.57 49.7425L217.836 55.7366ZM218.556 68.8406L218.054 74.8195L224.925 75.3968L224.547 68.5114L218.556 68.8406ZM200.844 67.3526L194.844 67.3794L194.869 72.8717L200.342 73.3315L200.844 67.3526ZM200.796 56.6006L200.253 50.6252L194.772 51.1235L194.796 56.6274L200.796 56.6006ZM201.324 56.5526L201.867 62.5279L208.047 61.9661L207.278 55.8084L201.324 56.5526ZM198.252 51.3686V57.3686H198.502L198.75 57.3479L198.252 51.3686ZM198.156 51.3686V45.3686H191.607L192.179 51.8929L198.156 51.3686ZM198.636 56.8406L192.659 57.3649L193.139 62.8406H198.636V56.8406ZM199.788 56.8406L205.787 56.7258L205.674 50.8406H199.788V56.8406ZM199.98 66.8726L200.861 72.8076L206.08 72.0331L205.979 66.7578L199.98 66.8726ZM185.1 69.0806L179.128 69.6615L179.739 75.9418L185.981 75.0156L185.1 69.0806ZM183.9 56.7446V50.7446H177.288L177.928 57.3255L183.9 56.7446ZM187.164 56.7446V62.7446H192.844L193.155 57.0735L187.164 56.7446ZM187.836 44.5046L193.827 44.8335L194.249 37.1452L186.691 38.6149L187.836 44.5046ZM184.38 45.1766L178.408 45.7545L179.044 52.3265L185.525 51.0663L184.38 45.1766ZM183.228 33.2726L183.022 27.2761L176.641 27.4949L177.256 33.8505L183.228 33.2726ZM200.028 32.6966L206.023 32.4494L205.777 26.4959L199.822 26.7001L200.028 32.6966ZM200.412 42.0086L201.552 47.8993L206.62 46.9185L206.407 41.7614L200.412 42.0086ZM197.436 42.5846L196.296 36.6939L190.984 37.7221L191.459 43.1119L197.436 42.5846ZM197.58 44.2166L191.603 44.7439L192.223 51.7694L199.058 50.0316L197.58 44.2166ZM201.708 42.7766L198.875 37.4877L198.834 37.5094L198.794 37.5316L201.708 42.7766ZM203.772 40.4246L209.262 42.8464L212.772 34.8899L204.087 34.4329L203.772 40.4246ZM201.948 40.3286L195.994 39.5844L195.195 45.9814L201.633 46.3203L201.948 40.3286ZM202.956 32.2646V26.2646H197.659L197.002 31.5204L202.956 32.2646ZM217.74 32.2646L223.631 33.4037L225.011 26.2646H217.74V32.2646ZM216.06 40.9526L215.718 46.9428L220.955 47.2421L221.951 42.0917L216.06 40.9526ZM214.38 40.8566L214.722 34.8663L210.398 34.6192L208.802 38.6464L214.38 40.8566ZM211.932 45.0806L216.431 49.0503L216.46 49.018L216.488 48.9853L211.932 45.0806ZM208.428 47.8166L205.598 42.5259L190.708 50.4903L207.285 53.7067L208.428 47.8166ZM215.676 55.8326L209.874 57.3595L211.106 62.0416L215.942 61.8267L215.676 55.8326ZM217.836 55.7366L211.845 56.0658L212.565 69.1698L218.556 68.8406L224.547 68.5114L223.827 55.4074L217.836 55.7366ZM218.556 68.8406L219.058 62.8616L201.346 61.3736L200.844 67.3526L200.342 73.3315L218.054 74.8195L218.556 68.8406ZM200.844 67.3526L206.844 67.3258L206.796 56.5738L200.796 56.6006L194.796 56.6274L194.844 67.3794L200.844 67.3526ZM200.796 56.6006L201.339 62.5759L201.867 62.5279L201.324 56.5526L200.781 50.5772L200.253 50.6252L200.796 56.6006ZM201.324 56.5526L207.278 55.8084C207.02 53.7429 206.53 51.0095 205.097 48.9502L200.172 52.3766L195.247 55.803C195.079 55.5613 195.009 55.396 195.002 55.3799C194.993 55.357 195.017 55.4108 195.06 55.5681C195.15 55.8945 195.264 56.4493 195.37 57.2968L201.324 56.5526ZM200.172 52.3766L205.097 48.9502C203.601 46.7986 201.041 45.1154 197.754 45.3893L198.252 51.3686L198.75 57.3479C198.076 57.404 197.277 57.2828 196.519 56.885C195.805 56.51 195.411 56.0393 195.247 55.803L200.172 52.3766ZM198.252 51.3686V45.3686H198.156V51.3686V57.3686H198.252V51.3686ZM198.156 51.3686L192.179 51.8929L192.659 57.3649L198.636 56.8406L204.613 56.3163L204.133 50.8443L198.156 51.3686ZM198.636 56.8406V62.8406H199.788V56.8406V50.8406H198.636V56.8406ZM199.788 56.8406L193.789 56.9554L193.981 66.9874L199.98 66.8726L205.979 66.7578L205.787 56.7258L199.788 56.8406ZM199.98 66.8726L199.099 60.9376L184.219 63.1456L185.1 69.0806L185.981 75.0156L200.861 72.8076L199.98 66.8726ZM185.1 69.0806L191.072 68.4997L189.872 56.1637L183.9 56.7446L177.928 57.3255L179.128 69.6615L185.1 69.0806ZM183.9 56.7446V62.7446H187.164V56.7446V50.7446H183.9V56.7446ZM187.164 56.7446L193.155 57.0735L193.827 44.8335L187.836 44.5046L181.845 44.1757L181.173 56.4157L187.164 56.7446ZM187.836 44.5046L186.691 38.6149L183.235 39.2869L184.38 45.1766L185.525 51.0663L188.981 50.3943L187.836 44.5046ZM184.38 45.1766L190.352 44.5986L189.2 32.6946L183.228 33.2726L177.256 33.8505L178.408 45.7545L184.38 45.1766ZM183.228 33.2726L183.434 39.2691L200.234 38.6931L200.028 32.6966L199.822 26.7001L183.022 27.2761L183.228 33.2726ZM200.028 32.6966L194.033 32.9438L194.417 42.2558L200.412 42.0086L206.407 41.7614L206.023 32.4494L200.028 32.6966ZM200.412 42.0086L199.272 36.1179L196.296 36.6939L197.436 42.5846L198.576 48.4753L201.552 47.8993L200.412 42.0086ZM197.436 42.5846L191.459 43.1119L191.603 44.7439L197.58 44.2166L203.557 43.6892L203.413 42.0572L197.436 42.5846ZM197.58 44.2166L199.058 50.0316C201.062 49.5222 203.056 48.8915 204.622 48.0215L201.708 42.7766L198.794 37.5316C198.795 37.531 198.78 37.5393 198.747 37.5556C198.713 37.5718 198.665 37.5941 198.601 37.6217C198.47 37.6778 198.289 37.7485 198.052 37.8314C197.571 37.999 196.93 38.1911 196.102 38.4016L197.58 44.2166ZM201.708 42.7766L204.541 48.0655C206.811 46.8495 208.337 44.9429 209.262 42.8464L203.772 40.4246L198.283 38.0027C198.255 38.0648 198.276 37.9972 198.386 37.871C198.504 37.7367 198.672 37.5963 198.875 37.4877L201.708 42.7766ZM203.772 40.4246L204.087 34.4329L202.263 34.3369L201.948 40.3286L201.633 46.3203L203.457 46.4163L203.772 40.4246ZM201.948 40.3286L207.902 41.0728L208.91 33.0088L202.956 32.2646L197.002 31.5204L195.994 39.5844L201.948 40.3286ZM202.956 32.2646V38.2646H217.74V32.2646V26.2646H202.956V32.2646ZM217.74 32.2646L211.849 31.1255L210.169 39.8135L216.06 40.9526L221.951 42.0917L223.631 33.4037L217.74 32.2646ZM216.06 40.9526L216.402 34.9623L214.722 34.8663L214.38 40.8566L214.038 46.8468L215.718 46.9428L216.06 40.9526ZM214.38 40.8566L208.802 38.6464C208.319 39.8653 207.816 40.6634 207.377 41.1758L211.932 45.0806L216.488 48.9853C217.968 47.2578 219.097 45.2398 219.958 43.0668L214.38 40.8566ZM211.932 45.0806L207.433 41.1108C206.981 41.6233 206.391 42.1016 205.598 42.5259L208.428 47.8166L211.258 53.1073C213.217 52.0595 214.963 50.7138 216.431 49.0503L211.932 45.0806ZM208.428 47.8166L207.285 53.7067C208.541 53.9504 208.674 54.2796 208.542 54.1185L213.18 50.3126L217.819 46.5067C215.638 43.8496 212.603 42.5147 209.571 41.9264L208.428 47.8166ZM213.18 50.3126L208.542 54.1185C208.798 54.4312 209.343 55.3445 209.874 57.3595L215.676 55.8326L221.479 54.3056C220.729 51.4566 219.61 48.69 217.819 46.5067L213.18 50.3126ZM215.676 55.8326L215.942 61.8267L218.102 61.7307L217.836 55.7366L217.57 49.7425L215.41 49.8385L215.676 55.8326Z" fill="white" mask="url(#path-4-outside-1_244_1954)"/>
</svg>
