<svg width="294" height="95" viewBox="0 0 294 95" fill="none" xmlns="http://www.w3.org/2000/svg">
<path d="M0 2.11189L37.2359 0L261.86 5.33621H293.809V25.899L289.718 57.7518L293.809 92.394L200.712 92.394L92.3657 94.6654L1.75353 92.394L3.27768 71.5759L0 2.11189Z" fill="black"/>
<path d="M6.67188 8.09668H71.2118L207.514 10.8999H285.101L282.249 29.2V58.8456L285.101 86.589L238.724 84.7495H154.104L52.7912 86.589L9.77798 88.7484V37.5468L6.67188 8.09668Z" fill="white"/>
<path d="M10.5488 11.7434L43.618 14.2461H144.252H280.101L277.58 24.8826V51.0743L280.101 81.821L252.251 80.3203L139.426 81.821L50.4888 80.3203L13.5559 83.7489L15.6625 68.3436L10.5488 11.7434Z" fill="#3080A3"/>
<mask id="path-4-outside-1_244_1948" maskUnits="userSpaceOnUse" x="78.3018" y="21.3019" width="137" height="52" fill="black">
<rect fill="white" x="78.3018" y="21.3019" width="137" height="52"/>
<path d="M114.022 48.0219L117.19 61.1739C114.246 62.9339 111.286 64.2459 108.31 65.1099C105.366 65.9419 102.518 66.3579 99.7656 66.3579C96.9816 66.3579 94.4856 65.9259 92.2776 65.0619C90.1016 64.1979 88.3896 62.9819 87.1416 61.4139C85.8936 59.8139 85.2696 57.9739 85.2696 55.8939C85.2696 53.9739 85.9576 52.4699 87.3336 51.3819C88.7096 50.2939 90.5496 49.5579 92.8536 49.1739C90.7736 48.1179 89.1256 46.8219 87.9096 45.2859C86.7256 43.7179 86.1336 41.9419 86.1336 39.9579C86.1336 37.8779 86.6456 36.0859 87.6696 34.5819C88.6936 33.0779 90.1016 31.9419 91.8936 31.1739C93.6856 30.4059 95.7176 30.0219 97.9896 30.0219C101.062 30.0219 104.166 30.6779 107.302 31.9899L107.83 29.2059L116.326 31.1739L105.766 50.1339C104.262 49.0459 102.918 48.2299 101.734 47.6859C100.582 47.1099 99.7176 46.8219 99.1416 46.8219C98.6936 46.8219 98.4696 46.9659 98.4696 47.2539C98.4696 47.8939 100.374 48.7419 104.182 49.7979L103.99 52.0539L102.022 52.0059C100.678 52.0059 99.7176 52.0699 99.1416 52.1979C98.5656 52.3259 98.3416 52.5339 98.4696 52.8219C98.5656 53.0779 98.9976 53.2059 99.7656 53.2059C100.598 53.2059 101.686 53.0459 103.03 52.7259C104.374 52.4059 105.75 51.9419 107.158 51.3339L106.918 49.7019L114.022 48.0219ZM142.921 49.3179L144.793 52.8699L150.697 54.5979L151.129 65.5419L139.081 65.3019L136.729 60.4059L134.137 65.0619L119.113 64.5339L120.889 47.1579H126.793L128.857 44.0859L128.041 42.4059L121.945 41.3019L120.985 28.7259L132.409 29.5899L135.193 34.7739L138.217 30.3099L152.281 29.2539L150.265 47.3979L144.361 46.7259L142.921 49.3179ZM165.695 28.5339C169.119 28.8859 171.743 29.5099 173.567 30.4059C175.423 31.2699 176.255 32.6459 176.063 34.5339C175.935 36.1019 175.311 37.1899 174.191 37.7979C173.071 38.4059 171.503 38.7099 169.487 38.7099C168.271 38.7099 166.655 38.5979 164.639 38.3739C162.367 38.1179 160.495 37.8139 159.023 37.4619C157.583 37.1099 156.415 36.5659 155.519 35.8299C154.655 35.0939 154.223 34.0859 154.223 32.8059C154.223 31.1419 154.831 29.9739 156.047 29.3019C157.263 28.5979 158.975 28.2459 161.183 28.2459C162.591 28.2459 164.095 28.3419 165.695 28.5339ZM172.511 45.5259L171.119 45.5739L171.935 53.7819L174.047 53.5899V66.1659L155.903 65.3019L155.279 55.2699L157.727 55.0299L158.543 46.2459L156.623 46.3419V39.2859L172.559 40.5339L172.511 45.5259ZM207.316 47.7339L196.66 46.7739L196.084 54.1179L201.172 53.6859V66.2619L183.316 65.3019L182.692 55.2699L185.86 54.9819L185.236 45.7659L183.268 45.6219L183.124 47.3019L178.804 47.0139L177.988 32.4699L204.676 29.4939L207.316 47.7339Z"/>
</mask>
<path d="M114.022 48.0219L117.19 61.1739C114.246 62.9339 111.286 64.2459 108.31 65.1099C105.366 65.9419 102.518 66.3579 99.7656 66.3579C96.9816 66.3579 94.4856 65.9259 92.2776 65.0619C90.1016 64.1979 88.3896 62.9819 87.1416 61.4139C85.8936 59.8139 85.2696 57.9739 85.2696 55.8939C85.2696 53.9739 85.9576 52.4699 87.3336 51.3819C88.7096 50.2939 90.5496 49.5579 92.8536 49.1739C90.7736 48.1179 89.1256 46.8219 87.9096 45.2859C86.7256 43.7179 86.1336 41.9419 86.1336 39.9579C86.1336 37.8779 86.6456 36.0859 87.6696 34.5819C88.6936 33.0779 90.1016 31.9419 91.8936 31.1739C93.6856 30.4059 95.7176 30.0219 97.9896 30.0219C101.062 30.0219 104.166 30.6779 107.302 31.9899L107.83 29.2059L116.326 31.1739L105.766 50.1339C104.262 49.0459 102.918 48.2299 101.734 47.6859C100.582 47.1099 99.7176 46.8219 99.1416 46.8219C98.6936 46.8219 98.4696 46.9659 98.4696 47.2539C98.4696 47.8939 100.374 48.7419 104.182 49.7979L103.99 52.0539L102.022 52.0059C100.678 52.0059 99.7176 52.0699 99.1416 52.1979C98.5656 52.3259 98.3416 52.5339 98.4696 52.8219C98.5656 53.0779 98.9976 53.2059 99.7656 53.2059C100.598 53.2059 101.686 53.0459 103.03 52.7259C104.374 52.4059 105.75 51.9419 107.158 51.3339L106.918 49.7019L114.022 48.0219ZM142.921 49.3179L144.793 52.8699L150.697 54.5979L151.129 65.5419L139.081 65.3019L136.729 60.4059L134.137 65.0619L119.113 64.5339L120.889 47.1579H126.793L128.857 44.0859L128.041 42.4059L121.945 41.3019L120.985 28.7259L132.409 29.5899L135.193 34.7739L138.217 30.3099L152.281 29.2539L150.265 47.3979L144.361 46.7259L142.921 49.3179ZM165.695 28.5339C169.119 28.8859 171.743 29.5099 173.567 30.4059C175.423 31.2699 176.255 32.6459 176.063 34.5339C175.935 36.1019 175.311 37.1899 174.191 37.7979C173.071 38.4059 171.503 38.7099 169.487 38.7099C168.271 38.7099 166.655 38.5979 164.639 38.3739C162.367 38.1179 160.495 37.8139 159.023 37.4619C157.583 37.1099 156.415 36.5659 155.519 35.8299C154.655 35.0939 154.223 34.0859 154.223 32.8059C154.223 31.1419 154.831 29.9739 156.047 29.3019C157.263 28.5979 158.975 28.2459 161.183 28.2459C162.591 28.2459 164.095 28.3419 165.695 28.5339ZM172.511 45.5259L171.119 45.5739L171.935 53.7819L174.047 53.5899V66.1659L155.903 65.3019L155.279 55.2699L157.727 55.0299L158.543 46.2459L156.623 46.3419V39.2859L172.559 40.5339L172.511 45.5259ZM207.316 47.7339L196.66 46.7739L196.084 54.1179L201.172 53.6859V66.2619L183.316 65.3019L182.692 55.2699L185.86 54.9819L185.236 45.7659L183.268 45.6219L183.124 47.3019L178.804 47.0139L177.988 32.4699L204.676 29.4939L207.316 47.7339Z" fill="black"/>
<path d="M114.022 48.0219L119.855 46.6168L118.455 40.8078L112.641 42.1829L114.022 48.0219ZM117.19 61.1739L120.268 66.3238L124.056 64.0593L123.023 59.7688L117.19 61.1739ZM108.31 65.1099L109.941 70.8837L109.962 70.8779L109.982 70.872L108.31 65.1099ZM92.2776 65.0619L90.0634 70.6384L90.0773 70.6439L90.0912 70.6493L92.2776 65.0619ZM87.1416 61.4139L82.4106 65.1041L82.4287 65.1273L82.447 65.1504L87.1416 61.4139ZM87.3336 51.3819L83.6122 46.6754L83.6122 46.6754L87.3336 51.3819ZM92.8536 49.1739L93.84 55.0922L111.852 52.0902L95.5697 43.8239L92.8536 49.1739ZM87.9096 45.2859L83.1213 48.9015L83.1627 48.9563L83.2053 49.0101L87.9096 45.2859ZM87.6696 34.5819L82.71 31.2051H82.71L87.6696 34.5819ZM91.8936 31.1739L89.5301 25.659V25.659L91.8936 31.1739ZM107.302 31.9899L104.986 37.525L111.817 40.3828L113.196 33.1079L107.302 31.9899ZM107.83 29.2059L109.184 23.3606L103.099 21.9511L101.935 28.0879L107.83 29.2059ZM116.326 31.1739L121.567 34.0934L125.447 27.1279L117.68 25.3286L116.326 31.1739ZM105.766 50.1339L102.249 54.9952L107.721 58.9538L111.007 53.0534L105.766 50.1339ZM101.734 47.6859L99.0503 53.0524L99.1387 53.0967L99.2286 53.1379L101.734 47.6859ZM104.182 49.7979L110.16 50.3067L110.582 45.3464L105.785 44.0161L104.182 49.7979ZM103.99 52.0539L103.843 58.0521L109.489 58.1898L109.968 52.5627L103.99 52.0539ZM102.022 52.0059L102.168 46.0077L102.095 46.0059H102.022V52.0059ZM99.1416 52.1979L100.443 58.055L100.443 58.055L99.1416 52.1979ZM98.4696 52.8219L104.088 50.7151L104.025 50.5481L103.952 50.385L98.4696 52.8219ZM103.03 52.7259L101.64 46.889H101.64L103.03 52.7259ZM107.158 51.3339L109.536 56.8423L113.764 55.0167L113.094 50.4609L107.158 51.3339ZM106.918 49.7019L105.537 43.8629L100.181 45.1296L100.981 50.5748L106.918 49.7019ZM114.022 48.0219L108.188 49.4269L111.356 62.5789L117.19 61.1739L123.023 59.7688L119.855 46.6168L114.022 48.0219ZM117.19 61.1739L114.111 56.024C111.561 57.5484 109.071 58.6412 106.637 59.3478L108.31 65.1099L109.982 70.872C113.501 69.8505 116.93 68.3194 120.268 66.3238L117.19 61.1739ZM108.31 65.1099L106.678 59.336C104.206 60.0345 101.908 60.3579 99.7656 60.3579V66.3579V72.3579C103.127 72.3579 106.525 71.8493 109.941 70.8837L108.31 65.1099ZM99.7656 66.3579V60.3579C97.6017 60.3579 95.8653 60.0228 94.464 59.4744L92.2776 65.0619L90.0912 70.6493C93.1059 71.829 96.3614 72.3579 99.7656 72.3579V66.3579ZM92.2776 65.0619L94.4918 59.4854C93.1238 58.9422 92.3296 58.2975 91.8361 57.6774L87.1416 61.4139L82.447 65.1504C84.4495 67.6663 87.0794 69.4536 90.0634 70.6384L92.2776 65.0619ZM87.1416 61.4139L91.8726 57.7237C91.4689 57.2062 91.2696 56.673 91.2696 55.8939H85.2696H79.2696C79.2696 59.2748 80.3182 62.4216 82.4106 65.1041L87.1416 61.4139ZM85.2696 55.8939H91.2696C91.2696 55.772 91.2805 55.7164 91.281 55.7139C91.281 55.7136 91.2724 55.755 91.2418 55.8218C91.2106 55.8899 91.1694 55.9567 91.1243 56.0134C91.08 56.069 91.05 56.0923 91.055 56.0884L87.3336 51.3819L83.6122 46.6754C80.6481 49.019 79.2696 52.3377 79.2696 55.8939H85.2696ZM87.3336 51.3819L91.055 56.0884C91.4161 55.8029 92.2161 55.3629 93.84 55.0922L92.8536 49.1739L91.8672 43.2555C88.8831 43.7529 86.0031 44.7849 83.6122 46.6754L87.3336 51.3819ZM92.8536 49.1739L95.5697 43.8239C94.1167 43.0862 93.1995 42.3015 92.6138 41.5617L87.9096 45.2859L83.2053 49.0101C85.0516 51.3423 87.4305 53.1496 90.1374 54.5239L92.8536 49.1739ZM87.9096 45.2859L92.6978 41.6703C92.3084 41.1546 92.1336 40.6507 92.1336 39.9579H86.1336H80.1336C80.1336 43.233 81.1427 46.2812 83.1213 48.9015L87.9096 45.2859ZM86.1336 39.9579H92.1336C92.1336 38.9044 92.3768 38.3294 92.6292 37.9586L87.6696 34.5819L82.71 31.2051C80.9144 33.8424 80.1336 36.8514 80.1336 39.9579H86.1336ZM87.6696 34.5819L92.6292 37.9586C92.9629 37.4685 93.438 37.0398 94.2571 36.6887L91.8936 31.1739L89.5301 25.659C86.7651 26.844 84.4243 28.6873 82.71 31.2051L87.6696 34.5819ZM91.8936 31.1739L94.2571 36.6887C95.1891 36.2893 96.3973 36.0219 97.9896 36.0219V30.0219V24.0219C95.0379 24.0219 92.1821 24.5224 89.5301 25.659L91.8936 31.1739ZM97.9896 30.0219V36.0219C100.186 36.0219 102.505 36.4871 104.986 37.525L107.302 31.9899L109.617 26.4548C105.826 24.8687 101.937 24.0219 97.9896 24.0219V30.0219ZM107.302 31.9899L113.196 33.1079L113.724 30.3239L107.83 29.2059L101.935 28.0879L101.407 30.8719L107.302 31.9899ZM107.83 29.2059L106.476 35.0511L114.972 37.0191L116.326 31.1739L117.68 25.3286L109.184 23.3606L107.83 29.2059ZM116.326 31.1739L111.084 28.2544L100.524 47.2144L105.766 50.1339L111.007 53.0534L121.567 34.0934L116.326 31.1739ZM105.766 50.1339L109.282 45.2725C107.583 44.0431 105.893 42.9938 104.239 42.2338L101.734 47.6859L99.2286 53.1379C99.9424 53.4659 100.94 54.0486 102.249 54.9952L105.766 50.1339ZM101.734 47.6859L104.417 42.3193C103.218 41.7198 101.247 40.8219 99.1416 40.8219V46.8219V52.8219C98.9656 52.8219 98.8194 52.811 98.7085 52.7987C98.5971 52.7863 98.5102 52.7712 98.4509 52.7594C98.3372 52.7366 98.2907 52.7188 98.3242 52.73C98.3545 52.7401 98.4312 52.7675 98.5601 52.8228C98.6874 52.8773 98.8498 52.9522 99.0503 53.0524L101.734 47.6859ZM99.1416 46.8219V40.8219C98.4672 40.8219 96.929 40.8954 95.393 41.8828C93.403 43.1621 92.4696 45.2669 92.4696 47.2539H98.4696H104.47C104.47 47.9672 104.327 48.8838 103.838 49.8268C103.339 50.7897 102.622 51.5012 101.882 51.9769C100.57 52.8204 99.3679 52.8219 99.1416 52.8219V46.8219ZM98.4696 47.2539H92.4696C92.4696 50.3785 94.6377 52.1141 95.1319 52.5004C95.9353 53.1283 96.8059 53.5611 97.4565 53.8508C98.8224 54.4592 100.593 55.0292 102.578 55.5797L104.182 49.7979L105.785 44.0161C103.962 43.5105 102.877 43.1286 102.339 42.8889C102.037 42.7547 102.194 42.7895 102.521 43.0453C102.692 43.1785 103.1 43.5187 103.502 44.1032C103.918 44.7082 104.47 45.792 104.47 47.2539H98.4696ZM104.182 49.7979L98.2032 49.2891L98.0112 51.5451L103.99 52.0539L109.968 52.5627L110.16 50.3067L104.182 49.7979ZM103.99 52.0539L104.136 46.0557L102.168 46.0077L102.022 52.0059L101.875 58.0041L103.843 58.0521L103.99 52.0539ZM102.022 52.0059V46.0059C100.651 46.0059 99.1138 46.0577 97.84 46.3408L99.1416 52.1979L100.443 58.055C100.308 58.085 100.353 58.0633 100.693 58.0406C100.999 58.0201 101.435 58.0059 102.022 58.0059V52.0059ZM99.1416 52.1979L97.84 46.3408C97.3159 46.4572 95.7903 46.8168 94.4589 48.0531C93.6704 48.7852 92.8501 49.9247 92.5489 51.4808C92.2513 53.0182 92.5803 54.3443 92.9867 55.2587L98.4696 52.8219L103.952 50.385C104.295 51.1555 104.604 52.3476 104.33 53.761C104.053 55.1931 103.301 56.2185 102.624 56.8466C101.998 57.4282 101.398 57.7154 101.099 57.8408C100.775 57.9768 100.533 58.035 100.443 58.055L99.1416 52.1979ZM98.4696 52.8219L92.8516 54.9286C93.8935 57.707 96.3037 58.6086 97.161 58.8627C98.1849 59.166 99.1494 59.2059 99.7656 59.2059V53.2059V47.2059C99.6138 47.2059 99.9783 47.1817 100.57 47.3571C100.995 47.4831 103.142 48.1927 104.088 50.7151L98.4696 52.8219ZM99.7656 53.2059V59.2059C101.271 59.2059 102.877 58.93 104.419 58.5627L103.03 52.7259L101.64 46.889C100.494 47.1617 99.924 47.2059 99.7656 47.2059V53.2059ZM103.03 52.7259L104.419 58.5627C106.136 58.1539 107.843 57.5734 109.536 56.8423L107.158 51.3339L104.779 45.8255C103.656 46.3104 102.611 46.6579 101.64 46.889L103.03 52.7259ZM107.158 51.3339L113.094 50.4609L112.854 48.8289L106.918 49.7019L100.981 50.5748L101.221 52.2068L107.158 51.3339ZM106.918 49.7019L108.298 55.5408L115.402 53.8608L114.022 48.0219L112.641 42.1829L105.537 43.8629L106.918 49.7019ZM142.921 49.3179L137.676 46.404L136.099 49.2426L137.613 52.1153L142.921 49.3179ZM144.793 52.8699L139.485 55.6673L140.67 57.9147L143.108 58.6283L144.793 52.8699ZM150.697 54.5979L156.693 54.3612L156.523 50.0511L152.383 48.8395L150.697 54.5979ZM151.129 65.5419L151.01 71.5407L157.376 71.6675L157.125 65.3052L151.129 65.5419ZM139.081 65.3019L133.673 67.9L135.271 71.2272L138.962 71.3007L139.081 65.3019ZM136.729 60.4059L142.138 57.8078L137.122 47.3661L131.487 57.4874L136.729 60.4059ZM134.137 65.0619L133.927 71.0582L137.595 71.1871L139.38 67.9803L134.137 65.0619ZM119.113 64.5339L113.144 63.9238L112.492 70.3049L118.903 70.5302L119.113 64.5339ZM120.889 47.1579V41.1579H115.471L114.92 46.5478L120.889 47.1579ZM126.793 47.1579V53.1579H129.991L131.774 50.504L126.793 47.1579ZM128.857 44.0859L133.838 47.432L135.762 44.5681L134.254 41.4645L128.857 44.0859ZM128.041 42.4059L133.438 39.7845L132.108 37.0447L129.111 36.5019L128.041 42.4059ZM121.945 41.3019L115.963 41.7586L116.315 46.3799L120.876 47.2058L121.945 41.3019ZM120.985 28.7259L121.438 22.743L114.471 22.2161L115.003 29.1826L120.985 28.7259ZM132.409 29.5899L137.695 26.7511L136.14 23.8549L132.862 23.607L132.409 29.5899ZM135.193 34.7739L129.907 37.6126L134.599 46.3491L140.161 38.139L135.193 34.7739ZM138.217 30.3099L137.768 24.3267L134.876 24.5439L133.25 26.9448L138.217 30.3099ZM152.281 29.2539L158.245 29.9165L159.043 22.7293L151.832 23.2707L152.281 29.2539ZM150.265 47.3979L149.587 53.3594L155.564 54.0397L156.229 48.0605L150.265 47.3979ZM144.361 46.7259L145.04 40.7644L141.061 40.3115L139.116 43.812L144.361 46.7259ZM142.921 49.3179L137.613 52.1153L139.485 55.6673L144.793 52.8699L150.101 50.0724L148.229 46.5204L142.921 49.3179ZM144.793 52.8699L143.108 58.6283L149.012 60.3563L150.697 54.5979L152.383 48.8395L146.479 47.1115L144.793 52.8699ZM150.697 54.5979L144.702 54.8345L145.134 65.7785L151.129 65.5419L157.125 65.3052L156.693 54.3612L150.697 54.5979ZM151.129 65.5419L151.249 59.5431L139.201 59.3031L139.081 65.3019L138.962 71.3007L151.01 71.5407L151.129 65.5419ZM139.081 65.3019L144.49 62.7038L142.138 57.8078L136.729 60.4059L131.321 63.004L133.673 67.9L139.081 65.3019ZM136.729 60.4059L131.487 57.4874L128.895 62.1434L134.137 65.0619L139.38 67.9803L141.972 63.3243L136.729 60.4059ZM134.137 65.0619L134.348 59.0656L119.324 58.5376L119.113 64.5339L118.903 70.5302L133.927 71.0582L134.137 65.0619ZM119.113 64.5339L125.082 65.144L126.858 47.768L120.889 47.1579L114.92 46.5478L113.144 63.9238L119.113 64.5339ZM120.889 47.1579V53.1579H126.793V47.1579V41.1579H120.889V47.1579ZM126.793 47.1579L131.774 50.504L133.838 47.432L128.857 44.0859L123.877 40.7397L121.813 43.8117L126.793 47.1579ZM128.857 44.0859L134.254 41.4645L133.438 39.7845L128.041 42.4059L122.644 45.0273L123.46 46.7073L128.857 44.0859ZM128.041 42.4059L129.111 36.5019L123.015 35.3979L121.945 41.3019L120.876 47.2058L126.972 48.3098L128.041 42.4059ZM121.945 41.3019L127.928 40.8452L126.968 28.2692L120.985 28.7259L115.003 29.1826L115.963 41.7586L121.945 41.3019ZM120.985 28.7259L120.533 34.7088L131.957 35.5728L132.409 29.5899L132.862 23.607L121.438 22.743L120.985 28.7259ZM132.409 29.5899L127.123 32.4286L129.907 37.6126L135.193 34.7739L140.479 31.9351L137.695 26.7511L132.409 29.5899ZM135.193 34.7739L140.161 38.139L143.185 33.675L138.217 30.3099L133.25 26.9448L130.226 31.4088L135.193 34.7739ZM138.217 30.3099L138.667 36.293L152.731 35.237L152.281 29.2539L151.832 23.2707L137.768 24.3267L138.217 30.3099ZM152.281 29.2539L146.318 28.5913L144.302 46.7353L150.265 47.3979L156.229 48.0605L158.245 29.9165L152.281 29.2539ZM150.265 47.3979L150.944 41.4364L145.04 40.7644L144.361 46.7259L143.683 52.6874L149.587 53.3594L150.265 47.3979ZM144.361 46.7259L139.116 43.812L137.676 46.404L142.921 49.3179L148.166 52.2317L149.606 49.6397L144.361 46.7259ZM165.695 28.5339L164.98 34.4911L165.03 34.4972L165.081 34.5024L165.695 28.5339ZM173.567 30.4059L170.921 35.7912L170.978 35.8189L171.035 35.8454L173.567 30.4059ZM176.063 34.5339L170.093 33.9268L170.087 33.9862L170.083 34.0457L176.063 34.5339ZM164.639 38.3739L163.967 44.3362L163.976 44.3372L164.639 38.3739ZM159.023 37.4619L157.598 43.2903L157.613 43.2938L157.627 43.2973L159.023 37.4619ZM155.519 35.8299L151.628 40.3973L151.669 40.4322L151.71 40.4662L155.519 35.8299ZM156.047 29.3019L158.949 34.5533L159.001 34.5244L159.053 34.4944L156.047 29.3019ZM172.511 45.5259L172.717 51.5223L178.455 51.3245L178.51 45.5836L172.511 45.5259ZM171.119 45.5739L170.912 39.5774L164.515 39.798L165.148 46.1674L171.119 45.5739ZM171.935 53.7819L165.964 54.3754L166.553 60.2959L172.478 59.7572L171.935 53.7819ZM174.047 53.5899H180.047V47.0197L173.503 47.6145L174.047 53.5899ZM174.047 66.1659L173.761 72.1591L180.047 72.4584V66.1659H174.047ZM155.903 65.3019L149.914 65.6744L150.248 71.0394L155.617 71.2951L155.903 65.3019ZM155.279 55.2699L154.693 49.2985L148.931 49.8635L149.29 55.6424L155.279 55.2699ZM157.727 55.0299L158.312 61.0013L163.243 60.5179L163.701 55.5849L157.727 55.0299ZM158.543 46.2459L164.517 46.8009L165.157 39.9077L158.243 40.2534L158.543 46.2459ZM156.623 46.3419H150.623V52.6494L156.922 52.3344L156.623 46.3419ZM156.623 39.2859L157.091 33.3042L150.623 32.7976V39.2859H156.623ZM172.559 40.5339L178.558 40.5916L178.612 34.9896L173.027 34.5522L172.559 40.5339ZM165.695 28.5339L165.081 34.5024C168.219 34.825 170.027 35.3521 170.921 35.7912L173.567 30.4059L176.212 25.0205C173.458 23.6677 170.019 22.9468 166.308 22.5653L165.695 28.5339ZM173.567 30.4059L171.035 35.8454C171.177 35.9115 170.797 35.7678 170.448 35.1904C170.075 34.5734 170.082 34.0365 170.093 33.9268L176.063 34.5339L182.032 35.1409C182.235 33.1433 181.922 30.9743 180.717 28.9814C179.536 27.0279 177.813 25.7643 176.099 24.9664L173.567 30.4059ZM176.063 34.5339L170.083 34.0457C170.073 34.1678 170.07 33.9309 170.294 33.5408C170.545 33.1035 170.927 32.7425 171.328 32.5248L174.191 37.7979L177.053 43.071C180.383 41.2634 181.794 38.0681 182.043 35.0221L176.063 34.5339ZM174.191 37.7979L171.328 32.5248C171.423 32.4732 171.36 32.528 171.033 32.5916C170.708 32.6546 170.206 32.7099 169.487 32.7099V38.7099V44.7099C171.978 44.7099 174.687 44.3557 177.053 43.071L174.191 37.7979ZM169.487 38.7099V32.7099C168.589 32.7099 167.222 32.6239 165.301 32.4106L164.639 38.3739L163.976 44.3372C166.088 44.5718 167.952 44.7099 169.487 44.7099V38.7099ZM164.639 38.3739L165.311 32.4116C163.173 32.1707 161.564 31.9005 160.418 31.6264L159.023 37.4619L157.627 43.2973C159.425 43.7272 161.561 44.065 163.967 44.3361L164.639 38.3739ZM159.023 37.4619L160.447 31.6335C159.646 31.4376 159.362 31.2224 159.327 31.1935L155.519 35.8299L151.71 40.4662C153.467 41.9093 155.519 42.7822 157.598 43.2903L159.023 37.4619ZM155.519 35.8299L159.409 31.2624C159.656 31.4725 159.9 31.7823 160.062 32.1584C160.215 32.5155 160.223 32.7676 160.223 32.8059H154.223H148.223C148.223 35.5923 149.245 38.3677 151.628 40.3973L155.519 35.8299ZM154.223 32.8059H160.223C160.223 32.6901 160.244 32.9847 160.001 33.4523C159.729 33.9745 159.314 34.3515 158.949 34.5533L156.047 29.3019L153.145 24.0504C149.606 26.0061 148.223 29.4724 148.223 32.8059H154.223ZM156.047 29.3019L159.053 34.4944C158.985 34.5336 159.08 34.4633 159.451 34.3869C159.822 34.3107 160.384 34.2459 161.183 34.2459V28.2459V22.2459C158.467 22.2459 155.55 22.6566 153.04 24.1093L156.047 29.3019ZM161.183 28.2459V34.2459C162.321 34.2459 163.584 34.3236 164.98 34.4911L165.695 28.5339L166.41 22.5766C164.605 22.3601 162.861 22.2459 161.183 22.2459V28.2459ZM172.511 45.5259L172.304 39.5294L170.912 39.5774L171.119 45.5739L171.325 51.5703L172.717 51.5223L172.511 45.5259ZM171.119 45.5739L165.148 46.1674L165.964 54.3754L171.935 53.7819L177.905 53.1883L177.089 44.9803L171.119 45.5739ZM171.935 53.7819L172.478 59.7572L174.59 59.5652L174.047 53.5899L173.503 47.6145L171.391 47.8065L171.935 53.7819ZM174.047 53.5899H168.047V66.1659H174.047H180.047V53.5899H174.047ZM174.047 66.1659L174.332 60.1727L156.188 59.3087L155.903 65.3019L155.617 71.2951L173.761 72.1591L174.047 66.1659ZM155.903 65.3019L161.891 64.9294L161.267 54.8974L155.279 55.2699L149.29 55.6424L149.914 65.6744L155.903 65.3019ZM155.279 55.2699L155.864 61.2412L158.312 61.0013L157.727 55.0299L157.141 49.0585L154.693 49.2985L155.279 55.2699ZM157.727 55.0299L163.701 55.5849L164.517 46.8009L158.543 46.2459L152.568 45.6909L151.752 54.4749L157.727 55.0299ZM158.543 46.2459L158.243 40.2534L156.323 40.3494L156.623 46.3419L156.922 52.3344L158.842 52.2384L158.543 46.2459ZM156.623 46.3419H162.623V39.2859H156.623H150.623V46.3419H156.623ZM156.623 39.2859L156.154 45.2676L172.09 46.5156L172.559 40.5339L173.027 34.5522L157.091 33.3042L156.623 39.2859ZM172.559 40.5339L166.559 40.4762L166.511 45.4682L172.511 45.5259L178.51 45.5836L178.558 40.5916L172.559 40.5339ZM207.316 47.7339L206.778 53.7097L214.342 54.3912L213.254 46.8744L207.316 47.7339ZM196.66 46.7739L197.199 40.7981L191.153 40.2535L190.679 46.3047L196.66 46.7739ZM196.084 54.1179L190.103 53.6487L189.55 60.6943L196.592 60.0964L196.084 54.1179ZM201.172 53.6859H207.172V47.1549L200.665 47.7074L201.172 53.6859ZM201.172 66.2619L200.85 72.2532L207.172 72.5931V66.2619H201.172ZM183.316 65.3019L177.328 65.6744L177.66 71.0064L182.994 71.2932L183.316 65.3019ZM182.692 55.2699L182.149 49.2945L176.342 49.8224L176.704 55.6424L182.692 55.2699ZM185.86 54.9819L186.404 60.9572L192.243 60.4264L191.847 54.5766L185.86 54.9819ZM185.236 45.7659L191.223 45.3606L190.871 40.1621L185.674 39.7819L185.236 45.7659ZM183.268 45.6219L183.706 39.6379L177.796 39.2054L177.29 45.1095L183.268 45.6219ZM183.124 47.3019L182.725 53.2886L188.6 53.6802L189.102 47.8143L183.124 47.3019ZM178.804 47.0139L172.814 47.35L173.111 52.6476L178.405 53.0006L178.804 47.0139ZM177.988 32.4699L177.323 26.5068L171.68 27.1362L171.998 32.806L177.988 32.4699ZM204.676 29.4939L210.614 28.6344L209.783 22.8873L204.011 23.5308L204.676 29.4939ZM207.316 47.7339L207.855 41.7581L197.199 40.7981L196.66 46.7739L196.122 52.7497L206.778 53.7097L207.316 47.7339ZM196.66 46.7739L190.679 46.3047L190.103 53.6487L196.084 54.1179L202.066 54.587L202.642 47.243L196.66 46.7739ZM196.084 54.1179L196.592 60.0964L201.68 59.6644L201.172 53.6859L200.665 47.7074L195.577 48.1394L196.084 54.1179ZM201.172 53.6859H195.172V66.2619H201.172H207.172V53.6859H201.172ZM201.172 66.2619L201.494 60.2705L183.638 59.3105L183.316 65.3019L182.994 71.2932L200.85 72.2532L201.172 66.2619ZM183.316 65.3019L189.305 64.9294L188.681 54.8974L182.692 55.2699L176.704 55.6424L177.328 65.6744L183.316 65.3019ZM182.692 55.2699L183.236 61.2452L186.404 60.9572L185.86 54.9819L185.317 49.0065L182.149 49.2945L182.692 55.2699ZM185.86 54.9819L191.847 54.5766L191.223 45.3606L185.236 45.7659L179.25 46.1712L179.874 55.3872L185.86 54.9819ZM185.236 45.7659L185.674 39.7819L183.706 39.6379L183.268 45.6219L182.83 51.6059L184.798 51.7499L185.236 45.7659ZM183.268 45.6219L177.29 45.1095L177.146 46.7895L183.124 47.3019L189.102 47.8143L189.246 46.1343L183.268 45.6219ZM183.124 47.3019L183.523 41.3152L179.203 41.0272L178.804 47.0139L178.405 53.0006L182.725 53.2886L183.124 47.3019ZM178.804 47.0139L184.795 46.6778L183.979 32.1338L177.988 32.4699L171.998 32.806L172.814 47.35L178.804 47.0139ZM177.988 32.4699L178.653 38.4329L205.341 35.4569L204.676 29.4939L204.011 23.5308L177.323 26.5068L177.988 32.4699ZM204.676 29.4939L198.738 30.3533L201.378 48.5933L207.316 47.7339L213.254 46.8744L210.614 28.6344L204.676 29.4939Z" fill="white" mask="url(#path-4-outside-1_244_1948)"/>
</svg>
