<svg width="79" height="79" viewBox="0 0 79 79" fill="none" xmlns="http://www.w3.org/2000/svg">
<path d="M18.4647 19.4049C18.613 18.6458 19.1857 18.0402 19.9353 17.8498L33.8222 14.3229L45.708 11.4611C46.3402 11.3089 47.0069 11.4735 47.4956 11.9024L57.9345 21.0655L67.0636 31.4658C67.5113 31.9758 67.6698 32.6781 67.4846 33.331L64.3471 44.3907L61.0307 59.4212C60.9083 59.9757 60.556 60.4521 60.0616 60.7315L54.9633 63.6125C54.7551 63.7302 54.5275 63.8095 54.2913 63.8468L33.6863 67.1005C33.1398 67.1868 32.5821 67.0429 32.1456 66.703L21.8858 58.7139C21.7627 58.6181 21.6513 58.5083 21.5538 58.3866L12.4248 46.9946C12.0115 46.4788 11.8797 45.7922 12.0727 45.16L15.8553 32.767L18.4647 19.4049Z" fill="#F3F3F3"/>
<g filter="url(#filter0_d_354_2186)">
<path d="M17.8395 19.9249C17.9969 19.1959 18.5468 18.615 19.2661 18.418L32.3496 14.8336L43.4827 11.929C44.1229 11.7619 44.8043 11.9223 45.3027 12.3573L54.8297 20.672L63.111 30.1607C63.5643 30.6802 63.7182 31.3965 63.518 32.0563L60.3743 42.4205L56.9637 56.5736C56.8356 57.1053 56.4953 57.5613 56.0222 57.8355L51.1913 60.6352C50.9898 60.752 50.7696 60.8326 50.5404 60.8736L31.2238 64.327C30.669 64.4262 30.0981 64.2867 29.6516 63.9428L20.2829 56.7283C20.154 56.629 20.0377 56.5143 19.9365 56.3869L11.6858 45.9893C11.2693 45.4645 11.1433 44.766 11.3501 44.1287L15.1261 32.4951L17.8395 19.9249Z" fill="#6E6E6E"/>
</g>
<mask id="path-3-inside-1_354_2186" fill="white">
<path d="M41.0518 22.4893C41.6278 21.7104 42.864 22.1237 42.8558 23.0924L42.7771 32.3816C42.7735 32.8148 43.0492 33.2011 43.4601 33.3385L52.2704 36.2838C53.1891 36.5909 53.1781 37.8943 52.2543 38.1859L43.3954 40.9816C42.9822 41.112 42.7 41.4936 42.6963 41.9268L42.6177 51.216C42.6095 52.1847 41.3665 52.577 40.8038 51.7885L35.4073 44.2271C35.1556 43.8745 34.7055 43.724 34.2924 43.8544L25.4335 46.6501C24.5097 46.9417 23.7525 45.8808 24.3285 45.1019L29.8522 37.6329C30.1098 37.2846 30.1138 36.81 29.8622 36.4574L24.4657 28.896C23.903 28.1075 24.678 27.0596 25.5967 27.3667L34.407 30.312C34.8179 30.4494 35.2705 30.3066 35.5281 29.9582L41.0518 22.4893Z"/>
</mask>
<path d="M41.0518 22.4893C41.6278 21.7104 42.864 22.1237 42.8558 23.0924L42.7771 32.3816C42.7735 32.8148 43.0492 33.2011 43.4601 33.3385L52.2704 36.2838C53.1891 36.5909 53.1781 37.8943 52.2543 38.1859L43.3954 40.9816C42.9822 41.112 42.7 41.4936 42.6963 41.9268L42.6177 51.216C42.6095 52.1847 41.3665 52.577 40.8038 51.7885L35.4073 44.2271C35.1556 43.8745 34.7055 43.724 34.2924 43.8544L25.4335 46.6501C24.5097 46.9417 23.7525 45.8808 24.3285 45.1019L29.8522 37.6329C30.1098 37.2846 30.1138 36.81 29.8622 36.4574L24.4657 28.896C23.903 28.1075 24.678 27.0596 25.5967 27.3667L34.407 30.312C34.8179 30.4494 35.2705 30.3066 35.5281 29.9582L41.0518 22.4893Z" fill="#D9D9D9"/>
<path d="M43.3558 23.0966C43.0224 23.0938 42.6891 23.091 42.3558 23.0881C42.3817 24.9513 42.405 26.8144 42.4257 28.6775C42.4394 29.9114 42.4519 31.1452 42.4633 32.379C42.459 32.9338 42.8461 33.4565 43.3675 33.6154C46.321 34.5469 49.2723 35.4853 52.2213 36.4306C52.9804 36.6098 52.9994 37.8657 52.2166 38.0666C49.2741 39.0316 46.3294 39.9897 43.3825 40.9409C42.9619 41.0704 42.6567 41.4899 42.6615 41.9265C42.6536 45.0231 42.6384 48.1196 42.6161 51.216C42.6724 52.1362 41.288 52.5747 40.8038 51.7885C40.8038 51.7885 40.8038 51.7885 40.8038 51.7885C39.005 49.268 37.2599 46.7092 35.5462 44.128C35.2769 43.7142 34.7201 43.5035 34.2277 43.6492C31.2402 44.4719 28.2423 45.2613 25.2421 46.0437C24.9113 46.1219 24.7463 45.67 24.9433 45.5565C26.9123 43.1614 28.8812 40.7662 30.8281 38.3547C31.4081 37.6221 31.4446 36.5042 30.8923 35.7222C29.194 33.13 27.4704 30.5559 25.6991 28.0158C25.8153 28.1339 25.8245 28.5002 25.7023 28.6277C25.6204 28.7846 25.2658 28.8912 25.1119 28.8171C25.1119 28.8171 25.1119 28.8171 25.1119 28.8171C28.0486 29.7988 31.0042 30.7244 33.9785 31.5938C34.9221 31.9055 36.0219 31.5303 36.5735 30.7313C37.7338 29.0109 38.8728 27.2746 39.9904 25.5226C40.5421 24.6578 41.0885 23.7892 41.6298 22.9167C41.6714 22.6432 42.2916 22.6208 42.3558 23.0881C42.6891 23.091 43.0224 23.0938 43.3558 23.0966C43.5607 21.7231 41.4267 20.78 40.4738 22.0618C39.7981 22.8349 39.1276 23.6118 38.4623 24.3925C37.1144 25.9742 35.7879 27.5718 34.4827 29.1851C34.5417 29.0715 34.6888 28.9969 34.8355 29.0302C31.9363 27.9361 29.0183 26.8981 26.0816 25.9164C26.0816 25.9164 26.0816 25.9164 26.0816 25.9164C23.9054 25.054 21.7686 27.967 23.2323 29.7763C25.0587 32.2771 26.9327 34.7439 28.832 37.1926C28.7793 37.0909 28.8074 36.972 28.8763 36.9112C27.1407 39.479 25.4272 42.0631 23.7138 44.6472C22.7148 45.9403 24.2368 47.8522 25.6249 47.2566C28.5306 46.1751 31.4386 45.1007 34.3571 44.0595C34.666 43.9404 35.0568 44.0465 35.2684 44.3262C37.1524 46.7859 39.005 49.268 40.8038 51.7885C40.8038 51.7885 40.8038 51.7885 40.8038 51.7885C41.2876 52.5743 42.6727 52.1388 42.6193 51.216C42.6494 48.1197 42.6867 45.0233 42.7312 41.9271C42.7317 41.5197 43.0206 41.1359 43.4082 41.0223C46.3673 40.1097 49.3285 39.204 52.2919 38.3051C53.3033 38.0711 53.3469 36.4231 52.3194 36.137C49.3949 35.1187 46.4726 34.0936 43.5526 33.0616C43.2701 32.9637 43.0768 32.6732 43.0909 32.3843C43.1232 31.1508 43.1567 29.9174 43.1913 28.684C43.2435 26.8215 43.2983 24.959 43.3558 23.0966ZM42.3558 23.0881L43.3558 23.0966L42.3558 23.0881Z" fill="#585858" mask="url(#path-3-inside-1_354_2186)"/>
<path d="M46.0417 11.4907C35.2358 13.6694 29.1859 15.0942 18.4437 18.9681C16.0667 27.0447 11.2328 43.7897 11.1023 44.5269C11.0057 45.0729 14.9306 51.1899 19.8032 56.6265C24.6758 62.063 27.1423 63.3262 33.1264 67.5025L55.4223 63.6959L60.9963 60.4331C63.9284 49.6946 65.2975 43.5136 67.386 32.2913C60.9082 23.3822 56.28 18.7885 46.0417 11.4907Z" stroke="white" stroke-width="2"/>
<defs>
<filter id="filter0_d_354_2186" x="11.2524" y="11.8643" width="54.9518" height="54.0941" filterUnits="userSpaceOnUse" color-interpolation-filters="sRGB">
<feFlood flood-opacity="0" result="BackgroundImageFix"/>
<feColorMatrix in="SourceAlpha" type="matrix" values="0 0 0 0 0 0 0 0 0 0 0 0 0 0 0 0 0 0 127 0" result="hardAlpha"/>
<feOffset dx="2" dy="1"/>
<feGaussianBlur stdDeviation="0.3"/>
<feComposite in2="hardAlpha" operator="out"/>
<feColorMatrix type="matrix" values="0 0 0 0 0 0 0 0 0 0 0 0 0 0 0 0 0 0 0.39 0"/>
<feBlend mode="normal" in2="BackgroundImageFix" result="effect1_dropShadow_354_2186"/>
<feBlend mode="normal" in="SourceGraphic" in2="effect1_dropShadow_354_2186" result="shape"/>
</filter>
</defs>
</svg>
