<svg width="282" height="282" viewBox="0 0 282 282" fill="none" xmlns="http://www.w3.org/2000/svg">
<circle cx="140.999" cy="140.999" r="135.499" stroke="#0059FF" stroke-width="11"/>
<circle cx="140.999" cy="140.999" r="122.847" stroke="#0059FF" stroke-width="5"/>
<path d="M192.266 149.025C194.776 158.395 193.472 166.664 188.353 173.833C183.331 180.976 173.947 187.684 160.202 193.955L162.896 200.532L119.419 211.56L118.709 208.334C116.127 209.129 112.035 210.277 106.433 211.779L89.4297 165.709L107.396 160.895L102.346 139.731L94.7447 142.079L74.4753 111.637L94.0353 106.396L94.47 106.28L93.062 100.446L117.372 92.0682L120.744 100.016C132.42 97.6124 141.955 96.2998 149.35 96.0784C156.744 95.857 162.572 96.9354 166.833 99.3137C171.068 101.595 173.897 105.393 175.32 110.705C177.287 118.046 173.998 125.088 165.451 131.829C172.924 131.898 178.855 133.362 183.245 136.224C187.706 138.962 190.713 143.23 192.266 149.025ZM133.332 130.186L135.492 135.353C140.148 133.795 143.28 132.542 144.889 131.593C146.473 130.547 147.122 129.493 146.837 128.431C146.63 127.658 145.957 127.269 144.817 127.264C143.676 127.259 141.622 127.706 138.654 128.605L133.332 130.186ZM142.275 151.394C146.667 150.01 149.847 148.744 151.817 147.595C153.761 146.35 154.468 145.125 153.939 143.921C153.383 142.62 150.98 142.54 146.73 143.678C144.991 144.144 142.76 144.897 140.037 145.938L142.275 151.394Z" fill="#015AFF"/>
</svg>
