<svg width="282" height="282" viewBox="0 0 282 282" fill="none" xmlns="http://www.w3.org/2000/svg">
<circle cx="140.999" cy="140.999" r="135.499" stroke="#006215" stroke-width="11"/>
<circle cx="140.999" cy="140.999" r="122.847" stroke="#006215" stroke-width="5"/>
<path d="M194.784 178.321C187.423 184.849 179.909 190.227 172.242 194.456C164.601 198.781 157.11 201.927 149.769 203.894C141.462 206.119 133.784 206.831 126.736 206.028C119.662 205.128 113.691 202.742 108.823 198.87C104.052 194.972 100.799 189.787 99.065 183.316C95.9333 171.628 96.3247 159.566 100.239 147.129C104.224 134.569 110.681 122.538 119.608 111.036L111.335 101.606L163.417 78.6435L172.937 129.823L150.812 146.933L145.877 141.267C143.609 146.326 142.76 149.918 143.33 152.043C143.795 153.782 145.236 154.328 147.651 153.681C153.736 152.05 163.394 145.787 176.625 134.892L194.784 178.321Z" fill="#186600"/>
</svg>
