<svg width="282" height="282" viewBox="0 0 282 282" fill="none" xmlns="http://www.w3.org/2000/svg">
<circle cx="140.999" cy="140.999" r="135.499" stroke="#520088" stroke-width="11"/>
<circle cx="140.999" cy="140.999" r="122.847" stroke="#520088" stroke-width="5"/>
<mask id="path-3-outside-1_203_1440" maskUnits="userSpaceOnUse" x="70.5685" y="75.6732" width="134.154" height="142.639" fill="black">
<rect fill="white" x="70.5685" y="75.6732" width="134.154" height="142.639"/>
<path d="M121.878 102.508C141.11 100.874 156.299 103.275 167.444 109.71C178.686 116.118 186.468 127.388 190.79 143.519C194 155.497 192.437 165.699 186.102 174.126C179.838 182.43 170.461 189.549 157.971 195.484C145.456 201.322 128.535 207.72 107.209 214.676L90.2062 168.607L108.028 163.832L103.211 143.537C100.815 143.869 97.0537 144.514 91.9274 145.473L74.4753 111.637C81.43 109.774 88.1337 108.133 94.5864 106.715L93.062 100.446L117.372 92.0682L121.878 102.508ZM143.737 153.953C148.006 152.499 151.026 151.017 152.795 149.507C154.565 147.998 155.191 146.277 154.673 144.345C153.768 140.964 148.065 139.387 137.565 139.612L143.737 153.953Z"/>
</mask>
<path d="M121.878 102.508C141.11 100.874 156.299 103.275 167.444 109.71C178.686 116.118 186.468 127.388 190.79 143.519C194 155.497 192.437 165.699 186.102 174.126C179.838 182.43 170.461 189.549 157.971 195.484C145.456 201.322 128.535 207.72 107.209 214.676L90.2062 168.607L108.028 163.832L103.211 143.537C100.815 143.869 97.0537 144.514 91.9274 145.473L74.4753 111.637C81.43 109.774 88.1337 108.133 94.5864 106.715L93.062 100.446L117.372 92.0682L121.878 102.508ZM143.737 153.953C148.006 152.499 151.026 151.017 152.795 149.507C154.565 147.998 155.191 146.277 154.673 144.345C153.768 140.964 148.065 139.387 137.565 139.612L143.737 153.953Z" fill="#4A0379"/>
<path d="M121.878 102.508L120.959 102.904L121.245 103.565L121.962 103.504L121.878 102.508ZM167.444 109.71L166.944 110.576L166.949 110.578L167.444 109.71ZM186.102 174.126L186.9 174.728L186.901 174.726L186.102 174.126ZM157.971 195.484L158.394 196.39L158.401 196.387L157.971 195.484ZM107.209 214.676L106.271 215.023L106.604 215.925L107.519 215.627L107.209 214.676ZM90.2062 168.607L89.9474 167.641L88.8885 167.925L89.268 168.953L90.2062 168.607ZM108.028 163.832L108.286 164.798L109.225 164.546L109 163.601L108.028 163.832ZM103.211 143.537L104.184 143.306L103.974 142.422L103.074 142.547L103.211 143.537ZM91.9274 145.473L91.0386 145.932L91.3798 146.593L92.1114 146.456L91.9274 145.473ZM74.4753 111.637L74.2165 110.672L73.0176 110.993L73.5866 112.096L74.4753 111.637ZM94.5864 106.715L94.8011 107.691L95.7997 107.472L95.5581 106.478L94.5864 106.715ZM93.062 100.446L92.7361 99.5001L91.8751 99.7968L92.0903 100.682L93.062 100.446ZM117.372 92.0682L118.29 91.6719L117.923 90.8206L117.046 91.1227L117.372 92.0682ZM143.737 153.953L142.819 154.348L143.184 155.198L144.06 154.9L143.737 153.953ZM152.795 149.507L153.444 150.268L153.444 150.268L152.795 149.507ZM137.565 139.612L137.544 138.612L136.06 138.644L136.647 140.007L137.565 139.612ZM121.878 102.508L121.962 103.504C141.087 101.88 156.044 104.283 166.944 110.576L167.444 109.71L167.944 108.844C156.554 102.267 141.133 99.8688 121.793 101.511L121.878 102.508ZM167.444 109.71L166.949 110.578C177.897 116.819 185.55 127.827 189.824 143.778L190.79 143.519L191.756 143.26C187.386 126.95 179.475 115.417 167.939 108.841L167.444 109.71ZM190.79 143.519L189.824 143.778C192.97 155.517 191.419 165.389 185.303 173.525L186.102 174.126L186.901 174.726C193.455 166.009 195.029 155.476 191.756 143.26L190.79 143.519ZM186.102 174.126L185.304 173.523C179.163 181.664 169.932 188.693 157.542 194.581L157.971 195.484L158.401 196.387C170.99 190.405 180.513 183.196 186.9 174.728L186.102 174.126ZM157.971 195.484L157.549 194.578C145.085 200.392 128.207 206.775 106.899 213.726L107.209 214.676L107.519 215.627C128.863 208.664 145.827 202.253 158.394 196.39L157.971 195.484ZM107.209 214.676L108.147 214.33L91.1443 168.261L90.2062 168.607L89.268 168.953L106.271 215.023L107.209 214.676ZM90.2062 168.607L90.465 169.573L108.286 164.798L108.028 163.832L107.769 162.866L89.9474 167.641L90.2062 168.607ZM108.028 163.832L109 163.601L104.184 143.306L103.211 143.537L102.238 143.768L107.055 164.063L108.028 163.832ZM103.211 143.537L103.074 142.547C100.653 142.881 96.8718 143.531 91.7434 144.491L91.9274 145.473L92.1114 146.456C97.2356 145.497 100.977 144.856 103.348 144.528L103.211 143.537ZM91.9274 145.473L92.8161 145.015L75.3641 111.179L74.4753 111.637L73.5866 112.096L91.0386 145.932L91.9274 145.473ZM74.4753 111.637L74.7341 112.603C81.6755 110.743 88.3644 109.106 94.8011 107.691L94.5864 106.715L94.3718 105.738C87.903 107.16 81.1845 108.804 74.2165 110.672L74.4753 111.637ZM94.5864 106.715L95.5581 106.478L94.0336 100.209L93.062 100.446L92.0903 100.682L93.6148 106.951L94.5864 106.715ZM93.062 100.446L93.3878 101.391L117.698 93.0136L117.372 92.0682L117.046 91.1227L92.7361 99.5001L93.062 100.446ZM117.372 92.0682L116.454 92.4644L120.959 102.904L121.878 102.508L122.796 102.112L118.29 91.6719L117.372 92.0682ZM143.737 153.953L144.06 154.9C148.358 153.435 151.526 151.905 153.444 150.268L152.795 149.507L152.146 148.746C150.526 150.129 147.655 151.562 143.415 153.006L143.737 153.953ZM152.795 149.507L153.444 150.268C154.426 149.431 155.146 148.487 155.532 147.426C155.921 146.355 155.946 145.231 155.639 144.086L154.673 144.345L153.707 144.604C153.918 145.391 153.889 146.093 153.652 146.743C153.412 147.402 152.935 148.074 152.146 148.746L152.795 149.507ZM154.673 144.345L155.639 144.086C155.044 141.866 152.934 140.479 149.984 139.662C146.993 138.835 142.828 138.499 137.544 138.612L137.565 139.612L137.587 140.612C142.802 140.5 146.738 140.84 149.45 141.59C152.203 142.352 153.397 143.444 153.707 144.604L154.673 144.345ZM137.565 139.612L136.647 140.007L142.819 154.348L143.737 153.953L144.656 153.558L138.484 139.216L137.565 139.612Z" fill="#520088" mask="url(#path-3-outside-1_203_1440)"/>
</svg>
