<svg width="282" height="282" viewBox="0 0 282 282" fill="none" xmlns="http://www.w3.org/2000/svg">
<circle cx="140.999" cy="140.999" r="135.499" stroke="#515151" stroke-width="11"/>
<circle cx="140.999" cy="140.999" r="122.847" stroke="#515151" stroke-width="5"/>
<mask id="path-3-outside-1_203_1445" maskUnits="userSpaceOnUse" x="75.1393" y="75.7425" width="128.825" height="152.866" fill="black">
<rect fill="white" x="75.1393" y="75.7425" width="128.825" height="152.866"/>
<path d="M148.068 173.757L151.897 176.458L172.648 172.761L180.071 207.421L111.851 211.88L112.319 183.491L127.013 180.952L122.854 178.184L106.712 181.111L103.086 171.057L109.963 168.904C103.619 163.771 98.4237 158.485 94.3783 153.047C90.4296 147.583 87.6011 141.663 85.8929 135.288C84.2105 129.01 84.3066 123.186 86.1811 117.818C88.0557 112.45 91.3869 107.882 96.1749 104.115C100.963 100.347 106.786 97.5446 113.644 95.707C122.917 93.2224 132.817 92.692 143.344 94.1158L142.686 85.2852L169.923 84.354L163.163 151.854L147.308 152.375L147.051 147.94C139.808 145.637 134.545 144.925 131.261 145.805C130.101 146.115 129.332 146.528 128.953 147.044C127.93 148.25 127.742 150.06 128.389 152.475C129.14 155.276 130.986 158.302 133.927 161.551L153.293 155.585L159.167 171.715L148.068 173.757Z"/>
</mask>
<path d="M148.068 173.757L151.897 176.458L172.648 172.761L180.071 207.421L111.851 211.88L112.319 183.491L127.013 180.952L122.854 178.184L106.712 181.111L103.086 171.057L109.963 168.904C103.619 163.771 98.4237 158.485 94.3783 153.047C90.4296 147.583 87.6011 141.663 85.8929 135.288C84.2105 129.01 84.3066 123.186 86.1811 117.818C88.0557 112.45 91.3869 107.882 96.1749 104.115C100.963 100.347 106.786 97.5446 113.644 95.707C122.917 93.2224 132.817 92.692 143.344 94.1158L142.686 85.2852L169.923 84.354L163.163 151.854L147.308 152.375L147.051 147.94C139.808 145.637 134.545 144.925 131.261 145.805C130.101 146.115 129.332 146.528 128.953 147.044C127.93 148.25 127.742 150.06 128.389 152.475C129.14 155.276 130.986 158.302 133.927 161.551L153.293 155.585L159.167 171.715L148.068 173.757Z" fill="#363636"/>
<path d="M148.068 173.757L147.887 172.773L145.548 173.204L147.492 174.574L148.068 173.757ZM151.897 176.458L151.321 177.275L151.662 177.516L152.073 177.442L151.897 176.458ZM172.648 172.761L173.626 172.552L173.423 171.607L172.472 171.777L172.648 172.761ZM180.071 207.421L180.136 208.419L181.291 208.343L181.049 207.212L180.071 207.421ZM111.851 211.88L110.851 211.863L110.833 212.948L111.916 212.878L111.851 211.88ZM112.319 183.491L112.149 182.506L111.333 182.647L111.319 183.475L112.319 183.491ZM127.013 180.952L127.183 181.937L129.655 181.51L127.567 180.119L127.013 180.952ZM122.854 178.184L123.409 177.351L123.073 177.128L122.676 177.2L122.854 178.184ZM106.712 181.111L105.771 181.45L106.058 182.246L106.891 182.095L106.712 181.111ZM103.086 171.057L102.788 170.103L101.792 170.415L102.146 171.396L103.086 171.057ZM109.963 168.904L110.262 169.858L112.044 169.3L110.592 168.126L109.963 168.904ZM94.3783 153.047L93.5678 153.633L93.576 153.644L94.3783 153.047ZM86.1811 117.818L85.237 117.489V117.489L86.1811 117.818ZM96.1749 104.115L95.5566 103.329V103.329L96.1749 104.115ZM143.344 94.1158L143.21 95.1068L144.433 95.2722L144.341 94.0415L143.344 94.1158ZM142.686 85.2852L142.652 84.2858L141.612 84.3214L141.689 85.3595L142.686 85.2852ZM169.923 84.354L170.918 84.4537L171.032 83.3155L169.889 83.3546L169.923 84.354ZM163.163 151.854L163.196 152.853L164.071 152.824L164.158 151.953L163.163 151.854ZM147.308 152.375L146.31 152.433L146.366 153.407L147.341 153.375L147.308 152.375ZM147.051 147.94L148.05 147.883L148.01 147.196L147.355 146.987L147.051 147.94ZM128.953 147.044L129.715 147.691L129.738 147.665L129.758 147.637L128.953 147.044ZM133.927 161.551L133.185 162.222L133.613 162.694L134.221 162.507L133.927 161.551ZM153.293 155.585L154.232 155.243L153.907 154.35L152.998 154.63L153.293 155.585ZM159.167 171.715L159.348 172.698L160.512 172.484L160.107 171.372L159.167 171.715ZM148.068 173.757L147.492 174.574L151.321 177.275L151.897 176.458L152.474 175.641L148.644 172.94L148.068 173.757ZM151.897 176.458L152.073 177.442L172.823 173.746L172.648 172.761L172.472 171.777L151.722 175.473L151.897 176.458ZM172.648 172.761L171.67 172.971L179.093 207.63L180.071 207.421L181.049 207.212L173.626 172.552L172.648 172.761ZM180.071 207.421L180.006 206.423L111.785 210.882L111.851 211.88L111.916 212.878L180.136 208.419L180.071 207.421ZM111.851 211.88L112.851 211.896L113.319 183.508L112.319 183.491L111.319 183.475L110.851 211.863L111.851 211.88ZM112.319 183.491L112.489 184.477L127.183 181.937L127.013 180.952L126.842 179.966L112.149 182.506L112.319 183.491ZM127.013 180.952L127.567 180.119L123.409 177.351L122.854 178.184L122.3 179.016L126.458 181.784L127.013 180.952ZM122.854 178.184L122.676 177.2L106.534 180.127L106.712 181.111L106.891 182.095L123.033 179.167L122.854 178.184ZM106.712 181.111L107.653 180.772L104.027 170.718L103.086 171.057L102.146 171.396L105.771 181.45L106.712 181.111ZM103.086 171.057L103.385 172.011L110.262 169.858L109.963 168.904L109.665 167.949L102.788 170.103L103.086 171.057ZM109.963 168.904L110.592 168.126C104.3 163.036 99.1671 157.809 95.1807 152.45L94.3783 153.047L93.576 153.644C97.6803 159.162 102.937 164.506 109.334 169.681L109.963 168.904ZM94.3783 153.047L95.1888 152.461C91.3098 147.094 88.5348 141.284 86.8588 135.029L85.8929 135.288L84.9269 135.547C86.6673 142.042 89.5493 148.072 93.5678 153.633L94.3783 153.047ZM85.8929 135.288L86.8588 135.029C85.2207 128.916 85.3261 123.3 87.1252 118.148L86.1811 117.818L85.237 117.489C83.2872 123.073 83.2003 129.103 84.9269 135.547L85.8929 135.288ZM86.1811 117.818L87.1252 118.148C88.9324 112.973 92.144 108.559 96.7933 104.901L96.1749 104.115L95.5566 103.329C90.6299 107.206 87.179 111.928 85.237 117.489L86.1811 117.818ZM96.1749 104.115L96.7933 104.901C101.459 101.23 107.154 98.4812 113.903 96.673L113.644 95.707L113.385 94.7411C106.418 96.608 100.467 99.4649 95.5566 103.329L96.1749 104.115ZM113.644 95.707L113.903 96.673C123.035 94.2261 132.8 93.6988 143.21 95.1068L143.344 94.1158L143.478 93.1249C132.834 91.6851 122.799 92.2187 113.385 94.7411L113.644 95.707ZM143.344 94.1158L144.341 94.0415L143.684 85.2109L142.686 85.2852L141.689 85.3595L142.347 94.1901L143.344 94.1158ZM142.686 85.2852L142.72 86.2846L169.958 85.3534L169.923 84.354L169.889 83.3546L142.652 84.2858L142.686 85.2852ZM169.923 84.354L168.928 84.2544L162.168 151.754L163.163 151.854L164.158 151.953L170.918 84.4537L169.923 84.354ZM163.163 151.854L163.13 150.854L147.275 151.376L147.308 152.375L147.341 153.375L163.196 152.853L163.163 151.854ZM147.308 152.375L148.306 152.317L148.05 147.883L147.051 147.94L146.053 147.998L146.31 152.433L147.308 152.375ZM147.051 147.94L147.355 146.987C143.699 145.825 140.513 145.054 137.805 144.688C135.108 144.323 132.823 144.351 131.002 144.839L131.261 145.805L131.519 146.771C132.982 146.379 134.971 146.322 137.537 146.67C140.093 147.015 143.16 147.752 146.748 148.893L147.051 147.94ZM131.261 145.805L131.002 144.839C129.79 145.163 128.737 145.65 128.147 146.452L128.953 147.044L129.758 147.637C129.928 147.406 130.413 147.067 131.519 146.771L131.261 145.805ZM128.953 147.044L128.19 146.397C126.854 147.973 126.742 150.192 127.423 152.734L128.389 152.475L129.355 152.216C128.742 149.929 129.006 148.527 129.715 147.691L128.953 147.044ZM128.389 152.475L127.423 152.734C128.231 155.747 130.188 158.91 133.185 162.222L133.927 161.551L134.668 160.88C131.784 157.693 130.049 154.806 129.355 152.216L128.389 152.475ZM133.927 161.551L134.221 162.507L153.587 156.541L153.293 155.585L152.998 154.63L133.632 160.595L133.927 161.551ZM153.293 155.585L152.353 155.928L158.228 172.057L159.167 171.715L160.107 171.372L154.232 155.243L153.293 155.585ZM159.167 171.715L158.986 170.731L147.887 172.773L148.068 173.757L148.249 174.74L159.348 172.698L159.167 171.715Z" fill="#515151" mask="url(#path-3-outside-1_203_1445)"/>
</svg>
