<svg width="282" height="282" viewBox="0 0 282 282" fill="none" xmlns="http://www.w3.org/2000/svg">
<circle cx="140.999" cy="140.999" r="135.499" stroke="#FFCC00" stroke-width="11"/>
<circle cx="140.999" cy="140.999" r="122.847" stroke="#FFCC00" stroke-width="5"/>
<mask id="path-3-outside-1_203_1450" maskUnits="userSpaceOnUse" x="75.657" y="77.9332" width="124.235" height="139.085" fill="black">
<rect fill="white" x="75.657" y="77.9332" width="124.235" height="139.085"/>
<path d="M128.216 120.842C128.966 123.643 130.817 125.528 133.769 126.498C136.72 127.467 141.391 128.286 147.782 128.954C155.12 129.68 161.312 130.764 166.357 132.208C171.499 133.625 176.24 136.444 180.58 140.665C185.017 144.859 188.007 150.994 189.55 159.07C191.384 168.621 189.404 177.071 183.609 184.422C177.91 191.746 169.169 196.987 157.385 200.145C150.527 201.982 142.817 202.961 134.257 203.081L134.262 207.738L108.617 214.61L91.9285 156.965L134.679 152.498L134.62 159.812C137.435 159.886 139.809 159.664 141.741 159.147C144.735 158.344 145.935 156.832 145.339 154.611C145.003 153.355 143.639 152.323 141.248 151.514C138.954 150.679 134.844 150.021 128.917 149.538C121.193 148.916 114.592 148.045 109.116 146.924C103.71 145.681 99.0789 143.661 95.2234 140.863C91.368 138.066 88.7674 134.156 87.4215 129.133C86.878 127.104 86.5536 125.121 86.4482 123.182C85.9957 116.47 87.7537 110.668 91.7223 105.774C95.665 100.783 101.114 97.3563 108.068 95.4928C113.864 93.9399 120.325 93.7099 127.45 94.8029L126.635 91.7603L166.016 81.6739L166.613 127.946L135.487 124.795L135.292 124.07C134.497 121.488 133.545 119.673 132.436 118.624C131.397 117.453 130.395 116.997 129.429 117.256C128.849 117.411 128.444 117.83 128.213 118.513C127.982 119.197 127.983 119.973 128.216 120.842Z"/>
</mask>
<path d="M128.216 120.842C128.966 123.643 130.817 125.528 133.769 126.498C136.72 127.467 141.391 128.286 147.782 128.954C155.12 129.68 161.312 130.764 166.357 132.208C171.499 133.625 176.24 136.444 180.58 140.665C185.017 144.859 188.007 150.994 189.55 159.07C191.384 168.621 189.404 177.071 183.609 184.422C177.91 191.746 169.169 196.987 157.385 200.145C150.527 201.982 142.817 202.961 134.257 203.081L134.262 207.738L108.617 214.61L91.9285 156.965L134.679 152.498L134.62 159.812C137.435 159.886 139.809 159.664 141.741 159.147C144.735 158.344 145.935 156.832 145.339 154.611C145.003 153.355 143.639 152.323 141.248 151.514C138.954 150.679 134.844 150.021 128.917 149.538C121.193 148.916 114.592 148.045 109.116 146.924C103.71 145.681 99.0789 143.661 95.2234 140.863C91.368 138.066 88.7674 134.156 87.4215 129.133C86.878 127.104 86.5536 125.121 86.4482 123.182C85.9957 116.47 87.7537 110.668 91.7223 105.774C95.665 100.783 101.114 97.3563 108.068 95.4928C113.864 93.9399 120.325 93.7099 127.45 94.8029L126.635 91.7603L166.016 81.6739L166.613 127.946L135.487 124.795L135.292 124.07C134.497 121.488 133.545 119.673 132.436 118.624C131.397 117.453 130.395 116.997 129.429 117.256C128.849 117.411 128.444 117.83 128.213 118.513C127.982 119.197 127.983 119.973 128.216 120.842Z" fill="#FFCC00"/>
<path d="M133.769 126.498L133.457 127.448V127.448L133.769 126.498ZM147.782 128.954L147.678 129.949L147.684 129.949L147.782 128.954ZM166.357 132.208L166.082 133.169L166.091 133.172L166.357 132.208ZM180.58 140.665L179.883 141.382L179.893 141.391L180.58 140.665ZM189.55 159.07L188.568 159.258L188.568 159.259L189.55 159.07ZM183.609 184.422L182.824 183.803L182.82 183.808L183.609 184.422ZM134.257 203.081L134.243 202.081L133.255 202.095L133.257 203.082L134.257 203.081ZM134.262 207.738L134.521 208.704L135.263 208.505L135.262 207.737L134.262 207.738ZM108.617 214.61L107.656 214.888L107.929 215.829L108.876 215.576L108.617 214.61ZM91.9285 156.965L91.8246 155.97L90.6355 156.094L90.968 157.243L91.9285 156.965ZM134.679 152.498L135.679 152.506L135.688 151.387L134.575 151.503L134.679 152.498ZM134.62 159.812L133.62 159.804L133.612 160.786L134.594 160.812L134.62 159.812ZM141.248 151.514L140.906 152.454L140.917 152.458L140.928 152.461L141.248 151.514ZM128.917 149.538L128.998 148.542L128.997 148.542L128.917 149.538ZM109.116 146.924L108.891 147.899L108.903 147.902L108.915 147.904L109.116 146.924ZM95.2234 140.863L95.8107 140.054V140.054L95.2234 140.863ZM86.4482 123.182L87.4468 123.128L87.4459 123.115L86.4482 123.182ZM91.7223 105.774L92.4991 106.404L92.507 106.394L91.7223 105.774ZM127.45 94.8029L127.299 95.7914L128.813 96.0236L128.416 94.5441L127.45 94.8029ZM126.635 91.7603L126.387 90.7915L125.407 91.0424L125.669 92.0191L126.635 91.7603ZM166.016 81.6739L167.016 81.661L167 80.3897L165.768 80.7052L166.016 81.6739ZM166.613 127.946L166.512 128.941L167.627 129.054L167.613 127.933L166.613 127.946ZM135.487 124.795L134.521 125.054L134.699 125.72L135.386 125.79L135.487 124.795ZM135.292 124.07L136.258 123.812L136.254 123.794L136.248 123.776L135.292 124.07ZM132.436 118.624L131.687 119.288L131.717 119.321L131.749 119.351L132.436 118.624ZM128.213 118.513L129.16 118.834V118.834L128.213 118.513ZM128.216 120.842L127.25 121.101C128.095 124.255 130.212 126.382 133.457 127.448L133.769 126.498L134.081 125.547C131.423 124.675 129.838 123.032 129.182 120.583L128.216 120.842ZM133.769 126.498L133.457 127.448C136.515 128.452 141.275 129.279 147.678 129.949L147.782 128.954L147.886 127.96C141.508 127.292 136.925 126.482 134.081 125.547L133.769 126.498ZM147.782 128.954L147.684 129.949C154.984 130.671 161.112 131.747 166.082 133.169L166.357 132.208L166.632 131.246C161.511 129.781 155.256 128.688 147.88 127.959L147.782 128.954ZM166.357 132.208L166.091 133.172C171.05 134.539 175.647 137.262 179.883 141.381L180.58 140.665L181.278 139.948C176.833 135.626 171.948 132.712 166.623 131.244L166.357 132.208ZM180.58 140.665L179.893 141.391C184.133 145.399 187.051 151.318 188.568 159.258L189.55 159.07L190.532 158.883C188.963 150.671 185.902 144.319 181.267 139.938L180.58 140.665ZM189.55 159.07L188.568 159.259C190.35 168.537 188.431 176.69 182.824 183.803L183.609 184.422L184.394 185.041C190.377 177.453 192.419 168.705 190.532 158.882L189.55 159.07ZM183.609 184.422L182.82 183.808C177.292 190.913 168.766 196.06 157.126 199.179L157.385 200.145L157.644 201.111C169.572 197.914 178.529 192.579 184.398 185.036L183.609 184.422ZM157.385 200.145L157.126 199.179C150.362 200.991 142.737 201.962 134.243 202.081L134.257 203.081L134.271 204.081C142.898 203.96 150.691 202.974 157.644 201.111L157.385 200.145ZM134.257 203.081L133.257 203.082L133.262 207.739L134.262 207.738L135.262 207.737L135.257 203.08L134.257 203.081ZM134.262 207.738L134.003 206.772L108.358 213.644L108.617 214.61L108.876 215.576L134.521 208.704L134.262 207.738ZM108.617 214.61L109.577 214.332L92.8891 156.687L91.9285 156.965L90.968 157.243L107.656 214.888L108.617 214.61ZM91.9285 156.965L92.0324 157.959L134.783 153.492L134.679 152.498L134.575 151.503L91.8246 155.97L91.9285 156.965ZM134.679 152.498L133.679 152.49L133.62 159.804L134.62 159.812L135.62 159.82L135.679 152.506L134.679 152.498ZM134.62 159.812L134.594 160.812C137.469 160.887 139.945 160.663 141.999 160.113L141.741 159.147L141.482 158.181C139.672 158.666 137.401 158.885 134.646 158.813L134.62 159.812ZM141.741 159.147L141.999 160.113C143.588 159.687 144.877 159.031 145.669 158.033C146.505 156.979 146.667 155.702 146.305 154.352L145.339 154.611L144.373 154.87C144.607 155.741 144.467 156.331 144.103 156.79C143.695 157.303 142.888 157.804 141.482 158.181L141.741 159.147ZM145.339 154.611L146.305 154.352C145.827 152.566 143.996 151.388 141.569 150.567L141.248 151.514L140.928 152.461C143.282 153.258 144.179 154.144 144.373 154.87L145.339 154.611ZM141.248 151.514L141.59 150.574C139.156 149.689 134.923 149.024 128.998 148.542L128.917 149.538L128.836 150.535C134.764 151.018 138.752 151.67 140.906 152.454L141.248 151.514ZM128.917 149.538L128.997 148.542C121.299 147.922 114.741 147.055 109.316 145.945L109.116 146.924L108.915 147.904C114.443 149.035 121.086 149.911 128.837 150.535L128.917 149.538ZM109.116 146.924L109.34 145.95C104.043 144.732 99.541 142.761 95.8107 140.054L95.2234 140.863L94.6362 141.673C98.6167 144.561 103.376 146.63 108.891 147.899L109.116 146.924ZM95.2234 140.863L95.8107 140.054C92.1583 137.404 89.6798 133.697 88.3875 128.874L87.4215 129.133L86.4556 129.392C87.855 134.614 90.5777 138.728 94.6362 141.673L95.2234 140.863ZM87.4215 129.133L88.3875 128.874C87.8604 126.907 87.548 124.992 87.4467 123.128L86.4482 123.182L85.4497 123.236C85.5591 125.25 85.8956 127.302 86.4556 129.392L87.4215 129.133ZM86.4482 123.182L87.4459 123.115C87.0091 116.636 88.7009 111.087 92.499 106.404L91.7223 105.774L90.9456 105.144C86.8066 110.248 84.9822 116.304 85.4504 123.249L86.4482 123.182ZM91.7223 105.774L92.507 106.394C96.2989 101.594 101.552 98.2742 108.327 96.4587L108.068 95.4928L107.81 94.5269C100.676 96.4384 95.0312 99.9725 90.9377 105.154L91.7223 105.774ZM108.068 95.4928L108.327 96.4587C113.965 94.9481 120.283 94.7152 127.299 95.7914L127.45 94.8029L127.602 93.8145C120.366 92.7046 113.763 92.9317 107.81 94.5269L108.068 95.4928ZM127.45 94.8029L128.416 94.5441L127.601 91.5014L126.635 91.7603L125.669 92.0191L126.484 95.0617L127.45 94.8029ZM126.635 91.7603L126.883 92.729L166.264 82.6427L166.016 81.6739L165.768 80.7052L126.387 90.7915L126.635 91.7603ZM166.016 81.6739L165.016 81.6868L165.613 127.959L166.613 127.946L167.613 127.933L167.016 81.661L166.016 81.6739ZM166.613 127.946L166.714 126.951L135.587 123.8L135.487 124.795L135.386 125.79L166.512 128.941L166.613 127.946ZM135.487 124.795L136.452 124.536L136.258 123.812L135.292 124.07L134.327 124.329L134.521 125.054L135.487 124.795ZM135.292 124.07L136.248 123.776C135.436 121.139 134.42 119.124 133.123 117.898L132.436 118.624L131.749 119.351C132.669 120.222 133.558 121.838 134.337 124.365L135.292 124.07ZM132.436 118.624L133.184 117.961C132.05 116.682 130.684 115.884 129.17 116.29L129.429 117.256L129.688 118.222C130.106 118.11 130.744 118.224 131.687 119.288L132.436 118.624ZM129.429 117.256L129.17 116.29C128.199 116.55 127.579 117.267 127.266 118.193L128.213 118.513L129.16 118.834C129.309 118.394 129.499 118.272 129.688 118.222L129.429 117.256ZM128.213 118.513L127.266 118.193C126.957 119.105 126.978 120.088 127.25 121.101L128.216 120.842L129.182 120.583C128.987 119.857 129.006 119.288 129.16 118.834L128.213 118.513Z" fill="#FFCC00" mask="url(#path-3-outside-1_203_1450)"/>
</svg>
