<svg width="79" height="79" viewBox="0 0 79 79" fill="none" xmlns="http://www.w3.org/2000/svg">
<path d="M18.4647 19.4049C18.613 18.6458 19.1857 18.0402 19.9353 17.8498L33.8222 14.3229L45.708 11.4611C46.3402 11.3089 47.0069 11.4735 47.4956 11.9024L57.9345 21.0655L67.0636 31.4658C67.5113 31.9758 67.6698 32.6781 67.4846 33.331L64.3471 44.3907L61.0307 59.4212C60.9083 59.9757 60.556 60.4521 60.0616 60.7315L54.9633 63.6125C54.7551 63.7302 54.5275 63.8095 54.2913 63.8468L33.6863 67.1005C33.1398 67.1868 32.5821 67.0429 32.1456 66.703L21.8858 58.7139C21.7627 58.6181 21.6513 58.5083 21.5538 58.3866L12.4248 46.9946C12.0115 46.4788 11.8797 45.7922 12.0727 45.16L15.8553 32.767L18.4647 19.4049Z" fill="#F3F3F3"/>
<g filter="url(#filter0_d_302_499)">
<path d="M17.8395 19.9251C17.9969 19.1962 18.5468 18.6153 19.2661 18.4182L32.3496 14.8339L43.4827 11.9292C44.1229 11.7622 44.8043 11.9226 45.3027 12.3576L54.8297 20.6723L63.111 30.161C63.5643 30.6804 63.7182 31.3968 63.518 32.0566L60.3743 42.4207L56.9637 56.5739C56.8356 57.1055 56.4953 57.5615 56.0222 57.8357L51.1913 60.6355C50.9898 60.7522 50.7696 60.8329 50.5404 60.8739L31.2238 64.3273C30.669 64.4265 30.0981 64.287 29.6516 63.9431L20.2829 56.7285C20.154 56.6292 20.0377 56.5146 19.9365 56.3871L11.6858 45.9896C11.2693 45.4647 11.1433 44.7662 11.3501 44.1289L15.1261 32.4953L17.8395 19.9251Z" fill="#6E6E6E"/>
</g>
<mask id="path-3-inside-1_302_499" fill="white">
<path d="M41.0518 22.489C41.6278 21.7102 42.864 22.1234 42.8558 23.0921L42.7771 32.3814C42.7735 32.8146 43.0492 33.2009 43.4601 33.3382L52.2704 36.2836C53.1891 36.5907 53.1781 37.8941 52.2543 38.1856L43.3954 40.9814C42.9822 41.1117 42.7 41.4933 42.6963 41.9265L42.6177 51.2158C42.6095 52.1845 41.3665 52.5767 40.8038 51.7882L35.4073 44.2269C35.1556 43.8742 34.7055 43.7238 34.2924 43.8541L25.4335 46.6499C24.5097 46.9414 23.7525 45.8805 24.3285 45.1016L29.8522 37.6327C30.1098 37.2844 30.1138 36.8098 29.8622 36.4572L24.4657 28.8958C23.903 28.1073 24.678 27.0593 25.5967 27.3665L34.407 30.3118C34.8179 30.4491 35.2705 30.3063 35.5281 29.958L41.0518 22.489Z"/>
</mask>
<path d="M41.0518 22.489C41.6278 21.7102 42.864 22.1234 42.8558 23.0921L42.7771 32.3814C42.7735 32.8146 43.0492 33.2009 43.4601 33.3382L52.2704 36.2836C53.1891 36.5907 53.1781 37.8941 52.2543 38.1856L43.3954 40.9814C42.9822 41.1117 42.7 41.4933 42.6963 41.9265L42.6177 51.2158C42.6095 52.1845 41.3665 52.5767 40.8038 51.7882L35.4073 44.2269C35.1556 43.8742 34.7055 43.7238 34.2924 43.8541L25.4335 46.6499C24.5097 46.9414 23.7525 45.8805 24.3285 45.1016L29.8522 37.6327C30.1098 37.2844 30.1138 36.8098 29.8622 36.4572L24.4657 28.8958C23.903 28.1073 24.678 27.0593 25.5967 27.3665L34.407 30.3118C34.8179 30.4491 35.2705 30.3063 35.5281 29.958L41.0518 22.489Z" fill="#D9D9D9"/>
<path d="M43.3558 23.0964C43.0224 23.0935 42.6891 23.0907 42.3558 23.0879C42.3817 24.951 42.405 26.8142 42.4257 28.6773C42.4394 29.9111 42.4519 31.1449 42.4633 32.3787C42.459 32.9335 42.8461 33.4563 43.3675 33.6151C46.321 34.5467 49.2723 35.4851 52.2213 36.4303C52.9804 36.6095 52.9994 37.8654 52.2166 38.0664C49.2741 39.0313 46.3294 39.9894 43.3825 40.9406C42.9619 41.0702 42.6567 41.4896 42.6615 41.9262C42.6536 45.0228 42.6384 48.1193 42.6161 51.2158C42.6724 52.1359 41.288 52.5745 40.8038 51.7882C40.8038 51.7882 40.8038 51.7882 40.8038 51.7882C39.005 49.2678 37.2599 46.709 35.5462 44.1277C35.2769 43.7139 34.7201 43.5033 34.2277 43.649C31.2402 44.4717 28.2423 45.2611 25.2421 46.0434C24.9113 46.1216 24.7463 45.6698 24.9433 45.5563C26.9123 43.1611 28.8812 40.7659 30.8281 38.3544C31.4081 37.6219 31.4446 36.504 30.8923 35.722C29.194 33.1298 27.4704 30.5556 25.6991 28.0156C25.8153 28.1336 25.8245 28.4999 25.7023 28.6275C25.6204 28.7843 25.2658 28.8909 25.1119 28.8168C25.1119 28.8168 25.1119 28.8168 25.1119 28.8168C28.0486 29.7986 31.0042 30.7242 33.9785 31.5936C34.9221 31.9053 36.0219 31.53 36.5735 30.7311C37.7338 29.0106 38.8728 27.2744 39.9904 25.5224C40.5421 24.6576 41.0885 23.789 41.6298 22.9165C41.6714 22.6429 42.2916 22.6205 42.3558 23.0879C42.6891 23.0907 43.0224 23.0935 43.3558 23.0964C43.5607 21.7229 41.4267 20.7797 40.4738 22.0616C39.7981 22.8346 39.1276 23.6115 38.4623 24.3923C37.1144 25.974 35.7879 27.5715 34.4827 29.1849C34.5417 29.0712 34.6888 28.9967 34.8355 29.03C31.9363 27.9358 29.0183 26.8979 26.0816 25.9161C26.0816 25.9161 26.0816 25.9161 26.0816 25.9161C23.9054 25.0537 21.7686 27.9667 23.2323 29.776C25.0587 32.2769 26.9327 34.7437 28.832 37.1924C28.7793 37.0906 28.8074 36.9718 28.8763 36.9109C27.1407 39.4788 25.4272 42.0629 23.7138 44.647C22.7148 45.94 24.2368 47.8519 25.6249 47.2564C28.5306 46.1749 31.4386 45.1004 34.3571 44.0593C34.666 43.9402 35.0568 44.0463 35.2684 44.326C37.1524 46.7857 39.005 49.2678 40.8038 51.7882C40.8038 51.7882 40.8038 51.7882 40.8038 51.7882C41.2876 52.574 42.6727 52.1386 42.6193 51.2158C42.6494 48.1194 42.6867 45.0231 42.7312 41.9268C42.7317 41.5195 43.0206 41.1357 43.4082 41.0221C46.3673 40.1095 49.3285 39.2037 52.2919 38.3048C53.3033 38.0709 53.3469 36.4228 52.3194 36.1368C49.3949 35.1185 46.4726 34.0933 43.5526 33.0614C43.2701 32.9635 43.0768 32.673 43.0909 32.384C43.1232 31.1506 43.1567 29.9172 43.1913 28.6838C43.2435 26.8213 43.2983 24.9588 43.3558 23.0964ZM42.3558 23.0879L43.3558 23.0964L42.3558 23.0879Z" fill="#585858" mask="url(#path-3-inside-1_302_499)"/>
<path d="M46.0417 11.491C35.2358 13.6697 29.1859 15.0944 18.4437 18.9683C16.0667 27.0449 11.2328 43.7899 11.1023 44.5271C11.0057 45.0732 14.9306 51.1902 19.8032 56.6267C24.6758 62.0633 27.1423 63.3264 33.1264 67.5028L55.4223 63.6962L60.9963 60.4333C63.9284 49.6949 65.2975 43.5139 67.386 32.2915C60.9082 23.3824 56.28 18.7888 46.0417 11.491Z" stroke="white" stroke-width="2"/>
<defs>
<filter id="filter0_d_302_499" x="11.2524" y="11.8645" width="54.9518" height="54.0939" filterUnits="userSpaceOnUse" color-interpolation-filters="sRGB">
<feFlood flood-opacity="0" result="BackgroundImageFix"/>
<feColorMatrix in="SourceAlpha" type="matrix" values="0 0 0 0 0 0 0 0 0 0 0 0 0 0 0 0 0 0 127 0" result="hardAlpha"/>
<feOffset dx="2" dy="1"/>
<feGaussianBlur stdDeviation="0.3"/>
<feComposite in2="hardAlpha" operator="out"/>
<feColorMatrix type="matrix" values="0 0 0 0 0 0 0 0 0 0 0 0 0 0 0 0 0 0 0.39 0"/>
<feBlend mode="normal" in2="BackgroundImageFix" result="effect1_dropShadow_302_499"/>
<feBlend mode="normal" in="SourceGraphic" in2="effect1_dropShadow_302_499" result="shape"/>
</filter>
</defs>
</svg>
