<svg width="160" height="263" viewBox="0 0 160 263" fill="none" xmlns="http://www.w3.org/2000/svg">
<path d="M40.8681 262.426C23.5639 258.842 8.12356 262.426 3.21827 234.266C-1.68703 206.105 6.3849 172.017 6.09512 138.693C5.80535 105.368 -0.279731 108.846 0.0100255 66.8284C0.299782 24.8111 16.527 27.1293 29.8567 12.6405C43.1863 -1.84821 113.312 -5.03573 131.278 9.16324C149.244 23.3622 155.158 44.9433 159.676 79.8683C161.125 129.42 132.727 136.664 102.466 192.295C72.2052 247.926 82.8567 262.426 40.8681 262.426Z" fill="white"/>
<path d="M38.4478 259.237C22.1725 255.719 7.47095 250.756 7.47095 232.507C7.47095 214.257 16.9752 173.698 17.4243 136.128C17.8734 98.5573 7.47095 92.1532 7.47095 68.6717C7.47095 45.1903 12.5266 43.6668 21.2914 30.6362C50.9953 6.20124 71.5936 -1.32177 117.558 17.3058C142.372 32.1984 147.903 40.7961 152.152 75.0758C155.046 123.155 110.532 163.509 94.6683 183.944C78.8045 204.38 77.9398 259.237 38.4478 259.237Z" fill="black"/>
<path d="M41.4856 249.351C26.8634 246.026 13.655 241.336 13.655 224.089C13.655 206.842 22.194 168.512 22.5975 133.006C23.001 97.4995 13.655 91.4473 13.655 69.2559C13.655 47.0646 18.1972 45.6248 26.0718 33.3102C52.7586 10.2177 71.2649 3.108 112.561 20.7121C134.855 34.7865 139.824 42.9119 143.641 75.3081C146.241 120.746 106.249 158.882 91.9959 178.195C77.7433 197.508 76.9665 249.351 41.4856 249.351Z" fill="#F6D8C2"/>
</svg>
