<svg width="398" height="65" viewBox="0 0 398 65" fill="none" xmlns="http://www.w3.org/2000/svg">
<path d="M49.7893 3.26937L309.527 0L397.59 3.26937L395.364 47.8432L118.141 44.1758H53.2864L49.7893 3.26937Z" fill="white"/>
<path d="M54.0566 6.38526L307.42 3.60913L393.322 6.38526L391.151 44.2343L120.731 41.1202H57.4679L54.0566 6.38526Z" fill="black"/>
<path d="M57.7676 13.0925H387.533L385.569 34.8267H57.7676V13.0925Z" fill="url(#paint0_linear_261_1969)"/>
<mask id="path-4-outside-1_261_1969" maskUnits="userSpaceOnUse" x="-0.801514" y="5.11987" width="42" height="42" fill="black">
<rect fill="white" x="-0.801514" y="5.11987" width="42" height="42"/>
<path d="M34.9111 32.9599L33.8711 41.1199L20.1511 39.8799L19.9911 31.5999L20.7111 31.6799C20.5245 29.5199 20.2445 28.0799 19.8711 27.3599C19.4978 26.6132 19.0178 26.2932 18.4311 26.3999C18.2178 26.4532 18.0578 26.5065 17.9511 26.5599L18.3111 30.7999L19.2711 30.7599L19.4311 39.4799L7.03114 41.3199L6.03114 31.0399L8.75114 30.9999L9.23114 22.5199L6.43114 23.0399L5.47114 13.1199C6.99114 13.0132 8.41781 12.9332 9.75114 12.8799L9.83114 11.5199L16.6711 11.0399L16.7911 12.6399C20.1245 12.6132 22.7245 12.7865 24.5911 13.1599C26.4845 13.5332 27.8311 14.1332 28.6311 14.9599C29.4311 15.7599 29.8845 16.8665 29.9911 18.2799C30.0978 19.7999 29.6845 21.0265 28.7511 21.9599C27.8178 22.8932 26.3111 23.7465 24.2311 24.5199C25.9111 24.7865 27.2845 25.2665 28.3511 25.9599C29.4178 26.6265 30.2711 27.5065 30.9111 28.5999C31.5778 29.6932 32.1911 31.0799 32.7511 32.7599L34.9111 32.9599ZM17.6311 22.7999C19.0445 22.3999 19.9645 22.0932 20.3911 21.8799C20.8445 21.6399 21.0178 21.3865 20.9111 21.1199C20.8311 20.8532 20.5245 20.7199 19.9911 20.7199C19.4578 20.7199 18.6311 20.8132 17.5111 20.9999L17.6311 22.7999Z"/>
</mask>
<path d="M34.9111 32.9599L33.8711 41.1199L20.1511 39.8799L19.9911 31.5999L20.7111 31.6799C20.5245 29.5199 20.2445 28.0799 19.8711 27.3599C19.4978 26.6132 19.0178 26.2932 18.4311 26.3999C18.2178 26.4532 18.0578 26.5065 17.9511 26.5599L18.3111 30.7999L19.2711 30.7599L19.4311 39.4799L7.03114 41.3199L6.03114 31.0399L8.75114 30.9999L9.23114 22.5199L6.43114 23.0399L5.47114 13.1199C6.99114 13.0132 8.41781 12.9332 9.75114 12.8799L9.83114 11.5199L16.6711 11.0399L16.7911 12.6399C20.1245 12.6132 22.7245 12.7865 24.5911 13.1599C26.4845 13.5332 27.8311 14.1332 28.6311 14.9599C29.4311 15.7599 29.8845 16.8665 29.9911 18.2799C30.0978 19.7999 29.6845 21.0265 28.7511 21.9599C27.8178 22.8932 26.3111 23.7465 24.2311 24.5199C25.9111 24.7865 27.2845 25.2665 28.3511 25.9599C29.4178 26.6265 30.2711 27.5065 30.9111 28.5999C31.5778 29.6932 32.1911 31.0799 32.7511 32.7599L34.9111 32.9599ZM17.6311 22.7999C19.0445 22.3999 19.9645 22.0932 20.3911 21.8799C20.8445 21.6399 21.0178 21.3865 20.9111 21.1199C20.8311 20.8532 20.5245 20.7199 19.9911 20.7199C19.4578 20.7199 18.6311 20.8132 17.5111 20.9999L17.6311 22.7999Z" fill="black"/>
<path d="M34.9111 32.9599L39.871 33.592L40.5253 28.4583L35.3721 27.9812L34.9111 32.9599ZM33.8711 41.1199L33.4211 46.0996L38.2216 46.5334L38.831 41.752L33.8711 41.1199ZM20.1511 39.8799L15.1521 39.9765L15.2386 44.4563L19.7011 44.8596L20.1511 39.8799ZM19.9911 31.5999L20.5433 26.6305L14.882 26.0014L14.9921 31.6965L19.9911 31.5999ZM20.7111 31.6799L20.159 36.6493L26.2174 37.3224L25.6926 31.2494L20.7111 31.6799ZM19.8711 27.3599L15.399 29.5959L15.4154 29.6288L15.4324 29.6615L19.8711 27.3599ZM18.4311 26.3999L17.5367 21.4805L17.3765 21.5097L17.2185 21.5492L18.4311 26.3999ZM17.9511 26.5599L15.7151 22.0877L12.6822 23.6042L12.9691 26.9829L17.9511 26.5599ZM18.3111 30.7999L13.3291 31.2229L13.7342 35.9949L18.5193 35.7955L18.3111 30.7999ZM19.2711 30.7599L24.2703 30.6681L24.1764 25.5512L19.063 25.7642L19.2711 30.7599ZM19.4311 39.4799L20.165 44.4257L24.5109 43.7808L24.4303 39.3881L19.4311 39.4799ZM7.03114 41.3199L2.05463 41.804L2.56373 47.0375L7.76504 46.2657L7.03114 41.3199ZM6.03114 31.0399L5.95762 26.0404L0.528979 26.1202L1.05463 31.524L6.03114 31.0399ZM8.75114 30.9999L8.82467 35.9993L13.48 35.9309L13.7432 31.2824L8.75114 30.9999ZM9.23114 22.5199L14.2232 22.8024L14.5833 16.4404L8.31818 17.6039L9.23114 22.5199ZM6.43114 23.0399L1.45439 23.5215L1.97993 28.952L7.3441 27.9558L6.43114 23.0399ZM5.47114 13.1199L5.12113 8.13214L-0.00012064 8.49152L0.494392 13.6015L5.47114 13.1199ZM9.75114 12.8799L9.95098 17.8759L14.4766 17.6949L14.7425 13.1735L9.75114 12.8799ZM9.83114 11.5199L9.48113 6.53214L5.0978 6.83974L4.83977 11.2263L9.83114 11.5199ZM16.6711 11.0399L21.6571 10.6659L21.285 5.7038L16.3211 6.05214L16.6711 11.0399ZM16.7911 12.6399L11.8051 13.0138L12.1549 17.6771L16.8311 17.6397L16.7911 12.6399ZM24.5911 13.1599L23.6106 18.0628L23.6239 18.0654L24.5911 13.1599ZM28.6311 14.9599L25.0381 18.437L25.0666 18.4664L25.0956 18.4954L28.6311 14.9599ZM29.9911 18.2799L34.9789 17.9299L34.978 17.9167L34.977 17.9036L29.9911 18.2799ZM28.7511 21.9599L32.2867 25.4954H32.2867L28.7511 21.9599ZM24.2311 24.5199L22.4887 19.8333L4.63359 26.4717L23.4473 29.458L24.2311 24.5199ZM28.3511 25.9599L25.6262 30.1521L25.6635 30.1763L25.7011 30.1999L28.3511 25.9599ZM30.9111 28.5999L26.5961 31.1258L26.6188 31.1645L26.6422 31.2029L30.9111 28.5999ZM32.7511 32.7599L28.0077 34.341L29.0399 37.4376L32.2902 37.7386L32.7511 32.7599ZM17.6311 22.7999L12.6422 23.1325L13.0529 29.292L18.9928 27.6109L17.6311 22.7999ZM20.3911 21.8799L22.6272 26.352L22.6792 26.326L22.7306 26.2988L20.3911 21.8799ZM20.9111 21.1199L16.122 22.5566L16.186 22.77L16.2688 22.9768L20.9111 21.1199ZM17.5111 20.9999L16.6891 16.0679L12.2209 16.8126L12.5222 21.3325L17.5111 20.9999ZM34.9111 32.9599L29.9513 32.3277L28.9113 40.4877L33.8711 41.1199L38.831 41.752L39.871 33.592L34.9111 32.9599ZM33.8711 41.1199L34.3212 36.1402L20.6012 34.9002L20.1511 39.8799L19.7011 44.8596L33.4211 46.0996L33.8711 41.1199ZM20.1511 39.8799L25.1502 39.7833L24.9902 31.5033L19.9911 31.5999L14.9921 31.6965L15.1521 39.9765L20.1511 39.8799ZM19.9911 31.5999L19.439 36.5693L20.159 36.6493L20.7111 31.6799L21.2633 26.7105L20.5433 26.6305L19.9911 31.5999ZM20.7111 31.6799L25.6926 31.2494C25.5905 30.0681 25.4547 28.9792 25.2692 28.0255C25.099 27.15 24.8267 26.0549 24.3099 25.0583L19.8711 27.3599L15.4324 29.6615C15.3411 29.4854 15.3235 29.4022 15.3478 29.4824C15.3684 29.5506 15.4064 29.6943 15.4531 29.9342C15.5476 30.4205 15.6451 31.1317 15.7297 32.1104L20.7111 31.6799ZM19.8711 27.3599L24.3433 25.1238C23.9306 24.2985 23.2214 23.2108 22.0046 22.3996C20.6469 21.4945 19.0572 21.2041 17.5367 21.4805L18.4311 26.3999L19.3256 31.3192C18.3917 31.489 17.3354 31.3053 16.4576 30.7201C15.7209 30.229 15.4383 29.6746 15.399 29.5959L19.8711 27.3599ZM18.4311 26.3999L17.2185 21.5492C16.8945 21.6302 16.3144 21.7881 15.7151 22.0877L17.9511 26.5599L20.1872 31.032C19.9623 31.1445 19.7928 31.2031 19.7323 31.2233C19.6609 31.2471 19.6264 31.2549 19.6438 31.2506L18.4311 26.3999ZM17.9511 26.5599L12.9691 26.9829L13.3291 31.2229L18.3111 30.7999L23.2932 30.3769L22.9332 26.1369L17.9511 26.5599ZM18.3111 30.7999L18.5193 35.7955L19.4793 35.7555L19.2711 30.7599L19.063 25.7642L18.103 25.8042L18.3111 30.7999ZM19.2711 30.7599L14.272 30.8516L14.432 39.5716L19.4311 39.4799L24.4303 39.3881L24.2703 30.6681L19.2711 30.7599ZM19.4311 39.4799L18.6972 34.534L6.29724 36.374L7.03114 41.3199L7.76504 46.2657L20.165 44.4257L19.4311 39.4799ZM7.03114 41.3199L12.0077 40.8358L11.0077 30.5558L6.03114 31.0399L1.05463 31.524L2.05463 41.804L7.03114 41.3199ZM6.03114 31.0399L6.10467 36.0393L8.82467 35.9993L8.75114 30.9999L8.67762 26.0004L5.95762 26.0404L6.03114 31.0399ZM8.75114 30.9999L13.7432 31.2824L14.2232 22.8024L9.23114 22.5199L4.23913 22.2373L3.75913 30.7173L8.75114 30.9999ZM9.23114 22.5199L8.31818 17.6039L5.51818 18.1239L6.43114 23.0399L7.3441 27.9558L10.1441 27.4358L9.23114 22.5199ZM6.43114 23.0399L11.4079 22.5583L10.4479 12.6383L5.47114 13.1199L0.494392 13.6015L1.45439 23.5215L6.43114 23.0399ZM5.47114 13.1199L5.82116 18.1076C7.29799 18.004 8.67416 17.9269 9.95098 17.8759L9.75114 12.8799L9.55131 7.88387C8.16145 7.93946 6.68429 8.02244 5.12113 8.13214L5.47114 13.1199ZM9.75114 12.8799L14.7425 13.1735L14.8225 11.8135L9.83114 11.5199L4.83977 11.2263L4.75977 12.5863L9.75114 12.8799ZM9.83114 11.5199L10.1812 16.5076L17.0212 16.0276L16.6711 11.0399L16.3211 6.05214L9.48113 6.53214L9.83114 11.5199ZM16.6711 11.0399L11.6851 11.4138L11.8051 13.0138L16.7911 12.6399L21.7771 12.2659L21.6571 10.6659L16.6711 11.0399ZM16.7911 12.6399L16.8311 17.6397C20.0361 17.6141 22.2395 17.7886 23.6106 18.0628L24.5911 13.1599L25.5717 8.25697C23.2095 7.78452 20.2129 7.61234 16.7511 7.64003L16.7911 12.6399ZM24.5911 13.1599L23.6239 18.0654C24.309 18.2005 24.7412 18.3479 24.9863 18.4571C25.2326 18.5668 25.1889 18.5927 25.0381 18.437L28.6311 14.9599L32.2242 11.4828C30.3797 9.5768 27.8422 8.70465 25.5584 8.25433L24.5911 13.1599ZM28.6311 14.9599L25.0956 18.4954C25.0531 18.4529 25.0166 18.4073 24.988 18.3638C24.9598 18.3209 24.947 18.2917 24.9443 18.2852C24.9397 18.274 24.9843 18.3776 25.0053 18.6562L29.9911 18.2799L34.977 17.9036C34.8038 15.6088 34.0097 13.2673 32.1667 11.4243L28.6311 14.9599ZM29.9911 18.2799L25.0034 18.6299C25.0186 18.8458 24.9847 18.8566 25.0229 18.7433C25.0413 18.6887 25.0703 18.6244 25.1107 18.5596C25.1509 18.4951 25.19 18.4499 25.2156 18.4243L28.7511 21.9599L32.2867 25.4954C34.407 23.3751 35.1696 20.647 34.9789 17.9299L29.9911 18.2799ZM28.7511 21.9599L25.2156 18.4243C25.0234 18.6166 24.294 19.1621 22.4887 19.8333L24.2311 24.5199L25.9736 29.2064C28.3283 28.331 30.6122 27.1698 32.2867 25.4954L28.7511 21.9599ZM24.2311 24.5199L23.4473 29.458C24.6563 29.65 25.3097 29.9463 25.6262 30.1521L28.3511 25.9599L31.0761 21.7677C29.2593 20.5867 27.166 19.9231 25.015 19.5817L24.2311 24.5199ZM28.3511 25.9599L25.7011 30.1999C26.0773 30.435 26.3613 30.7248 26.5961 31.1258L30.9111 28.5999L35.2262 26.074C34.1809 24.2883 32.7583 22.8181 31.0011 21.7199L28.3511 25.9599ZM30.9111 28.5999L26.6422 31.2029C27.0542 31.8786 27.5251 32.8932 28.0077 34.341L32.7511 32.7599L37.4946 31.1787C36.8572 29.2666 36.1014 27.5078 35.1801 25.9968L30.9111 28.5999ZM32.7511 32.7599L32.2902 37.7386L34.4502 37.9386L34.9111 32.9599L35.3721 27.9812L33.2121 27.7812L32.7511 32.7599ZM17.6311 22.7999L18.9928 27.6109C20.3198 27.2353 21.7062 26.8125 22.6272 26.352L20.3911 21.8799L18.1551 17.4077C18.2424 17.3641 18.2646 17.3594 18.1776 17.393C18.1017 17.4223 17.9794 17.4667 17.8 17.5265C17.4394 17.6467 16.9358 17.8003 16.2695 17.9888L17.6311 22.7999ZM20.3911 21.8799L22.7306 26.2988C23.2508 26.0234 24.2336 25.4354 24.9877 24.3333C25.9392 22.9426 26.2752 21.0671 25.5535 19.2629L20.9111 21.1199L16.2688 22.9768C16.0103 22.3306 15.8692 21.54 15.9792 20.6816C16.0874 19.8378 16.4075 19.1646 16.7346 18.6864C17.3154 17.8377 17.9848 17.4963 18.0517 17.4609L20.3911 21.8799ZM20.9111 21.1199L25.7003 19.6831C25.1519 17.8553 23.8193 16.7582 22.6148 16.2345C21.569 15.7798 20.5823 15.7199 19.9911 15.7199V20.7199V25.7199C19.9333 25.7199 19.3666 25.7266 18.6275 25.4052C17.7296 25.0148 16.5904 24.1178 16.122 22.5566L20.9111 21.1199ZM19.9911 20.7199V15.7199C19.0187 15.7199 17.8483 15.8747 16.6891 16.0679L17.5111 20.9999L18.3331 25.9318C18.8353 25.8482 19.231 25.7923 19.5321 25.7583C19.6812 25.7415 19.7953 25.7313 19.8785 25.7256C19.9641 25.7198 19.9982 25.7199 19.9911 25.7199V20.7199ZM17.5111 20.9999L12.5222 21.3325L12.6422 23.1325L17.6311 22.7999L22.6201 22.4673L22.5001 20.6673L17.5111 20.9999Z" fill="white" mask="url(#path-4-outside-1_261_1969)"/>
<defs>
<linearGradient id="paint0_linear_261_1969" x1="57.7676" y1="23.9596" x2="387.533" y2="23.9596" gradientUnits="userSpaceOnUse">
<stop/>
<stop offset="1" stop-color="#FF0000"/>
</linearGradient>
</defs>
</svg>
