<svg width="400" height="64" viewBox="0 0 400 64" fill="none" xmlns="http://www.w3.org/2000/svg">
<path d="M49.7908 3.54117L115.356 0L396.323 3.77647L399.556 49.7234L350.259 51.6116L53.2873 45.1349L49.7908 3.54117Z" fill="white"/>
<path d="M54.0581 7.2126L118.024 4.25537L392.135 7.4091L395.288 45.7794L347.194 47.3563L57.4694 41.9475L54.0581 7.2126Z" fill="black"/>
<rect x="57.769" y="13.8818" width="329.766" height="21.7342" fill="url(#paint0_linear_261_1975)"/>
<mask id="path-4-outside-1_261_1975" maskUnits="userSpaceOnUse" x="-0.0695801" y="4.66455" width="39" height="43" fill="black">
<rect fill="white" x="-0.0695801" y="4.66455" width="39" height="43"/>
<path d="M29.72 30.9846L30.24 41.8246L20.84 42.1846L21.04 40.9846C19.2 41.3846 17.4666 41.5846 15.84 41.5846C13.6533 41.5846 11.7466 41.2379 10.12 40.5446C8.49328 39.8246 7.22662 38.8112 6.31995 37.5046C5.43995 36.1712 4.99995 34.6112 4.99995 32.8246C4.99995 29.5979 5.50662 26.3312 6.51995 23.0246C7.55995 19.6912 8.99995 16.9312 10.84 14.7446C12.7066 12.5579 14.8133 11.4646 17.16 11.4646C18.4933 11.4646 19.8933 11.8779 21.36 12.7045L21.76 10.5845L30.88 12.2245L24.84 23.0246H19.36L19.84 20.6245L19.8 20.6646C19.72 20.3979 19.5866 20.2645 19.4 20.2645C19.0533 20.2645 18.6 20.7712 18.04 21.7845C17.48 22.7712 17.0266 23.8912 16.68 25.1446C16.28 26.4779 16.08 27.5179 16.08 28.2646C16.08 29.0379 16.32 29.6246 16.8 30.0246C17.3066 30.4246 18.16 30.6246 19.36 30.6246C20.1333 30.6246 20.7733 30.5579 21.28 30.4246C21.7866 30.2912 21.9333 30.0779 21.72 29.7846L17.16 29.1046L18.28 23.5846L29.4 23.9845L29.72 30.9846Z"/>
</mask>
<path d="M29.72 30.9846L30.24 41.8246L20.84 42.1846L21.04 40.9846C19.2 41.3846 17.4666 41.5846 15.84 41.5846C13.6533 41.5846 11.7466 41.2379 10.12 40.5446C8.49328 39.8246 7.22662 38.8112 6.31995 37.5046C5.43995 36.1712 4.99995 34.6112 4.99995 32.8246C4.99995 29.5979 5.50662 26.3312 6.51995 23.0246C7.55995 19.6912 8.99995 16.9312 10.84 14.7446C12.7066 12.5579 14.8133 11.4646 17.16 11.4646C18.4933 11.4646 19.8933 11.8779 21.36 12.7045L21.76 10.5845L30.88 12.2245L24.84 23.0246H19.36L19.84 20.6245L19.8 20.6646C19.72 20.3979 19.5866 20.2645 19.4 20.2645C19.0533 20.2645 18.6 20.7712 18.04 21.7845C17.48 22.7712 17.0266 23.8912 16.68 25.1446C16.28 26.4779 16.08 27.5179 16.08 28.2646C16.08 29.0379 16.32 29.6246 16.8 30.0246C17.3066 30.4246 18.16 30.6246 19.36 30.6246C20.1333 30.6246 20.7733 30.5579 21.28 30.4246C21.7866 30.2912 21.9333 30.0779 21.72 29.7846L17.16 29.1046L18.28 23.5846L29.4 23.9845L29.72 30.9846Z" fill="black"/>
<path d="M29.72 30.9846L24.7252 31.2129L24.7257 31.2241L29.72 30.9846ZM30.24 41.8246L30.4313 46.8209L35.4761 46.6277L35.2342 41.585L30.24 41.8246ZM20.84 42.1846L15.908 41.3626L14.8991 47.4157L21.0313 47.1809L20.84 42.1846ZM21.04 40.9846L25.9719 41.8065L27.1843 34.532L19.9778 36.0987L21.04 40.9846ZM10.12 40.5446L8.09622 45.1167L8.12774 45.1306L8.15946 45.1442L10.12 40.5446ZM6.31995 37.5046L2.1469 40.2588L2.1789 40.3072L2.21201 40.355L6.31995 37.5046ZM6.51995 23.0245L1.74687 21.5354L1.7431 21.5474L1.73939 21.5595L6.51995 23.0245ZM10.84 14.7446L7.03713 11.4982L7.02561 11.5117L7.01419 11.5253L10.84 14.7446ZM21.36 12.7045L18.9049 17.0603L24.9802 20.4846L26.2733 13.6316L21.36 12.7045ZM21.76 10.5845L22.6449 5.66348L17.7658 4.7861L16.8466 9.65751L21.76 10.5845ZM30.88 12.2246L35.2439 14.6651L38.6668 8.54462L31.7649 7.30348L30.88 12.2246ZM24.84 23.0245V28.0246H27.7725L29.2039 25.4651L24.84 23.0245ZM19.36 23.0245L14.457 22.044L13.2609 28.0246H19.36V23.0245ZM19.84 20.6245L24.7429 21.6051L27.9816 5.4115L16.3044 17.0891L19.84 20.6245ZM19.8 20.6646L15.0108 22.1013L17.4163 30.1195L23.3355 24.2L19.8 20.6646ZM18.04 21.7845L22.3884 24.2526L22.4024 24.2279L22.4162 24.203L18.04 21.7845ZM16.68 25.1446L21.4691 26.5813L21.4846 26.5295L21.499 26.4775L16.68 25.1446ZM16.8 30.0246L13.599 33.8657L13.6498 33.908L13.7017 33.949L16.8 30.0246ZM21.72 29.7845L25.7636 26.8437L24.5307 25.1484L22.4574 24.8392L21.72 29.7845ZM17.16 29.1045L12.2598 28.1103L11.2123 33.2729L16.4225 34.0499L17.16 29.1045ZM18.28 23.5846L18.4597 18.5878L14.2228 18.4354L13.3798 22.5903L18.28 23.5846ZM29.4 23.9846L34.3947 23.7562L34.1843 19.1534L29.5797 18.9878L29.4 23.9846ZM29.72 30.9846L24.7257 31.2241L25.2457 42.0641L30.24 41.8246L35.2342 41.585L34.7142 30.745L29.72 30.9846ZM30.24 41.8246L30.0486 36.8282L20.6486 37.1882L20.84 42.1846L21.0313 47.1809L30.4313 46.8209L30.24 41.8246ZM20.84 42.1846L25.7719 43.0065L25.9719 41.8065L21.04 40.9846L16.108 40.1626L15.908 41.3626L20.84 42.1846ZM21.04 40.9846L19.9778 36.0987C18.4335 36.4344 17.0588 36.5845 15.84 36.5845V41.5845V46.5845C17.8744 46.5845 19.9664 46.3347 22.1021 45.8704L21.04 40.9846ZM15.84 41.5845V36.5845C14.1723 36.5845 12.9592 36.3195 12.0804 35.9449L10.12 40.5446L8.15946 45.1442C10.534 46.1563 13.1342 46.5845 15.84 46.5845V41.5845ZM10.12 40.5446L12.1437 35.9724C11.2544 35.5788 10.7508 35.1196 10.4279 34.6541L6.31995 37.5046L2.21201 40.355C3.7024 42.5029 5.73213 44.0703 8.09622 45.1167L10.12 40.5446ZM6.31995 37.5046L10.493 34.7503C10.2149 34.329 9.99995 33.752 9.99995 32.8246H4.99995H-4.86374e-05C-4.86374e-05 35.4704 0.664971 38.0134 2.1469 40.2588L6.31995 37.5046ZM4.99995 32.8246H9.99995C9.99995 30.1288 10.4222 27.3555 11.3005 24.4896L6.51995 23.0245L1.73939 21.5595C0.591012 25.3069 -4.86374e-05 29.067 -4.86374e-05 32.8246H4.99995ZM6.51995 23.0245L11.293 24.5138C12.178 21.6774 13.3368 19.5431 14.6657 17.9638L10.84 14.7446L7.01419 11.5253C4.66313 14.3193 2.94193 17.705 1.74687 21.5354L6.51995 23.0245ZM10.84 14.7446L14.6428 17.9909C15.7929 16.6436 16.6013 16.4646 17.16 16.4646V11.4646V6.46455C13.0252 6.46455 9.62034 8.47219 7.03713 11.4982L10.84 14.7446ZM17.16 11.4646V16.4646C17.4354 16.4646 17.9941 16.547 18.9049 17.0603L21.36 12.7045L23.815 8.34879C21.7925 7.20881 19.5511 6.46455 17.16 6.46455V11.4646ZM21.36 12.7045L26.2733 13.6316L26.6733 11.5116L21.76 10.5845L16.8466 9.65751L16.4466 11.7775L21.36 12.7045ZM21.76 10.5845L20.875 15.5056L29.995 17.1456L30.88 12.2246L31.7649 7.30348L22.6449 5.66348L21.76 10.5845ZM30.88 12.2246L26.516 9.78399L20.476 20.584L24.84 23.0245L29.2039 25.4651L35.2439 14.6651L30.88 12.2246ZM24.84 23.0245V18.0245H19.36V23.0245V28.0246H24.84V23.0245ZM19.36 23.0245L24.2629 24.0051L24.7429 21.6051L19.84 20.6245L14.937 19.644L14.457 22.044L19.36 23.0245ZM19.84 20.6245L16.3044 17.0891L16.2644 17.1291L19.8 20.6646L23.3355 24.2L23.3755 24.16L19.84 20.6245ZM19.8 20.6646L24.5891 19.2278C24.4162 18.6517 24.0402 17.6937 23.1755 16.829C22.1819 15.8354 20.8344 15.2645 19.4 15.2645V20.2645V25.2645C18.1521 25.2645 16.9647 24.7604 16.1044 23.9001C15.3731 23.1687 15.1037 22.4107 15.0108 22.1013L19.8 20.6646ZM19.4 20.2645V15.2645C16.9246 15.2645 15.4367 16.905 15.0737 17.3106C14.4824 17.9715 14.0176 18.7257 13.6637 19.3661L18.04 21.7845L22.4162 24.203C22.6223 23.83 22.6642 23.8243 22.5262 23.9785C22.4535 24.0597 22.2137 24.3186 21.7952 24.5836C21.378 24.8479 20.5475 25.2645 19.4 25.2645V20.2645ZM18.04 21.7845L13.6915 19.3165C12.9016 20.7084 12.3016 22.2185 11.8609 23.8116L16.68 25.1446L21.499 26.4775C21.7517 25.5639 22.0583 24.8341 22.3884 24.2526L18.04 21.7845ZM16.68 25.1446L11.8908 23.7078C11.4496 25.1786 11.08 26.7781 11.08 28.2646H16.08H21.08C21.08 28.3089 21.0772 28.1954 21.14 27.8688C21.1999 27.557 21.3036 27.133 21.4691 26.5813L16.68 25.1446ZM16.08 28.2646H11.08C11.08 30.1366 11.713 32.2939 13.599 33.8657L16.8 30.0246L20.0009 26.1834C20.3979 26.5143 20.703 26.94 20.8877 27.3914C21.0612 27.8154 21.08 28.1409 21.08 28.2646H16.08ZM16.8 30.0246L13.7017 33.949C15.5794 35.4313 17.8774 35.6245 19.36 35.6245V30.6245V25.6245C19.0138 25.6245 18.9051 25.5934 18.9609 25.6065C19.0065 25.6171 19.4089 25.7139 19.8982 26.1001L16.8 30.0246ZM19.36 30.6245V35.6245C20.3795 35.6245 21.4843 35.541 22.5524 35.2599L21.28 30.4245L20.0075 25.5892C20.0501 25.578 20.0224 25.5889 19.9019 25.6015C19.7842 25.6137 19.6068 25.6245 19.36 25.6245V30.6245ZM21.28 30.4245L22.5524 35.2599C22.9616 35.1522 24.7203 34.6988 25.8902 32.9972C26.6167 31.9404 26.9416 30.6435 26.7697 29.3373C26.6165 28.1725 26.114 27.3255 25.7636 26.8437L21.72 29.7845L17.6763 32.7254C17.4325 32.3903 16.9918 31.68 16.8552 30.6418C16.7 29.4622 16.9965 28.282 17.6497 27.3319C18.2223 26.4991 18.9045 26.0756 19.2489 25.8928C19.6151 25.6985 19.9029 25.6167 20.0075 25.5892L21.28 30.4245ZM21.72 29.7845L22.4574 24.8392L17.8974 24.1592L17.16 29.1045L16.4225 34.0499L20.9825 34.7299L21.72 29.7845ZM17.16 29.1045L22.0601 30.0988L23.1801 24.5788L18.28 23.5846L13.3798 22.5903L12.2598 28.1103L17.16 29.1045ZM18.28 23.5846L18.1002 28.5813L29.2202 28.9813L29.4 23.9846L29.5797 18.9878L18.4597 18.5878L18.28 23.5846ZM29.4 23.9846L24.4052 24.2129L24.7252 31.2129L29.72 30.9846L34.7147 30.7562L34.3947 23.7562L29.4 23.9846Z" fill="white" mask="url(#path-4-outside-1_261_1975)"/>
<defs>
<linearGradient id="paint0_linear_261_1975" x1="57.769" y1="24.7489" x2="387.535" y2="24.7489" gradientUnits="userSpaceOnUse">
<stop/>
<stop offset="1" stop-color="#00FF1E"/>
</linearGradient>
</defs>
</svg>
