<svg width="72" height="72" viewBox="0 0 72 72" fill="none" xmlns="http://www.w3.org/2000/svg">
<path d="M16.8071 17.7957C16.9554 17.0365 17.528 16.431 18.2777 16.2406L30.8253 13.0538L41.5686 10.4671C42.2008 10.3149 42.8675 10.4795 43.3562 10.9085L52.8011 19.199L61.0576 28.6052C61.5053 29.1152 61.6639 29.8175 61.4786 30.4704L58.6454 40.4574L55.6399 54.0788C55.5176 54.6334 55.1653 55.1098 54.6709 55.3891L50.121 57.9602C49.9128 58.0779 49.6852 58.1573 49.449 58.1946L30.7773 61.1429C30.2309 61.2292 29.6731 61.0853 29.2366 60.7454L19.9629 53.5242C19.8399 53.4284 19.7285 53.3186 19.631 53.1969L11.3824 42.9036C10.9691 42.3878 10.8373 41.7012 11.0302 41.069L14.4504 29.8636L16.8071 17.7957Z" fill="#F3F3F3"/>
<g filter="url(#filter0_d_261_1996)">
<path d="M16.236 18.2648C16.3933 17.5358 16.9432 16.9549 17.6625 16.7578L29.4831 13.5195L39.539 10.8959C40.1792 10.7288 40.8606 10.8892 41.359 11.3243L49.9713 18.8406L57.4541 27.4145C57.9075 27.934 58.0613 28.6503 57.8612 29.3101L55.0246 38.6619L51.9339 51.4873C51.8058 52.0189 51.4656 52.4749 50.9924 52.7491L46.6822 55.2471C46.4808 55.3639 46.2605 55.4445 46.0313 55.4855L28.5342 58.6136C27.9794 58.7128 27.4085 58.5733 26.962 58.2294L18.5028 51.7152C18.3738 51.6159 18.2575 51.5013 18.1564 51.3738L10.7093 41.989C10.2928 41.4642 10.1668 40.7657 10.3736 40.1284L13.7857 29.616L16.236 18.2648Z" fill="#6E6E6E"/>
</g>
<mask id="path-3-inside-1_261_1996" fill="white">
<path d="M37.2521 20.7156C37.8281 19.9368 39.0643 20.35 39.0561 21.3187L38.9873 29.4478C38.9836 29.881 39.2593 30.2673 39.6702 30.4047L47.3802 32.9821C48.2989 33.2893 48.2879 34.5926 47.3641 34.8842L39.6116 37.3308C39.1984 37.4612 38.9162 37.8427 38.9126 38.2759L38.8438 46.405C38.8356 47.3737 37.5926 47.766 37.0298 46.9775L32.3073 40.3605C32.0557 40.0078 31.6056 39.8574 31.1924 39.9877L23.44 42.4343C22.5161 42.7259 21.759 41.6649 22.335 40.8861L27.1688 34.35C27.4264 34.0016 27.4304 33.5271 27.1788 33.1744L22.4563 26.5574C21.8935 25.7689 22.6685 24.721 23.5873 25.0281L31.2972 27.6056C31.7081 27.7429 32.1607 27.6001 32.4183 27.2518L37.2521 20.7156Z"/>
</mask>
<path d="M37.2521 20.7156C37.8281 19.9368 39.0643 20.35 39.0561 21.3187L38.9873 29.4478C38.9836 29.881 39.2593 30.2673 39.6702 30.4047L47.3802 32.9821C48.2989 33.2893 48.2879 34.5926 47.3641 34.8842L39.6116 37.3308C39.1984 37.4612 38.9162 37.8427 38.9126 38.2759L38.8438 46.405C38.8356 47.3737 37.5926 47.766 37.0298 46.9775L32.3073 40.3605C32.0557 40.0078 31.6056 39.8574 31.1924 39.9877L23.44 42.4343C22.5161 42.7259 21.759 41.6649 22.335 40.8861L27.1688 34.35C27.4264 34.0016 27.4304 33.5271 27.1788 33.1744L22.4563 26.5574C21.8935 25.7689 22.6685 24.721 23.5873 25.0281L31.2972 27.6056C31.7081 27.7429 32.1607 27.6001 32.4183 27.2518L37.2521 20.7156Z" fill="#D9D9D9"/>
<path d="M39.5561 21.323C39.2228 21.3201 38.8894 21.3173 38.5561 21.3145C38.5837 22.9843 38.6086 24.6541 38.6309 26.3238C38.6448 27.3643 38.6577 28.4047 38.6696 29.4451C38.6661 30.0016 39.0551 30.5246 39.5773 30.6827C42.1637 31.4928 44.7479 32.3093 47.3299 33.1324C48.0863 33.3088 48.109 34.5625 47.3264 34.765C44.7525 35.6128 42.1764 36.454 39.5983 37.2887C39.1772 37.4187 38.8722 37.8389 38.8773 38.2756C38.8723 40.9855 38.8605 43.6953 38.8418 46.405C38.8984 47.3249 37.5141 47.7638 37.0298 46.9775C37.0298 46.9775 37.0298 46.9775 37.0298 46.9775C35.4557 44.7718 33.9328 42.5296 32.4403 40.2656C32.1739 39.8536 31.6205 39.6415 31.1285 39.7852C28.5108 40.4945 25.8831 41.172 23.253 41.8419C22.9066 41.9186 22.7475 41.4495 22.9498 41.3407C24.6858 39.2543 26.4218 37.1678 28.1372 35.0662C28.7166 34.3382 28.7564 33.2233 28.2065 32.4409C26.7309 30.1649 25.2313 27.906 23.6869 25.6791C23.8032 25.7955 23.8138 26.1609 23.6922 26.2886C23.611 26.4455 23.2563 26.5526 23.1024 26.4785C23.1024 26.4785 23.1024 26.4785 23.1024 26.4785C25.6724 27.3376 28.2603 28.1432 30.8661 28.8952C31.8135 29.2067 32.9156 28.828 33.4662 28.0268C34.5112 26.4615 35.5344 24.8801 36.5357 23.2826C36.9778 22.5772 37.4156 21.8688 37.8491 21.1572C37.8998 21.0291 37.988 20.9435 38.1749 20.9549C38.3522 20.975 38.5132 21.0802 38.5561 21.3145C38.8894 21.3173 39.2228 21.3201 39.5561 21.323C39.7737 19.9502 37.6289 18.9787 36.6551 20.2741C36.1017 20.8971 35.5525 21.5232 35.0076 22.1524C33.7733 23.5777 32.5609 25.0192 31.3704 26.4768C31.4284 26.3609 31.5777 26.2828 31.7284 26.3159C29.1942 25.3496 26.6421 24.4369 24.0721 23.5777C24.0721 23.5777 24.0721 23.5777 24.0721 23.5777C21.8953 22.7153 19.7612 25.6304 21.2256 27.4357C22.8296 29.6201 24.4783 31.7726 26.151 33.9079C26.1006 33.8059 26.132 33.69 26.2004 33.6338C24.6933 35.8895 23.2068 38.1605 21.7202 40.4314C20.7265 41.7292 22.2544 43.6239 23.6269 43.0267C26.1651 42.0656 28.7057 41.112 31.2564 40.1903C31.5657 40.0692 31.9598 40.1738 32.1744 40.4553C33.8303 42.6027 35.4557 44.7718 37.0298 46.9775C37.0298 46.9775 37.0298 46.9775 37.0298 46.9775C37.5136 47.7632 38.8988 47.3282 38.8457 46.405C38.8729 43.6954 38.907 40.9858 38.9479 38.2762C38.9487 37.869 39.2378 37.4859 39.6249 37.3729C42.2151 36.5765 44.8073 35.7867 47.4017 35.0034C48.4134 34.771 48.4606 33.1207 47.4304 32.8319C44.8725 31.9367 42.3167 31.0349 39.7632 30.1266C39.4813 30.028 39.2899 29.7378 39.305 29.4505C39.3345 28.4104 39.365 27.3704 39.3965 26.3303C39.4471 24.6612 39.5003 22.992 39.5561 21.323ZM38.5561 21.3145L39.5561 21.323L38.5561 21.3145V21.3145Z" fill="#585858" mask="url(#path-3-inside-1_261_1996)"/>
<path d="M41.962 10.4727C32.1136 12.4583 26.5998 13.7568 16.8094 17.2874C14.643 24.6484 10.2375 39.9097 10.1185 40.5815C10.0304 41.0792 13.6075 46.6542 18.0484 51.609C22.4893 56.5639 24.7373 57.7151 30.1911 61.5214L50.5114 58.0521L55.5915 55.0784C58.2638 45.2914 59.5116 39.6581 61.415 29.4301C55.5112 21.3104 51.2931 17.1238 41.962 10.4727Z" stroke="white" stroke-width="2"/>
<defs>
<filter id="filter0_d_261_1996" x="10.2759" y="10.8311" width="50.2714" height="49.4137" filterUnits="userSpaceOnUse" color-interpolation-filters="sRGB">
<feFlood flood-opacity="0" result="BackgroundImageFix"/>
<feColorMatrix in="SourceAlpha" type="matrix" values="0 0 0 0 0 0 0 0 0 0 0 0 0 0 0 0 0 0 127 0" result="hardAlpha"/>
<feOffset dx="2" dy="1"/>
<feGaussianBlur stdDeviation="0.3"/>
<feComposite in2="hardAlpha" operator="out"/>
<feColorMatrix type="matrix" values="0 0 0 0 0 0 0 0 0 0 0 0 0 0 0 0 0 0 0.39 0"/>
<feBlend mode="normal" in2="BackgroundImageFix" result="effect1_dropShadow_261_1996"/>
<feBlend mode="normal" in="SourceGraphic" in2="effect1_dropShadow_261_1996" result="shape"/>
</filter>
</defs>
</svg>
