<svg width="402" height="61" viewBox="0 0 402 61" fill="none" xmlns="http://www.w3.org/2000/svg">
<path d="M50.4441 3.83043H118.716L226.993 0L397.265 3.83043L401.284 26.0455L395.072 44.7219H320.533L172.184 48.3879L53.9371 44.7219L50.4441 3.83043Z" fill="white"/>
<path d="M54.7114 6.69441H121.386L227.13 3.44067L393.418 6.69441L397.343 25.5649L391.277 41.4293H318.481L173.603 44.5435L58.1227 41.4293L54.7114 6.69441Z" fill="black"/>
<rect x="58.4224" y="13.3635" width="329.766" height="21.7342" fill="#D9D9D9"/>
<rect x="58.4224" y="13.3635" width="329.766" height="21.7342" fill="url(#paint0_linear_261_1985)"/>
<mask id="path-4-outside-1_261_1985" maskUnits="userSpaceOnUse" x="-0.146729" y="2" width="40" height="43" fill="black">
<rect fill="white" x="-0.146729" y="2" width="40" height="43"/>
<path d="M34.7258 27.76C34.7258 30.3467 33.8191 32.3867 32.0058 33.88C30.2191 35.3733 27.3391 36.4533 23.3658 37.12L23.6058 39L11.6458 38.84L11.6858 37.96C10.9658 37.9867 9.83244 38 8.28577 38L7.08577 24.96H12.0458L12.2058 19.16L10.0858 19.24L6.96577 10H12.3658H12.4858L12.5258 8.4L19.3658 7.92L19.6858 10.2C22.8591 10.3867 25.4058 10.7067 27.3258 11.16C29.2458 11.6133 30.6724 12.2933 31.6058 13.2C32.5391 14.08 33.0058 15.2533 33.0058 16.72C33.0058 18.7467 31.6724 20.3333 29.0058 21.48C30.9258 22.0133 32.3524 22.8 33.2858 23.84C34.2458 24.8533 34.7258 26.16 34.7258 27.76ZM20.8458 18.84L21.0458 20.32C22.3524 20.24 23.2458 20.1333 23.7258 20C24.2058 19.84 24.4458 19.6133 24.4458 19.32C24.4458 19.1067 24.2991 18.96 24.0058 18.88C23.7124 18.8 23.1524 18.7733 22.3258 18.8L20.8458 18.84ZM21.6858 24.92C22.9124 24.8667 23.8191 24.76 24.4058 24.6C24.9924 24.4133 25.2591 24.1467 25.2058 23.8C25.1524 23.4267 24.5391 23.24 23.3658 23.24C22.8858 23.24 22.2591 23.28 21.4858 23.36L21.6858 24.92Z"/>
</mask>
<path d="M34.7258 27.76C34.7258 30.3467 33.8191 32.3867 32.0058 33.88C30.2191 35.3733 27.3391 36.4533 23.3658 37.12L23.6058 39L11.6458 38.84L11.6858 37.96C10.9658 37.9867 9.83244 38 8.28577 38L7.08577 24.96H12.0458L12.2058 19.16L10.0858 19.24L6.96577 10H12.3658H12.4858L12.5258 8.4L19.3658 7.92L19.6858 10.2C22.8591 10.3867 25.4058 10.7067 27.3258 11.16C29.2458 11.6133 30.6724 12.2933 31.6058 13.2C32.5391 14.08 33.0058 15.2533 33.0058 16.72C33.0058 18.7467 31.6724 20.3333 29.0058 21.48C30.9258 22.0133 32.3524 22.8 33.2858 23.84C34.2458 24.8533 34.7258 26.16 34.7258 27.76ZM20.8458 18.84L21.0458 20.32C22.3524 20.24 23.2458 20.1333 23.7258 20C24.2058 19.84 24.4458 19.6133 24.4458 19.32C24.4458 19.1067 24.2991 18.96 24.0058 18.88C23.7124 18.8 23.1524 18.7733 22.3258 18.8L20.8458 18.84ZM21.6858 24.92C22.9124 24.8667 23.8191 24.76 24.4058 24.6C24.9924 24.4133 25.2591 24.1467 25.2058 23.8C25.1524 23.4267 24.5391 23.24 23.3658 23.24C22.8858 23.24 22.2591 23.28 21.4858 23.36L21.6858 24.92Z" fill="black"/>
<path d="M32.0058 33.88L28.8272 30.0203L28.8132 30.0319L28.7992 30.0436L32.0058 33.88ZM23.3658 37.12L22.5384 32.1889L17.7972 32.9844L18.406 37.7532L23.3658 37.12ZM23.6058 39L23.5389 43.9996L29.2944 44.0765L28.5655 38.3668L23.6058 39ZM11.6458 38.84L6.65093 38.613L6.4165 43.7705L11.5789 43.8396L11.6458 38.84ZM11.6858 37.96L16.6806 38.187L16.9272 32.7624L11.5007 32.9634L11.6858 37.96ZM8.28577 38L3.30681 38.4582L3.72477 43H8.28577V38ZM7.08577 24.96V19.96H1.60452L2.10681 25.4182L7.08577 24.96ZM12.0458 24.96V29.96H16.9097L17.0439 25.0979L12.0458 24.96ZM12.2058 19.16L17.2039 19.2979L17.3511 13.9623L12.0172 14.1636L12.2058 19.16ZM10.0858 19.24L5.34854 20.8396L6.54308 24.3772L10.2743 24.2364L10.0858 19.24ZM6.96577 10V5H0.000112534L2.22854 11.5996L6.96577 10ZM12.4858 10V15H17.3623L17.4842 10.125L12.4858 10ZM12.5258 8.4L12.1758 3.41227L7.64095 3.7305L7.52733 8.27504L12.5258 8.4ZM19.3658 7.92L24.3172 7.22505L23.6689 2.60573L19.0158 2.93227L19.3658 7.92ZM19.6858 10.2L14.7343 10.8949L15.3036 14.9509L19.3922 15.1914L19.6858 10.2ZM27.3258 11.16L26.1768 16.0262H26.1768L27.3258 11.16ZM31.6058 13.2L28.1218 16.7864L28.1486 16.8124L28.1757 16.8379L31.6058 13.2ZM29.0058 21.48L27.0306 16.8867L13.9842 22.4966L27.6676 26.2976L29.0058 21.48ZM33.2858 23.84L29.5646 27.1796L29.6096 27.2298L29.656 27.2787L33.2858 23.84ZM20.8458 18.84L20.7107 13.8418L15.1452 13.9922L15.8908 19.5096L20.8458 18.84ZM21.0458 20.32L16.0908 20.9896L16.7131 25.5946L21.3513 25.3107L21.0458 20.32ZM23.7258 20L25.064 24.8176L25.1864 24.7836L25.3069 24.7434L23.7258 20ZM24.0058 18.88L22.6902 23.7038L22.6902 23.7038L24.0058 18.88ZM22.3258 18.8L22.4609 23.7982L22.4739 23.7978L22.487 23.7974L22.3258 18.8ZM21.6858 24.92L16.7264 25.5558L17.3109 30.1149L21.903 29.9153L21.6858 24.92ZM24.4058 24.6L25.7214 29.4238L25.8222 29.3963L25.9218 29.3646L24.4058 24.6ZM25.2058 23.8L20.256 24.5071L20.2598 24.5337L20.2639 24.5603L25.2058 23.8ZM21.4858 23.36L20.9713 18.3865L15.8748 18.9138L16.5264 23.9958L21.4858 23.36ZM34.7258 27.76H29.7258C29.7258 29.024 29.3611 29.5807 28.8272 30.0203L32.0058 33.88L35.1843 37.7397C38.2771 35.1927 39.7258 31.6693 39.7258 27.76H34.7258ZM32.0058 33.88L28.7992 30.0436C28.0267 30.6893 26.1945 31.5755 22.5384 32.1889L23.3658 37.12L24.1931 42.0511C28.4837 41.3312 32.4115 40.0574 35.2123 37.7164L32.0058 33.88ZM23.3658 37.12L18.406 37.7532L18.646 39.6332L23.6058 39L28.5655 38.3668L28.3255 36.4868L23.3658 37.12ZM23.6058 39L23.6727 34.0004L11.7127 33.8404L11.6458 38.84L11.5789 43.8396L23.5389 43.9996L23.6058 39ZM11.6458 38.84L16.6406 39.067L16.6806 38.187L11.6858 37.96L6.69093 37.733L6.65093 38.613L11.6458 38.84ZM11.6858 37.96L11.5007 32.9634C10.8791 32.9864 9.82391 33 8.28577 33V38V43C9.84097 43 11.0524 42.9869 11.8708 42.9566L11.6858 37.96ZM8.28577 38L13.2647 37.5418L12.0647 24.5018L7.08577 24.96L2.10681 25.4182L3.30681 38.4582L8.28577 38ZM7.08577 24.96V29.96H12.0458V24.96V19.96H7.08577V24.96ZM12.0458 24.96L17.0439 25.0979L17.2039 19.2979L12.2058 19.16L7.20767 19.0221L7.04767 24.8221L12.0458 24.96ZM12.2058 19.16L12.0172 14.1636L9.89723 14.2436L10.0858 19.24L10.2743 24.2364L12.3943 24.1564L12.2058 19.16ZM10.0858 19.24L14.823 17.6404L11.703 8.40042L6.96577 10L2.22854 11.5996L5.34854 20.8396L10.0858 19.24ZM6.96577 10V15H12.3658V10V5H6.96577V10ZM12.3658 10V15H12.4858V10V5H12.3658V10ZM12.4858 10L17.4842 10.125L17.5242 8.52496L12.5258 8.4L7.52733 8.27504L7.48733 9.87504L12.4858 10ZM12.5258 8.4L12.8758 13.3877L19.7158 12.9077L19.3658 7.92L19.0158 2.93227L12.1758 3.41227L12.5258 8.4ZM19.3658 7.92L14.4143 8.61494L14.7343 10.8949L19.6858 10.2L24.6372 9.50505L24.3172 7.22505L19.3658 7.92ZM19.6858 10.2L19.3922 15.1914C22.4288 15.37 24.6546 15.6668 26.1768 16.0262L27.3258 11.16L28.4747 6.2938C26.157 5.74655 23.2894 5.40333 19.9794 5.20863L19.6858 10.2ZM27.3258 11.16L26.1768 16.0262C27.637 16.371 28.0887 16.7542 28.1218 16.7864L31.6058 13.2L35.0897 9.6136C33.2561 7.83242 30.8546 6.85571 28.4747 6.2938L27.3258 11.16ZM31.6058 13.2L28.1757 16.8379C28.1549 16.8183 28.122 16.7828 28.0871 16.7317C28.0522 16.6804 28.0264 16.6298 28.0098 16.5878C27.9747 16.4996 28.0058 16.5187 28.0058 16.72H33.0058H38.0058C38.0058 14.0927 37.1185 11.5257 35.0358 9.56205L31.6058 13.2ZM33.0058 16.72H28.0058C28.0058 16.6672 28.0166 16.5577 28.0649 16.4266C28.1128 16.297 28.1684 16.2246 28.1779 16.2133C28.1816 16.2089 28.1209 16.2821 27.9348 16.4093C27.7473 16.5374 27.4573 16.7032 27.0306 16.8867L29.0058 21.48L30.9809 26.0733C34.5551 24.5364 38.0058 21.5903 38.0058 16.72H33.0058ZM29.0058 21.48L27.6676 26.2976C29.0414 26.6792 29.4851 27.091 29.5646 27.1796L33.2858 23.84L37.007 20.5005C35.2198 18.509 32.8101 17.3474 30.344 16.6624L29.0058 21.48ZM33.2858 23.84L29.656 27.2787C29.6685 27.2919 29.67 27.2957 29.6676 27.2918C29.6651 27.2879 29.6671 27.2897 29.6724 27.3041C29.6817 27.3294 29.7258 27.4616 29.7258 27.76H34.7258H39.7258C39.7258 25.0821 38.8848 22.4799 36.9155 20.4013L33.2858 23.84ZM20.8458 18.84L15.8908 19.5096L16.0908 20.9896L21.0458 20.32L26.0007 19.6504L25.8007 18.1704L20.8458 18.84ZM21.0458 20.32L21.3513 25.3107C22.6208 25.2329 24.0103 25.1103 25.064 24.8176L23.7258 20L22.3876 15.1824C22.5127 15.1477 22.4639 15.1722 22.103 15.2153C21.7839 15.2534 21.3365 15.2928 20.7402 15.3293L21.0458 20.32ZM23.7258 20L25.3069 24.7434C26.167 24.4567 29.4458 23.109 29.4458 19.32H24.4458H19.4458C19.4458 17.9119 20.0907 16.7757 20.8327 16.0749C21.4482 15.4936 22.0264 15.296 22.1446 15.2566L23.7258 20ZM24.4458 19.32H29.4458C29.4458 17.9296 28.9118 16.555 27.8713 15.5145C26.9614 14.6045 25.9426 14.2256 25.3214 14.0562L24.0058 18.88L22.6902 23.7038C22.3623 23.6144 21.5635 23.3488 20.8002 22.5855C19.9064 21.6917 19.4458 20.4971 19.4458 19.32H24.4458ZM24.0058 18.88L25.3214 14.0562C24.2002 13.7504 22.9141 13.7784 22.1646 13.8026L22.3258 18.8L22.487 23.7974C22.6498 23.7921 22.7852 23.79 22.8958 23.79C23.0075 23.79 23.0831 23.7922 23.1279 23.7943C23.1761 23.7966 23.1672 23.7978 23.1156 23.7914C23.088 23.7879 23.039 23.7812 22.9728 23.7689C22.908 23.7569 22.8109 23.7367 22.6902 23.7038L24.0058 18.88ZM22.3258 18.8L22.1907 13.8018L20.7107 13.8418L20.8458 18.84L20.9809 23.8382L22.4609 23.7982L22.3258 18.8ZM21.6858 24.92L21.903 29.9153C23.2054 29.8587 24.5731 29.737 25.7214 29.4238L24.4058 24.6L23.0902 19.7762C23.1237 19.767 23.0173 19.7971 22.7016 19.8342C22.4034 19.8693 21.998 19.9017 21.4686 19.9247L21.6858 24.92ZM24.4058 24.6L25.9218 29.3646C26.5495 29.1649 27.6336 28.7433 28.5813 27.7955C29.7421 26.6348 30.437 24.9204 30.1476 23.0397L25.2058 23.8L20.2639 24.5603C20.1633 23.9065 20.2005 23.1578 20.4633 22.4024C20.7215 21.6601 21.1294 21.1053 21.5102 20.7245C22.1913 20.0434 22.8487 19.8484 22.8898 19.8354L24.4058 24.6ZM25.2058 23.8L30.1555 23.0929C29.6958 19.875 26.9364 18.8325 26.1616 18.5966C25.143 18.2866 24.1087 18.24 23.3658 18.24V23.24V28.24C23.7961 28.24 23.6552 28.2867 23.25 28.1634C23.0366 28.0984 22.4618 27.9018 21.8448 27.3835C21.1407 26.7921 20.4434 25.8187 20.256 24.5071L25.2058 23.8ZM23.3658 23.24V18.24C22.6421 18.24 21.8249 18.2982 20.9713 18.3865L21.4858 23.36L22.0003 28.3335C22.6933 28.2618 23.1294 28.24 23.3658 28.24V23.24ZM21.4858 23.36L16.5264 23.9958L16.7264 25.5558L21.6858 24.92L26.6452 24.2842L26.4452 22.7242L21.4858 23.36Z" fill="white" mask="url(#path-4-outside-1_261_1985)"/>
<defs>
<linearGradient id="paint0_linear_261_1985" x1="58.4224" y1="24.2306" x2="388.188" y2="24.2306" gradientUnits="userSpaceOnUse">
<stop/>
<stop offset="1" stop-color="#0015FF"/>
</linearGradient>
</defs>
</svg>
